<?xml version="1.0" encoding="UTF-8" standalone="no"?>
<!-- Created with Inkscape (http://www.inkscape.org/) -->

<svg
   version="1.1"
   id="svg2"
   width="1066.6667"
   height="1066.6667"
   viewBox="0 0 1066.6667 1066.6667"
   sodipodi:docname="handwritten-character-recognition.svg"
   inkscape:version="1.2.2 (b0a8486541, 2022-12-01)"
   xmlns:inkscape="http://www.inkscape.org/namespaces/inkscape"
   xmlns:sodipodi="http://sodipodi.sourceforge.net/DTD/sodipodi-0.dtd"
   xmlns="http://www.w3.org/2000/svg"
   xmlns:svg="http://www.w3.org/2000/svg">
  <defs
     id="defs6" />
  <sodipodi:namedview
     id="namedview4"
     pagecolor="#ffffff"
     bordercolor="#000000"
     borderopacity="0.25"
     inkscape:showpageshadow="2"
     inkscape:pageopacity="0.0"
     inkscape:pagecheckerboard="0"
     inkscape:deskcolor="#d1d1d1"
     showgrid="false"
     inkscape:zoom="0.48749994"
     inkscape:cx="525.12827"
     inkscape:cy="403.07697"
     inkscape:window-width="1366"
     inkscape:window-height="699"
     inkscape:window-x="0"
     inkscape:window-y="32"
     inkscape:window-maximized="1"
     inkscape:current-layer="g12">
    <inkscape:page
       x="0"
       y="0"
       id="page8"
       width="1066.6667"
       height="1066.6667" />
  </sodipodi:namedview>
  <g
     id="g10"
     inkscape:groupmode="layer"
     inkscape:label="Page 1"
     transform="matrix(1.3333333,0,0,-1.3333333,0,1066.6667)">
    <g
       id="g12"
       transform="scale(0.1)">
      <path
         d="m -451.88686,90.2648 v 8086.481 H 8202.8561 V 90.2648 H -451.88686"
         style="fill:#f4f3f2;fill-opacity:1;fill-rule:nonzero;stroke:none;stroke-width:1.063"
         id="path14" />
      <path
         d="m 6892.19,2900.8 c 1.06,-47.15 8.74,-100.28 -4.7,-146.14 -5.33,-17.71 -30.93,-17.71 -36.05,0 -13.44,45.44 -6.4,99.2 -4.91,146.14 1.92,56.11 5.12,111.36 10.45,167.26 1.71,15.79 23.26,15.79 24.75,0 5.55,-55.9 9.39,-111.15 10.46,-167.26"
         style="fill:#171717;fill-opacity:1;fill-rule:nonzero;stroke:none"
         id="path82" />
      <path
         d="m 6802.58,6519.78 c 59.74,-21.98 69.98,-100.06 58.03,-159.37 -5.97,-29.23 -15.79,-66.78 -42.67,-84.06 -20.48,-13.23 -52.05,-12.59 -63.58,11.74 -5.76,11.94 3.42,23.04 16.01,20.9 18.98,-2.98 28.58,-11.3 40.32,10.24 10.66,19.42 17.07,41.61 17.92,63.79 1.49,36.7 -2.99,99.42 -49.92,105.4 -11.1,1.28 -22.19,10.88 -17.71,23.46 4.48,13.02 10.03,28.38 14.29,43.31 -7.89,-1.28 -15.79,-3.2 -23.47,-5.97 -15.78,-4.69 -21.12,18.13 -6.61,24.11 15.79,6.4 30.72,12.16 47.15,16.43 8.11,1.92 19.63,-2.56 20.91,-11.95 2.56,-18.35 -4.06,-39.04 -10.67,-58.03"
         style="fill:#171717;fill-opacity:1;fill-rule:nonzero;stroke:none"
         id="path84" />
      <path
         d="m 6780.39,2923.84 c 6.83,-4.91 9.39,-12.8 5.34,-20.7 -8.32,-15.14 -25.39,-14.5 -40.97,-14.93 -14.93,-0.43 -29.65,0.43 -44.59,1.28 -19.84,1.07 -19.84,29.44 0,30.72 15.15,0.85 30.51,1.28 45.45,4.27 12.58,2.35 23.25,7.47 34.77,-0.64"
         style="fill:#171717;fill-opacity:1;fill-rule:nonzero;stroke:none"
         id="path86" />
      <path
         d="m 6704.87,5763.68 c 33.49,-56.32 46.93,74.03 46.08,93.02 -2.56,46.72 -7.68,101.98 -32.21,143.8 -28.38,-17.29 -32.43,-83.85 -33.29,-108.6 -1.28,-39.89 -1.92,-92.59 19.42,-128.22 z m 41.6,263.06 c 42.03,-62.94 53.12,-173.45 35.84,-245.78 -8.96,-38.19 -54.4,-100.7 -96.22,-54.19 -48.64,54.19 -66.56,265.83 25.39,289.94 -0.85,15.79 23.68,26.67 34.99,10.03"
         style="fill:#171717;fill-opacity:1;fill-rule:nonzero;stroke:none"
         id="path88" />
      <path
         d="m 6747.32,2981.01 c 29.45,12.38 40.97,-32.85 9.82,-36.26 -18.99,-2.14 -37.98,-1.28 -56.97,0.21 -18.34,1.28 -18.34,27.09 0,28.37 15.58,1.28 32.65,1.5 47.15,7.68"
         style="fill:#171717;fill-opacity:1;fill-rule:nonzero;stroke:none"
         id="path90" />
      <path
         d="m 6205.2746,4331.8955 c 52.48,-23.47 46.51,108.38 43.95,130.35 -4.69,43.53 -13.01,91.74 -33.28,131.64 -15.79,-33.71 -21.34,-76.59 -26.03,-111.37 -4.05,-28.8 -21.12,-134.41 15.36,-150.62 z m 34.99,297.19 c 55.26,-58.46 112.86,-383.6 -41.17,-345.83 -69.98,17.06 -63.58,114.99 -57.4,169.39 5.98,52.06 17.71,141.02 66.99,172.6 0.64,0.43 1.28,0.64 2.14,0.85 6.61,8.96 20.05,12.8 29.44,2.99"
         style="fill:#171717;fill-opacity:1;fill-rule:nonzero;stroke:none"
         id="path92" />
      <path
         d="m 6629.34,6511.88 c 68.49,-2.56 89.4,-80.64 78.94,-141.23 -7.04,-40.75 -53.76,-132.7 -103.26,-73.82 -11.31,13.44 2.56,30.72 18.14,23.47 39.68,-17.92 51.63,39.9 52.91,70.62 1.49,42.03 -8.11,91.74 -60.59,87.04 -7.04,-0.64 -14.51,5.55 -16,12.38 -6.41,27.09 -6.41,54.4 0.42,81.28 1.71,7.04 8.54,11.95 15.58,11.95 20.05,0 38.83,2.35 57.39,-5.33 10.88,-4.48 10.88,-23.05 -2.99,-22.19 -13.44,0.85 -26.88,-1.28 -40.32,-3.2 -2.14,-13.66 -2.35,-27.31 -0.22,-40.97"
         style="fill:#171717;fill-opacity:1;fill-rule:nonzero;stroke:none"
         id="path94" />
      <path
         d="m 6659.21,2852.37 c 12.8,-14.3 31.36,-29.44 30.3,-50.35 -0.43,-9.39 -8.11,-14.51 -17.07,-13.02 -20.27,3.63 -31.15,25.61 -42.24,41.18 -6.4,8.75 -13.02,17.49 -19.63,26.45 -0.64,-1.7 -1.07,-3.41 -1.71,-4.9 4.27,-25.18 8.11,-50.78 3.84,-72.11 -2.56,-12.16 -18.35,-14.3 -26.45,-6.83 -27.95,25.81 -21.76,97.07 -21.34,131.21 0.86,53.33 2.78,108.8 17.07,160.43 2.99,10.67 19.2,8.54 19.2,-2.56 -0.42,-42.03 -1.7,-84.06 -0.85,-126.08 10.88,43.73 22.4,87.47 34.35,130.78 5.97,22.18 39.68,13.01 34.35,-9.39 -13.02,-55.04 -29.66,-109.23 -46.73,-163.21 13.02,-13.23 24.75,-27.95 36.91,-41.6"
         style="fill:#171717;fill-opacity:1;fill-rule:nonzero;stroke:none"
         id="path96" />
      <path
         d="m 6632.33,5889.13 c 5.76,-6.83 5.76,-14.94 0,-21.55 -10.24,-12.16 -25.6,-6.19 -39.47,-5.76 -10.67,0.43 -21.12,0.85 -31.57,1.07 -19.84,0.64 -19.84,30.08 0,30.72 11.73,0.43 23.46,0.85 35.41,1.28 13.02,0.43 25.82,5.76 35.63,-5.76"
         style="fill:#171717;fill-opacity:1;fill-rule:nonzero;stroke:none"
         id="path98" />
      <path
         d="m 6617.4,5849.45 c 7.89,-3.42 9.38,-14.72 5.54,-21.34 -7.68,-13.23 -25.6,-13.87 -39.68,-15.36 -12.8,-1.28 -25.6,-0.85 -37.97,3.41 -17.29,6.19 -10.46,31.58 7.68,27.53 11.09,-2.56 22.82,-0.22 33.7,3.2 11.74,3.62 18.57,7.68 30.73,2.56"
         style="fill:#171717;fill-opacity:1;fill-rule:nonzero;stroke:none"
         id="path100" />
      <path
         d="m 6091.5646,4491.4755 c 14.93,-6.19 14.93,-24.11 0,-30.29 -17.07,-7.04 -40.75,-0.22 -58.46,1.7 -17.49,1.71 -17.49,24.96 0,26.88 17.71,1.92 41.39,8.75 58.46,1.71"
         style="fill:#171717;fill-opacity:1;fill-rule:nonzero;stroke:none"
         id="path102" />
      <path
         d="m 6085.3746,4454.7855 c 11.52,-1.71 14.51,-18.57 6.83,-25.39 -17.92,-16.22 -53.98,-8.96 -74.46,-0.64 -13.87,5.54 -8.75,25.81 6.4,22.61 9.82,-2.13 20.91,-2.77 30.94,-0.85 10.66,1.92 19.41,5.76 30.29,4.27"
         style="fill:#171717;fill-opacity:1;fill-rule:nonzero;stroke:none"
         id="path104" />
      <path
         d="m 6514.78,6029.3 c 6.18,9.17 22.4,6.61 21.97,-5.98 -1.28,-43.73 -22.19,-88.75 -34.77,-130.35 -6.62,-21.98 -13.02,-44.16 -19.42,-66.35 5.98,-9.6 11.95,-19.2 17.5,-29.02 7.25,-12.58 21.54,-28.16 18.56,-43.31 -1.28,-6.82 -8.96,-10.02 -15.15,-8.53 -15.15,3.63 -20.91,25.6 -26.67,38.19 -1.49,2.99 -2.99,5.76 -4.27,8.75 -5.12,-17.28 -10.45,-34.57 -15.36,-52.06 -5.76,-20.27 -32.21,-14.08 -34.34,4.69 -11.31,94.3 -7.26,189.88 2.34,284.18 1.28,11.52 17.07,11.52 18.14,0 5.54,-59.95 5.54,-120.11 7.68,-180.28 0.64,0.86 1.49,1.5 2.56,2.14 4.9,17.06 9.81,33.92 14.93,50.99 12.8,41.17 21.34,91.31 46.3,126.94"
         style="fill:#171717;fill-opacity:1;fill-rule:nonzero;stroke:none"
         id="path106" />
      <path
         d="m 6529.5,6444.68 c 16,-3.63 16,-29.01 0,-32.64 -12.59,-2.77 -25.18,0.43 -37.76,1.49 -11.1,0.86 -22.19,1.5 -33.29,2.35 -16,1.28 -16,23.68 0,24.75 12.59,1.06 25.18,1.7 37.77,2.77 11.3,1.07 21.97,3.63 33.28,1.28"
         style="fill:#171717;fill-opacity:1;fill-rule:nonzero;stroke:none"
         id="path108" />
      <path
         d="m 6518.83,6405.85 c 12.59,0.64 17.71,-15.15 9.82,-23.68 -20.27,-21.55 -66.14,-14.93 -91.53,-7.89 -15.36,4.26 -8.75,26.24 6.4,23.47 13.65,-2.57 28.8,-3.63 42.46,-0.64 11.3,2.56 21.33,8.32 32.85,8.74"
         style="fill:#171717;fill-opacity:1;fill-rule:nonzero;stroke:none"
         id="path110" />
      <path
         d="m 5982.3246,4629.9355 c 8.33,17.71 35.42,4.91 30.73,-13.01 -18.99,-72.75 -41.39,-145.29 -64.22,-217.4 7.25,-8.96 14.72,-17.92 22.4,-26.46 8.11,-8.96 33.07,-29.44 13.87,-40.53 -17.5,-10.24 -29.44,16.43 -36.06,27.73 -2.77,4.7 -5.54,9.39 -8.1,14.08 -5.34,-16 -10.46,-32.21 -15.58,-48.43 -6.83,-21.33 -39.04,-17.7 -39.25,5.34 -0.64,96.43 0.85,194.14 11.3,290.15 1.07,11.31 16.43,11.31 17.5,0 5.54,-51.42 8.53,-103.26 10.03,-155.32 15.78,56.11 32.42,111.8 57.38,163.85"
         style="fill:#171717;fill-opacity:1;fill-rule:nonzero;stroke:none"
         id="path112" />
      <path
         d="m 6489.18,3080.01 c 3.84,-63.58 -4.27,-128.65 -16.43,-190.95 -6.83,-35.2 -13.02,-105.6 -48.22,-125.44 -11.09,-6.4 -24.53,1.7 -24.96,14.29 -1.28,41.6 28.38,95.58 37.12,137.39 11.74,54.41 22.19,109.24 27.31,164.71 1.49,16 24.11,16.42 25.18,0"
         style="fill:#171717;fill-opacity:1;fill-rule:nonzero;stroke:none"
         id="path114" />
      <path
         d="m 6411.09,6579.3 c 1.49,-37.12 -12.16,-76.59 -21.55,-112.43 -7.04,-27.95 -14.72,-55.68 -22.4,-83.63 4.91,-8.75 10.03,-17.28 16,-25.18 3.84,-5.12 7.47,-10.66 12.16,-15.14 4.06,-4.06 7.47,-6.83 9.39,-12.59 2.77,-9.18 -4.91,-18.56 -14.08,-18.56 -15.15,0 -23.89,17.92 -29.44,29.65 -1.28,2.78 -2.13,5.55 -3.2,8.32 -1.5,-4.26 -4.7,-6.82 -8.54,-7.89 -0.21,-15.15 -1.7,-30.08 -5.76,-43.74 -3.41,-11.09 -21.97,-13.01 -24.32,0 -14.93,86.19 -16.85,192.01 5.34,277.14 1.92,7.68 14.72,6.19 13.86,-1.92 -5.12,-49.5 -0.21,-99.63 4.48,-148.92 0.43,-4.05 0.86,-7.89 1.28,-11.94 4.7,20.9 9.82,41.81 14.73,62.93 8.32,35.2 12.58,74.03 26.24,107.53 5.54,13.23 25.17,12.16 25.81,-3.63"
         style="fill:#171717;fill-opacity:1;fill-rule:nonzero;stroke:none"
         id="path116" />
      <path
         d="m 6343.46,6052.55 c 7.89,23.04 45.02,12.8 36.48,-10.03 -35.41,-96.64 -52.91,-198.83 -92.59,-293.99 -5.12,-11.94 -24.32,-7.68 -20.27,5.76 29.23,98.36 42.67,201.19 76.38,298.26"
         style="fill:#171717;fill-opacity:1;fill-rule:nonzero;stroke:none"
         id="path118" />
      <path
         d="m 5810.1646,4631.8555 c 2.13,-41.81 -18.35,-82.78 -28.17,-122.46 -10.02,-41.39 -20.05,-82.78 -29.65,-124.38 -4.06,-17.71 -3.2,-43.73 -20.27,-53.97 -5.97,-3.63 -12.37,-1.92 -17.28,2.13 -16.85,13.65 -5.12,45.23 -0.85,62.51 10.24,41.39 21.97,82.14 33.07,123.31 10.45,39.26 24.53,81.71 40.74,119.05 5.12,11.73 21.98,4.69 22.41,-6.19"
         style="fill:#171717;fill-opacity:1;fill-rule:nonzero;stroke:none"
         id="path120" />
      <path
         d="m 6295.67,3074.03 c 10.88,-108.16 -8.32,-217.82 -9.17,-326.42 0,-28.16 -40.97,-27.3 -43.1,0 -2.35,30.3 -2.13,60.38 -1.07,90.68 -1.49,-0.22 -2.98,-0.43 -4.48,-0.64 -3.41,-0.22 -7.89,1.92 -10.24,4.9 -0.42,0.64 -0.85,1.07 -1.06,1.71 0,0 -0.22,0 -0.22,0.21 -1.7,2.78 -2.56,5.98 -1.7,9.18 0.64,3.84 3.41,7.68 6.61,9.17 3.84,1.71 8.11,4.48 12.59,6.83 3.62,61.66 11.09,123.53 13.87,185.18 -15.15,-0.85 -32.43,-2.98 -44.59,-7.89 -10.46,-4.05 -14.94,11.31 -7.04,16.85 22.18,15.79 37.97,23.26 66.13,27.95 12.59,2.13 22.19,-4.91 23.47,-17.71"
         style="fill:#171717;fill-opacity:1;fill-rule:nonzero;stroke:none"
         id="path122" />
      <path
         d="m 6239.77,6625.38 c 3.85,17.5 29.23,9.82 26.46,-7.25 -16.85,-104.54 -52.7,-204.38 -74.46,-307.86 -2.77,-13.01 -24.11,-10.02 -23.25,3.2 7.25,107.32 48,207.8 71.25,311.91"
         style="fill:#171717;fill-opacity:1;fill-rule:nonzero;stroke:none"
         id="path124" />
      <path
         d="m 6178.97,5770.72 c 1.71,-16 8.32,-34.99 -0.85,-49.28 -3.42,-5.55 -9.82,-6.83 -15.58,-4.05 -34.35,16.21 -27.94,107.95 -28.8,138.88 -1.28,47.37 -0.64,93.24 10.24,138.68 1.5,5.97 10.88,5.97 12.38,0 10.88,-45.44 13.01,-91.53 16,-138.68 1.7,-28.58 3.84,-57.17 6.61,-85.55"
         style="fill:#171717;fill-opacity:1;fill-rule:nonzero;stroke:none"
         id="path126" />
      <path
         d="m 6139.5,2905.49 c 5.98,-3.63 8.11,-10.03 6.83,-16.64 -1.28,-7.04 -5.33,-10.88 -10.24,-13.23 5.33,-1.49 9.39,-5.33 9.81,-13.23 1.71,-30.08 -54.4,-32.21 -74.24,-30.72 -16.43,1.28 -16,23.47 0,25.18 16,1.7 28.16,7.04 41.81,14.93 0.43,0.22 0.86,0.43 1.07,0.43 -0.21,0 -0.64,0 -1.07,0 -11.94,-0.43 -23.89,0.21 -35.84,0.85 -17.28,1.07 -17.28,26.03 0,27.1 10.03,0.64 22.19,-0.22 31.79,2.98 10.03,3.63 19.84,8.54 30.08,2.35"
         style="fill:#171717;fill-opacity:1;fill-rule:nonzero;stroke:none"
         id="path128" />
      <path
         d="m 5629.8846,4615.2155 c 1.28,-59.31 -1.71,-118.62 -4.27,-177.93 -1.71,-36.69 4.91,-81.71 -11.31,-115.63 -5.76,-12.16 -27.09,-12.59 -32.64,0 -17.71,38.83 -4.27,92.16 -1.28,133.55 3.63,48.01 6.83,96.01 8.96,144.01 -11.09,1.28 -21.97,0.64 -33.71,-0.43 -10.88,-0.85 -13.86,14.51 -5.33,19.63 17.49,10.24 35.2,9.82 54.4,16 12.59,4.27 24.96,-6.61 25.18,-19.2"
         style="fill:#171717;fill-opacity:1;fill-rule:nonzero;stroke:none"
         id="path130" />
      <path
         d="m 6043.71,5965.51 c 67.63,5.54 78.72,-89.18 70.83,-143.37 -5.76,-41.39 -54.19,-171.32 -116.7,-108.38 -14.29,14.51 0.64,34.77 18.35,31.79 46.93,-7.9 59.74,50.35 63.15,90.46 2.56,31.36 5.33,107.1 -45.23,91.73 -9.6,-2.77 -18.99,3.42 -21.76,12.38 -19.2,60.8 10.24,101.34 74.24,81.71 11.52,-3.63 9.6,-21.55 -2.77,-21.33 -26.24,0.21 -40.96,-12.81 -40.11,-34.99"
         style="fill:#171717;fill-opacity:1;fill-rule:nonzero;stroke:none"
         id="path132" />
      <path
         d="m 6075.5,6323.93 c 6.61,27.95 -6.19,25.17 -27.74,15.15 -3.84,-1.71 -7.68,-1.5 -10.88,0 7.47,-18.99 30.72,-48.43 38.62,-15.15 z m -8.96,242.57 c 5.97,5.76 15.36,-1.49 11.31,-8.96 -15.15,-29.01 -24.33,-64.43 -31.37,-96.43 -6.82,-31.15 -18.13,-69.34 -14.08,-103.05 0,0.22 0.22,0.22 0.22,0.43 84.48,80.22 100.48,-94.3 30.29,-85.55 -120.75,15.15 -48.64,243.43 3.63,293.56"
         style="fill:#171717;fill-opacity:1;fill-rule:nonzero;stroke:none"
         id="path134" />
      <path
         d="m 6025.79,3052.27 c 23.89,-18.35 22.83,-63.36 7.68,-87.26 -11.73,-18.56 -29.87,-30.72 -50.99,-34.98 8.96,-32.22 14.93,-64.86 18.99,-98.14 3.41,-27.1 13.01,-61.87 1.06,-87.26 -5.54,-11.95 -25.38,-11.74 -31.14,0 -11.95,24.75 -5.55,60.16 -5.98,87.26 -0.64,32 -1.92,64.43 -3.84,96.43 -17.92,1.92 -35.41,11.31 -44.16,27.31 -14.51,26.67 -6.83,55.68 6.19,81.28 5.54,11.1 21.97,3.2 19.2,-8.11 -4.27,-16.85 -9.18,-41.6 2.56,-56.96 6.18,-7.89 18.35,-8.96 26.45,-7.04 12.8,2.99 22.62,9.81 28.38,22.4 7.89,17.28 -3.2,36.27 0.85,55.05 1.92,9.81 16.21,16.64 24.75,10.02"
         style="fill:#171717;fill-opacity:1;fill-rule:nonzero;stroke:none"
         id="path136" />
      <path
         d="m 5446.6146,4570.2055 c 12.16,-19.63 15.58,13.22 17.29,27.73 -11.74,-6.83 -25.39,-14.93 -17.29,-27.73 z m 72.11,-120.54 c 1.5,-29.23 12.38,-75.53 -4.69,-101.77 -6.4,-9.6 -19.2,-9.39 -25.6,0 -17.28,25.6 -10.45,72.32 -12.16,101.77 -1.28,25.38 -2.35,50.99 -4.05,76.59 -2.14,-1.07 -4.06,-2.35 -6.4,-2.99 -19.42,-5.55 -41.39,3.84 -50.35,22.4 -18.57,38.19 11.94,100.91 58.45,68.7 0,-0.22 0.22,-0.22 0.22,-0.22 10.45,4.7 25.6,0.86 27.52,-11.73 7.89,-50.78 14.29,-101.55 17.06,-152.75"
         style="fill:#171717;fill-opacity:1;fill-rule:nonzero;stroke:none"
         id="path138" />
      <path
         d="m 5934.26,6547.73 c 0.22,1.28 0.86,2.13 1.28,3.2 -18.34,-0.22 -34.13,-5.34 -24.96,-28.38 13.87,-34.56 21.12,9.39 23.68,25.18 z m 33.5,-4.7 c 5.33,-84.69 7.47,-166.83 -5.33,-250.89 -1.92,-13.66 -25.39,-10.45 -23.9,3.2 7.25,59.95 4.91,120.75 0.43,181.34 -4.27,-2.56 -8.96,-4.48 -14.72,-4.69 -20.48,-0.85 -35.42,14.72 -44.59,31.79 -10.03,19.63 -8.96,44.16 6.4,60.16 18.35,18.99 48.43,5.55 67.2,-4.27 0.21,-0.21 0.21,-0.42 0.43,-0.64 7.25,-1.92 13.65,-7.68 14.08,-16"
         style="fill:#171717;fill-opacity:1;fill-rule:nonzero;stroke:none"
         id="path140" />
      <path
         d="m 5928.29,5897.66 c 9.81,-7.25 9.81,-19.41 0,-26.67 -10.67,-7.68 -26.24,-2.56 -38.83,-1.7 -12.8,0.64 -25.81,0.85 -38.83,2.77 -12.16,1.71 -12.16,22.83 0,24.54 14.51,2.13 29.23,2.34 43.74,3.2 11.52,0.64 23.89,5.12 33.92,-2.14"
         style="fill:#171717;fill-opacity:1;fill-rule:nonzero;stroke:none"
         id="path142" />
      <path
         d="m 5920.61,5860.97 c 11.95,0.64 16.21,-14.08 9.17,-21.98 -16.64,-18.77 -53.12,-15.36 -75.73,-13.86 -14.09,0.85 -14.09,20.9 0,21.76 11.3,0.64 22.82,1.06 33.7,4.05 11.31,2.99 21.13,9.6 32.86,10.03"
         style="fill:#171717;fill-opacity:1;fill-rule:nonzero;stroke:none"
         id="path144" />
      <path
         d="m 5853.83,3049.93 c 2.35,-60.38 -6.61,-120.76 -17.07,-179.85 -8.96,-51.21 -14.72,-106.04 -38.61,-152.76 -6.19,-11.95 -21.55,-4.69 -22.83,6.19 -5.97,52.27 11.52,106.46 22.19,157.45 11.95,57.17 22.4,114.56 33.07,171.95 2.56,13.66 22.61,9.6 23.25,-2.98"
         style="fill:#171717;fill-opacity:1;fill-rule:nonzero;stroke:none"
         id="path146" />
      <path
         d="m 5319.0346,4459.4755 c 0.22,-4.69 -1.49,-8.11 -3.84,-11.31 7.04,-0.64 13.02,-6.83 13.02,-14.08 0,-33.28 -50.78,-38.83 -74.89,-36.27 -12.16,1.28 -17.49,21.55 -2.98,23.68 11.3,1.5 24.74,3.42 34.77,9.18 4.06,2.13 7.26,5.12 10.67,8.1 -2.99,0.43 -5.97,1.07 -8.54,2.35 -11.73,6.4 -23.25,6.62 -36.26,4.06 -14.08,-2.99 -25.18,18.34 -10.46,24.74 18.35,7.68 37.55,10.88 57.39,10.46 11.95,-0.22 20.27,-9.39 21.12,-20.91"
         style="fill:#171717;fill-opacity:1;fill-rule:nonzero;stroke:none"
         id="path148" />
      <path
         d="m 5763.16,5940.55 c 7.47,-0.64 12.8,1.92 16.85,8.32 7.05,11.52 7.05,26.66 4.7,40.1 -3.42,19.63 26.45,28.17 29.87,8.33 4.26,-23.69 3.84,-48.43 -11.52,-68.28 -5.12,-6.4 -11.74,-11.09 -18.99,-14.08 10.24,-57.17 8.32,-117.76 8.96,-175.58 0.43,-22.83 -35.42,-22.83 -35.2,0 0.64,56.54 -1.07,116.06 8.53,172.38 -2.56,0 -5.12,-0.21 -7.68,0.22 -43.74,6.18 -46.08,61.65 -27.73,92.16 5.76,9.6 19.62,2.99 17.49,-7.46 -2.56,-12.81 -7.25,-29.87 -1.07,-42.46 1.92,-4.05 5.12,-8.53 6.83,-9.81 0.43,-0.43 2.99,-1.71 4.05,-2.56 0.64,-0.43 3.84,-0.86 4.91,-1.28"
         style="fill:#171717;fill-opacity:1;fill-rule:nonzero;stroke:none"
         id="path150" />
      <path
         d="m 5805.62,6452.79 c 23.68,-2.78 23.68,-33.92 0,-36.91 -9.6,-1.07 -20.49,1.28 -30.09,1.92 -10.02,0.64 -20.26,1.49 -30.29,2.13 -18.56,1.28 -18.56,27.52 0,28.8 10.03,0.64 20.27,1.5 30.29,2.14 9.6,0.64 20.49,2.98 30.09,1.92"
         style="fill:#171717;fill-opacity:1;fill-rule:nonzero;stroke:none"
         id="path152" />
      <path
         d="m 5799.43,6402.01 c 4.05,-2.56 7.47,-8.11 5.33,-13.01 -10.45,-25.82 -59.95,-12.59 -80.22,-6.4 -12.16,3.84 -7.04,20.69 5.13,18.77 13.01,-1.92 27.52,-3.41 40.53,-0.64 10.24,2.14 19.63,7.9 29.23,1.28"
         style="fill:#171717;fill-opacity:1;fill-rule:nonzero;stroke:none"
         id="path154" />
      <path
         d="m 5209.3746,4637.8355 c 21.55,-18.78 8.96,-66.57 -5.54,-86.2 -9.82,-13.22 -23.04,-24.96 -38.62,-30.08 7.47,-38.19 10.46,-77.65 15.58,-116.06 4.26,-32 16,-70.83 10.24,-102.83 -2.35,-13.87 -24.97,-17.07 -30.73,-4.05 -14.08,31.36 -11.09,73.17 -12.8,106.88 -1.92,37.12 -4.26,75.95 0.86,113.08 -0.22,0 -0.43,0 -0.64,0 -57.39,0.64 -63.79,66.77 -39.69,106.46 3.63,5.76 14.51,3.84 13.66,-3.63 -2.13,-21.12 -8.11,-76.38 25.39,-67.85 12.8,3.42 22.4,11.31 28.16,24.11 8.32,17.71 0.85,41.18 11.09,57.18 5.34,8.32 15.79,9.17 23.04,2.99"
         style="fill:#171717;fill-opacity:1;fill-rule:nonzero;stroke:none"
         id="path156" />
      <path
         d="m 5702.36,3024.32 c 22.4,-92.8 6.61,-195.42 -9.6,-288.23 -4.06,-23.04 -43.53,-17.7 -40.75,5.55 3.62,32.64 7.89,64.86 11.52,96.86 -5.12,0.64 -10.03,1.07 -14.94,1.49 -13.22,1.28 -13.22,19.63 0,20.7 5.55,0.42 11.52,1.28 17.5,1.92 4.48,46.29 6.61,92.59 2.13,139.95 -9.39,0.22 -18.77,-0.21 -28.16,-2.13 -17.71,-3.63 -23.25,19.63 -7.25,26.24 17.28,7.25 33.49,8.96 52.05,11.09 7.68,0.86 15.79,-6.18 17.5,-13.44"
         style="fill:#171717;fill-opacity:1;fill-rule:nonzero;stroke:none"
         id="path158" />
      <path
         d="m 5680.6,6545.38 c 10.45,-6.19 11.09,-24.11 10.45,-34.78 -1.71,-27.73 -20.05,-51.2 -44.8,-57.39 7.89,-51.62 11.3,-106.24 7.89,-157.87 -1.49,-22.62 -33.71,-22.62 -35.2,0 -3.63,51.42 -0.21,105.61 7.68,156.81 -3.41,0.42 -6.83,0.85 -10.45,1.92 -37.98,11.73 -53.77,56.53 -26.89,87.9 3.84,4.48 12.16,1.06 11.74,-4.91 -1.07,-16.21 -3.84,-36.27 10.45,-48 9.18,-7.26 23.26,-10.46 33.71,-4.7 18.13,10.24 12.59,28.38 14.29,45.45 1.07,10.88 8.75,22.82 21.13,15.57"
         style="fill:#171717;fill-opacity:1;fill-rule:nonzero;stroke:none"
         id="path160" />
      <path
         d="m 5643.9,6014.15 c 5.33,13.44 23.47,8.32 21.33,-5.76 -8.74,-58.67 -31.78,-113.93 -50.13,-170.04 -13.23,-40.32 -20.06,-86.4 -39.68,-123.95 -4.91,-9.39 -22.62,-8.32 -24.33,3.2 -6.4,44.16 14.3,89.39 29.87,130.14 21.34,55.47 41.39,111.15 62.94,166.41"
         style="fill:#171717;fill-opacity:1;fill-rule:nonzero;stroke:none"
         id="path162" />
      <path
         d="m 5530.61,2738.23 c 42.89,24.96 49.93,121.39 6.19,149.55 -14.29,-21.55 -27.09,-43.95 -33.07,-69.97 -4.26,-18.57 -11.09,-45.66 -0.64,-63.37 4.27,-7.25 16.86,-22.4 27.52,-16.21 z m 2.35,197.98 c 13.23,4.27 19.84,19.63 18.99,32.86 -1.07,17.92 -12.38,19.63 -26.67,23.25 -6.4,-10.45 -11.73,-21.55 -13.65,-33.49 -2.56,-15.15 2.56,-28.38 21.33,-22.62 z m 34.99,-23.04 c 30.72,-24.75 42.88,-66.99 37.76,-107.95 -5.33,-41.6 -23.25,-101.98 -72.32,-109.23 -59.53,-8.97 -82.99,59.73 -75.95,106.88 4.26,28.59 18.98,74.03 44.16,101.98 -16.64,7.89 -28.38,23.04 -26.67,45.23 2.13,28.16 20.05,66.14 50.14,72.96 0.85,0.22 1.7,0.22 2.56,0.22 31.79,9.38 58.67,-21.76 61.44,-50.99 2.13,-20.7 -5.76,-44.38 -21.12,-59.1"
         style="fill:#171717;fill-opacity:1;fill-rule:nonzero;stroke:none"
         id="path164" />
      <path
         d="m 5508.43,6607.25 c 5.97,16.43 32.21,9.6 26.45,-7.25 -36.91,-107.96 -66.14,-218.9 -106.46,-325.36 -3.63,-9.81 -20.48,-9.38 -19.41,2.56 10.88,114.78 60.16,222.74 99.42,330.05"
         style="fill:#171717;fill-opacity:1;fill-rule:nonzero;stroke:none"
         id="path166" />
      <path
         d="m 5028.2446,4624.1755 c 9.82,-52.48 0.43,-104.32 -13.01,-155.31 -14.29,-54.19 -23.04,-113.93 -42.88,-165.99 -4.91,-12.8 -27.1,-16.64 -30.08,0 -8.11,46.3 10.02,94.09 24.32,137.82 19.41,59.31 38.4,117.77 40.32,180.71 0.21,11.73 18.99,15.36 21.33,2.77"
         style="fill:#171717;fill-opacity:1;fill-rule:nonzero;stroke:none"
         id="path168" />
      <path
         d="m 5478.77,5975.11 c 1.07,-78.73 8.53,-157.45 0.21,-235.75 -2.34,-22.4 -36.05,-23.47 -35.62,0 1.49,59.95 0.64,119.69 0.42,179.64 -4.9,-2.35 -10.45,-3.84 -16.85,-3.84 -19.63,0.42 -35.63,20.91 -40.75,37.97 -16.64,57.39 32.64,80.43 78.72,52.27 7.26,-4.48 2.14,-14.08 -5.54,-13.01 -20.27,2.77 -54.41,5.55 -42.89,-25.39 11.1,-30.08 21.12,-8.75 27.74,12.59 5.97,18.99 34.13,15.57 34.56,-4.48"
         style="fill:#171717;fill-opacity:1;fill-rule:nonzero;stroke:none"
         id="path170" />
      <path
         d="m 5416.05,2908.48 c 11.52,-8.11 11.52,-23.47 0,-31.58 -14.72,-10.02 -31.15,-3.62 -47.58,-2.34 -15.36,1.06 -30.93,2.13 -46.3,3.41 -18.98,1.28 -18.98,28.16 0,29.44 15.37,1.28 30.94,2.13 46.3,3.41 16.43,1.5 33.07,7.47 47.58,-2.34"
         style="fill:#171717;fill-opacity:1;fill-rule:nonzero;stroke:none"
         id="path172" />
      <path
         d="m 5402.18,2851.09 c 7.25,-3.63 9.17,-13.66 5.33,-20.27 -7.04,-12.59 -21.97,-13.23 -34.99,-13.87 -12.8,-0.85 -25.6,-0.42 -38.18,0.22 -19.63,0.64 -19.63,29.44 0,30.29 11.09,0.43 22.61,0.64 33.7,2.56 11.95,1.92 22.41,6.83 34.14,1.07"
         style="fill:#171717;fill-opacity:1;fill-rule:nonzero;stroke:none"
         id="path174" />
      <path
         d="m 4793.1446,4533.9355 c 13.22,5.33 16.85,20.05 17.7,34.13 -11.94,-4.48 -21.97,-12.8 -24.74,-26.88 -1.92,-7.04 0.42,-9.39 7.04,-7.25 z m 76.16,-208.66 c 1.28,-27.3 -39.04,-26.24 -41.6,0 -5.76,58.89 -8.96,117.99 -11.95,177.3 -2.13,-1.28 -4.26,-2.57 -6.61,-3.63 -18.35,-7.26 -46.3,-4.7 -56.54,15.36 -16.43,32.21 7.04,58.88 30.94,79.79 13.65,11.73 27.52,13.01 40.32,8.75 10.88,2.98 24.53,-2.78 25.81,-17.5 2.99,-3.2 5.98,-6.61 8.54,-10.24 2.34,-2.98 -1.5,-7.25 -4.91,-6.18 -0.64,0.21 -1.49,0.21 -2.35,0.42 5.98,-81.28 14.72,-162.57 18.35,-244.07"
         style="fill:#171717;fill-opacity:1;fill-rule:nonzero;stroke:none"
         id="path176" />
      <path
         d="m 5299.77,6284.89 c 31.15,33.92 30.94,119.9 -3.62,152.54 -15.79,-26.67 -24.54,-64.43 -27.1,-91.95 -1.49,-15.79 -4.69,-38.83 5.34,-52.7 5.33,-7.25 17.28,-16.64 25.38,-7.89 z m 2.14,183.47 c 7.89,4.7 15.36,14.08 13.22,23.9 -3.2,16.21 -16.64,20.05 -28.16,28.59 -13.22,-6.62 -26.45,-22.62 -21.97,-36.7 3.2,-9.81 14.51,-17.92 25.6,-18.35 0.64,0.43 1.28,1.28 2.13,1.71 3.42,2.35 6.62,2.35 9.18,0.85 z m 24.53,-14.72 c 26.46,-30.72 29.02,-79.58 24.54,-117.55 -3.63,-30.94 -16.22,-80.86 -53.77,-85.55 -47.36,-5.98 -62.72,50.99 -59.31,87.04 3.42,34.14 11.1,76.81 32.43,107.1 -16.64,6.61 -30.72,20.06 -33.28,38.62 -4.05,27.73 19.84,53.55 47.15,55.25 1.92,2.14 4.69,3.63 7.89,3.84 25.6,0.22 51.21,-27.52 49.93,-52.91 -0.43,-13.22 -6.19,-26.45 -15.58,-35.84"
         style="fill:#171717;fill-opacity:1;fill-rule:nonzero;stroke:none"
         id="path178" />
      <path
         d="m 5299.13,5751.09 c 20.91,8.11 30.51,-22.61 14.3,-33.92 -26.03,-18.13 -56.75,-20.91 -87.9,-22.19 -12.8,-0.42 -23.26,13.23 -19.42,25.39 13.45,41.18 32.65,79.79 47.15,120.54 7.26,20.06 14.73,40.54 18.57,61.66 2.34,12.59 4.9,26.45 3.41,39.47 0.21,24.11 -15.79,29.65 -48.22,16.43 -6.61,-9.18 -20.05,-1.5 -15.14,8.96 9.81,20.9 32.42,55.47 61.01,35.41 25.39,-17.71 39.26,-39.47 38.19,-71.26 -2.35,-68.48 -32.85,-129.71 -56.32,-193.07 14.93,2.77 29.44,6.82 44.37,12.58"
         style="fill:#171717;fill-opacity:1;fill-rule:nonzero;stroke:none"
         id="path180" />
      <path
         d="m 5258.81,2836.79 c -1.07,-42.67 8.96,-89.82 4.69,-131.42 -1.06,-11.73 -14.29,-18.77 -23.68,-9.81 -27.94,26.67 -21.54,90.03 -20.05,124.81 1.49,42.24 4.91,84.69 5.97,126.94 -7.04,-11.1 -14.08,-22.19 -21.76,-33.07 -7.25,-10.24 -22.4,-11.52 -29.44,0 -3.63,5.97 -7.47,11.52 -11.31,17.07 6.19,-72.76 13.23,-148.49 -2.13,-217.83 -3.84,-17.07 -27.31,-11.52 -28.8,3.84 -8.11,91.53 -12.16,186.25 -8.96,278.2 0.64,16.22 24.74,25.39 32.64,8.75 8.96,-18.35 21.12,-34.14 32.85,-50.56 13.23,21.12 25.39,42.45 39.26,62.93 10.24,14.72 32.43,9.18 33.49,-9.17 3.42,-56.75 -1.49,-113.71 -2.77,-170.68"
         style="fill:#171717;fill-opacity:1;fill-rule:nonzero;stroke:none"
         id="path182" />
      <path
         d="m 4645.9346,4549.2955 c 13.65,-24.96 20.05,5.33 23.89,25.39 -17.06,0 -35.41,-4.06 -23.89,-25.39 z m 65.92,29.65 c 1.5,-81.71 29.66,-173.02 4.27,-252.81 -7.68,-24.75 -40.96,-14.08 -37.55,10.24 8.11,55.68 2.13,110.94 -2.77,166.2 -4.06,-2.57 -8.32,-4.7 -13.44,-5.98 -22.62,-5.97 -43.1,13.02 -51.63,32 -26.46,57.82 23.46,90.46 72.96,69.34 11.95,3.84 27.74,-3.63 28.16,-18.99"
         style="fill:#171717;fill-opacity:1;fill-rule:nonzero;stroke:none"
         id="path184" />
      <path
         d="m 5198.86,6371.93 c 21.12,-27.09 32.64,-78.94 -6.61,-96.86 -59.1,-27.09 -117.56,40.96 -120.54,94.09 -3.63,64.43 19.41,156.38 82.78,187.53 10.24,5.12 18.34,-8.75 8.96,-15.15 -57.61,-39.68 -95.37,-203.53 -12.16,-231.91 30.08,-10.24 38.82,2.56 31.14,31.58 -11.73,44.16 -24.32,0.85 -34.99,-19.63 -3.62,-7.04 -13.86,-3.2 -14.29,4.05 -1.28,33.5 33.28,87.9 65.71,46.3"
         style="fill:#171717;fill-opacity:1;fill-rule:nonzero;stroke:none"
         id="path186" />
      <path
         d="m 5165.15,5852.65 c 5.55,-2.99 8.11,-11.52 4.48,-16.64 -14.5,-20.27 -55.25,-12.8 -77.01,-11.31 -14.51,1.07 -14.51,21.55 0,22.61 13.22,0.86 26.88,1.5 40.1,4.27 11.74,2.35 21.13,7.04 32.43,1.07"
         style="fill:#171717;fill-opacity:1;fill-rule:nonzero;stroke:none"
         id="path188" />
      <path
         d="m 5161.1,5892.12 c 10.24,-5.12 10.24,-22.62 0,-27.53 -12.38,-5.97 -23.68,-2.13 -36.91,-1.7 -9.6,0.21 -18.99,-0.22 -28.37,-2.35 -15.79,-3.41 -20.7,17.71 -6.62,23.47 11.31,4.69 22.83,7.04 34.78,8.75 13.01,1.92 24.74,5.33 37.12,-0.64"
         style="fill:#171717;fill-opacity:1;fill-rule:nonzero;stroke:none"
         id="path190" />
      <path
         d="m 5053.36,3052.91 c 11.31,5.12 27.52,-0.64 26.67,-15.15 -2.99,-47.57 -36.48,-102.19 -51.63,-147.42 -19.63,-58.45 -34.35,-119.47 -56.33,-177.07 -6.61,-17.5 -36.48,-16.64 -34.77,4.69 5.12,66.14 33.07,134.62 53.55,197.34 11.09,33.93 25.17,120.76 62.51,137.61"
         style="fill:#171717;fill-opacity:1;fill-rule:nonzero;stroke:none"
         id="path192" />
      <path
         d="m 4556.1146,4429.8155 c 9.81,-1.92 12.59,-13.44 8.75,-21.33 -7.04,-13.87 -27.1,-18.56 -41.61,-21.33 -13.44,-2.78 -27.09,-4.49 -40.96,-2.14 -12.8,2.35 -12.37,22.83 0,25.39 12.38,2.56 24.75,3.63 36.48,8.53 13.23,5.34 22.62,13.87 37.34,10.88"
         style="fill:#171717;fill-opacity:1;fill-rule:nonzero;stroke:none"
         id="path194" />
      <path
         d="m 4556.1146,4473.5555 c 3.41,-5.33 3.41,-13.44 0,-18.56 -0.43,-0.85 -0.85,-1.49 -1.49,-2.13 -3.84,-6.19 -11.52,-12.17 -19.42,-11.31 -21.97,2.77 -44.16,2.77 -65.92,6.19 -16.43,2.56 -16.43,30.5 0,32.85 21.76,3.41 43.95,3.63 65.92,6.19 7.9,1.06 15.58,-4.91 19.42,-11.1 0.64,-0.85 1.06,-1.49 1.49,-2.13"
         style="fill:#171717;fill-opacity:1;fill-rule:nonzero;stroke:none"
         id="path196" />
      <path
         d="m 5027.54,6447.24 c 9.39,-6.83 9.39,-18.99 0,-25.6 -13.44,-9.6 -31.14,-2.99 -46.5,-1.92 -13.23,0.64 -26.46,1.71 -39.69,2.77 -15.14,1.28 -15.14,22.4 0,23.68 14.94,1.28 29.87,2.35 45.02,3.2 14.29,0.86 28.37,6.83 41.17,-2.13"
         style="fill:#171717;fill-opacity:1;fill-rule:nonzero;stroke:none"
         id="path198" />
      <path
         d="m 5022.64,5999.22 c 4.26,-53.98 7.46,-108.6 5.76,-162.57 -1.28,-37.98 1.28,-83.21 -12.8,-119.26 -5.76,-14.72 -27.1,-13.02 -27.95,3.84 -2.13,43.31 6.19,88.53 7.25,132.06 0.86,34.35 0.64,68.27 -0.42,102.4 -4.06,-5.54 -7.9,-11.52 -11.31,-17.49 -4.27,-7.47 -14.94,-8.75 -20.91,-2.77 -7.89,8.1 -16.21,15.57 -24.32,23.46 -8.75,-75.95 -2.13,-152.75 -16.85,-228.28 -2.35,-11.3 -20.49,-8.74 -20.06,2.56 4.27,86.41 -3.41,172.39 16.43,257.3 2.56,11.31 16.85,11.09 22.61,2.99 7.47,-10.67 17.5,-19.63 27.52,-27.95 8.33,14.08 18.57,26.67 27.74,41.17 8.11,12.8 26.24,6.83 27.31,-7.46"
         style="fill:#171717;fill-opacity:1;fill-rule:nonzero;stroke:none"
         id="path200" />
      <path
         d="m 5001.94,6400.31 c 13.66,0 20.06,-20.06 7.04,-26.67 -21.12,-10.46 -50.77,-5.98 -73.6,-4.27 -13.65,0.85 -13.65,20.27 0,21.33 11.95,0.86 24.11,1.28 36.05,3.63 10.25,1.92 20.06,5.98 30.51,5.98"
         style="fill:#171717;fill-opacity:1;fill-rule:nonzero;stroke:none"
         id="path202" />
      <path
         d="m 4422.5646,4438.5655 c 0.42,-43.09 5.76,-93.87 -7.05,-135.47 -4.26,-14.08 -24.32,-14.08 -28.58,0 -12.38,41.81 -4.48,92.16 -3.84,135.47 0.21,28.16 0,56.11 -1.28,84.06 -2.56,-4.69 -5.12,-9.39 -7.26,-14.29 -4.05,-9.82 -18.56,-18.14 -27.09,-7.26 -7.04,9.18 -14.72,17.71 -22.4,26.46 -4.06,-73.61 -8.96,-146.79 -10.88,-220.39 -0.43,-10.45 -17.29,-13.65 -18.78,-2.56 -13.44,89.18 -10.03,179 -1.71,268.39 1.5,16 22.19,23.89 31.37,8.53 8.96,-14.72 19.84,-27.09 30.72,-39.89 8.11,13.65 16.85,26.88 22.61,42.03 5.34,14.08 30.94,18.98 33.71,0 6.83,-48.01 9.82,-96.44 10.46,-145.08"
         style="fill:#171717;fill-opacity:1;fill-rule:nonzero;stroke:none"
         id="path204" />
      <path
         d="m 4860.28,2733.53 c 35.2,66.57 21.98,147.64 -14.29,213.14 -25.82,-62.94 -22.83,-159.8 14.29,-213.14 z m 12.59,241.08 c 54.19,-84.48 69.98,-201.18 7.68,-285.67 -8.32,-11.3 -21.34,-13.22 -32.22,-4.26 -77.65,64 -83.84,255.59 2.35,315.11 12.16,8.11 22.4,-8.75 14.72,-18.78 2.78,-1.28 5.34,-3.2 7.47,-6.4"
         style="fill:#171717;fill-opacity:1;fill-rule:nonzero;stroke:none"
         id="path206" />
      <path
         d="m 4870.52,6543.03 c 1.28,-90.03 12.8,-180.7 -4.9,-269.88 -3.84,-19.41 -33.71,-11.31 -29.66,8.11 14.72,71.26 10.24,144.65 8.11,217.4 -8.11,-11.52 -16.22,-23.04 -23.26,-35.2 -5.33,-9.39 -19.41,-9.39 -24.75,0 -3.84,6.82 -8.53,13.44 -12.8,20.05 2.14,-70.4 -0.21,-140.38 -20.69,-208.65 -2.77,-9.18 -18.13,-7.9 -17.28,2.34 7.89,86.41 2.35,173.24 6.19,259.86 0.64,14.08 20.05,20.91 27.52,7.47 8.96,-16.43 19.62,-31.58 29.87,-47.15 12.16,17.49 25.17,34.35 36.05,52.69 7.04,11.74 25.39,6.62 25.6,-7.04"
         style="fill:#171717;fill-opacity:1;fill-rule:nonzero;stroke:none"
         id="path208" />
      <path
         d="m 4855.8,6020.34 c 7.47,-22.19 -10.88,-49.5 -18.56,-69.98 -13.65,-36.06 -26.45,-72.54 -38.83,-109.02 -11.31,-33.92 -17.28,-103.9 -47.15,-125.66 -2.34,-1.71 -5.76,-0.85 -7.68,1.07 -30.72,27.3 12.8,117.55 23.47,148.48 12.16,35.85 24.53,72.12 39.04,107.1 7.9,18.99 13.02,46.09 32.86,54.83 7.04,3.2 14.29,0.86 16.85,-6.82"
         style="fill:#171717;fill-opacity:1;fill-rule:nonzero;stroke:none"
         id="path210" />
      <path
         d="m 4698.35,2746.12 c 35.42,61.44 14.94,149.77 -11.52,210.79 -21.55,-61.66 -25.39,-155.32 11.52,-210.79 z m 57.18,109.02 c 1.07,-53.98 -3.84,-116.27 -40.75,-158.94 -7.89,-8.96 -21.97,-7.26 -30.08,0 -63.37,57.18 -72.33,222.09 -5.55,282.47 0.85,8.32 8.54,15.15 18.35,13.01 49.92,-10.88 57.39,-96.43 58.03,-136.54"
         style="fill:#171717;fill-opacity:1;fill-rule:nonzero;stroke:none"
         id="path212" />
      <path
         d="m 4208.3646,4643.8055 c 9.38,21.97 42.45,5.76 37.33,-15.79 -25.81,-106.88 -67.42,-217.82 -114.99,-316.82 -7.68,-16.21 -34.35,-4.69 -28.59,12.16 34.99,105.82 62.72,217.83 106.25,320.45"
         style="fill:#171717;fill-opacity:1;fill-rule:nonzero;stroke:none"
         id="path214" />
      <path
         d="m 4646.51,5759.2 c 10.45,23.47 13.23,49.92 12.16,75.31 -1.49,43.1 -7.89,97.5 -33.92,135.05 -7.47,-25.39 -10.88,-52.91 -14.94,-77.87 -7.04,-42.03 -16.64,-93.66 -4.48,-135.9 7.9,-27.31 29.87,-21.76 41.18,3.41 z m -7.68,245.56 c 49.28,-44.8 62.3,-142.94 53.98,-205.24 -5.34,-40.53 -33.93,-122.03 -91.74,-96 -49.93,22.61 -36.49,108.8 -31.15,150.62 5.33,41.18 13.44,101.98 40.96,138.89 0.21,12.37 15.79,22.83 27.95,11.73"
         style="fill:#171717;fill-opacity:1;fill-rule:nonzero;stroke:none"
         id="path216" />
      <path
         d="m 4665.07,6576.32 c 4.7,13.44 22.83,7.89 20.91,-5.76 -15.15,-107.1 -51.42,-211.64 -79.79,-315.76 -5.55,-19.62 -34.56,-11.3 -30.51,8.54 22.4,105.39 53.76,211.21 89.39,312.98"
         style="fill:#171717;fill-opacity:1;fill-rule:nonzero;stroke:none"
         id="path218" />
      <path
         d="m 4601.28,2715.83 c 3.84,-11.52 -8.75,-25.61 -20.91,-20.91 -38.83,14.72 -33.92,81.07 -35.63,114.57 -2.56,59.52 -4.26,123.74 5.55,182.83 1.92,10.24 18.99,10.24 20.7,0 15.36,-90.67 1.7,-187.96 30.29,-276.49"
         style="fill:#171717;fill-opacity:1;fill-rule:nonzero;stroke:none"
         id="path220" />
      <path
         d="m 4530.02,6523.83 c 11.31,-81.71 -9.38,-160.86 -30.08,-239.37 -6.19,-23.04 -40.96,-13.23 -35.63,9.81 16.43,68.49 35.84,136.97 30.94,207.59 -18.35,1.06 -36.7,1.28 -55.47,-0.86 -13.87,-1.7 -15.58,19.85 -3.2,23.47 24.96,7.47 49.92,10.46 75.73,12.8 7.26,0.64 16.65,-5.97 17.71,-13.44"
         style="fill:#171717;fill-opacity:1;fill-rule:nonzero;stroke:none"
         id="path222" />
      <path
         d="m 4516.16,5873.98 c 13.44,-5.76 13.44,-21.76 0,-27.52 -12.17,-5.12 -26.46,-1.71 -39.26,0 -11.73,1.49 -23.04,4.05 -34.35,7.89 -15.57,4.91 -8.96,26.25 6.61,23.9 11.95,-1.92 24.11,-2.78 36.27,-2.35 10.46,0.22 20.7,2.14 30.73,-1.92"
         style="fill:#171717;fill-opacity:1;fill-rule:nonzero;stroke:none"
         id="path224" />
      <path
         d="m 4027.2346,4364.5355 c 5.76,28.16 4.48,58.24 -0.64,86.41 -6.4,34.56 -15.15,89.39 -40.75,119.47 -9.18,-32 -12.38,-68.48 -15.15,-99.85 -3.2,-36.48 -11.09,-93.23 11.31,-125.44 16.43,-23.69 40.75,-1.5 45.23,19.41 z m -33.71,248.76 c 62.93,-46.72 135.47,-337.51 -4.91,-315.75 -96.86,14.93 -63.36,224.23 -20.69,294.42 -3.84,14.93 10.45,32.64 25.6,21.33"
         style="fill:#171717;fill-opacity:1;fill-rule:nonzero;stroke:none"
         id="path226" />
      <path
         d="m 4495.25,5829.82 c 8.96,-3.84 8.96,-20.06 0,-23.9 -20.27,-8.53 -46.09,-2.56 -67.42,-1.28 -17.28,0.86 -17.28,25.61 0,26.46 21.33,1.28 47.15,7.25 67.42,-1.28"
         style="fill:#171717;fill-opacity:1;fill-rule:nonzero;stroke:none"
         id="path228" />
      <path
         d="m 4461.54,2875.2 c 9.17,-3.2 13.01,-14.51 5.76,-21.98 -19.84,-20.05 -61.44,-10.45 -85.34,-3.2 -16.21,4.91 -9.17,27.52 6.83,24.96 13.87,-2.34 28.8,-3.2 42.45,-0.85 10.67,1.92 19.84,4.69 30.3,1.07"
         style="fill:#171717;fill-opacity:1;fill-rule:nonzero;stroke:none"
         id="path230" />
      <path
         d="m 4439.78,2839.99 c 10.88,-1.28 20.05,-14.72 9.81,-23.68 -17.07,-15.15 -42.88,-11.73 -64.22,-10.45 -18.34,1.06 -18.34,27.52 0,28.59 8.97,0.42 18.14,0.85 26.89,2.34 9.17,1.71 18.13,4.48 27.52,3.2"
         style="fill:#171717;fill-opacity:1;fill-rule:nonzero;stroke:none"
         id="path232" />
      <path
         d="m 4367.45,6475.83 c 43.74,-20.27 64.86,-67.42 59.1,-116.7 -5.12,-42.67 -48.86,-105.18 -98.14,-78.51 -10.88,5.97 -11.31,23.68 0,29.44 28.8,14.93 58.67,14.72 59.95,56.96 1.07,35.63 -13.44,69.55 -50.14,79.37 -12.16,3.41 -17.06,17.07 -11.3,27.73 4.9,9.39 8.11,19.2 10.88,29.23 -7.47,0.64 -14.94,1.71 -22.4,3.2 -12.38,2.35 -12.38,22.62 0,24.96 15.14,2.78 30.51,4.06 45.87,5.12 11.52,0.64 20.05,-11.94 17.06,-22.4 -3.84,-13.01 -6.82,-25.81 -10.88,-38.4"
         style="fill:#171717;fill-opacity:1;fill-rule:nonzero;stroke:none"
         id="path234" />
      <path
         d="m 4382.17,5997.51 c 11.74,-3.41 9.18,-20.7 -2.77,-21.12 -64.64,-2.14 -74.88,-87.26 -72.96,-136.54 1.06,-28.17 3.62,-59.95 17.06,-85.34 12.59,-24.32 19.63,-22.62 43.74,-23.47 11.09,-0.43 21.33,-13.65 13.87,-23.89 -21.34,-29.23 -59.1,-17.71 -79.79,5.97 -26.46,30.72 -35.63,78.51 -37.55,117.77 -3.42,70.83 21.12,194.78 118.4,166.62"
         style="fill:#171717;fill-opacity:1;fill-rule:nonzero;stroke:none"
         id="path236" />
      <path
         d="m 3867.8646,4462.6755 c 5.76,-5.97 5.76,-15.15 0,-21.12 -8.54,-8.96 -18.14,-7.26 -29.45,-6.19 l -29.44,2.99 c -17.92,1.49 -17.92,26.03 0,27.73 l 29.44,2.78 c 11.31,1.06 20.91,2.98 29.45,-6.19"
         style="fill:#171717;fill-opacity:1;fill-rule:nonzero;stroke:none"
         id="path238" />
      <path
         d="m 4349.11,2715.83 c 12.8,-1.5 23.89,-17.71 11.73,-28.17 -83.85,-72.53 -145.93,68.28 -149.56,131.64 -3.84,68.06 11.74,218.25 107.74,218.25 12.59,0 14.72,-15.36 5.98,-22.19 -51.21,-37.97 -68.06,-112.22 -67.21,-173.02 0.43,-33.28 3.2,-71.47 21.98,-100.27 19.63,-30.08 38.83,-22.83 69.34,-26.24"
         style="fill:#171717;fill-opacity:1;fill-rule:nonzero;stroke:none"
         id="path240" />
      <path
         d="m 3848.8746,4428.7555 c 10.03,-1.92 12.37,-15.58 5.76,-22.4 -15.58,-15.58 -46.3,-11.1 -64,-1.28 -12.38,6.61 -4.06,27.73 9.6,22.82 16.85,-5.97 31.78,4.06 48.64,0.86"
         style="fill:#171717;fill-opacity:1;fill-rule:nonzero;stroke:none"
         id="path242" />
      <path
         d="m 3777.1846,4310.9855 c 12.81,-2.99 15.37,-18.77 7.26,-27.73 -22.83,-25.39 -69.76,-17.71 -91.74,5.97 -26.03,28.16 -36.27,66.35 -38.19,103.69 -2.99,57.81 11.73,203.95 94.09,206.09 12.8,0.21 17.28,-14.94 9.81,-23.68 -39.89,-46.51 -59.95,-99.64 -58.88,-161.93 0.42,-27.95 1.49,-62.09 18.77,-85.77 16,-21.97 36.48,-11.31 58.88,-16.64"
         style="fill:#171717;fill-opacity:1;fill-rule:nonzero;stroke:none"
         id="path244" />
      <path
         d="m 4262.06,6419.93 c 5.76,-5.76 5.55,-17.92 -2.77,-21.54 -15.15,-6.83 -25.82,-0.86 -41.39,1.7 -16.64,2.56 -33.28,3.42 -50.14,4.48 -14.93,1.07 -14.93,22.4 0,23.26 18.14,1.06 36.06,2.13 53.98,1.92 15.15,-0.22 29.23,1.49 40.32,-9.82"
         style="fill:#171717;fill-opacity:1;fill-rule:nonzero;stroke:none"
         id="path246" />
      <path
         d="m 4240.73,6369.16 c 2.77,-4.06 2.77,-10.67 0,-14.72 -8.54,-12.59 -21.34,-10.03 -34.78,-9.18 -12.8,0.86 -25.39,1.92 -38.19,3.2 -17.07,1.71 -17.07,24.96 0,26.67 12.8,1.28 25.39,2.35 38.19,3.2 13.44,0.85 26.24,3.41 34.78,-9.17"
         style="fill:#171717;fill-opacity:1;fill-rule:nonzero;stroke:none"
         id="path248" />
      <path
         d="m 1082.69,5572.52 c -4.48,43.74 -6.83,94.09 10.24,134.84 -39.89,-1.07 -88.96,-13.87 -86.4,-61.23 2.77,-48.64 38.19,-60.38 76.16,-73.61 z m 148.49,-3022.89 c 9.39,6.83 17.71,14.08 17.28,27.95 -0.64,15.79 -8.96,31.15 -19.41,42.67 -17.5,18.99 -52.91,46.51 -69.13,15.57 15.58,-9.81 29.87,-23.25 40.97,-36.48 11.73,-13.65 24.53,-31.15 30.29,-49.71 z m 160.86,-104.75 c -24.32,25.39 -48.43,50.99 -72.32,76.59 -7.89,8.75 -24.11,22.83 -36.27,37.55 -6.4,-24.75 -24.75,-49.07 -49.92,-53.55 -2.35,-0.43 -4.7,-0.43 -7.04,0 -4.27,-5.98 -9.82,-10.67 -16.64,-13.66 -13.44,-5.76 -36.27,-10.24 -51.42,-3.41 0.85,-7.47 1.71,-14.72 2.99,-21.97 76.59,-8.97 153.39,-21.34 230.62,-21.55 z m 6.19,-35.84 c -87.9,-3.84 -173.66,11.09 -257.29,37.97 -7.26,2.35 -9.18,10.88 -6.41,16.43 -9.38,28.37 -13.86,57.6 -20.26,86.62 -40.97,-4.48 -79.37,-33.5 -87.47,-76.17 -11.31,-59.73 49.92,-63.36 93.65,-67.84 48.65,-4.91 97.5,-9.82 146.15,-11.1 23.89,-0.42 109.87,-9.81 131.63,14.09 z m 128.86,2318 c 0.21,28.16 -9.39,59.09 -26.45,81.28 -6.19,8.53 -16.65,19.84 -28.38,19.41 -16.43,-0.85 -26.24,-16.21 -36.48,-27.09 -0.85,-0.85 -1.71,-1.07 -2.56,-1.71 28.16,-29.44 59.74,-53.12 93.87,-71.89 z m 136.12,592.24 c -36.7,2.78 -77.45,4.27 -117.34,1.71 -1.92,-85.77 81.28,-48 117.34,-1.71 z m 48.64,-653.05 c -0.43,1.07 -0.86,2.14 -0.86,3.42 0,3.2 -0.64,6.18 -0.85,9.38 -7.04,8.11 -10.67,19.63 -7.68,30.08 -23.68,52.27 -90.67,48.43 -127.58,-5.33 43.1,-17.71 88.97,-29.65 136.97,-37.55 z m 76.38,625.74 c 1.06,4.27 2.13,8.75 4.05,13.02 -25.18,3.84 -50.56,7.25 -75.95,9.81 -1.07,0 -2.14,0.22 -3.2,0.22 -2.35,-18.99 -7.26,-65.29 9.39,-60.81 13.86,3.84 26.66,10.03 38.4,18.14 9.81,6.82 18.56,13.44 27.31,19.62 z m 75.73,-640.03 c -5.54,10.03 -14.5,22.4 -24.53,34.13 -27.95,9.6 -54.62,10.67 -80.01,-2.56 -1.28,-6.4 -1.92,-13.44 -2.56,-20.05 0,-1.07 -0.42,-2.35 -0.64,-3.42 35.42,-4.05 71.47,-6.61 107.74,-8.1 z m 3.42,586.27 c 28.59,1.71 50.99,15.79 65.71,39.47 -35.63,7.89 -71.05,15.36 -106.89,21.55 0.21,-0.43 0.43,-0.64 0.43,-1.07 2.34,-28.59 1.28,-62.3 40.75,-59.95 z m 126.72,-587.55 c -0.21,1.06 -0.21,1.92 0,2.98 -19.62,50.99 -41.81,60.59 -66.99,29.02 -5.54,-10.67 -11.09,-21.12 -16.64,-31.79 27.52,-0.43 55.47,-0.64 83.63,-0.21 z m 38.41,201.61 c 2.56,-2.35 4.9,-4.91 7.46,-7.04 -18.13,26.88 -36.05,53.55 -52.48,80.43 13.23,-25.81 28.59,-49.28 45.02,-73.39 z m 23.04,396.82 c -27.74,6.62 -55.26,13.23 -82.99,19.63 -18.78,-75.31 49.92,-80 81.92,-33.5 0,2.78 -0.21,5.55 -0.21,8.54 0,1.92 0.64,3.63 1.28,5.33 z m 81.07,-587.55 c -20.7,61.02 -103.69,69.55 -103.05,-9.6 34.57,1.7 68.91,4.69 103.05,9.6 z m -41.6,578.38 c 4.69,-78.94 85.98,-103.26 108.16,-22.83 -36.27,6.83 -72.11,14.51 -108.16,22.83 z m 181.34,-543.82 c -0.21,0.85 -0.21,1.92 -0.43,2.77 -12.58,7.47 -23.25,19.63 -39.47,22.41 -40.53,6.61 -55.46,-17.71 -56.74,-52.27 17.06,3.2 33.92,7.04 50.56,11.73 15.79,4.27 31.15,9.6 46.08,15.36 z m 49.92,488.99 c 0,4.48 -0.21,9.17 0,13.44 -26.66,2.77 -53.33,6.4 -79.79,10.88 0.64,-23.68 9.82,-51.42 38.83,-49.5 21.34,1.28 32.64,11.1 40.96,25.18 z m 96.65,-422.43 c -0.21,0.22 -0.64,0.43 -0.85,0.64 -68.27,75.74 -100.7,14.3 -106.46,-51.2 36.26,16 71.25,34.14 107.31,50.56 z m 31.15,436.51 c -2.99,0 -5.98,0 -8.96,0 -3.2,-3.63 -7.68,-6.19 -14.08,-6.19 -21.98,-0.21 -43.95,0.86 -65.71,2.35 -0.86,-26.88 5.54,-62.51 38.82,-60.16 31.79,2.13 46.09,31.57 48.65,60.16 0.21,1.49 0.85,2.56 1.28,3.84 z m 261.56,813.7 c -189.67,45.02 -261.35,235.32 -402.8,372.07 -129.5,125.45 -312.55,177.51 -490.27,165.99 -126.94,-8.11 -271.8,-34.35 -264.97,-189.03 0.64,-14.29 -21.76,-21.54 -27.95,-7.68 -5.33,12.38 -8.96,23.68 -11.73,34.99 -4.27,-4.05 -10.03,-5.97 -16.64,-3.63 -234.68,92.17 -356.5,-297.4 -469.58,-464.02 22.19,1.06 43.52,5.12 65.5,14.29 12.16,4.91 21.33,-9.17 19.41,-19.41 -11.52,-58.89 -20.05,-117.13 -39.47,-173.88 12.17,0.64 24.33,-0.43 35.63,-3.41 1.07,1.28 1.92,2.56 3.2,3.84 7.68,8.1 24.54,2.34 23.47,-9.82 -2.99,-30.5 -12.8,-59.73 -15.57,-90.46 -2.99,-30.29 -2.78,-60.59 -5.98,-90.67 -1.49,-16.42 -18.34,-20.05 -27.52,-11.52 -5.12,-4.48 -11.09,-6.82 -17.49,-8.1 -3.2,-123.53 -24.75,-243.43 -52.49,-363.55 14.09,7.68 28.17,15.37 42.25,23.05 6.4,5.12 18.56,4.48 20.27,-5.34 17.49,-100.06 -3.63,-191.8 -30.73,-286.31 127.37,117.56 154.25,344.77 111.37,502 -4.27,16.01 11.95,24.75 25.17,19.42 19.85,-5.55 39.69,-10.88 59.53,-16.43 -88.54,142.52 -112.22,348.82 21.76,467.65 7.89,7.05 23.47,7.69 28.37,-3.62 13.23,-11.1 26.46,-22.19 39.69,-33.28 13.65,152.75 138.25,311.27 261.77,390.85 13.23,8.32 26.24,-3.2 27.95,-16.22 28.16,-209.5 184.33,-345.19 383.17,-379.54 -17.92,33.07 -28.38,67.84 -33.5,107.74 -2.77,20.91 32.01,24.96 36.49,4.91 0.21,-1.71 0.64,-3.42 1.06,-5.12 2.78,4.69 7.9,8.1 14.72,7.04 245.56,-37.98 464.46,-28.17 685.91,67.2 z M 2536,4457.37 c 0,21.54 0,43.09 0,64.64 -239.37,-111.58 -536.78,-102.41 -794.92,-99.42 -179.21,1.92 -449.95,-7.25 -589.69,129.29 1.49,-19.63 3.2,-39.26 4.91,-59.1 0.85,-0.42 1.92,-0.64 2.77,-1.49 167.05,-140.38 427.54,-146.36 635.13,-140.81 251.53,6.61 500.29,32.22 740.95,106.67 0.21,0.22 0.43,0.22 0.85,0.22 z m 55.9,-1287.54 c -10.67,143.15 -25.6,285.88 -35.63,428.82 -18.99,272.23 -20.48,546.38 -20.27,819.89 -125.87,-59.31 -271.37,-77.45 -408.77,-90.03 -127.79,-11.52 -256.87,-23.05 -385.3,-21.77 -188.17,1.71 -436.29,10.03 -582.43,147.85 3.2,-34.77 6.4,-69.76 9.81,-104.54 19.63,-207.37 27.95,-415.81 44.59,-623.39 14.08,-173.67 33.07,-349.04 47.58,-524.62 210.99,-94.72 437.78,-103.26 666.06,-102.19 225.29,1.07 441.41,52.48 664.36,69.98 z m -60.38,1980.27 c 27.1,9.6 37.98,34.56 37.76,60.59 -24.1,-6.19 -50.13,-8.96 -75.95,-10.24 0.43,-1.71 0.86,-3.2 0.64,-5.12 -2.98,-26.46 3.84,-57.39 37.55,-45.23 z m 28.8,-318.95 c 3.2,0.85 6.4,1.7 9.6,2.34 -17.49,28.81 -55.25,75.74 -88.11,36.49 -21.76,-26.03 -25.17,-58.25 -23.47,-90.89 25.82,25.18 70.84,43.1 101.98,52.06 z m 35.42,-1718.29 c -0.43,6.19 -0.85,12.16 -1.28,18.14 -256.23,-24.54 -499.87,-75.1 -759.51,-71.05 -188.81,2.99 -407.7,7.9 -571.34,115.42 1.71,-19.84 3.2,-39.89 4.48,-59.73 109.23,-48.22 210.78,-96.86 330.68,-114.14 112.86,-16.43 227,-18.35 340.72,-8.96 222.52,18.13 439.49,68.27 656.25,120.32 z m -11.73,2488.68 c 10.88,-4.05 22.18,-7.68 33.28,-11.09 -49.93,97.07 -63.79,202.67 -79.79,311.05 -22.19,-4.48 -44.38,-8.53 -66.78,-11.52 29.23,-106.03 59.31,-223.58 50.99,-333.24 -2.35,-32.86 9.17,-129.93 -11.1,-160.87 12.8,2.78 29.23,3.2 46.51,1.5 2.35,63.79 3.84,126.94 3.63,190.94 0,12.59 12.8,17.92 23.26,13.23 z m 64.64,-3031.86 c -47.15,163.21 -41.18,338.16 -50.35,506.27 -0.21,0.86 -0.21,1.92 -0.21,2.78 -236.82,-58.03 -478.11,-118.84 -722.61,-127.16 -197.34,-6.82 -443.97,7.26 -605.47,138.04 11.09,-160.86 16.85,-321.51 9.81,-480.88 0,-0.86 -0.42,-1.28 -0.42,-1.92 2.13,-4.91 3.62,-10.03 4.69,-15.15 21.33,-7.47 46.94,-37.12 58.03,-47.79 19.63,-18.77 38.83,-37.98 57.82,-57.18 -23.47,126.3 -14.94,258.58 24.74,380.61 -3.41,2.35 -6.61,4.7 -9.81,6.83 -11.09,7.47 -12.8,11.95 -10.88,14.08 0,0.21 0,0.21 -0.21,0.21 -7.04,1.71 -5.98,11.1 0,13.23 13.86,5.12 31.15,-1.71 47.79,-10.24 2.56,-0.64 4.69,-1.92 6.82,-3.41 10.46,-5.76 20.48,-11.31 28.59,-14.3 105.18,-37.12 212.92,-53.12 324.5,-54.83 113.71,-1.92 228.07,-0.21 341.35,12.38 112.86,12.37 218.04,43.52 328.56,64 16,2.99 28.16,-19.63 11.73,-27.73 -21.97,-11.1 -45.23,-20.7 -68.91,-29.66 66.99,-109.87 145.5,-232.33 163.64,-362.69 2.77,5.76 5.54,11.31 7.89,15.58 13.65,27.09 30.51,57.6 52.91,78.93 z m -39.47,2148.39 c 18.35,16.43 44.38,62.3 8.75,78.3 -50.35,22.4 -99.21,-35.84 -144.86,-48.85 -63.8,-66.57 -177.51,-93.02 -261.99,-108.81 -129.72,-24.53 -262.84,-30.93 -394.69,-21.12 -212.49,15.79 -417.52,69.98 -499.87,290.15 -73.18,195.21 -42.67,419.65 199.9,446.96 310.63,35.2 601,-116.92 909.07,-120.33 32.21,9.82 66.56,8.32 100.27,11.52 5.55,0.64 10.46,1.28 15.15,2.14 28.37,8.74 54.19,21.54 73.39,42.02 52.06,55.9 -74.88,63.15 -103.9,67.42 -15.15,2.35 -17.71,21.55 -9.6,32 -0.64,0 -1.07,0 -1.49,-0.21 -6.83,-0.85 -11.52,5.12 -13.66,10.45 -22.61,53.55 -3.84,121.4 -2.56,177.72 2.78,103.47 -25.6,207.59 -48,308.29 -135.47,-13.66 -273.94,-0.86 -412.61,33.92 -1.28,0.42 -2.13,1.06 -3.2,1.49 10.24,-37.97 24.11,-71.9 48.22,-105.39 8.32,-11.52 -2.78,-31.36 -17.07,-29.87 -231.27,24.11 -410.69,165.77 -454.43,393.2 -111.15,-81.72 -218.89,-232.98 -234.25,-367.17 0,-0.43 -0.22,-0.86 -0.22,-1.28 -0.85,-5.76 -5.33,-11.1 -12.16,-11.31 -36.26,-1.28 -55.25,7.04 -71.25,31.58 -116.06,-117.77 -65.93,-326.21 25.81,-445.47 7.9,-10.03 -2.77,-27.52 -15.15,-26.24 -31.57,3.41 -57.81,9.6 -85.12,19.84 26.24,-136.11 9.6,-304.02 -66.35,-425.62 9.17,-2.35 16.64,-10.67 13.23,-23.05 -26.67,-94.93 -8.96,-215.26 -3.42,-312.12 0.64,-13.23 1.71,-26.46 2.56,-39.47 4.7,2.56 10.88,2.56 16.22,-1.92 155.95,-134.41 461.68,-112.22 653.26,-108.81 236.39,4.27 480.88,3.84 702.76,96.22 5.12,2.14 10.03,1.5 14.08,-0.42 0,30.29 0.22,60.59 0,90.88 -0.64,0 -1.28,0 -1.92,0.21 -13.87,3.42 -14.08,24.97 0,28.17 26.03,6.18 54.83,16.85 75.1,34.98 z m 159.16,-2068.59 c -16.43,5.33 -33.29,8.1 -49.29,-2.35 -16,-10.67 -25.17,-29.44 -28.8,-48 -2.77,-15.15 -3.63,-35.42 5.12,-48.86 5.34,-8.11 13.44,-10.24 21.98,-9.6 -1.71,11.09 -1.28,23.04 1.92,34.99 7.25,28.16 25.17,55.47 49.07,73.82 z m 51.63,-17.5 c 1.92,1.71 4.26,3.42 6.4,5.12 -32.01,-10.24 -58.46,-29.65 -68.49,-66.56 -8.75,-33.28 3.84,-51.42 28.59,-61.23 -1.07,3.2 -1.92,6.4 -2.56,10.03 -5.97,39.89 4.69,84.91 36.06,112.64 z m 37.76,-164.06 c -21.55,-4.91 -42.03,0.85 -55.9,14.93 -34.99,-8.96 -63.15,6.62 -76.8,32.86 -18.14,-8.32 -38.62,-9.82 -54.19,6.61 -1.71,1.92 -3.2,3.84 -4.7,5.76 -13.65,-17.92 -26.67,-36.27 -37.12,-56.75 -7.47,-14.93 -11.09,-36.05 -22.61,-48.43 55.89,-11.73 117.55,-17.28 173.45,-14.29 43.73,2.56 73.6,12.8 77.87,59.31 z m 57.81,122.89 c 1.07,15.57 -1.7,30.5 -20.26,34.56 -20.27,4.48 -41.18,-6.19 -53.98,-21.55 -27.09,-32.43 -37.34,-108.81 17.28,-111.37 0.43,28.81 0.64,56.97 5.12,85.56 2.56,15.57 16.64,18.13 27.52,12.8 4.48,2.98 10.24,4.26 17.07,2.34 2.56,-0.64 4.69,-1.49 7.25,-2.34 z m 36.49,-183.27 c 36.26,60.81 17.7,119.48 -48.86,141.88 -5.76,-73.18 7.25,-165.13 -87.9,-177.51 -67.42,-8.53 -145.71,-1.49 -211.85,21.98 10.45,-27.31 39.9,-33.92 74.88,-39.68 47.37,-7.68 96.44,-10.03 144.23,-7.26 49.06,2.99 101.98,14.72 129.5,60.59 z m 169.39,2782.03 c 27.53,13.01 103.48,56.11 61.66,90.46 -27.95,23.04 -51.84,-3.2 -53.76,-36.27 -1.5,-27.52 -41.39,-27.74 -42.67,0 -1.28,23.68 -4.48,50.13 -18.78,69.98 -3.41,4.48 -7.46,8.32 -12.58,10.45 -1.5,0.64 -4.7,0.64 -6.83,-0.21 -28.38,-10.46 -6.62,-78.51 1.49,-98.78 8.11,-20.27 -21.55,-34.99 -35.41,-20.7 -12.38,12.8 -40.11,40.54 -56.54,36.27 -5.76,-1.49 -5.33,-0.64 -8.11,-6.4 -1.49,-3.2 -2.34,-6.19 -2.13,-13.01 0.64,-12.8 6.83,-28.16 19.41,-38.62 16.43,-13.23 39.26,-18.13 59.95,-22.4 6.62,-1.28 10.24,-8.11 10.03,-14.51 3.2,-2.56 5.76,-5.97 6.4,-11.3 55.47,-355.65 -53.97,-864.27 -455.7,-969.23 -3.42,-1.07 -6.83,-1.07 -9.61,-0.64 0,-16 0.22,-32.01 0.43,-48.01 203.32,-21.12 341.36,184.33 422.64,345.62 106.25,210.15 174.73,454.43 90.24,684.63 -5.76,16.21 5.98,26.67 19.21,27.95 0.42,5.76 3.41,11.31 10.66,14.72 z m 89.82,122.03 c 21.34,-17.71 32.22,-48.43 22.83,-75.31 -14.51,-41.17 -53.34,-65.92 -91.1,-83.63 -1.28,-0.64 -2.56,-0.43 -3.84,-0.85 94.73,-247.48 8.32,-535.71 -117.34,-756.74 -81.07,-142.73 -246.84,-385.09 -442.91,-310.84 1.5,-162.15 6.19,-324.08 19.21,-485.58 11.94,-145.29 25.17,-290.79 37.12,-436.5 1.7,-3.84 1.92,-8.33 1.06,-12.81 13.87,-168.97 25.82,-337.93 31.15,-507.33 27.52,44.8 83.85,63.79 134.2,28.59 1.06,-0.64 1.7,-1.5 2.34,-2.35 15.15,4.69 31.37,5.97 48.01,2.35 7.04,-1.71 10.24,-8.75 9.81,-15.36 18.56,5.54 38.19,5.54 55.26,-4.7 25.6,-15.36 33.49,-44.59 28.16,-72.11 132.7,-69.76 49.71,-258.15 -97.07,-271.59 -75.53,-7.04 -160.44,-5.54 -232.34,20.48 -34.13,12.38 -74.03,55.69 -45.87,86.62 0,0.43 0.22,0.64 0.22,1.07 -26.88,149.13 -107.32,280.98 -184.12,409.84 -191.58,-60.59 -424.34,-59.95 -612.3,-48.43 -108.38,6.61 -200.97,30.93 -302.95,65.07 -4.7,1.49 -9.18,3.41 -13.66,5.76 -38.19,-134.2 -31.79,-260.71 -20.9,-397.04 1.49,-1.49 2.77,-2.77 4.26,-4.27 8.32,-8.32 5.76,-18.77 -0.85,-25.17 1.92,-2.99 3.2,-6.61 2.77,-11.52 -6.4,-65.07 -115.63,-59.95 -161.07,-59.52 -76.17,0.64 -173.03,-3.2 -245.78,22.61 -116.27,41.18 -52.05,187.32 43.1,218.25 -0.64,2.99 -1.5,5.98 -1.71,9.18 -3.63,30.93 21.76,55.04 51.84,48.85 4.91,-0.85 9.82,-2.56 14.51,-4.48 10.67,49.5 72.11,35.2 104.11,6.83 -19.2,371.22 -36.05,742.02 -74.24,1111.96 -12.37,120.32 -22.4,241.08 -32.21,361.83 -1.07,0 -1.92,-0.43 -3.2,-0.43 -336.45,4.91 -839.09,267.75 -828.43,656.26 -17.92,-3.63 -35.41,-4.06 -53.55,-0.22 -37.12,7.9 -69.33,33.28 -86.19,67.63 -7.68,15.79 -14.08,33.5 -13.01,51.63 0.21,2.14 0.43,4.27 0.64,6.62 0.21,0.85 0.43,2.98 0.64,4.69 0,0.43 0.21,1.07 0.21,1.49 0,0 0,0 0,0.22 0.22,0.42 0.22,0.85 0.22,0.85 0.42,3.63 0.85,7.25 1.49,10.88 1.49,6.83 3.84,13.44 6.83,19.84 11.94,25.6 40.32,39.26 66.99,27.95 17.7,-7.47 33.49,-19.2 47.15,-32.64 5.54,-5.55 10.88,-11.31 16,-17.28 -0.64,18.34 3.2,36.48 14.5,51.41 17.71,23.26 45.02,35.42 74.04,28.38 26.88,-6.62 49.06,-29.23 53.76,-56.75 1.49,-9.18 1.92,-18.56 1.06,-27.74 5.34,2.56 10.89,4.48 16.65,5.12 24.74,3.2 51.84,-10.24 67.84,-29.01 17.07,-20.27 26.67,-50.56 9.6,-74.25 -23.04,-32 -71.68,-43.95 -109.23,-42.66 24.53,-171.75 145.29,-302.74 290.79,-391.92 68.91,-42.24 142.09,-80.86 220.38,-101.77 65.07,-17.28 124.38,-12.37 189.45,-18.13 1.5,-0.21 2.78,-0.64 4.06,-1.07 -4.48,56.75 -8.96,113.5 -13.66,170.04 -11.94,140.81 -52.91,327.7 -14.29,471.49 -20.69,-23.68 -43.95,-45.01 -70.83,-62.08 -11.74,-7.68 -27.31,4.69 -23.26,17.92 17.71,57.6 39.69,116.49 49.07,176.44 0,0 0.22,0.64 0.43,2.34 2.99,17.5 18.35,122.89 -0.64,112.86 -16.43,-9.17 -33.07,-17.28 -50.35,-24.53 -11.73,-5.34 -24.32,3.2 -21.55,16.64 27.52,129.07 53.98,256.87 59.31,388.93 -13.86,3.84 -27.09,10.67 -36.69,17.71 -29.02,21.12 -44.81,59.31 -43.31,94.51 2.13,50.13 46.29,84.48 93.87,93.87 8.11,51.63 15.79,103.26 23.9,154.89 -28.17,-10.67 -55.47,-14.29 -88.97,-12.37 -18.35,1.06 -25.17,20.48 -14.08,34.13 121.18,147.42 259,624.04 534,505.42 -7.89,199.9 439.28,180.7 555.98,145.28 156.38,-47.14 265.4,-135.26 364.82,-261.34 102.41,-129.93 196.07,-256.23 378.48,-250.04 26.24,0.85 36.27,-36.91 13.44,-49.5 -87.26,-47.58 -177.08,-80.86 -268.82,-101.13 28.17,-111.58 47.37,-224.22 97.29,-328.76 4.91,-10.67 -3.2,-20.91 -14.51,-18.78 -61.44,10.67 -45.87,1.07 -45.44,-58.24 0.21,-36.7 1.07,-71.68 -8.75,-106.89 52.48,-12.16 101.77,-44.16 82.99,-99.2 -2.98,-8.32 -7.89,-16 -13.65,-23.26 -13.23,-26.02 -36.06,-42.45 -63.36,-52.69 12.8,-44.81 -2.14,-96.44 -54.83,-108.38 -29.66,-6.83 -52.49,2.34 -66.99,20.05 -16.22,-21.33 -39.9,-35.2 -71.48,-33.49 -34.13,1.49 -54.61,23.68 -64.43,51.41 -14.08,-17.06 -33.7,-28.37 -56.32,-25.6 -27.09,3.2 -46.3,16.22 -58.24,34.99 -45.02,-51.42 -125.88,-34.56 -154.25,30.51 -18.35,-19.42 -43.31,-31.15 -73.39,-26.03 -18.78,2.99 -32.43,10.88 -42.24,21.55 12.58,-174.73 132.27,-279.48 207.15,-434.16 2.35,-4.69 2.99,-9.81 2.56,-14.29 14.08,17.92 35.85,28.8 65.93,27.73 13.44,-0.43 34.35,-7.47 50.99,-18.56 4.9,30.51 19.2,60.16 39.89,80.64 31.79,31.58 70.41,20.91 102.2,-0.64 5.54,39.05 22.61,78.09 59.52,93.24 56.32,23.25 95.15,-24.32 116.49,-71.05 1.28,-2.98 1.28,-5.76 0.85,-8.1 27.73,1.92 55.9,-4.49 69.98,-31.37 32.42,-62.29 -20.27,-135.47 -84.49,-150.62 -0.21,-149.13 -1.92,-298.47 -1.92,-447.81 356.72,146.99 483.23,556.4 425.2,915.68 -0.43,1.71 0,2.99 0,4.48 -57.6,-6.83 -112.01,41.6 -101.34,104.96 4.27,26.03 23.47,47.37 50.35,50.14 14.29,1.49 27.95,-2.13 40.75,-8.32 -1.49,14.29 -1.07,28.59 2.77,42.24 5.76,21.12 20.27,44.38 43.52,49.07 39.47,8.11 62.73,-18.77 75.74,-52.27 5.76,5.12 12.16,9.39 19.84,12.59 25.6,10.45 55.47,2.77 76.38,-14.51 z M 224.4,4849.5 c 10.67,-13.02 18.35,-19.21 34.56,-26.67 12.59,-5.98 33.93,-9.82 50.78,-10.88 9.39,-0.43 14.72,-8.32 15.15,-16.22 4.69,-1.28 8.75,-5.12 9.6,-11.3 47.79,-365.25 456.99,-612.52 803.25,-621.27 0,0 0,0 0.21,0 -1.92,22.19 -3.63,44.17 -5.34,66.14 -136.75,-75.31 -379.32,64.64 -484.72,142.94 -128.43,95.79 -288.23,250.9 -256.65,428.4 1.92,10.67 11.09,13.01 18.99,10.03 2.34,2.34 5.12,4.05 9.17,4.69 19.63,3.2 39.26,3.63 58.24,10.45 5.34,1.71 10.46,3.84 15.79,7.47 4.27,2.78 1.28,0.43 4.69,3.84 0.43,0.43 2.57,2.99 2.99,3.2 0.86,1.5 1.92,3.63 1.92,3.63 0.43,1.28 0.86,2.35 1.07,3.63 0,0 0,0 0,0.21 0.21,0.85 0.21,1.71 0.21,2.77 -0.21,0.43 -0.21,0.86 -0.21,1.28 v 0.22 c -0.43,1.92 -1.07,3.84 -1.71,5.76 -0.42,1.06 -1.06,2.34 -1.28,2.77 -0.85,1.71 -1.92,3.41 -2.99,5.12 -0.64,0.85 -0.85,1.28 -1.06,1.49 0,0 -0.22,0.22 -0.64,0.64 -1.71,1.92 -3.42,3.84 -5.34,5.55 -0.42,0.43 -2.34,2.13 -2.98,2.56 -3.63,2.56 -7.26,4.91 -11.1,6.83 -1.28,0.64 -1.92,0.85 -1.92,1.06 -0.21,0 -0.64,0.22 -2.34,0.64 -1.92,0.64 -3.84,1.28 -5.76,1.71 -1.71,0.21 -3.2,0.64 -4.91,1.07 -0.85,0 -3.2,0.21 -3.84,0.42 -6.61,0 -13.65,-1.49 -20.7,-6.18 -4.26,-2.99 -7.68,-7.26 -10.88,-11.52 -6.82,-15.79 -16.85,-31.36 -32.21,-32.43 -6.4,-0.43 -10.88,4.48 -13.02,9.81 -5.97,15.79 12.38,37.98 17.07,53.34 3.2,11.09 5.12,26.03 3.42,34.35 -3.63,16.85 -11.74,25.6 -27.1,28.59 -0.43,0 -0.64,0 -0.85,0 0,0 0,0 -0.22,0 -0.85,0.21 -1.92,0.21 -2.98,0.21 -1.71,0 -3.63,0 -5.34,-0.21 0,-0.22 -7.46,-1.92 -9.38,-2.56 -0.64,-0.22 -0.64,-0.22 -0.64,-0.22 -0.43,-0.21 -0.86,-0.42 -1.92,-1.06 -1.71,-1.07 -3.63,-2.14 -5.12,-3.42 0,-0.42 -5.12,-5.54 -5.34,-5.54 -13.44,-20.27 -11.3,-49.93 -8.1,-75.74 0.42,-4.06 -1.28,-7.04 -3.84,-9.39 -1.71,-5.55 -9.18,-7.89 -14.3,-5.33 -12.8,6.61 -20.91,24.32 -30.29,35.2 -8.32,9.6 -16.86,18.99 -26.46,27.31 -6.83,5.97 -14.29,12.16 -22.4,16.21 -2.77,1.49 -5.76,2.56 -8.75,3.41 -1.06,0.43 -6.61,1.5 -5.76,1.5 -6.61,0.64 -6.4,0.85 -10.88,-1.07 -0.42,0 -0.85,-0.21 -1.49,-0.43 0.85,0.43 1.28,0.43 1.49,0.43 0.86,0 -3.63,-2.56 -3.2,-1.71 -1.07,-1.28 -2.35,-2.56 -2.56,-2.77 -1.07,-1.49 -2.13,-3.2 -2.99,-4.91 0,-0.21 0,-0.21 0,-0.21 0,0 0,0 -0.21,-0.21 -0.43,-1.28 -0.85,-2.56 -1.07,-3.84 -0.42,-1.07 -1.28,-6.19 -1.49,-6.4 0,-1.92 -0.21,-3.63 -0.21,-5.55 0,-1.49 0,-3.2 0,-4.69 0,-0.64 0,-0.86 0,-1.07 0.64,-2.99 1.06,-6.19 1.92,-9.17 1.92,-6.83 3.2,-13.66 5.33,-20.49 1.07,-3.41 2.13,-7.04 3.41,-10.45 0.22,-0.21 0.22,-0.21 0.22,-0.21 0.21,-0.43 0.21,-0.43 0.43,-0.86 0.85,-1.7 1.49,-3.41 2.56,-5.12 1.7,-3.41 3.62,-6.61 5.76,-9.81 0.42,-1.07 4.26,-5.76 4.26,-5.97 z M 1110,2617.9 c -2.35,-1.92 -1.92,-1.49 -2.56,-2.77 -2.99,-4.91 -5.12,-12.16 -6.83,-19.63 12.16,1.49 24.54,1.07 36.91,-1.92 9.6,-2.13 16,-11.73 16.22,-21.12 0.21,-17.28 0.85,-34.35 1.7,-51.2 8.75,4.26 17.71,1.92 27.1,1.7 8.1,-0.21 7.89,-0.85 14.93,1.71 2.35,0.85 3.63,1.92 3.63,6.19 0,1.28 0,2.34 -0.21,3.62 0,0 0,0 0,0.22 0,0.21 0,0 0,0.64 -0.64,2.13 -1.07,4.48 -1.92,6.82 -1.92,5.76 -2.35,6.83 -5.77,13.23 -6.18,11.09 -12.58,19.84 -20.69,28.59 -14.72,16 -33.07,33.07 -53.34,36.27 -0.21,-0.22 -2.56,0 -4.05,0 -0.43,-0.22 -2.13,-0.64 -2.99,-0.86 0,-0.21 -1.92,-1.49 -2.13,-1.49"
         style="fill:#171717;fill-opacity:1;fill-rule:nonzero;stroke:none"
         id="path250" />
      <path
         d="m 4149.63,5807.63 c 17.71,-2.35 29.87,-27.09 10.24,-37.12 -40.32,-20.91 -81.5,-37.98 -119.9,-62.3 -7.26,-4.48 -15.79,-3.41 -22.4,0.64 -4.91,-0.64 -10.03,0.22 -14.08,2.35 -3.84,2.13 -8.11,6.83 -8.96,11.31 0,-0.43 0.21,-0.86 0,-1.07 -0.43,2.99 -1.07,6.83 -1.07,7.47 0,1.7 0.21,3.41 0.64,5.12 -1.28,10.88 -2.13,21.54 -2.78,32.64 -127.15,3.2 -252.6,-0.85 -379.54,-16.22 -14.72,-1.92 -17.7,22.41 -3.41,25.61 123.74,28.58 254.95,28.8 382.1,23.46 -0.21,14.3 -0.21,28.38 -0.21,42.46 -0.22,16 17.49,25.39 30.72,17.92 40.11,-22.61 82.35,-46.3 128.65,-52.27"
         style="fill:#171717;fill-opacity:1;fill-rule:nonzero;stroke:none"
         id="path252" />
      <path
         d="m 3163.6221,5261.1945 c 41.82,-34.35 -34.13,-77.45 -61.66,-90.46 -7.25,-3.41 -10.24,-8.96 -10.66,-14.72 -13.23,-1.28 -24.97,-11.74 -19.21,-27.95 84.49,-230.2 16.01,-474.48 -90.24,-684.63 -81.28,-161.29 -219.32,-366.74 -422.64,-345.62 -0.21,16 -0.43,32.01 -0.43,48.01 2.78,-0.43 6.19,-0.43 9.61,0.64 401.73,104.96 511.17,613.58 455.7,969.23 -0.64,5.33 -3.2,8.74 -6.4,11.3 0.21,6.4 -3.41,13.23 -10.03,14.51 -20.69,4.27 -43.52,9.17 -59.95,22.4 -12.58,10.46 -18.77,25.82 -19.41,38.62 -0.21,6.82 0.64,9.81 2.13,13.01 2.78,5.76 2.35,4.91 8.11,6.4 16.43,4.27 44.16,-23.47 56.54,-36.27 13.86,-14.29 43.52,0.43 35.41,20.7 -8.11,20.27 -29.87,88.32 -1.49,98.78 2.13,0.85 5.33,0.85 6.83,0.21 5.12,-2.13 9.17,-5.97 12.58,-10.45 14.3,-19.85 17.5,-46.3 18.78,-69.98 1.28,-27.74 41.17,-27.52 42.67,0 1.92,33.07 25.81,59.31 53.76,36.27"
         style="fill:#e8baa7;fill-opacity:1;fill-rule:nonzero;stroke:none"
         id="path254" />
      <path
         d="m 4117.41,6285.53 c 11.52,-2.35 13.44,-17.07 6.62,-24.75 -22.83,-25.18 -70.19,-13.87 -90.46,9.81 -24.75,29.02 -34.99,67.42 -35.63,105.18 -1.28,66.56 25.17,171.32 111.79,157.66 8.96,-1.28 7.9,-14.93 0,-16.85 -56.32,-14.94 -74.46,-90.03 -72.32,-140.81 0.85,-25.17 4.26,-59.1 23.25,-78.08 18.14,-17.93 34.99,-7.9 56.75,-12.16"
         style="fill:#171717;fill-opacity:1;fill-rule:nonzero;stroke:none"
         id="path256" />
      <path
         d="m 4090.32,2888.21 c 19.84,-4.27 25.17,-31.15 11.73,-44.59 -30.93,-30.51 -62.08,-61.23 -96.43,-87.9 -13.01,-10.03 -34.56,0.43 -37.76,15.36 -3.63,16.64 -5.98,33.28 -7.26,49.93 -95.57,-13.45 -196.7,-17.07 -292.28,-2.78 -13.65,2.14 -13.65,25.82 0,27.95 94.73,14.29 192.65,13.44 288.02,22.19 1.06,0 1.92,-0.43 2.77,-0.43 0.21,1.92 0.21,3.63 0.43,5.55 -5.55,9.17 -3.63,19.84 2.34,27.73 0.22,1.28 0.22,2.35 0.43,3.63 1.28,10.67 17.28,16.64 22.4,7.47 14.72,0.42 31.15,-6.83 44.59,-10.03 20.27,-5.12 40.54,-10.03 61.02,-14.08"
         style="fill:#171717;fill-opacity:1;fill-rule:nonzero;stroke:none"
         id="path258" />
      <path
         d="m 3067.66,3834.18 c 20.69,-4.9 30.3,-35.62 13.23,-50.13 -20.7,-17.28 -42.89,-32.43 -66.35,-45.66 -19.2,-11.09 -42.46,-29.65 -64.65,-33.49 -5.76,-1.07 -10.88,-0.43 -15.57,0.64 -7.47,-3.84 -16,-4.48 -24.96,1.7 -8.11,5.55 -12.38,14.72 -10.46,23.9 0,0.21 0,0.21 0,0.42 l -0.21,0.22 c -7.68,13.44 -4.69,32.43 -2.99,51.2 -85.76,6.4 -173.02,13.44 -256.87,32.64 -18.77,4.27 -10.24,30.3 7.69,27.74 83.2,-11.31 167.69,-1.92 250.89,-11.1 0,13.23 0,26.46 0.43,39.47 0.85,27.1 30.08,35.84 49.28,20.48 34.99,-27.94 77.02,-47.79 120.54,-58.03"
         style="fill:#171717;fill-opacity:1;fill-rule:nonzero;stroke:none"
         id="path260" />
      <path
         d="m 2903.17,2549.42 c 66.56,-22.4 85.12,-81.07 48.86,-141.88 -27.52,-45.87 -80.44,-57.6 -129.5,-60.59 -47.79,-2.77 -96.86,-0.42 -144.23,7.26 -34.98,5.76 -64.43,12.37 -74.88,39.68 66.14,-23.47 144.43,-30.51 211.85,-21.98 95.15,12.38 82.14,104.33 87.9,177.51"
         style="fill:#ffffff;fill-opacity:1;fill-rule:nonzero;stroke:none"
         id="path262" />
      <path
         d="m 2895.28,2625.37 c 18.56,-4.06 21.33,-18.99 20.26,-34.56 -2.56,0.85 -4.69,1.7 -7.25,2.34 -6.83,1.92 -12.59,0.64 -17.07,-2.34 -10.88,5.33 -24.96,2.77 -27.52,-12.8 -4.48,-28.59 -4.69,-56.75 -5.12,-85.56 -54.62,2.56 -44.37,78.94 -17.28,111.37 12.8,15.36 33.71,26.03 53.98,21.55"
         style="fill:#ffffff;fill-opacity:1;fill-rule:nonzero;stroke:none"
         id="path264" />
      <path
         d="m 2884.4,6373 c 26.66,-2.35 30.93,-36.27 6.18,-45.66 -41.6,-15.57 -78.3,-33.49 -113.92,-60.38 -4.06,-2.98 -7.9,-4.05 -11.95,-4.05 -8.75,-9.17 -19.63,-6.61 -26.24,0.64 -7.68,-0.21 -14.72,4.27 -13.66,13.65 1.71,13.66 3.2,27.31 4.48,41.18 -28.16,-8.53 -59.31,-7.89 -88.54,-8.75 -46.08,-1.49 -91.09,0.64 -137.18,4.48 -14.72,1.28 -14.72,21.55 0,22.83 45.87,3.84 91.53,5.98 137.18,9.18 30.51,2.13 61.24,8.96 91.53,6.82 1.92,24.75 4.05,49.5 7.47,74.25 1.49,11.3 18.13,17.28 27.09,10.88 35.84,-25.18 71.9,-61.23 117.56,-65.07"
         style="fill:#171717;fill-opacity:1;fill-rule:nonzero;stroke:none"
         id="path266" />
      <path
         d="m 2801.83,2482.85 c 13.87,-14.08 34.35,-19.84 55.9,-14.93 -4.27,-46.51 -34.14,-56.75 -77.87,-59.31 -55.9,-2.99 -117.56,2.56 -173.45,14.29 11.52,12.38 15.14,33.5 22.61,48.43 10.45,20.48 23.47,38.83 37.12,56.75 1.5,-1.92 2.99,-3.84 4.7,-5.76 15.57,-16.43 36.05,-14.93 54.19,-6.61 13.65,-26.24 41.81,-41.82 76.8,-32.86"
         style="fill:#171717;fill-opacity:1;fill-rule:nonzero;stroke:none"
         id="path268" />
      <path
         d="m 2826.37,2637.1 c -2.14,-1.7 -4.48,-3.41 -6.4,-5.12 -31.37,-27.73 -42.03,-72.75 -36.06,-112.64 0.64,-3.63 1.49,-6.83 2.56,-10.03 -24.75,9.81 -37.34,27.95 -28.59,61.23 10.03,36.91 36.48,56.32 68.49,66.56"
         style="fill:#ffffff;fill-opacity:1;fill-rule:nonzero;stroke:none"
         id="path270" />
      <path
         d="m 2719.05,2647.13 c 16,10.45 32.86,7.68 49.29,2.35 -23.9,-18.35 -41.82,-45.66 -49.07,-73.82 -3.2,-11.95 -3.63,-23.9 -1.92,-34.99 -8.54,-0.64 -16.64,1.49 -21.98,9.6 -8.75,13.44 -7.89,33.71 -5.12,48.86 3.63,18.56 12.8,37.33 28.8,48"
         style="fill:#ffffff;fill-opacity:1;fill-rule:nonzero;stroke:none"
         id="path272" />
      <path
         d="m 1597.07,5520.68 c 55.89,0 55.89,86.62 0,86.62 -55.9,0 -55.9,-86.62 0,-86.62 z m 384.23,-133.13 c 28.81,24.54 34.78,70.41 20.06,103.48 -16.86,37.12 -56.75,56.53 -96.86,49.49 -38.83,-6.82 -57.18,-38.83 -44.16,-75.52 3.41,-9.39 17.7,-8.32 17.7,2.34 -0.21,24.33 14.09,33.71 36.7,33.93 23.68,0.42 42.88,-13.87 49.28,-36.49 4.7,-16.64 -2.34,-34.34 -14.08,-45.86 -14.72,-14.51 -35.84,-1.71 -53.12,-9.61 -6.19,-2.98 -10.03,-12.58 -7.68,-18.98 14.72,-39.05 68.48,-23.04 92.16,-2.78 z m 291.65,158.31 c 0,25.81 -21.55,47.36 -47.37,47.36 -25.81,0 -47.15,-21.55 -47.15,-47.36 0,-25.61 21.34,-47.15 47.15,-47.15 25.82,0 47.37,21.54 47.37,47.15 z m 344.98,-749.49 c 35.63,-16 9.6,-61.87 -8.75,-78.3 -20.27,-18.13 -49.07,-28.8 -75.1,-34.98 -14.08,-3.2 -13.87,-24.75 0,-28.17 0.64,-0.21 1.28,-0.21 1.92,-0.21 0.22,-30.29 0,-60.59 0,-90.88 -4.05,1.92 -8.96,2.56 -14.08,0.42 -221.88,-92.38 -466.37,-91.95 -702.76,-96.22 -191.58,-3.41 -497.31,-25.6 -653.26,108.81 -5.34,4.48 -11.52,4.48 -16.22,1.92 -0.85,13.01 -1.92,26.24 -2.56,39.47 -5.54,96.86 -23.25,217.19 3.42,312.12 3.41,12.38 -4.06,20.7 -13.23,23.05 75.95,121.6 92.59,289.51 66.35,425.62 27.31,-10.24 53.55,-16.43 85.12,-19.84 12.38,-1.28 23.05,16.21 15.15,26.24 -91.74,119.26 -141.87,327.7 -25.81,445.47 16,-24.54 34.99,-32.86 71.25,-31.58 6.83,0.21 11.31,5.55 12.16,11.31 0,0.42 0.22,0.85 0.22,1.28 15.36,134.19 123.1,285.45 234.25,367.17 43.74,-227.43 223.16,-369.09 454.43,-393.2 14.29,-1.49 25.39,18.35 17.07,29.87 -24.11,33.49 -37.98,67.42 -48.22,105.39 1.07,-0.43 1.92,-1.07 3.2,-1.49 138.67,-34.78 277.14,-47.58 412.61,-33.92 22.4,-100.7 50.78,-204.82 48,-308.29 -1.28,-56.32 -20.05,-124.17 2.56,-177.72 2.14,-5.33 6.83,-11.3 13.66,-10.45 0.42,0.21 0.85,0.21 1.49,0.21 -8.11,-10.45 -5.55,-29.65 9.6,-32 29.02,-4.27 155.96,-11.52 103.9,-67.42 -19.2,-20.48 -45.02,-33.28 -73.39,-42.02 -4.69,-0.86 -9.6,-1.5 -15.15,-2.14 -33.71,-3.2 -68.06,-1.7 -100.27,-11.52 -308.07,3.41 -598.44,155.53 -909.07,120.33 -242.57,-27.31 -273.08,-251.75 -199.9,-446.96 82.35,-220.17 287.38,-274.36 499.87,-290.15 131.85,-9.81 264.97,-3.41 394.69,21.12 84.48,15.79 198.19,42.24 261.99,108.81 45.65,13.01 94.51,71.25 144.86,48.85"
         style="fill:#e8baa7;fill-opacity:1;fill-rule:nonzero;stroke:none"
         id="path274" />
      <path
         d="m 2598.3,3075.95 c 9.17,-168.11 3.2,-343.06 50.35,-506.27 -22.4,-21.33 -39.26,-51.84 -52.91,-78.93 -2.35,-4.27 -5.12,-9.82 -7.89,-15.58 -18.14,130.36 -96.65,252.82 -163.64,362.69 23.68,8.96 46.94,18.56 68.91,29.66 16.43,8.1 4.27,30.72 -11.73,27.73 -110.52,-20.48 -215.7,-51.63 -328.56,-64 -113.28,-12.59 -227.64,-14.3 -341.35,-12.38 -111.58,1.71 -219.32,17.71 -324.5,54.83 -8.11,2.99 -18.13,8.54 -28.59,14.3 -2.13,1.49 -4.26,2.77 -6.82,3.41 -16.64,8.53 -33.93,15.36 -47.79,10.24 -5.98,-2.13 -7.04,-11.52 0,-13.23 0.21,0 0.21,0 0.21,-0.21 -1.92,-2.13 -0.21,-6.61 10.88,-14.08 3.2,-2.13 6.4,-4.48 9.81,-6.83 -39.68,-122.03 -48.21,-254.31 -24.74,-380.61 -18.99,19.2 -38.19,38.41 -57.82,57.18 -11.09,10.67 -36.7,40.32 -58.03,47.79 -1.07,5.12 -2.56,10.24 -4.69,15.15 0,0.64 0.42,1.06 0.42,1.92 7.04,159.37 1.28,320.02 -9.81,480.88 161.5,-130.78 408.13,-144.86 605.47,-138.04 244.5,8.32 485.79,69.13 722.61,127.16 0,-0.86 0,-1.92 0.21,-2.78"
         style="fill:#3e42a1;fill-opacity:1;fill-rule:nonzero;stroke:none"
         id="path276" />
      <path
         d="m 2617.29,5590.45 c -11.1,3.41 -22.4,7.04 -33.28,11.09 -10.46,4.69 -23.26,-0.64 -23.26,-13.23 0.21,-64 -1.28,-127.15 -3.63,-190.94 -17.28,1.7 -33.71,1.28 -46.51,-1.5 20.27,30.94 8.75,128.01 11.1,160.87 8.32,109.66 -21.76,227.21 -50.99,333.24 22.4,2.99 44.59,7.04 66.78,11.52 16,-108.38 29.86,-213.98 79.79,-311.05"
         style="fill:#6e4022;fill-opacity:1;fill-rule:nonzero;stroke:none"
         id="path278" />
      <path
         d="m 2594.46,3131 c 0.43,-5.98 0.85,-11.95 1.28,-18.14 -216.76,-52.05 -433.73,-102.19 -656.25,-120.32 -113.72,-9.39 -227.86,-7.47 -340.72,8.96 -119.9,17.28 -221.45,65.92 -330.68,114.14 -1.28,19.84 -2.77,39.89 -4.48,59.73 163.64,-107.52 382.53,-112.43 571.34,-115.42 259.64,-4.05 503.28,46.51 759.51,71.05"
         style="fill:#ee2e32;fill-opacity:1;fill-rule:nonzero;stroke:none"
         id="path280" />
      <path
         d="m 2569.92,4833.49 c -3.2,-0.64 -6.4,-1.49 -9.6,-2.34 -31.14,-8.96 -76.16,-26.88 -101.98,-52.06 -1.7,32.64 1.71,64.86 23.47,90.89 32.86,39.25 70.62,-7.68 88.11,-36.49"
         style="fill:#ffffff;fill-opacity:1;fill-rule:nonzero;stroke:none"
         id="path282" />
      <path
         d="m 2569.28,5210.69 c 0.22,-26.03 -10.66,-50.99 -37.76,-60.59 -33.71,-12.16 -40.53,18.77 -37.55,45.23 0.22,1.92 -0.21,3.41 -0.64,5.12 25.82,1.28 51.85,4.05 75.95,10.24"
         style="fill:#ffffff;fill-opacity:1;fill-rule:nonzero;stroke:none"
         id="path284" />
      <path
         d="m 2556.27,3598.65 c 10.03,-142.94 24.96,-285.67 35.63,-428.82 -222.95,-17.5 -439.07,-68.91 -664.36,-69.98 -228.28,-1.07 -455.07,7.47 -666.06,102.19 -14.51,175.58 -33.5,350.95 -47.58,524.62 -16.64,207.58 -24.96,416.02 -44.59,623.39 -3.41,34.78 -6.61,69.77 -9.81,104.54 146.14,-137.82 394.26,-146.14 582.43,-147.85 128.43,-1.28 257.51,10.25 385.3,21.77 137.4,12.58 282.9,30.72 408.77,90.03 -0.21,-273.51 1.28,-547.66 20.27,-819.89"
         style="fill:#ee2e32;fill-opacity:1;fill-rule:nonzero;stroke:none"
         id="path286" />
      <path
         d="m 2536,4522.01 c 0,-21.55 0,-43.1 0,-64.64 -0.42,0 -0.64,0 -0.85,-0.22 -240.66,-74.45 -489.42,-100.06 -740.95,-106.67 -207.59,-5.55 -468.08,0.43 -635.13,140.81 -0.85,0.85 -1.92,1.07 -2.77,1.49 -1.71,19.84 -3.42,39.47 -4.91,59.1 139.74,-136.54 410.48,-127.37 589.69,-129.29 258.14,-2.99 555.55,-12.16 794.92,99.42"
         style="fill:#ee2e32;fill-opacity:1;fill-rule:nonzero;stroke:none"
         id="path288" />
      <path
         d="m 2312.84,6384.94 c 141.45,-136.75 213.13,-327.05 402.8,-372.07 -221.45,-95.37 -440.35,-105.18 -685.91,-67.2 -6.82,1.06 -11.94,-2.35 -14.72,-7.04 -0.42,1.7 -0.85,3.41 -1.06,5.12 -4.48,20.05 -39.26,16 -36.49,-4.91 5.12,-39.9 15.58,-74.67 33.5,-107.74 -198.84,34.35 -355.01,170.04 -383.17,379.54 -1.71,13.02 -14.72,24.54 -27.95,16.22 -123.52,-79.58 -248.12,-238.1 -261.77,-390.85 -13.23,11.09 -26.46,22.18 -39.69,33.28 -4.9,11.31 -20.48,10.67 -28.37,3.62 -133.98,-118.83 -110.3,-325.13 -21.76,-467.65 -19.84,5.55 -39.68,10.88 -59.53,16.43 -13.22,5.33 -29.44,-3.41 -25.17,-19.42 42.88,-157.23 16,-384.44 -111.37,-502 27.1,94.51 48.22,186.25 30.73,286.31 -1.71,9.82 -13.87,10.46 -20.27,5.34 -14.08,-7.68 -28.16,-15.37 -42.25,-23.05 27.74,120.12 49.29,240.02 52.49,363.55 6.4,1.28 12.37,3.62 17.49,8.1 9.18,-8.53 26.03,-4.9 27.52,11.52 3.2,30.08 2.99,60.38 5.98,90.67 2.77,30.73 12.58,59.96 15.57,90.46 1.07,12.16 -15.79,17.92 -23.47,9.82 -1.28,-1.28 -2.13,-2.56 -3.2,-3.84 -11.3,2.98 -23.46,4.05 -35.63,3.41 19.42,56.75 27.95,114.99 39.47,173.88 1.92,10.24 -7.25,24.32 -19.41,19.41 -21.98,-9.17 -43.31,-13.23 -65.5,-14.29 113.08,166.62 234.9,556.19 469.58,464.02 6.61,-2.34 12.37,-0.42 16.64,3.63 2.77,-11.31 6.4,-22.61 11.73,-34.99 6.19,-13.86 28.59,-6.61 27.95,7.68 -6.83,154.68 138.03,180.92 264.97,189.03 177.72,11.52 360.77,-40.54 490.27,-165.99"
         style="fill:#6e4022;fill-opacity:1;fill-rule:nonzero;stroke:none"
         id="path290" />
      <path
         d="m 2445.12,5199.17 c 2.98,0 5.97,0 8.96,0 -0.43,-1.28 -1.07,-2.35 -1.28,-3.84 -2.56,-28.59 -16.86,-58.03 -48.65,-60.16 -33.28,-2.35 -39.68,33.28 -38.82,60.16 21.76,-1.49 43.73,-2.56 65.71,-2.35 6.4,0 10.88,2.56 14.08,6.19"
         style="fill:#ffffff;fill-opacity:1;fill-rule:nonzero;stroke:none"
         id="path292" />
      <path
         d="m 2422.08,4763.3 c 0.21,-0.21 0.64,-0.42 0.85,-0.64 -36.06,-16.42 -71.05,-34.56 -107.31,-50.56 5.76,65.5 38.19,126.94 106.46,51.2"
         style="fill:#ffffff;fill-opacity:1;fill-rule:nonzero;stroke:none"
         id="path294" />
      <path
         d="m 2326.28,5198.53 c -0.21,-4.27 0,-8.96 0,-13.44 -8.32,-14.08 -19.62,-23.9 -40.96,-25.18 -29.01,-1.92 -38.19,25.82 -38.83,49.5 26.46,-4.48 53.13,-8.11 79.79,-10.88"
         style="fill:#ffffff;fill-opacity:1;fill-rule:nonzero;stroke:none"
         id="path296" />
      <path
         d="m 2279.99,2489.04 c 1.7,0 1.7,-2.56 0,-2.56 -1.71,0 -1.71,2.56 0,2.56"
         style="fill:#171717;fill-opacity:1;fill-rule:nonzero;stroke:none"
         id="path298" />
      <path
         d="m 2275.93,4698.87 c 0.22,-0.85 0.22,-1.92 0.43,-2.77 -14.93,-5.76 -30.29,-11.09 -46.08,-15.36 -16.64,-4.69 -33.5,-8.53 -50.56,-11.73 1.28,34.56 16.21,58.88 56.74,52.27 16.22,-2.78 26.89,-14.94 39.47,-22.41"
         style="fill:#ffffff;fill-opacity:1;fill-rule:nonzero;stroke:none"
         id="path300" />
      <path
         d="m 2225.58,5593.22 c 25.82,0 47.37,-21.55 47.37,-47.36 0,-25.61 -21.55,-47.15 -47.37,-47.15 -25.81,0 -47.15,21.54 -47.15,47.15 0,25.81 21.34,47.36 47.15,47.36"
         style="fill:#171717;fill-opacity:1;fill-rule:nonzero;stroke:none"
         id="path302" />
      <path
         d="m 2203.18,5217.09 c -22.18,-80.43 -103.47,-56.11 -108.16,22.83 36.05,-8.32 71.89,-16 108.16,-22.83"
         style="fill:#ffffff;fill-opacity:1;fill-rule:nonzero;stroke:none"
         id="path304" />
      <path
         d="m 2033.57,4651.94 c -0.64,79.15 82.35,70.62 103.05,9.6 -34.14,-4.91 -68.48,-7.9 -103.05,-9.6"
         style="fill:#ffffff;fill-opacity:1;fill-rule:nonzero;stroke:none"
         id="path306" />
      <path
         d="m 1972.56,5268.72 c 27.73,-6.4 55.25,-13.01 82.99,-19.63 -0.64,-1.7 -1.28,-3.41 -1.28,-5.33 0,-2.99 0.21,-5.76 0.21,-8.54 -32,-46.5 -100.7,-41.81 -81.92,33.5"
         style="fill:#ffffff;fill-opacity:1;fill-rule:nonzero;stroke:none"
         id="path308" />
      <path
         d="m 2001.36,5491.03 c 14.72,-33.07 8.75,-78.94 -20.06,-103.48 -23.68,-20.26 -77.44,-36.27 -92.16,2.78 -2.35,6.4 1.49,16 7.68,18.98 17.28,7.9 38.4,-4.9 53.12,9.61 11.74,11.52 18.78,29.22 14.08,45.86 -6.4,22.62 -25.6,36.91 -49.28,36.49 -22.61,-0.22 -36.91,-9.6 -36.7,-33.93 0,-10.66 -14.29,-11.73 -17.7,-2.34 -13.02,36.69 5.33,68.7 44.16,75.52 40.11,7.04 80,-12.37 96.86,-49.49"
         style="fill:#171717;fill-opacity:1;fill-rule:nonzero;stroke:none"
         id="path310" />
      <path
         d="m 1994.1,4653.64 c -0.21,-1.06 -0.21,-1.92 0,-2.98 -28.16,-0.43 -56.11,-0.22 -83.63,0.21 5.55,10.67 11.1,21.12 16.64,31.79 25.18,31.57 47.37,21.97 66.99,-29.02"
         style="fill:#ffffff;fill-opacity:1;fill-rule:nonzero;stroke:none"
         id="path312" />
      <path
         d="m 1933.09,5277.68 c -14.72,-23.68 -37.12,-37.76 -65.71,-39.47 -39.47,-2.35 -38.41,31.36 -40.75,59.95 0,0.43 -0.22,0.64 -0.43,1.07 35.84,-6.19 71.26,-13.66 106.89,-21.55"
         style="fill:#ffffff;fill-opacity:1;fill-rule:nonzero;stroke:none"
         id="path314" />
      <path
         d="m 1839.43,4686.07 c 10.03,-11.73 18.99,-24.1 24.53,-34.13 -36.27,1.49 -72.32,4.05 -107.74,8.1 0.22,1.07 0.64,2.35 0.64,3.42 0.64,6.61 1.28,13.65 2.56,20.05 25.39,13.23 52.06,12.16 80.01,2.56"
         style="fill:#ffffff;fill-opacity:1;fill-rule:nonzero;stroke:none"
         id="path316" />
      <path
         d="m 1792.28,5304.99 c -1.92,-4.27 -2.99,-8.75 -4.05,-13.02 -8.75,-6.18 -17.5,-12.8 -27.31,-19.62 -11.74,-8.11 -24.54,-14.3 -38.4,-18.14 -16.65,-4.48 -11.74,41.82 -9.39,60.81 1.06,0 2.13,-0.22 3.2,-0.22 25.39,-2.56 50.77,-5.97 75.95,-9.81"
         style="fill:#ffffff;fill-opacity:1;fill-rule:nonzero;stroke:none"
         id="path318" />
      <path
         d="m 1710.99,4669.65 c 0,-1.28 0.43,-2.35 0.86,-3.42 -48,7.9 -93.87,19.84 -136.97,37.55 36.91,53.76 103.9,57.6 127.58,5.33 -2.99,-10.45 0.64,-21.97 7.68,-30.08 0.21,-3.2 0.85,-6.18 0.85,-9.38"
         style="fill:#ffffff;fill-opacity:1;fill-rule:nonzero;stroke:none"
         id="path320" />
      <path
         d="m 1545.87,5320.99 c 39.89,2.56 80.64,1.07 117.34,-1.71 -36.06,-46.29 -119.26,-84.06 -117.34,1.71"
         style="fill:#ffffff;fill-opacity:1;fill-rule:nonzero;stroke:none"
         id="path322" />
      <path
         d="m 1597.07,5607.3 c 55.89,0 55.89,-86.62 0,-86.62 -55.9,0 -55.9,86.62 0,86.62"
         style="fill:#171717;fill-opacity:1;fill-rule:nonzero;stroke:none"
         id="path324" />
      <path
         d="m 1500.64,4808.32 c 17.06,-22.19 26.66,-53.12 26.45,-81.28 -34.13,18.77 -65.71,42.45 -93.87,71.89 0.85,0.64 1.71,0.86 2.56,1.71 10.24,10.88 20.05,26.24 36.48,27.09 11.73,0.43 22.19,-10.88 28.38,-19.41"
         style="fill:#ffffff;fill-opacity:1;fill-rule:nonzero;stroke:none"
         id="path326" />
      <path
         d="m 1140.94,2447.01 c 83.63,-26.88 169.39,-41.81 257.29,-37.97 -21.76,-23.9 -107.74,-14.51 -131.63,-14.09 -48.65,1.28 -97.5,6.19 -146.15,11.1 -43.73,4.48 -104.96,8.11 -93.65,67.84 8.1,42.67 46.5,71.69 87.47,76.17 6.4,-29.02 10.88,-58.25 20.26,-86.62 -2.77,-5.55 -0.85,-14.08 6.41,-16.43"
         style="fill:#ffffff;fill-opacity:1;fill-rule:nonzero;stroke:none"
         id="path328" />
      <path
         d="m 1319.72,2521.47 c 23.89,-25.6 48,-51.2 72.32,-76.59 -77.23,0.21 -154.03,12.58 -230.62,21.55 -1.28,7.25 -2.14,14.5 -2.99,21.97 15.15,-6.83 37.98,-2.35 51.42,3.41 6.82,2.99 12.37,7.68 16.64,13.66 2.34,-0.43 4.69,-0.43 7.04,0 25.17,4.48 43.52,28.8 49.92,53.55 12.16,-14.72 28.38,-28.8 36.27,-37.55"
         style="fill:#171717;fill-opacity:1;fill-rule:nonzero;stroke:none"
         id="path330" />
      <path
         d="m 1248.46,2577.58 c 0.43,-13.87 -7.89,-21.12 -17.28,-27.95 -5.76,18.56 -18.56,36.06 -30.29,49.71 -11.1,13.23 -25.39,26.67 -40.97,36.48 16.22,30.94 51.63,3.42 69.13,-15.57 10.45,-11.52 18.77,-26.88 19.41,-42.67"
         style="fill:#ffffff;fill-opacity:1;fill-rule:nonzero;stroke:none"
         id="path332" />
      <path
         d="m 1200.89,2534.48 c 0.21,-1.28 0.21,-2.34 0.21,-3.62 0,-4.27 -1.28,-5.34 -3.63,-6.19 -7.04,-2.56 -6.83,-1.92 -14.93,-1.71 -9.39,0.22 -18.35,2.56 -27.1,-1.7 -0.85,16.85 -1.49,33.92 -1.7,51.2 -0.22,9.39 -6.62,18.99 -16.22,21.12 -12.37,2.99 -24.75,3.41 -36.91,1.92 1.71,7.47 3.84,14.72 6.83,19.63 0.64,1.28 0.21,0.85 2.56,2.77 0.21,0 2.13,1.28 2.13,1.49 0.86,0.22 2.56,0.64 2.99,0.86 1.49,0 3.84,-0.22 4.05,0 20.27,-3.2 38.62,-20.27 53.34,-36.27 8.11,-8.75 14.51,-17.5 20.69,-28.59 3.42,-6.4 3.85,-7.47 5.77,-13.23 0.85,-2.34 1.28,-4.69 1.92,-6.82 0,-0.64 0,-0.43 0,-0.64 0,-0.22 0,-0.22 0,-0.22"
         style="fill:#ffffff;fill-opacity:1;fill-rule:nonzero;stroke:none"
         id="path334" />
      <path
         d="m 1147.61,4229.3 c 1.71,-21.97 3.42,-43.95 5.34,-66.14 -0.21,0 -0.21,0 -0.21,0 -346.26,8.75 -755.46,256.02 -803.25,621.27 -0.85,6.18 -4.91,10.02 -9.6,11.3 -0.43,7.9 -5.76,15.79 -15.15,16.22 -16.85,1.06 -38.19,4.9 -50.78,10.88 -16.21,7.46 -23.89,13.65 -34.56,26.67 0,0.21 -3.84,4.9 -4.26,5.97 -2.14,3.2 -4.06,6.4 -5.76,9.81 -1.07,1.71 -1.71,3.42 -2.56,5.12 -0.22,0.43 -0.22,0.43 -0.43,0.86 0,0 0,0 -0.22,0.21 -1.28,3.41 -2.34,7.04 -3.41,10.45 -2.13,6.83 -3.41,13.66 -5.33,20.49 -0.86,2.98 -1.28,6.18 -1.92,9.17 0,0.21 0,0.43 0,1.07 0,1.49 0,3.2 0,4.69 0,1.92 0.21,3.63 0.21,5.55 0.21,0.21 1.07,5.33 1.49,6.4 0.22,1.28 0.64,2.56 1.07,3.84 0.21,0.21 0.21,0.21 0.21,0.21 0,0 0,0 0,0.21 0.86,1.71 1.92,3.42 2.99,4.91 0.21,0.21 1.49,1.49 2.56,2.77 -0.43,-0.85 4.06,1.71 3.2,1.71 4.48,1.92 4.27,1.71 10.88,1.07 -0.85,0 4.7,-1.07 5.76,-1.5 2.99,-0.85 5.98,-1.92 8.75,-3.41 8.11,-4.05 15.57,-10.24 22.4,-16.21 9.6,-8.32 18.14,-17.71 26.46,-27.31 9.38,-10.88 17.49,-28.59 30.29,-35.2 5.12,-2.56 12.59,-0.22 14.3,5.33 2.56,2.35 4.26,5.33 3.84,9.39 -3.2,25.81 -5.34,55.47 8.1,75.74 0.22,0 5.34,5.12 5.34,5.54 1.49,1.28 3.41,2.35 5.12,3.42 1.06,0.64 1.49,0.85 1.92,1.06 0,0 0,0 0.64,0.22 1.92,0.64 9.38,2.34 9.38,2.56 1.71,0.21 3.63,0.21 5.34,0.21 1.06,0 2.13,0 2.98,-0.21 0.22,0 0.22,0 0.22,0 0.21,0 0.42,0 0.85,0 15.36,-2.99 23.47,-11.74 27.1,-28.59 1.7,-8.32 -0.22,-23.26 -3.42,-34.35 -4.69,-15.36 -23.04,-37.55 -17.07,-53.34 2.14,-5.33 6.62,-10.24 13.02,-9.81 15.36,1.07 25.39,16.64 32.21,32.43 3.2,4.26 6.62,8.53 10.88,11.52 7.05,4.69 14.09,6.18 20.7,6.18 0.64,-0.21 2.99,-0.42 3.84,-0.42 1.71,-0.43 3.2,-0.86 4.91,-1.07 1.92,-0.43 3.84,-1.07 5.76,-1.71 1.7,-0.42 2.13,-0.64 2.34,-0.64 0,-0.21 0.64,-0.42 1.92,-1.06 3.84,-1.92 7.47,-4.27 11.1,-6.83 0.64,-0.43 2.56,-2.13 2.98,-2.56 1.92,-1.71 3.63,-3.63 5.34,-5.55 0.42,-0.42 0.64,-0.64 0.64,-0.64 0.21,-0.21 0.42,-0.64 1.06,-1.49 1.07,-1.71 2.14,-3.41 2.99,-5.12 0.22,-0.43 0.86,-1.71 1.28,-2.77 0.64,-1.92 1.28,-3.84 1.71,-5.76 v -0.22 c 0,-0.42 0,-0.85 0.21,-1.28 0,-1.06 0,-1.92 -0.21,-2.77 0,-0.21 0,-0.21 0,-0.21 -0.21,-1.28 -0.64,-2.35 -1.07,-3.63 0,0 -1.06,-2.13 -1.92,-3.63 -0.42,-0.21 -2.56,-2.77 -2.99,-3.2 -3.41,-3.41 -0.42,-1.06 -4.69,-3.84 -5.33,-3.63 -10.45,-5.76 -15.79,-7.47 -18.98,-6.82 -38.61,-7.25 -58.24,-10.45 -4.05,-0.64 -6.83,-2.35 -9.17,-4.69 -7.9,2.98 -17.07,0.64 -18.99,-10.03 -31.58,-177.5 128.22,-332.61 256.65,-428.4 105.4,-78.3 347.97,-218.25 484.72,-142.94"
         style="fill:#e8baa7;fill-opacity:1;fill-rule:nonzero;stroke:none"
         id="path336" />
      <path
         d="m 1092.93,5707.36 c -17.07,-40.75 -14.72,-91.1 -10.24,-134.84 -37.97,13.23 -73.39,24.97 -76.16,73.61 -2.56,47.36 46.51,60.16 86.4,61.23"
         style="fill:#e8baa7;fill-opacity:1;fill-rule:nonzero;stroke:none"
         id="path338" />
    </g>
  </g>
</svg>
