<?xml version="1.0" encoding="UTF-8" standalone="no"?>
<svg
   viewBox="0 0 700 500"
   version="1.1"
   id="svg209"
   sodipodi:docname="Insert block-bro.svg"
   inkscape:version="1.2.2 (b0a8486541, 2022-12-01)"
   xmlns:inkscape="http://www.inkscape.org/namespaces/inkscape"
   xmlns:sodipodi="http://sodipodi.sourceforge.net/DTD/sodipodi-0.dtd"
   xmlns="http://www.w3.org/2000/svg"
   xmlns:svg="http://www.w3.org/2000/svg">
  <defs
     id="defs213" />
  <sodipodi:namedview
     id="namedview211"
     pagecolor="#ffffff"
     bordercolor="#000000"
     borderopacity="0.25"
     inkscape:showpageshadow="2"
     inkscape:pageopacity="0.0"
     inkscape:pagecheckerboard="0"
     inkscape:deskcolor="#d1d1d1"
     showgrid="false"
     inkscape:zoom="1.04"
     inkscape:cx="350"
     inkscape:cy="250.48077"
     inkscape:window-width="1366"
     inkscape:window-height="699"
     inkscape:window-x="0"
     inkscape:window-y="32"
     inkscape:window-maximized="1"
     inkscape:current-layer="svg209" />
  <g
     id="freepik--background-simple--inject-11">
    <path
       d="M601.81,346.69s27.37-140.34-47.19-220c-65.82-70.29-170-97.63-255-39.5-30.27,20.71-52.3,60.91-87.66,73.34-39.64,13.93-90.61,18.91-127.42,78.63S61,375.55,110,416.36s135,1,212.38-2S561.22,519.87,601.81,346.69Z"
       style="fill:#2CABFF"
       id="path2" />
    <path
       d="M601.81,346.69s27.37-140.34-47.19-220c-65.82-70.29-170-97.63-255-39.5-30.27,20.71-52.3,60.91-87.66,73.34-39.64,13.93-90.61,18.91-127.42,78.63S61,375.55,110,416.36s135,1,212.38-2S561.22,519.87,601.81,346.69Z"
       style="fill:#fff;opacity:0.7000000000000001"
       id="path4" />
  </g>
  <g
     id="freepik--Plants--inject-11">
    <path
       d="M149.38,95.51s0-8.53-11.94-20.47-19.62-18.77-19.62-18.77-6,19.62,5.11,31.56,26.45,23,26.45,23Z"
       style="fill:#2CABFF"
       id="path7" />
    <path
       d="M132.05,148.79s0-8.53-12-20.48-19.62-18.76-19.62-18.76-6,19.62,5.12,31.56,26.45,23,26.45,23Z"
       style="fill:#2CABFF"
       id="path9" />
    <path
       d="M148.63,110s.9-8.48,14-19.1,21.49-16.59,21.49-16.59S188,94.5,175.74,105.2,147,125.31,147,125.31Z"
       style="fill:#2CABFF"
       id="path11" />
    <path
       d="M127.69,173s1.79-8.34,16-17.52,23.12-14.24,23.12-14.24,1.72,20.44-11.62,29.79-30.69,17-30.69,17Z"
       style="fill:#2CABFF"
       id="path13" />
    <path
       d="M131.63,241.56s0-8.53,11.94-20.48,19.62-18.76,19.62-18.76,6,19.62-5.12,31.56-26.44,23-26.44,23Z"
       style="fill:#2CABFF"
       id="path15" />
    <path
       d="M131.43,258.3s1.21-8.44-8.92-22S105.76,215,105.76,215s-8.7,18.58.58,32,22.9,26.56,22.9,26.56Z"
       style="fill:#2CABFF"
       id="path17" />
    <path
       d="M119.65,307.92s0-8.53,11.94-20.47,19.62-18.77,19.62-18.77,6,19.62-5.11,31.57-26.45,23-26.45,23Z"
       style="fill:#2CABFF"
       id="path19" />
    <path
       d="M127.63,352.92s-2.17-8.26,6.36-22.84S148.22,307,148.22,307s10.75,17.47,3,31.83-19.75,29-19.75,29Z"
       style="fill:#2CABFF"
       id="path21" />
    <path
       d="M150.46,93.32a242.41,242.41,0,0,1-3.27,26.49C142.47,144.2,130.67,159.94,126,182s8.83,50.42,5.2,78.71-14.65,44-11.5,62.92,19.67,70,19.67,70"
       style="fill:none;stroke:#263238;stroke-linecap:round;stroke-linejoin:round;stroke-width:1.20076px"
       id="path23" />
    <line
       x1="148.51"
       y1="115.71"
       x2="161.38"
       y2="105.83"
       style="fill:none;stroke:#263238;stroke-linecap:round;stroke-linejoin:round;stroke-width:1.20076px"
       id="line25" />
    <line
       x1="149.11"
       y1="104.34"
       x2="143.72"
       y2="94.76"
       style="fill:none;stroke:#263238;stroke-linecap:round;stroke-linejoin:round;stroke-width:1.20076px"
       id="line27" />
    <path
       d="M126.66,181s10.78-8.08,21.85-16.16"
       style="fill:none;stroke:#263238;stroke-linecap:round;stroke-linejoin:round;stroke-width:1.20076px"
       id="path29" />
    <path
       d="M132.05,164.14s-9-17.6-19.16-29.27"
       style="fill:none;stroke:#263238;stroke-linecap:round;stroke-linejoin:round;stroke-width:1.20076px"
       id="path31" />
    <path
       d="M132.05,253.69a133.33,133.33,0,0,1,23-30.83"
       style="fill:none;stroke:#263238;stroke-linecap:round;stroke-linejoin:round;stroke-width:1.20076px"
       id="path33" />
    <path
       d="M130,265.67s-5.38-12.87-11.67-22.15S111.1,233,111.1,233"
       style="fill:none;stroke:#263238;stroke-linecap:round;stroke-linejoin:round;stroke-width:1.20076px"
       id="path35" />
    <path
       d="M119.65,323.6A143.34,143.34,0,0,1,129.36,304a124.8,124.8,0,0,1,12.57-16.46"
       style="fill:none;stroke:#263238;stroke-linecap:round;stroke-linejoin:round;stroke-width:1.20076px"
       id="path37" />
    <path
       d="M131.51,367.77s-1.26-10.22,3.23-18.9,9.58-20.05,11.68-24.54"
       style="fill:none;stroke:#263238;stroke-linecap:round;stroke-linejoin:round;stroke-width:1.20076px"
       id="path39" />
    <path
       d="M71.17,209.48s-.92-5.35,5.27-14.14,10.27-13.9,10.27-13.9,5.87,11.66.21,20.35A133.9,133.9,0,0,1,72.84,219.1Z"
       style="fill:#2CABFF"
       id="path41" />
    <path
       d="M87.83,241s-.93-5.35,5.26-14.13S103.36,213,103.36,213s5.87,11.65.22,20.35a133.55,133.55,0,0,1-14.09,17.31Z"
       style="fill:#2CABFF"
       id="path43" />
    <path
       d="M73.22,218.5s-1.49-5.22-10.88-10.45S47.06,200,47.06,200,46.83,213,55.7,218.41a133.33,133.33,0,0,0,20.2,9.49Z"
       style="fill:#2CABFF"
       id="path45" />
    <path
       d="M93.18,255.69s-2-5-11.91-9.25-16-6.42-16-6.42,1.14,13,10.52,17.42a134.12,134.12,0,0,0,21.09,7.31Z"
       style="fill:#2CABFF"
       id="path47" />
    <path
       d="M98.16,299.13s-.93-5.35-9.71-11.54S74.11,278,74.11,278s-1.62,12.95,6.63,19.24a133.8,133.8,0,0,0,19.09,11.57Z"
       style="fill:#2CABFF"
       id="path49" />
    <path
       d="M100.1,309.61s-1.67-5.16,3.21-14.74,8.18-15.22,8.18-15.22,7.48,10.7,3.11,20.11a133,133,0,0,1-11.48,19.14Z"
       style="fill:#2CABFF"
       id="path51" />
    <path
       d="M115.09,352.76s.62-5.39,9-12.08,13.77-10.44,13.77-10.44,2.35,12.84-5.53,19.59A134.13,134.13,0,0,1,114,362.47Z"
       style="fill:#2CABFF"
       id="path53" />
    <path
       d="M112.88,339.45s-.93-5.35-9.72-11.54-14.34-9.64-14.34-9.64-1.61,13,6.64,19.24a134,134,0,0,0,19.08,11.57Z"
       style="fill:#2CABFF"
       id="path55" />
    <path
       d="M112.76,368.53s.46-5.41-6.47-13.63S94.85,342,94.85,342,90,354.07,96.4,362.24a133.15,133.15,0,0,0,15.53,16Z"
       style="fill:#2CABFF"
       id="path57" />
    <path
       d="M70.26,208.22a156.73,156.73,0,0,0,4.92,16.26c5.61,14.78,14.72,23.37,20.07,36.67s-.06,32.57,5.29,49.92,14,26,14,38.21-4.74,46.05-4.74,46.05"
       style="fill:none;stroke:#263238;stroke-linecap:round;stroke-linejoin:round;stroke-width:1.20076px"
       id="path59" />
    <line
       x1="73.91"
       y1="222.05"
       x2="64.77"
       y2="217.25"
       style="fill:none;stroke:#263238;stroke-linecap:round;stroke-linejoin:round;stroke-width:1.20076px"
       id="line61" />
    <line
       x1="72.3"
       y1="214.98"
       x2="74.64"
       y2="208.39"
       style="fill:none;stroke:#263238;stroke-linecap:round;stroke-linejoin:round;stroke-width:1.20076px"
       id="line63" />
    <path
       d="M94.7,260.59s-7.64-3.9-15.46-7.76"
       style="fill:none;stroke:#263238;stroke-linecap:round;stroke-linejoin:round;stroke-width:1.20076px"
       id="path65" />
    <path
       d="M89.49,250.63s3.72-12,8.84-20.44"
       style="fill:none;stroke:#263238;stroke-linecap:round;stroke-linejoin:round;stroke-width:1.20076px"
       id="path67" />
    <path
       d="M99.21,306.79A84.56,84.56,0,0,0,81.41,290"
       style="fill:none;stroke:#263238;stroke-linecap:round;stroke-linejoin:round;stroke-width:1.20076px"
       id="path69" />
    <path
       d="M101.83,314.07a96.06,96.06,0,0,1,4.91-15.16c2.94-6.5,3.37-7.35,3.37-7.35"
       style="fill:none;stroke:#263238;stroke-linecap:round;stroke-linejoin:round;stroke-width:1.20076px"
       id="path71" />
    <path
       d="M114.16,358.52s6.06-7.43,9.83-10.21a52.17,52.17,0,0,0,6.39-5.55"
       style="fill:none;stroke:#263238;stroke-linecap:round;stroke-linejoin:round;stroke-width:1.20076px"
       id="path73" />
    <path
       d="M114.58,349.28A91.72,91.72,0,0,0,106.36,338a79.8,79.8,0,0,0-9.67-9"
       style="fill:none;stroke:#263238;stroke-linecap:round;stroke-linejoin:round;stroke-width:1.20076px"
       id="path75" />
    <path
       d="M111.93,378.26s-.32-6.54-4.07-11.49-8.19-11.54-10-14.13"
       style="fill:none;stroke:#263238;stroke-linecap:round;stroke-linejoin:round;stroke-width:1.20076px"
       id="path77" />
    <path
       d="M147.06,476.54H97.22a3.93,3.93,0,0,1-3.93-3.93L80.93,390.06h82.42L151,472.61A3.93,3.93,0,0,1,147.06,476.54Z"
       style="fill:#263238;stroke:#263238;stroke-linecap:round;stroke-linejoin:round;stroke-width:1.20076px"
       id="path79" />
  </g>
  <g
     id="freepik--Graphics--inject-11">
    <rect
       x="413.03"
       y="79.59"
       width="16.81"
       height="16.81"
       transform="translate(61.21 323.77) rotate(-45)"
       style="fill:none;stroke:#263238;stroke-linecap:round;stroke-linejoin:round;stroke-width:1.20076px"
       id="rect82" />
    <rect
       x="295.09"
       y="44.38"
       width="9.17"
       height="9.17"
       transform="translate(53.15 226.24) rotate(-45)"
       style="fill:none;stroke:#263238;stroke-linecap:round;stroke-linejoin:round;stroke-width:1.20076px"
       id="rect84" />
    <rect
       x="566.07"
       y="103.84"
       width="9.17"
       height="9.17"
       transform="translate(90.47 435.27) rotate(-45)"
       style="fill:none;stroke:#263238;stroke-linecap:round;stroke-linejoin:round;stroke-width:1.20076px"
       id="rect86" />
    <path
       d="M229.31,122.82a4.81,4.81,0,1,0-4.8,4.8A4.8,4.8,0,0,0,229.31,122.82Z"
       style="fill:none;stroke:#263238;stroke-linecap:round;stroke-linejoin:round;stroke-width:1.20076px"
       id="path88" />
    <path
       d="M602.75,383.38a4.81,4.81,0,1,0-4.81,4.8A4.8,4.8,0,0,0,602.75,383.38Z"
       style="fill:none;stroke:#263238;stroke-linecap:round;stroke-linejoin:round;stroke-width:1.20076px"
       id="path90" />
    <path
       d="M486.27,140.83a4.8,4.8,0,1,0-4.8,4.8A4.8,4.8,0,0,0,486.27,140.83Z"
       style="fill:none;stroke:#263238;stroke-linecap:round;stroke-linejoin:round;stroke-width:1.20076px"
       id="path92" />
    <path
       d="M110.44,176.85a4.81,4.81,0,1,0-4.81,4.8A4.81,4.81,0,0,0,110.44,176.85Z"
       style="fill:none;stroke:#263238;stroke-linecap:round;stroke-linejoin:round;stroke-width:1.20076px"
       id="path94" />
  </g>
  <g
     id="freepik--Device--inject-11">
    <path
       d="M147.34,161H574.61a12.74,12.74,0,0,1,12.74,12.74V454.91a0,0,0,0,1,0,0H134.61a0,0,0,0,1,0,0V173.78A12.74,12.74,0,0,1,147.34,161Z"
       style="fill:#fff;stroke:#263238;stroke-linecap:round;stroke-linejoin:round;stroke-width:1.20076px"
       id="path97" />
    <rect
       x="206.44"
       y="440.76"
       width="311.15"
       height="15.33"
       style="fill:#263238;stroke:#263238;stroke-linecap:round;stroke-linejoin:round;stroke-width:1.20076px"
       id="rect99" />
    <rect
       x="206.44"
       y="448.15"
       width="311.15"
       height="7.95"
       style="fill:#fff;stroke:#263238;stroke-linecap:round;stroke-linejoin:round;stroke-width:1.20076px"
       id="rect101" />
    <path
       d="M98,465.18s5.11,6.25,20.44,11.36H605.59s11.36-2.84,16.47-10.79Z"
       style="fill:#263238;stroke:#263238;stroke-linecap:round;stroke-linejoin:round;stroke-width:1.20076px"
       id="path103" />
    <rect
       x="96.95"
       y="453.99"
       width="526.21"
       height="11.94"
       rx="3.86"
       style="fill:#fff;stroke:#263238;stroke-linecap:round;stroke-linejoin:round;stroke-width:1.20076px"
       id="rect105" />
    <path
       d="M364.85,169.93a4,4,0,1,0-4,4A4,4,0,0,0,364.85,169.93Z"
       style="fill:#263238"
       id="path107" />
    <path
       d="M138.87,243.74h0a1.13,1.13,0,0,1-1.13-1.13V209.68a1.14,1.14,0,0,1,1.13-1.14h0a1.14,1.14,0,0,1,1.14,1.14v32.93A1.13,1.13,0,0,1,138.87,243.74Z"
       style="fill:#263238;stroke:#fff;stroke-linejoin:round;stroke-width:0.830552px"
       id="path109" />
    <rect
       x="152.97"
       y="184"
       width="416"
       height="235.09"
       style="fill:#d1d1d1;stroke:#263238;stroke-linejoin:round;stroke-width:1.20076px"
       id="rect111" />
    <rect
       x="222.11"
       y="184"
       width="346.87"
       height="13.9"
       style="fill:#263238"
       id="rect113" />
    <circle
       cx="169.38"
       cy="238.34"
       r="9.94"
       transform="translate(-78.31 82.96) rotate(-22.5)"
       style="fill:none;stroke:#263238;stroke-linejoin:round;stroke-width:1.20076px"
       id="circle115" />
    <circle
       cx="169.38"
       cy="266.88"
       r="9.94"
       style="fill:none;stroke:#263238;stroke-linejoin:round;stroke-width:1.20076px"
       id="circle117" />
    <circle
       cx="169.38"
       cy="295.42"
       r="9.94"
       transform="translate(-100.16 87.31) rotate(-22.5)"
       style="fill:none;stroke:#263238;stroke-linejoin:round;stroke-width:1.20076px"
       id="circle119" />
    <circle
       cx="169.38"
       cy="323.97"
       r="9.94"
       style="fill:none;stroke:#263238;stroke-linejoin:round;stroke-width:1.20076px"
       id="circle121" />
    <circle
       cx="169.38"
       cy="352.51"
       r="9.94"
       style="fill:none;stroke:#263238;stroke-linejoin:round;stroke-width:1.20076px"
       id="circle123" />
    <circle
       cx="169.38"
       cy="381.06"
       r="9.94"
       transform="translate(-233.89 487.21) rotate(-80.78)"
       style="fill:none;stroke:#263238;stroke-linejoin:round;stroke-width:1.20076px"
       id="circle125" />
    <rect
       x="201.77"
       y="205.94"
       width="341.88"
       height="207.18"
       style="fill:none;stroke:#263238;stroke-linejoin:round;stroke-width:1.20076px"
       id="rect127" />
    <line
       x1="202.31"
       y1="329.73"
       x2="544.06"
       y2="329.73"
       style="fill:none;stroke:#263238;stroke-linejoin:round;stroke-width:1.20076px"
       id="line129" />
    <line
       x1="399.39"
       y1="342.28"
       x2="516.01"
       y2="342.28"
       style="fill:none;stroke:#263238;stroke-linejoin:round;stroke-width:1.20076px"
       id="line131" />
    <line
       x1="399.39"
       y1="352.61"
       x2="516.01"
       y2="352.61"
       style="fill:none;stroke:#263238;stroke-linejoin:round;stroke-width:1.20076px"
       id="line133" />
    <line
       x1="399.39"
       y1="362.95"
       x2="516.01"
       y2="362.95"
       style="fill:none;stroke:#263238;stroke-linejoin:round;stroke-width:1.20076px"
       id="line135" />
    <line
       x1="399.39"
       y1="373.28"
       x2="516.01"
       y2="373.28"
       style="fill:none;stroke:#263238;stroke-linejoin:round;stroke-width:1.20076px"
       id="line137" />
    <line
       x1="399.39"
       y1="383.61"
       x2="516.01"
       y2="383.61"
       style="fill:none;stroke:#263238;stroke-linejoin:round;stroke-width:1.20076px"
       id="line139" />
    <line
       x1="399.39"
       y1="393.95"
       x2="516.01"
       y2="393.95"
       style="fill:none;stroke:#263238;stroke-linejoin:round;stroke-width:1.20076px"
       id="line141" />
    <line
       x1="367.3"
       y1="211.08"
       x2="367.3"
       y2="212.28"
       style="fill:none;stroke:#263238;stroke-linejoin:round;stroke-width:1.20076px"
       id="line143" />
    <line
       x1="367.3"
       y1="214.65"
       x2="367.3"
       y2="322.75"
       style="fill:none;stroke:#263238;stroke-linejoin:round;stroke-width:1.20076px;stroke-dasharray:2.3758199214935303,2.3758199214935303"
       id="line145" />
    <line
       x1="367.3"
       y1="323.94"
       x2="367.3"
       y2="325.14"
       style="fill:none;stroke:#263238;stroke-linejoin:round;stroke-width:1.20076px"
       id="line147" />
    <path
       d="M372.43,328.46a5.13,5.13,0,1,0-5.13,5.13A5.12,5.12,0,0,0,372.43,328.46Z"
       style="fill:#fff;stroke:#263238;stroke-linejoin:round;stroke-width:1.20076px"
       id="path149" />
    <line
       x1="367.23"
       y1="325.14"
       x2="367.23"
       y2="332.02"
       style="fill:none;stroke:#263238;stroke-linejoin:round;stroke-width:0.60038px"
       id="line151" />
    <line
       x1="370.67"
       y1="328.58"
       x2="363.79"
       y2="328.58"
       style="fill:none;stroke:#263238;stroke-linejoin:round;stroke-width:0.60038px"
       id="line153" />
    <path
       d="M322.68,272.65H241.86a6.08,6.08,0,0,1-6.09-6.09h0a6.08,6.08,0,0,1,6.09-6.09h80.82a6.09,6.09,0,0,1,6.09,6.09h0A6.09,6.09,0,0,1,322.68,272.65Z"
       style="fill:none;stroke:#263238;stroke-linejoin:round;stroke-width:1.20076px"
       id="path155" />
    <rect
       x="208.88"
       y="340.8"
       width="80.85"
       height="57.75"
       style="fill:#2CABFF;stroke:#263238;stroke-linejoin:round;stroke-width:1.20076px"
       id="rect157" />
    <line
       x1="208.88"
       y1="398.55"
       x2="289.73"
       y2="340.8"
       style="fill:none;stroke:#263238;stroke-linejoin:round;stroke-width:1.20076px"
       id="line159" />
    <line
       x1="208.88"
       y1="340.8"
       x2="289.73"
       y2="398.55"
       style="fill:none;stroke:#263238;stroke-linejoin:round;stroke-width:1.20076px"
       id="line161" />
    <rect
       x="301.14"
       y="340.8"
       width="80.85"
       height="57.75"
       style="fill:#2CABFF;stroke:#263238;stroke-linejoin:round;stroke-width:1.20076px"
       id="rect163" />
    <line
       x1="301.14"
       y1="398.55"
       x2="382"
       y2="340.8"
       style="fill:none;stroke:#263238;stroke-linejoin:round;stroke-width:1.20076px"
       id="line165" />
    <line
       x1="301.14"
       y1="340.8"
       x2="382"
       y2="398.55"
       style="fill:none;stroke:#263238;stroke-linejoin:round;stroke-width:1.20076px"
       id="line167" />
    <line
       x1="179.32"
       y1="295.42"
       x2="201.18"
       y2="295.42"
       style="fill:none;stroke:#263238;stroke-linejoin:round;stroke-width:1.20076px"
       id="line169" />
  </g>
</svg>
