<?xml version="1.0" encoding="UTF-8" standalone="no"?>
<svg
   viewBox="0 0 750 500"
   version="1.1"
   id="svg668"
   sodipodi:docname="whatapp-chat-analyzer.svg"
   inkscape:version="1.2.2 (b0a8486541, 2022-12-01)"
   xmlns:inkscape="http://www.inkscape.org/namespaces/inkscape"
   xmlns:sodipodi="http://sodipodi.sourceforge.net/DTD/sodipodi-0.dtd"
   xmlns="http://www.w3.org/2000/svg"
   xmlns:svg="http://www.w3.org/2000/svg">
  <defs
     id="defs672" />
  <sodipodi:namedview
     id="namedview670"
     pagecolor="#ffffff"
     bordercolor="#000000"
     borderopacity="0.25"
     inkscape:showpageshadow="2"
     inkscape:pageopacity="0.0"
     inkscape:pagecheckerboard="0"
     inkscape:deskcolor="#d1d1d1"
     showgrid="false"
     inkscape:zoom="0.89447768"
     inkscape:cx="373.40227"
     inkscape:cy="252.10243"
     inkscape:window-width="1366"
     inkscape:window-height="699"
     inkscape:window-x="0"
     inkscape:window-y="32"
     inkscape:window-maximized="1"
     inkscape:current-layer="svg668" />
  <g
     id="freepik--background-complete--inject-5"
     transform="matrix(1.0961374,0,0,1.10275,-34.803004,-18.154941)">
    <rect
       x="485.01001"
       y="280.97"
       width="5.6199999"
       height="42.049999"
       transform="rotate(-90,487.825,301.995)"
       style="fill:#e0e0e0"
       id="rect2" />
    <path
       d="m 472.53,299.42 a 13.43,13.43 0 0 1 0,5.26 12.94,12.94 0 0 1 0,-5.26 z"
       style="fill:#fafafa"
       id="path4" />
    <path
       d="m 471.61,299.31 a 13.43,13.43 0 0 1 0,5.26 13.43,13.43 0 0 1 0,-5.26 z"
       style="fill:#fafafa"
       id="path6" />
    <path
       d="m 505.59,299.42 a 12.94,12.94 0 0 1 0,5.26 13.43,13.43 0 0 1 0,-5.26 z"
       style="fill:#fafafa"
       id="path8" />
    <ellipse
       cx="504.67999"
       cy="301.94"
       rx="0.25999999"
       ry="2.6300001"
       style="fill:#fafafa"
       id="ellipse10" />
    <path
       d="m 499.18,302.17 c 0,0.14 -4.81,0.26 -10.75,0.26 -5.94,0 -10.76,-0.12 -10.76,-0.26 a 107.16,107.16 0 0 1 10.76,-0.27 106.87,106.87 0 0 1 10.75,0.27 z"
       style="fill:#fafafa"
       id="path12" />
    <rect
       x="482.01999"
       y="309.07001"
       width="11.23"
       height="42.049999"
       transform="rotate(-90,487.64,330.09)"
       style="fill:#e0e0e0"
       id="rect14" />
    <path
       d="m 509.2,332.55 a 1,1 0 0 1 -0.23,0.13 c -0.15,0.08 -0.39,0.19 -0.7,0.32 a 12,12 0 0 1 -2.85,0.82 7.38,7.38 0 0 1 -4.62,-0.66 6.11,6.11 0 0 1 -2.2,-2 4.64,4.64 0 0 1 -0.77,-3.24 3.38,3.38 0 0 1 0.78,-1.67 2.17,2.17 0 0 1 1.77,-0.8 2.53,2.53 0 0 1 1.78,1 3.47,3.47 0 0 1 0.82,1.91 5.13,5.13 0 0 1 -1.45,4 6.44,6.44 0 0 1 -4,2 10.83,10.83 0 0 1 -4.7,-0.58 8.69,8.69 0 0 1 -4.13,-2.78 4.49,4.49 0 0 1 -1,-2.42 3.15,3.15 0 0 1 0.9,-2.53 2,2 0 0 1 1.31,-0.57 2.36,2.36 0 0 1 1.38,0.38 3.64,3.64 0 0 1 1.54,2.27 5.29,5.29 0 0 1 -1.65,4.95 8.3,8.3 0 0 1 -4.74,1.93 11.77,11.77 0 0 1 -4.91,-0.49 6.78,6.78 0 0 1 -3.73,-2.9 5,5 0 0 1 -0.47,-4.46 2.34,2.34 0 0 1 1.72,-1.45 2.66,2.66 0 0 1 2.12,0.51 3.52,3.52 0 0 1 1,3.78 6.57,6.57 0 0 1 -2.12,3 9.64,9.64 0 0 1 -5.77,2.24 9.26,9.26 0 0 1 -4.56,-1 9,9 0 0 1 -2.39,-1.77 5.75,5.75 0 0 1 -0.5,-0.58 c -0.11,-0.14 -0.16,-0.21 -0.15,-0.22 a 10.7,10.7 0 0 0 3.13,2.39 9.15,9.15 0 0 0 4.46,0.92 9.26,9.26 0 0 0 5.54,-2.23 6.16,6.16 0 0 0 2,-2.81 3.09,3.09 0 0 0 -0.88,-3.32 2.25,2.25 0 0 0 -1.76,-0.42 1.88,1.88 0 0 0 -1.38,1.19 4.51,4.51 0 0 0 0.46,4 6.26,6.26 0 0 0 3.48,2.67 11,11 0 0 0 4.69,0.45 7.71,7.71 0 0 0 4.43,-1.8 4.77,4.77 0 0 0 1.5,-4.44 3.13,3.13 0 0 0 -1.31,-1.94 1.61,1.61 0 0 0 -2.05,0.13 2.6,2.6 0 0 0 -0.74,2.1 4,4 0 0 0 0.85,2.15 8.18,8.18 0 0 0 3.85,2.59 10.31,10.31 0 0 0 4.47,0.57 5.93,5.93 0 0 0 3.76,-1.8 4.7,4.7 0 0 0 1.35,-3.62 2.69,2.69 0 0 0 -2.18,-2.52 1.83,1.83 0 0 0 -1.46,0.66 3.12,3.12 0 0 0 -0.7,1.48 4.29,4.29 0 0 0 0.68,3 5.84,5.84 0 0 0 2.06,1.91 7.23,7.23 0 0 0 4.45,0.71 13.26,13.26 0 0 0 2.84,-0.71 c 0.65,-0.31 0.97,-0.45 0.98,-0.43 z"
       style="fill:#fafafa"
       id="path16" />
    <rect
       x="479.76999"
       y="295.57001"
       width="19.49"
       height="38.290001"
       transform="rotate(-90,489.515,314.715)"
       style="fill:#ebebeb"
       id="rect18" />
    <path
       d="m 476.73,305.64 a 82.3,82.3 0 0 1 0.27,9.43 82.3,82.3 0 0 1 -0.27,9.43 86.79,86.79 0 0 1 -0.26,-9.43 86.79,86.79 0 0 1 0.26,-9.43 z"
       style="fill:#e0e0e0"
       id="path20" />
    <path
       d="m 479.64,305.39 a 84.65,84.65 0 0 1 0.26,9.31 84.77,84.77 0 0 1 -0.26,9.32 80.39,80.39 0 0 1 -0.27,-9.32 80.28,80.28 0 0 1 0.27,-9.31 z"
       style="fill:#e0e0e0"
       id="path22" />
    <path
       d="m 504.33,304.77 a 88.94,88.94 0 0 1 0.27,9.8 89,89 0 0 1 -0.27,9.81 93.9,93.9 0 0 1 -0.26,-9.81 93.78,93.78 0 0 1 0.26,-9.8 z"
       style="fill:#e0e0e0"
       id="path24" />
    <path
       d="m 500.92,305 a 84.5,84.5 0 0 1 0.27,9.55 84.61,84.61 0 0 1 -0.27,9.56 86.19,86.19 0 0 1 -0.26,-9.56 86.07,86.07 0 0 1 0.26,-9.55 z"
       style="fill:#e0e0e0"
       id="path26" />
    <rect
       x="242.39"
       y="83.059998"
       width="258.14001"
       height="171.23"
       style="fill:#e0e0e0"
       id="rect28" />
    <path
       d="M 36.22,95.57 A 43.74,43.74 0 1 1 80.66,138.8 43.9,43.9 0 0 1 36.22,95.57 Z m 64.64,-1 a 20.91,20.91 0 1 0 -20.57,21.35 21,21 0 0 0 20.57,-21.4 z"
       style="fill:#f5f5f5"
       id="path30" />
    <path
       d="m 36.22,95.57 a 43.9,43.9 0 0 1 43,-44.64 l 0.37,22.92 a 21.002672,21.002672 0 0 0 0.67,42 l 0.37,22.93 A 43.89,43.89 0 0 1 36.22,95.57 Z"
       style="fill:#e0e0e0"
       id="path32" />
    <path
       d="m 75.32,47.4 c 28.22,-0.46 50.72,21.44 51.17,49.78 l -26.7,0.43 C 99.58,84.06 89.27,75.53 75.79,75.75 Z"
       style="fill:#ebebeb"
       id="path34" />
    <path
       d="m 245.45,448 c -1.12,-1 -3.63,-4 -1.69,-7.57 0.7,-1.3 2.21,-1.94 3.57,-2.52 a 14.37,14.37 0 0 0 3.93,-2 c 2.12,-1.81 2.71,-4.82 4.12,-7.23 1.62,-2.77 4.65,-4.85 7.84,-4.7 3.66,0.17 6.71,3.15 8.1,6.56 1.39,3.41 1.43,7.2 1.46,10.88 0,2 -0.08,4.33 -1.57,5.7 -1.49,1.37 -3.45,1.28 -5.32,1.23 l -20,-0.62"
       style="fill:#f5f5f5"
       id="path36" />
    <path
       d="m 283.71,393 h -52.6 l 9.47,56.5 a 6.31,6.31 0 0 0 4.49,5 l 0.19,0.05 c 0.15,0 0.31,0.09 0.47,0.12 a 7.28,7.28 0 0 0 1.07,0.13 v 0.05 h 0.26 23.45 a 6.69,6.69 0 0 0 1.28,-0.13 6.33,6.33 0 0 0 5.32,-5.52 l 4.57,-38.93 0.21,-1.55 v 0 l 1.81,-15.41 z m -9.93,36 h -5.39 l 0.54,-16.39 h 6.25 z m 1.93,-16.39 h 5.17 L 279,429 h -4.64 z M 260.29,447.18 260,432.94 h 7.77 l -0.47,14.25 z m -8.41,-14.25 h 7.56 l 0.33,14.25 H 253 Z m 0.59,14.25 h -6.33 c -0.61,-3.85 -1.39,-8.85 -2.24,-14.25 h 7.46 z M 251.58,429 250.3,412.61 h 8.7 l 0.38,16.39 z m 8.29,0 -0.38,-16.39 h 8.92 L 267.86,429 Z m -0.47,-20.33 -0.35,-15.18 h 10 l -0.5,15.18 z m -0.52,0 H 250 l -1.18,-15.18 h 9.71 z m -9.4,0 h -9.4 c -0.33,-2.09 -0.65,-4.08 -0.93,-5.86 -1,-6.14 -1.35,-8.45 -1.56,-9.32 h 10.71 z m 0.3,3.94 1.28,16.39 h -7.77 c -0.27,-1.66 -0.53,-3.34 -0.8,-5 -0.6,-3.87 -1.21,-7.74 -1.79,-11.36 z m -7,16.39 h -5.08 l -2.75,-16.39 h 5.24 c 0.81,5.07 1.67,10.71 2.57,16.39 z m 0.61,3.93 c 0.78,4.93 1.54,9.79 2.24,14.25 h -4.88 l -2.39,-14.25 z m 24.41,14.25 0.48,-14.25 h 5.19 l -1.22,14.25 z m 1.28,-38.51 0.51,-15.18 h 7.25 l -1.3,15.18 z m -32,-15.18 c 0.21,1.1 1.17,7.07 2.45,15.18 h -5.28 l -2.54,-15.18 z m 39.72,53.69 h -4.06 L 274,432.94 h 4.52 z m 4.52,-38.51 H 276 l 1.3,-15.18 h 5.78 z"
       style="fill:#e0e0e0"
       id="path38" />
    <rect
       x="653.01001"
       y="109.74"
       width="11.33"
       height="45.240002"
       style="fill:#e0e0e0"
       id="rect40" />
    <rect
       x="669.66998"
       y="119.61"
       width="11.33"
       height="35.369999"
       style="fill:#e0e0e0"
       id="rect42" />
    <rect
       x="686.58002"
       y="127.69"
       width="11.33"
       height="27.290001"
       style="fill:#e0e0e0"
       id="rect44" />
    <rect
       x="702.22998"
       y="138.78"
       width="11.33"
       height="16.209999"
       style="fill:#e0e0e0"
       id="rect46" />
    <path
       d="m 695.33,211.25 a 39.18,39.18 0 0 0 -55.09,1.86 38.63,38.63 0 0 0 1.87,54.77 39.19,39.19 0 0 0 55.1,-1.87 38.62,38.62 0 0 0 -1.88,-54.76 z m -13,41 a 18.74,18.74 0 0 1 -26.34,0.89 18.48,18.48 0 0 1 -0.9,-26.19 18.76,18.76 0 0 1 26.35,-0.89 18.47,18.47 0 0 1 0.9,26.15 z"
       style="fill:#f5f5f5"
       id="path48" />
    <path
       d="m 640.24,213.11 a 39.18,39.18 0 0 1 55.09,-1.86 L 681.45,226 a 18.76,18.76 0 0 0 -26.35,0.89 18.48,18.48 0 0 0 0.9,26.19 l -13.89,14.78 a 38.63,38.63 0 0 1 -1.87,-54.75 z"
       style="fill:#ebebeb"
       id="path50" />
    <path
       d="m 693.74,204.91 c 19.24,17.87 21.55,46.92 3.57,66 L 677.79,254 c 8.6,-9.14 10.46,-21.35 1.26,-29.9 z"
       style="fill:#fafafa"
       id="path52" />
    <rect
       x="165.39999"
       y="275.34"
       width="110.45"
       height="31.110001"
       rx="3.23"
       style="fill:#e0e0e0"
       id="rect54" />
    <ellipse
       cx="183.42999"
       cy="291.85999"
       rx="6.73"
       ry="6.7600002"
       style="fill:#f5f5f5"
       id="ellipse56" />
    <path
       d="m 187.21,289.56 a 27.84,27.84 0 0 1 -3.62,3.91 c -0.3,0.3 -0.6,0.58 -0.89,0.86 l -0.18,0.18 -0.17,-0.18 a 18.8,18.8 0 0 1 -2.7,-3.07 19.43,19.43 0 0 1 3.06,2.71 h -0.36 l 0.88,-0.87 a 27.63,27.63 0 0 1 3.98,-3.54 z"
       style="fill:#e0e0e0"
       id="path58" />
    <path
       d="m 265,288.52 c 0,0.14 -14.83,0.26 -33.11,0.26 -18.28,0 -33.11,-0.12 -33.11,-0.26 0,-0.14 14.82,-0.26 33.11,-0.26 18.29,0 33.11,0.11 33.11,0.26 z"
       style="fill:#fafafa"
       id="path60" />
    <path
       d="m 265.27,294.15 c 0,0.15 -14.83,0.26 -33.11,0.26 -18.28,0 -33.11,-0.11 -33.11,-0.26 0,-0.15 14.82,-0.26 33.11,-0.26 18.29,0 33.11,0.11 33.11,0.26 z"
       style="fill:#fafafa"
       id="path62" />
    <polygon
       points="612.05,455.25 702.38,455.25 702.38,300.39 614.07,298.25 "
       style="fill:#f5f5f5"
       id="polygon64" />
    <polygon
       points="661.94,455.25 702.38,455.25 702.38,300.39 662.74,299.43 "
       style="fill:#e0e0e0"
       id="polygon66" />
    <polygon
       points="616.91,333.19 659.7,333.19 659.7,302.6 616.91,301.08 "
       style="fill:#e0e0e0"
       id="polygon68" />
    <polygon
       points="631.66,314.66 644.75,314.66 644.75,309.48 631.66,309.91 "
       style="fill:#f5f5f5"
       id="polygon70" />
    <rect
       x="631.65997"
       y="318.64001"
       width="13.52"
       height="1.9400001"
       style="fill:#f5f5f5"
       id="rect72" />
    <polygon
       points="616.91,445.72 659.7,445.72 659.7,415.13 616.91,413.61 "
       style="fill:#e0e0e0"
       id="polygon74" />
    <polygon
       points="631.66,427.19 644.75,427.19 644.75,422.01 631.66,422.44 "
       style="fill:#f5f5f5"
       id="polygon76" />
    <rect
       x="631.65997"
       y="431.17001"
       width="13.52"
       height="1.9400001"
       style="fill:#f5f5f5"
       id="rect78" />
    <polygon
       points="616.91,369.39 659.7,369.39 659.7,338.8 616.91,337.28 "
       style="fill:#e0e0e0"
       id="polygon80" />
    <polygon
       points="631.66,350.86 644.75,350.86 644.75,345.68 631.66,346.11 "
       style="fill:#f5f5f5"
       id="polygon82" />
    <rect
       x="631.65997"
       y="354.84"
       width="13.52"
       height="1.9400001"
       style="fill:#f5f5f5"
       id="rect84" />
    <rect
       x="616.34998"
       y="375.73001"
       width="42.790001"
       height="32.110001"
       style="fill:#e0e0e0"
       id="rect86" />
    <polygon
       points="631.39,394.66 643.7,394.66 643.7,389.8 631.39,390.2 "
       style="fill:#f5f5f5"
       id="polygon88" />
    <rect
       x="631.39001"
       y="398.41"
       width="12.71"
       height="1.8200001"
       style="fill:#f5f5f5"
       id="rect90" />
  </g>
  <g
     id="freepik--Screens--inject-5"
     transform="matrix(1.0961374,0,0,1.10275,-34.803004,-18.154941)">
    <rect
       x="226.92"
       y="87.349998"
       width="267.32999"
       height="175.35001"
       style="fill:#fafafa"
       id="rect96" />
    <path
       d="m 494.25,262.7 c 0,-1.69 -0.08,-68.4 -0.21,-175.35 l 0.21,0.21 H 226.94 v 0 l 0.26,-0.26 c 0,62.36 0,121.7 0,175.35 l -0.24,-0.24 267.33,0.24 -267.33,0.24 h -0.24 v -0.24 c 0,-53.65 0,-113 0,-175.35 V 87.04 H 227 l 267.31,0.06 h 0.21 v 0.2 c -0.19,107 -0.27,173.7 -0.27,175.4 z"
       style="fill:#263238"
       id="path98" />
    <path
       d="m 352.1,219.79 a 3.22,3.22 0 0 1 -0.57,0 h -1.6 l -5.88,0.07 H 344 l -0.05,-0.06 c -2.35,-2.95 -5.37,-6.77 -8.67,-10.93 l -7,-8.91 0.14,0.06 -7.74,-0.07 -2.18,0.05 a 3.6,3.6 0 0 1 -0.77,0 4.69,4.69 0 0 1 0.77,-0.05 h 2.16 l 7.74,-0.07 h 0.08 v 0.06 l 7,8.89 8.6,11 -0.12,-0.06 5.88,0.07 h 1.6 a 2.6,2.6 0 0 1 0.66,-0.05 z"
       style="fill:#263238"
       id="path102" />
    <path
       d="m 361.53,222.82 c 0,0.11 -3.81,0.2 -8.51,0.2 -4.7,0 -8.51,-0.09 -8.51,-0.2 0,-0.11 3.81,-0.2 8.51,-0.2 4.7,0 8.51,0.09 8.51,0.2 z"
       style="fill:#263238"
       id="path104" />
    <path
       d="m 361.53,226 c 0,0.11 -3.81,0.2 -8.51,0.2 -4.7,0 -8.51,-0.09 -8.51,-0.2 0,-0.11 3.81,-0.2 8.51,-0.2 4.7,0 8.51,0.06 8.51,0.2 z"
       style="fill:#263238"
       id="path106" />
    <path
       d="m 294.19,172 a 1.88,1.88 0 0 1 -0.45,0.1 l -1.31,0.21 -4.72,0.67 h -0.08 l -0.06,-0.06 -6.3,-6.13 c -3,-3 -5.75,-5.67 -7.71,-7.64 l -2.3,-2.35 a 6.85,6.85 0 0 1 -0.81,-0.9 6.42,6.42 0 0 1 0.92,0.79 l 2.39,2.25 c 2,1.92 4.76,4.59 7.79,7.56 l 6.25,6.18 h -0.14 l 4.75,-0.52 1.31,-0.12 a 1.29,1.29 0 0 1 0.47,-0.04 z"
       style="fill:#263238"
       id="path110" />
    <path
       d="m 263.79,154.78 c 0,0.11 -3.81,0.2 -8.51,0.2 -4.7,0 -8.5,-0.09 -8.5,-0.2 0,-0.11 3.8,-0.2 8.5,-0.2 4.7,0 8.51,0.09 8.51,0.2 z"
       style="fill:#263238"
       id="path112" />
    <path
       d="m 263.79,157.93 c 0,0.11 -3.81,0.2 -8.51,0.2 -4.7,0 -8.5,-0.09 -8.5,-0.2 0,-0.11 3.8,-0.2 8.5,-0.2 4.7,0 8.51,0.09 8.51,0.2 z"
       style="fill:#263238"
       id="path114" />
    <path
       d="m 396.45,129.48 -0.1,-16 a 20.5,20.5 0 0 0 -13.23,5.16 19,19 0 0 0 -6.37,16.6 22.13,22.13 0 0 0 0.38,2.33 0.13,0.13 0 0 0 0,0.06 v 0 l 19.31,-4.35 z"
       style="fill:#2cabff"
       id="path116" />
    <g
       style="opacity:0.3"
       id="g120">
      <path
         d="m 396.45,129.48 -0.1,-16 a 20.5,20.5 0 0 0 -13.23,5.16 19,19 0 0 0 -6.37,16.6 22.13,22.13 0 0 0 0.38,2.33 0.13,0.13 0 0 0 0,0.06 v 0 l 19.31,-4.35 z"
         style="fill:#ffffff"
         id="path118" />
    </g>
    <path
       d="m 416.36,124.55 a 19,19 0 0 0 -15.59,-10.91 l -0.61,-0.06 h -0.39 c -0.38,0 -0.77,0 -1.16,0 h -0.11 l 0.11,16 v 3.76 l 19.39,4.19 v 0 a 18.57,18.57 0 0 0 0.43,-4.15 20.71,20.71 0 0 0 -2.07,-8.83 z"
       style="fill:#2cabff"
       id="path122" />
    <g
       style="opacity:0.3"
       id="g126">
      <path
         d="m 416.36,124.55 a 19,19 0 0 0 -15.59,-10.91 l -0.61,-0.06 h -0.39 c -0.38,0 -0.77,0 -1.16,0 h -0.11 l 0.11,16 v 3.76 l 19.39,4.19 v 0 a 18.57,18.57 0 0 0 0.43,-4.15 20.71,20.71 0 0 0 -2.07,-8.83 z"
         id="path124" />
    </g>
    <path
       d="m 397.49,135.25 -19.32,4.35 a 19.8,19.8 0 0 0 38.66,-0.13 l -19.32,-4.22"
       style="fill:#2cabff"
       id="path128" />
    <path
       d="m 472.67,132.37 c 0,0.14 -10,0.26 -22.3,0.26 -12.3,0 -22.31,-0.12 -22.31,-0.26 0,-0.14 10,-0.27 22.31,-0.27 12.31,0 22.3,0.12 22.3,0.27 z"
       style="fill:#263238"
       id="path130" />
    <path
       d="m 472.67,127.28 c 0,0.14 -10,0.26 -22.3,0.26 -12.3,0 -22.31,-0.12 -22.31,-0.26 0,-0.14 10,-0.26 22.31,-0.26 12.31,0 22.3,0.12 22.3,0.26 z"
       style="fill:#263238"
       id="path132" />
    <path
       d="m 472.67,122.2 c 0,0.14 -10,0.26 -22.3,0.26 -12.3,0 -22.31,-0.12 -22.31,-0.26 0,-0.14 10,-0.26 22.31,-0.26 12.31,0 22.3,0.11 22.3,0.26 z"
       style="fill:#263238"
       id="path134" />
    <path
       d="m 472.67,137.1 c 0,0.14 -10,0.26 -22.3,0.26 -12.3,0 -22.31,-0.12 -22.31,-0.26 0,-0.14 10,-0.27 22.31,-0.27 12.31,0 22.3,0.17 22.3,0.27 z"
       style="fill:#263238"
       id="path136" />
    <path
       d="m 458.86,142.24 c 0,0.15 -6.86,0.26 -15.32,0.26 -8.46,0 -15.32,-0.11 -15.32,-0.26 0,-0.15 6.86,-0.26 15.32,-0.26 8.46,0 15.32,0.12 15.32,0.26 z"
       style="fill:#263238"
       id="path138" />
    <rect
       x="381.29001"
       y="179.05"
       width="4.5900002"
       height="51.310001"
       style="fill:#2cabff"
       id="rect140" />
    <rect
       x="390.16"
       y="196.47"
       width="4.5900002"
       height="33.880001"
       style="fill:#2cabff"
       id="rect142" />
    <rect
       x="399.03"
       y="185.42"
       width="4.5900002"
       height="45.189999"
       style="fill:#2cabff"
       id="rect144" />
    <rect
       x="407.89999"
       y="181.03"
       width="4.5900002"
       height="49.330002"
       style="fill:#2cabff"
       id="rect146" />
    <rect
       x="416.76001"
       y="197.50999"
       width="4.5900002"
       height="32.84"
       style="fill:#2cabff"
       id="rect148" />
    <rect
       x="425.63"
       y="203.95"
       width="4.5900002"
       height="26.4"
       style="fill:#2cabff"
       id="rect150" />
    <rect
       x="434.5"
       y="184.31"
       width="4.5900002"
       height="46.040001"
       style="fill:#2cabff"
       id="rect152" />
    <rect
       x="443.37"
       y="192.61"
       width="4.5900002"
       height="37.740002"
       style="fill:#2cabff"
       id="rect154" />
    <rect
       x="452.23999"
       y="185.98"
       width="4.5900002"
       height="44.369999"
       style="fill:#2cabff"
       id="rect156" />
    <rect
       x="461.10999"
       y="200.12"
       width="4.5900002"
       height="30.23"
       style="fill:#2cabff"
       id="rect158" />
    <rect
       x="469.98001"
       y="194.37"
       width="4.5900002"
       height="35.98"
       style="fill:#2cabff"
       id="rect160" />
    <path
       d="m 476.45,233.93 c 0,0.1 -21.79,0.19 -48.67,0.19 -26.88,0 -48.67,-0.09 -48.67,-0.19 0,-0.1 21.79,-0.19 48.67,-0.19 26.88,0 48.67,0.08 48.67,0.19 z"
       style="fill:#263238"
       id="path162" />
    <path
       d="m 387.84,238 a 32.39,32.39 0 0 1 -6.82,0 30.7,30.7 0 0 1 6.82,0 z"
       style="fill:#263238"
       id="path164" />
    <path
       d="m 399.15,238.17 a 43.79,43.79 0 0 1 -8.15,0 43.79,43.79 0 0 1 8.15,0 z"
       style="fill:#263238"
       id="path166" />
    <path
       d="m 408.8,238.17 a 43.79,43.79 0 0 1 -8.15,0 43.79,43.79 0 0 1 8.15,0 z"
       style="fill:#263238"
       id="path168" />
    <path
       d="m 418.44,238.17 a 43.79,43.79 0 0 1 -8.15,0 43.79,43.79 0 0 1 8.15,0 z"
       style="fill:#263238"
       id="path170" />
    <path
       d="m 428.09,238.17 a 43.79,43.79 0 0 1 -8.15,0 43.79,43.79 0 0 1 8.15,0 z"
       style="fill:#263238"
       id="path172" />
    <path
       d="m 437.73,238.17 a 43.79,43.79 0 0 1 -8.15,0 43.79,43.79 0 0 1 8.15,0 z"
       style="fill:#263238"
       id="path174" />
    <path
       d="m 447.38,238.17 a 43.79,43.79 0 0 1 -8.15,0 43.79,43.79 0 0 1 8.15,0 z"
       style="fill:#263238"
       id="path176" />
    <path
       d="m 457,238.17 a 43.79,43.79 0 0 1 -8.15,0 43.79,43.79 0 0 1 8.15,0 z"
       style="fill:#263238"
       id="path178" />
    <path
       d="m 466.67,238.17 a 43.79,43.79 0 0 1 -8.15,0 43.79,43.79 0 0 1 8.15,0 z"
       style="fill:#263238"
       id="path180" />
    <path
       d="m 476.32,238.17 a 43.79,43.79 0 0 1 -8.15,0 43.79,43.79 0 0 1 8.15,0 z"
       style="fill:#263238"
       id="path182" />
    <g
       style="opacity:0.3"
       id="g186">
      <rect
         x="390.16"
         y="196.47"
         width="4.5900002"
         height="33.880001"
         style="fill:#ffffff"
         id="rect184" />
    </g>
    <g
       style="opacity:0.3"
       id="g190">
      <rect
         x="407.89999"
         y="181.03"
         width="4.5900002"
         height="49.330002"
         style="fill:#ffffff"
         id="rect188" />
    </g>
    <g
       style="opacity:0.3"
       id="g194">
      <rect
         x="425.63"
         y="203.95"
         width="4.5900002"
         height="26.4"
         style="fill:#ffffff"
         id="rect192" />
    </g>
    <g
       style="opacity:0.3"
       id="g198">
      <rect
         x="443.37"
         y="192.61"
         width="4.5900002"
         height="37.740002"
         style="fill:#ffffff"
         id="rect196" />
    </g>
    <g
       style="opacity:0.3"
       id="g202">
      <rect
         x="461.10999"
         y="200.12"
         width="4.5900002"
         height="30.23"
         style="fill:#ffffff"
         id="rect200" />
    </g>
    <path
       d="m 259.4,120.31 a 4.43,4.43 0 1 1 -4.42,-4.42 4.42,4.42 0 0 1 4.42,4.42 z"
       style="fill:#2cabff"
       id="path204" />
    <path
       d="m 335.43,116.82 c 0,0.15 -14.91,0.26 -33.3,0.26 -18.39,0 -33.3,-0.11 -33.3,-0.26 0,-0.15 14.9,-0.26 33.3,-0.26 18.4,0 33.3,0.12 33.3,0.26 z"
       style="fill:#2cabff"
       id="path206" />
    <path
       d="m 295.56,122.17 a 3.69,3.69 0 0 1 -1,0.1 l -2.81,0.09 c -2.38,0 -5.66,0.07 -9.28,0.07 -3.62,0 -6.91,0 -9.28,-0.07 l -2.82,-0.09 a 3.77,3.77 0 0 1 -1,-0.1 4.35,4.35 0 0 1 1,-0.1 c 0.67,0 1.63,-0.06 2.82,-0.08 2.37,0 5.65,-0.08 9.28,-0.08 3.63,0 6.9,0 9.28,0.08 1.19,0 2.15,0.05 2.81,0.08 a 4.25,4.25 0 0 1 1,0.1 z"
       style="fill:#2cabff"
       id="path208" />
    <rect
       x="81.559998"
       y="103.23"
       width="139.91"
       height="159.67999"
       style="fill:#fafafa"
       id="rect210" />
    <path
       d="m 221.48,262.9 c 0,0 0,-0.26 0,-0.75 0,-0.49 0,-1.25 0,-2.22 0,-2 0,-4.85 0,-8.62 0,-7.54 0,-18.57 -0.06,-32.58 0,-28 -0.07,-67.89 -0.11,-115.5 l 0.23,0.23 H 81.64 v 0 l 0.26,-0.26 c 0,58.87 0,113.77 0,159.67 l -0.22,-0.22 101.32,0.15 28.38,0.06 h 7.48 2.58 -2.54 -7.43 l -28.33,0.06 -101.62,0.11 H 81.3 v -0.23 c 0,-45.9 0,-100.8 0,-159.67 V 103 h 0.28 139.9 0.23 v 0.23 c -0.05,47.67 -0.09,87.61 -0.12,115.65 0,14 -0.05,25 -0.06,32.52 0,3.75 0,6.63 0,8.58 0,1 0,1.69 0,2.19 0,0.5 -0.05,0.73 -0.05,0.73 z"
       style="fill:#263238"
       id="path212" />
    <path
       d="m 209.45,184.76 c 0,0.1 -1.55,-0.78 -4.5,-1.71 a 29,29 0 0 0 -12.9,-1 28.36,28.36 0 0 0 -8.51,2.74 39.62,39.62 0 0 0 -8.37,6 c -2.74,2.42 -5.47,5.17 -8.61,7.71 a 29.68,29.68 0 0 1 -11,5.94 16.36,16.36 0 0 1 -6.41,0.39 21.13,21.13 0 0 1 -5.95,-1.83 104.8,104.8 0 0 1 -10,-5.93 30.74,30.74 0 0 0 -9.36,-4.19 27.67,27.67 0 0 0 -8.91,-0.69 28.6,28.6 0 0 0 -12.3,4 c -2.64,1.61 -3.88,2.82 -4,2.74 a 5,5 0 0 1 0.89,-0.88 22,22 0 0 1 2.86,-2.18 28.12,28.12 0 0 1 21.59,-3.78 31.75,31.75 0 0 1 9.64,4.22 103.91,103.91 0 0 0 9.9,5.82 16.91,16.91 0 0 0 11.73,1.38 29.17,29.17 0 0 0 10.76,-5.68 c 3.1,-2.49 5.83,-5.22 8.62,-7.65 a 40.21,40.21 0 0 1 8.59,-6.06 28.44,28.44 0 0 1 21.89,-1.42 22.11,22.11 0 0 1 3.3,1.42 6.45,6.45 0 0 1 1.05,0.64 z"
       style="fill:#2cabff"
       id="path214" />
    <rect
       x="120.07"
       y="206.21001"
       width="11.89"
       height="32.169998"
       style="fill:#2cabff"
       id="rect216" />
    <rect
       x="170.55"
       y="206.21001"
       width="11.89"
       height="32.169998"
       style="fill:#2cabff"
       id="rect218" />
    <rect
       x="187.37"
       y="187.31"
       width="11.89"
       height="51.060001"
       style="fill:#2cabff"
       id="rect220" />
    <rect
       x="104.68"
       y="228.25"
       width="11.89"
       height="10.83"
       style="fill:#2cabff"
       id="rect222" />
    <rect
       x="136.89999"
       y="220.73"
       width="11.9"
       height="17.639999"
       style="fill:#2cabff"
       id="rect224" />
    <rect
       x="153.72"
       y="216.67999"
       width="11.89"
       height="21.690001"
       style="fill:#2cabff"
       id="rect226" />
    <path
       d="m 132.45,242.17 c 0,0.26 -2.88,0.48 -6.43,0.48 -3.55,0 -6.43,-0.22 -6.43,-0.48 0,-0.26 2.88,-0.48 6.43,-0.48 3.55,0 6.43,0.21 6.43,0.48 z"
       style="fill:#263238"
       id="path228" />
    <path
       d="m 117.65,242.17 c 0,0.26 -2.88,0.48 -6.43,0.48 -3.55,0 -6.43,-0.22 -6.43,-0.48 0,-0.26 2.88,-0.48 6.43,-0.48 3.55,0 6.43,0.21 6.43,0.48 z"
       style="fill:#263238"
       id="path230" />
    <path
       d="m 201.61,242.17 c 0,0.26 -3.25,0.48 -7.26,0.48 -4.01,0 -7.27,-0.22 -7.27,-0.48 0,-0.26 3.25,-0.48 7.27,-0.48 4.02,0 7.26,0.21 7.26,0.48 z"
       style="fill:#263238"
       id="path232" />
    <ellipse
       cx="176.67999"
       cy="242.17"
       rx="7.2600002"
       ry="0.47999999"
       style="fill:#263238"
       id="ellipse234" />
    <path
       d="m 165.62,242.17 c 0,0.26 -2.88,0.48 -6.43,0.48 -3.55,0 -6.43,-0.22 -6.43,-0.48 0,-0.26 2.88,-0.48 6.43,-0.48 3.55,0 6.43,0.21 6.43,0.48 z"
       style="fill:#263238"
       id="path236" />
    <path
       d="m 148.23,242.17 c 0,0.26 -2.87,0.48 -6.42,0.48 -3.55,0 -6.43,-0.22 -6.43,-0.48 0,-0.26 2.88,-0.48 6.43,-0.48 3.55,0 6.42,0.21 6.42,0.48 z"
       style="fill:#263238"
       id="path238" />
    <rect
       x="104.4"
       y="126.51"
       width="97.209999"
       height="40.369999"
       style="fill:#e0e0e0"
       id="rect240" />
    <path
       d="m 124.6,139.26 a 4.54,4.54 0 1 1 -4.54,-4.53 4.54,4.54 0 0 1 4.54,4.53 z"
       style="fill:#263238"
       id="path242" />
    <rect
       x="129.13"
       y="136.13"
       width="31.58"
       height="1.75"
       style="fill:#263238"
       id="rect244" />
    <rect
       x="129.13"
       y="140.12"
       width="61.43"
       height="1.75"
       style="fill:#ffffff"
       id="rect246" />
    <path
       d="m 124.6,153.2 a 4.54,4.54 0 1 1 -4.54,-4.53 4.53,4.53 0 0 1 4.54,4.53 z"
       style="fill:#2cabff"
       id="path248" />
    <rect
       x="129.13"
       y="150.07001"
       width="16.120001"
       height="1.75"
       style="fill:#2cabff"
       id="rect250" />
    <rect
       x="129.13"
       y="154.05"
       width="61.43"
       height="1.75"
       style="fill:#ffffff"
       id="rect252" />
    <rect
       x="507.35999"
       y="74.559998"
       width="153.64"
       height="175.35001"
       style="fill:#fafafa"
       id="rect254" />
    <path
       d="m 661,249.91 c 0,0 0,-0.29 0,-0.83 0,-0.54 0,-1.37 0,-2.44 0,-2.15 0,-5.32 0,-9.46 0,-8.28 0,-20.39 -0.06,-35.77 0,-30.75 -0.07,-74.56 -0.11,-126.85 l 0.23,0.23 H 507.43 v 0 l 0.27,-0.26 c 0,64.65 0,124.94 -0.05,175.35 l -0.22,-0.22 111.45,0.11 31.15,0.06 h 8.21 2.84 c 0,0 -0.94,0 -2.79,0 h -8.17 L 619,250 507.41,250.11 h -0.22 v -0.22 c 0,-50.41 0,-110.7 0,-175.35 V 74.3 h 0.28 153.63 0.23 v 0.23 c 0,52.35 -0.09,96.21 -0.12,127 0,15.37 0,27.46 -0.06,35.73 0,4.11 0,7.27 0,9.41 v 2.41 c -0.15,0.56 -0.15,0.83 -0.15,0.83 z"
       style="fill:#263238"
       id="path256" />
    <rect
       x="519.65997"
       y="88.580002"
       width="124.46"
       height="99.849998"
       style="fill:#e0e0e0"
       id="rect258" />
    <rect
       x="528.34998"
       y="170.67999"
       width="4.0799999"
       height="1.1799999"
       style="fill:#263238"
       id="rect260" />
    <rect
       x="537.59998"
       y="176.97"
       width="5.2199998"
       height="1.1799999"
       style="fill:#263238"
       id="rect262" />
    <rect
       x="555.78003"
       y="176.97"
       width="5.2199998"
       height="1.1799999"
       style="fill:#263238"
       id="rect264" />
    <rect
       x="573.96997"
       y="176.97"
       width="5.2199998"
       height="1.1799999"
       style="fill:#263238"
       id="rect266" />
    <rect
       x="592.15002"
       y="176.97"
       width="5.2199998"
       height="1.1799999"
       style="fill:#263238"
       id="rect268" />
    <rect
       x="610.34003"
       y="176.97"
       width="5.2199998"
       height="1.1799999"
       style="fill:#263238"
       id="rect270" />
    <rect
       x="628.52002"
       y="176.97"
       width="5.2199998"
       height="1.1799999"
       style="fill:#263238"
       id="rect272" />
    <rect
       x="528.34998"
       y="154.95"
       width="4.0799999"
       height="1.1799999"
       style="fill:#263238"
       id="rect274" />
    <rect
       x="528.34998"
       y="125.37"
       width="4.0799999"
       height="1.1799999"
       style="fill:#263238"
       id="rect276" />
    <rect
       x="528.34998"
       y="110.5"
       width="4.0799999"
       height="1.1799999"
       style="fill:#263238"
       id="rect278" />
    <rect
       x="528.56"
       y="140.16"
       width="4.0799999"
       height="1.1799999"
       style="fill:#263238"
       id="rect280" />
    <path
       d="m 633.6,171.85 a 2.5,2.5 0 0 1 -0.44,0 h -1.28 -5 l -18.17,0.09 -60,0.07 h -14.4 v -0.26 c 0,-20 0.07,-37.69 0.09,-50.35 0,-6.3 0.06,-11.36 0.08,-14.87 0,-1.72 0,-3.06 0,-4 0,-0.44 0,-0.78 0,-1 a 1.35,1.35 0 0 1 0,-0.35 1.35,1.35 0 0 1 0,0.35 c 0,0.26 0,0.6 0,1 0,0.94 0,2.28 0,4 0,3.51 0.05,8.57 0.08,14.87 0,12.66 0,30.31 0.09,50.35 l -0.26,-0.25 h 14.21 l 60,0.08 18.17,0.08 5,0.05 h 1.28 z"
       style="fill:#263238"
       id="path282" />
    <path
       d="m 634.75,140.75 c 0,0.14 -21.54,0.26 -48.11,0.26 -26.57,0 -48.12,-0.12 -48.12,-0.26 0,-0.14 21.54,-0.26 48.12,-0.26 26.58,0 48.11,0.12 48.11,0.26 z"
       style="fill:#263238"
       id="path284" />
    <path
       d="m 634.75,126 c 0,0.15 -21.54,0.26 -48.11,0.26 -26.57,0 -48.12,-0.11 -48.12,-0.26 0,-0.15 21.54,-0.26 48.12,-0.26 26.58,0 48.11,0.07 48.11,0.26 z"
       style="fill:#263238"
       id="path286" />
    <path
       d="m 634.75,111.08 c 0,0.15 -21.54,0.26 -48.11,0.26 -26.57,0 -48.12,-0.11 -48.12,-0.26 0,-0.15 21.54,-0.26 48.12,-0.26 26.58,0 48.11,0.12 48.11,0.26 z"
       style="fill:#263238"
       id="path288" />
    <path
       d="m 634.75,155.54 c 0,0.15 -21.54,0.26 -48.11,0.26 -26.57,0 -48.12,-0.11 -48.12,-0.26 0,-0.15 21.54,-0.26 48.12,-0.26 26.58,0 48.11,0.12 48.11,0.26 z"
       style="fill:#263238"
       id="path290" />
    <path
       d="m 539.51,168.67 v -13.13 l 8.18,-12.7 5.56,4.26 11.39,-17.7 6.72,4.73 9.35,-16.33 7.6,6.19 11.39,-21.66 12.3,24.21 9.93,-12.11 11.69,-3.35 v 57.59 z"
       style="fill:#455a64"
       id="path292" />
    <path
       d="m 634.75,106.42 c 0,0 -0.07,0 -0.21,0 h -0.61 -2.37 l -9,0.07 0.12,-0.06 -9.6,12.57 -0.06,0.08 H 613 588.94 l 0.21,-0.12 c -3.17,5.27 -6.58,11 -10.11,16.84 l -9.94,16.51 -0.19,0.32 -0.23,-0.3 c -4.74,-6.54 -9.14,-12.59 -13,-17.93 H 556 l -11.95,18.6 -3.33,5.11 -0.89,1.33 c -0.2,0.3 -0.32,0.45 -0.32,0.45 0,0 0.08,-0.17 0.27,-0.48 l 0.83,-1.37 3.24,-5.17 11.75,-18.61 0.17,-0.27 0.18,0.26 13.05,17.91 h -0.42 l 9.92,-16.52 10.13,-16.83 0.07,-0.12 h 0.15 24.06 l -0.16,0.08 9.69,-12.49 v -0.06 h 0.07 l 9,0.07 h 2.37 0.61 z"
       style="fill:#2cabff"
       id="path294" />
    <path
       d="m 559.73,138.61 a 0.93,0.93 0 1 1 -0.93,-0.89 0.91,0.91 0 0 1 0.93,0.89 z"
       style="fill:#2cabff"
       id="path296" />
    <path
       d="m 587.48,122.83 a 0.93,0.93 0 1 1 -0.92,-0.88 0.91,0.91 0 0 1 0.92,0.88 z"
       style="fill:#2cabff"
       id="path298" />
    <path
       d="m 609.06,119 a 0.93,0.93 0 1 1 -0.93,-0.89 0.91,0.91 0 0 1 0.93,0.89 z"
       style="fill:#2cabff"
       id="path300" />
    <path
       d="m 638.51,203.27 c 0,0.15 -26.26,0.26 -58.65,0.26 -32.39,0 -58.66,-0.11 -58.66,-0.26 0,-0.15 26.26,-0.26 58.66,-0.26 32.4,0 58.65,0.12 58.65,0.26 z"
       style="fill:#263238"
       id="path302" />
    <path
       d="m 638.51,209.61 c 0,0.15 -26.26,0.26 -58.65,0.26 -32.39,0 -58.66,-0.11 -58.66,-0.26 0,-0.15 26.26,-0.26 58.66,-0.26 32.4,0 58.65,0.12 58.65,0.26 z"
       style="fill:#263238"
       id="path304" />
    <path
       d="m 638.51,216 c 0,0.14 -26.26,0.26 -58.65,0.26 -32.39,0 -58.66,-0.12 -58.66,-0.26 0,-0.14 26.26,-0.26 58.66,-0.26 32.4,0 58.65,0.07 58.65,0.26 z"
       style="fill:#263238"
       id="path306" />
    <path
       d="m 638.51,222.3 c 0,0.14 -26.26,0.26 -58.65,0.26 -32.39,0 -58.66,-0.12 -58.66,-0.26 0,-0.14 26.26,-0.26 58.66,-0.26 32.4,0 58.65,0.11 58.65,0.26 z"
       style="fill:#263238"
       id="path308" />
  </g>
  <g
     id="freepik--character-2--inject-5"
     transform="matrix(1.0961374,0,0,1.10275,-34.803004,-18.154941)">
    <path
       d="m 592.18,219.81 c 3.21,-5.39 4.15,-12.57 5,-18.79 0.38,-2.93 1.06,-7.09 -1,-8.93 -2.06,-1.84 -2.4,-5 -4.93,-6.51 a 7.78,7.78 0 0 0 -8.36,0.07"
       style="fill:#263238"
       id="path311" />
    <path
       d="m 583.28,238.9 v 0 a 8.66,8.66 0 0 1 -9.32,-8.3 c -0.18,-4.72 -0.34,-9.48 -0.34,-9.48 0,0 -7.14,-0.67 -7.66,-7.74 -0.52,-7.07 -0.28,-23.39 -0.28,-23.39 v 0 a 24.63,24.63 0 0 1 24.9,1.6 l -0.44,24.88 v 13.39 c -0.05,4.49 -2.38,8.7 -6.86,9.04 z"
       style="fill:#ffbe9d"
       id="path313" />
    <path
       d="m 573,204.75 a 3.62,3.62 0 0 1 4.83,-1.06 4.12,4.12 0 0 1 1.37,5.14 5.43,5.43 0 0 1 -3.47,2.62 2.73,2.73 0 0 0 -2.13,2.93 c 0.21,1.77 3.16,2.44 4.49,3.91 2.07,2.28 6.62,3.25 9.69,3.61 3.07,0.36 2.64,0.38 4.39,-2.09 a 9.41,9.41 0 0 0 1.72,-5.74 l 0.33,-15.64 a 22.39,22.39 0 0 0 -0.36,-5.61 7.52,7.52 0 0 0 -3,-4.64 c -1.72,-1.13 -3.9,-1.23 -5.85,-1.86 -2.45,-0.79 -4.53,-2.42 -6.82,-3.59 -2.29,-1.17 -5.1,-1.87 -7.4,-0.72 -1.65,0.83 -2.76,2.48 -4.37,3.39 -2.28,1.3 -5.39,1 -6.5,4.37 a 5.59,5.59 0 0 0 0,3.59 c 1.55,4.58 7.21,6.42 11.29,4.44 0.08,0.78 -0.68,2.5 0.13,4.95 0.26,0.78 0.36,2 1.58,2"
       style="fill:#263238"
       id="path315" />
    <path
       d="m 574.27,209.16 c 0.06,0 0.3,0.37 0.89,0.34 a 1.66,1.66 0 0 0 1.32,-1.62 1.77,1.77 0 0 0 -1.21,-1.76 c -0.59,-0.21 -1,-0.1 -1,-0.18 0,-0.08 0.39,-0.32 1.12,-0.17 a 2.17,2.17 0 0 1 1.11,0.64 2.08,2.08 0 0 1 0.52,1.5 1.94,1.94 0 0 1 -1.84,2 1.06,1.06 0 0 1 -0.79,-0.39 c -0.15,-0.23 -0.15,-0.35 -0.12,-0.36 z"
       style="fill:#eb996e"
       id="path317" />
    <path
       d="m 581.63,187.84 c 0,0 0.15,-0.27 0.59,-0.6 a 4.86,4.86 0 0 1 2.15,-0.83 6.18,6.18 0 0 1 3.38,0.51 7.74,7.74 0 0 1 3.12,2.79 15.86,15.86 0 0 1 2.2,7.16 18.88,18.88 0 0 1 0.19,3.09 17.28,17.28 0 0 1 -0.56,-3 17,17 0 0 0 -2.26,-6.92 7.53,7.53 0 0 0 -2.89,-2.64 5.71,5.71 0 0 0 -5.92,0.48 z"
       style="fill:#455a64"
       id="path319" />
    <path
       d="m 561.72,195.08 a 0.69,0.69 0 0 1 -0.27,0 2.14,2.14 0 0 1 -0.7,-0.32 2.59,2.59 0 0 1 -0.82,-0.92 2.34,2.34 0 0 1 -0.22,-1.64 2.69,2.69 0 0 1 1.14,-1.65 3.86,3.86 0 0 1 2.24,-0.44 3.06,3.06 0 0 0 2.13,-0.54 15,15 0 0 0 1.73,-1.86 8.76,8.76 0 0 1 4.41,-2.54 9.43,9.43 0 0 1 4.14,-0.1 8,8 0 0 1 2.61,1 3.19,3.19 0 0 1 0.81,0.62 12.5,12.5 0 0 0 -3.48,-1.26 9.41,9.41 0 0 0 -4,0.19 8.5,8.5 0 0 0 -4.13,2.43 14.83,14.83 0 0 1 -1.81,1.92 2.94,2.94 0 0 1 -1.22,0.55 5.76,5.76 0 0 1 -1.23,0.06 3.47,3.47 0 0 0 -2,0.32 2.32,2.32 0 0 0 -1,1.38 2.27,2.27 0 0 0 0.8,2.31 5.88,5.88 0 0 0 0.87,0.49 z"
       style="fill:#455a64"
       id="path321" />
    <path
       d="m 580.64,214.75 c 0,-0.05 0.35,-0.18 0.93,-0.57 a 5.85,5.85 0 0 0 1.93,-2.18 5.35,5.35 0 0 0 0.32,-4.14 5.29,5.29 0 0 0 -1.28,-2.13 10.31,10.31 0 0 0 -2.21,-1.61 c -0.83,-0.48 -1.67,-0.93 -2.43,-1.45 a 8.07,8.07 0 0 1 -2,-1.85 8.54,8.54 0 0 1 -1.66,-4.18 7.81,7.81 0 0 1 0.24,-3 3.37,3.37 0 0 1 0.28,-0.77 c 0.08,-0.18 0.13,-0.26 0.14,-0.25 a 10.68,10.68 0 0 0 -0.29,4 8.45,8.45 0 0 0 1.67,3.94 8.1,8.1 0 0 0 1.86,1.72 c 0.74,0.49 1.57,0.93 2.41,1.42 a 10.39,10.39 0 0 1 2.32,1.71 5.75,5.75 0 0 1 1.37,2.33 5.67,5.67 0 0 1 -0.46,4.47 5.6,5.6 0 0 1 -2.14,2.14 2.75,2.75 0 0 1 -1,0.4 z"
       style="fill:#455a64"
       id="path323" />
    <path
       d="m 592.9,204.37 a 3.07,3.07 0 0 1 -0.91,0.21 13.92,13.92 0 0 1 -2.55,0.07 15.67,15.67 0 0 1 -7.88,-2.71 12.5,12.5 0 0 1 -5.18,-6.51 5.42,5.42 0 0 1 -0.1,-2.56 2,2 0 0 1 0.35,-0.87 6.32,6.32 0 0 0 0.11,3.33 12.78,12.78 0 0 0 5.11,6.18 16.59,16.59 0 0 0 7.62,2.77 c 2.1,0.23 3.42,-0.01 3.43,0.09 z"
       style="fill:#455a64"
       id="path325" />
    <path
       d="m 594,199.53 a 12.51,12.51 0 0 1 9.75,-4.42 c 3.68,0.21 7.27,2.76 8.17,6.33 0.68,2.7 -0.15,5.51 -0.49,8.26 -0.34,2.75 0,6 2.23,7.61 1.36,1 3.11,1.16 4.74,1.56 1.63,0.4 3.36,1.21 3.92,2.79 0.64,1.81 -0.67,3.86 -2.43,4.63 a 9,9 0 0 1 -5.66,0.08 4.73,4.73 0 0 1 -2.1,5.66 6.25,6.25 0 0 1 -6.28,-0.26 9.38,9.38 0 0 1 -3.83,-5.2 c -1.21,2.13 -4.39,2.58 -6.43,1.22 a 6.72,6.72 0 0 1 -2.6,-6.46 12.5,12.5 0 0 1 3.26,-6.46 16.21,16.21 0 0 0 2.27,-2.9 3.67,3.67 0 0 0 0.14,-3.53 2.12,2.12 0 0 0 -3.14,-0.63"
       style="fill:#263238"
       id="path327" />
    <path
       d="m 598.27,207 a 2.44,2.44 0 0 1 -2.12,0 5.09,5.09 0 0 1 -3.08,-4 5.24,5.24 0 0 1 0.33,-2.87 5.43,5.43 0 0 1 1.36,-1.92 3.43,3.43 0 0 1 1.86,-1 16.13,16.13 0 0 0 -1.6,1.3 5.24,5.24 0 0 0 -1.44,4.45 5,5 0 0 0 2.71,3.76 5.16,5.16 0 0 0 1.98,0.28 z"
       style="fill:#2cabff"
       id="path329" />
    <path
       d="m 573.39,221 a 3.33,3.33 0 0 1 -1.62,-0.16 8.74,8.74 0 0 1 -5.72,-5.06 3.29,3.29 0 0 1 -0.36,-1.58 11.55,11.55 0 0 1 0.69,1.43 10.05,10.05 0 0 0 2.29,3 10.26,10.26 0 0 0 3.21,1.91 10.14,10.14 0 0 1 1.51,0.46 z"
       style="fill:#eb996e"
       id="path331" />
    <path
       d="m 600.61,226.79 c 0,0 -0.13,0 -0.35,0 a 3.33,3.33 0 0 1 -0.92,-0.41 5,5 0 0 1 -2,-3.05 6.44,6.44 0 0 1 -0.09,-2.57 10.15,10.15 0 0 1 0.94,-2.78 c 0.89,-1.87 2.29,-3.64 3.33,-5.69 a 10,10 0 0 0 1,-3.15 6.09,6.09 0 0 0 -3.93,-6.56 6.48,6.48 0 0 0 -3.5,-0.21 c -0.83,0.17 -1.25,0.4 -1.27,0.36 -0.02,-0.04 0.09,-0.08 0.29,-0.2 a 5.33,5.33 0 0 1 0.93,-0.36 6.29,6.29 0 0 1 7.59,3.79 6.61,6.61 0 0 1 0.4,3.24 10.62,10.62 0 0 1 -1.09,3.32 c -1.08,2.12 -2.49,3.87 -3.37,5.67 a 7.56,7.56 0 0 0 -0.92,5.06 5,5 0 0 0 1.76,3 7.75,7.75 0 0 0 1.2,0.54 z"
       style="fill:#455a64"
       id="path333" />
    <path
       d="m 611.27,232 a 2.12,2.12 0 0 1 -0.44,0 5,5 0 0 1 -1.26,-0.22 7.13,7.13 0 0 1 -3.69,-2.87 10.92,10.92 0 0 1 -1.58,-6.74 66.92,66.92 0 0 1 1.36,-8.37 19.89,19.89 0 0 0 0.3,-4.31 11.21,11.21 0 0 0 -0.91,-3.86 7,7 0 0 0 -5,-4.14 10.21,10.21 0 0 0 -4.55,0 c -1.07,0.24 -1.63,0.48 -1.65,0.43 -0.02,-0.05 0.13,-0.09 0.39,-0.21 a 10.52,10.52 0 0 1 1.21,-0.42 9.91,9.91 0 0 1 4.68,-0.17 7.43,7.43 0 0 1 3,1.34 7.7,7.7 0 0 1 2.33,3 11.3,11.3 0 0 1 1,4 19,19 0 0 1 -0.29,4.42 77.13,77.13 0 0 0 -1.4,8.31 10.73,10.73 0 0 0 1.42,6.51 7.06,7.06 0 0 0 3.44,2.88 11,11 0 0 0 1.64,0.42 z"
       style="fill:#455a64"
       id="path335" />
    <polygon
       points="598.35,275.91 604.66,286.29 622.8,272.93 613.4,264.17 "
       style="fill:#ffbe9d"
       id="polygon337" />
    <path
       d="m 573.12,224.7 c 0,0 0.08,-1.26 -3.21,-1.44 a 33.63,33.63 0 0 0 -3.65,-0.12 8.34,8.34 0 0 1 -1.57,-3 9.21,9.21 0 0 1 0.7,-3.1 l 3.33,-0.3 -0.9,-2.26 -2.35,0.16 -6.61,0.8 -2.63,11.56 -18.06,33.7 a 8.71,8.71 0 0 0 3.45,12.67 v 0 c 4.67,2.26 10.92,-2.53 12.65,-7.42 l 10,-37.49 3.52,-2.74 5,-0.92"
       style="fill:#ffbe9d"
       id="path339" />
    <path
       d="m 532,449 24.55,-141.4 v 0 c 0.06,-0.21 0.11,-0.41 0.16,-0.61 v 0 0 c 4.19,-16.59 10.64,-21.9 10.64,-21.9 l 37.61,2.36 c 3.2,5.75 3.61,19.54 3.61,19.54 0.44,1.69 -7.95,138.72 -7.95,138.72 L 588,445.32 581.18,315.68 544.57,449.55 Z"
       style="fill:#ffbe9d"
       id="path341" />
    <path
       d="m 531.67,450.28 0.05,-1.27 12.94,0.37 -0.11,4.21 h -0.8 c -3.56,0.09 -18.11,0.21 -20.47,-0.52 -2.62,-0.79 8.39,-2.79 8.39,-2.79 z"
       style="fill:#2cabff"
       id="path343" />
    <g
       style="opacity:0.6"
       id="g347">
      <path
         d="m 539.88,453.37 a 4.18,4.18 0 0 1 1.72,-2.51 4.61,4.61 0 0 1 3,-0.79 l -0.1,3.35 z"
         style="fill:#ffffff"
         id="path345" />
    </g>
    <g
       style="opacity:0.6"
       id="g351">
      <path
         d="m 526.28,451.44 c 0,0 -3.86,0.92 -3.4,1.52 0.46,0.6 15.17,1 21.67,0.63 v -0.27 L 527.38,453 c 0,0 -0.38,-1.51 -1.1,-1.56 z"
         style="fill:#ffffff"
         id="path349" />
    </g>
    <path
       d="m 544.74,453.32 h -0.22 -0.64 -2.34 c -2,0 -4.72,0 -7.74,-0.08 -3.02,-0.08 -5.75,-0.2 -7.73,-0.32 l -2.34,-0.15 h -0.63 c -0.15,0 -0.22,0 -0.22,0 h 0.22 0.64 l 2.34,0.1 c 2,0.09 4.71,0.2 7.73,0.28 3.02,0.08 5.75,0.1 7.73,0.12 h 3.2 z"
       style="fill:#263238"
       id="path353" />
    <path
       d="m 527.37,453.19 a 3,3 0 0 0 -1.18,-1.9 1.62,1.62 0 0 1 0.91,0.78 1.5,1.5 0 0 1 0.27,1.12 z"
       style="fill:#263238"
       id="path355" />
    <path
       d="m 531.23,451.5 c 0,0 -0.21,-0.19 -0.39,-0.47 -0.18,-0.28 -0.3,-0.52 -0.26,-0.54 0.04,-0.02 0.21,0.19 0.39,0.47 0.18,0.28 0.3,0.52 0.26,0.54 z"
       style="fill:#263238"
       id="path357" />
    <path
       d="m 532.29,451 c 0,0 -0.23,-0.11 -0.45,-0.3 -0.22,-0.19 -0.37,-0.37 -0.34,-0.4 a 1.22,1.22 0 0 1 0.45,0.3 c 0.22,0.21 0.37,0.4 0.34,0.4 z"
       style="fill:#263238"
       id="path359" />
    <path
       d="m 533,449.9 a 1.64,1.64 0 0 1 -0.67,0.07 1.59,1.59 0 0 1 -0.67,-0.09 1.54,1.54 0 0 1 0.67,-0.06 1.74,1.74 0 0 1 0.67,0.08 z"
       style="fill:#263238"
       id="path361" />
    <path
       d="m 533.23,449.11 a 1.3,1.3 0 0 1 -0.75,0.19 1.38,1.38 0 0 1 -0.78,-0.12 4.64,4.64 0 0 1 0.77,0 4.19,4.19 0 0 1 0.76,-0.07 z"
       style="fill:#263238"
       id="path363" />
    <path
       d="m 530.82,450.45 a 2.88,2.88 0 0 1 -0.82,0 6,6 0 0 1 -0.88,-0.2 3,3 0 0 1 -0.5,-0.21 0.43,0.43 0 0 1 -0.2,-0.25 0.29,0.29 0 0 1 0.14,-0.3 1.58,1.58 0 0 1 1.86,0.46 1.31,1.31 0 0 1 0.26,0.52 c 0,0.14 0,0.21 0,0.21 a 2.09,2.09 0 0 0 -0.35,-0.67 1.56,1.56 0 0 0 -0.7,-0.44 1.36,1.36 0 0 0 -1,0 c -0.13,0.08 -0.08,0.23 0.06,0.31 a 2.37,2.37 0 0 0 0.46,0.2 6.1,6.1 0 0 0 0.85,0.23 c 0.51,0.1 0.82,0.11 0.82,0.14 z"
       style="fill:#263238"
       id="path365" />
    <path
       d="m 530.61,450.48 a 0.72,0.72 0 0 1 -0.08,-0.54 1.22,1.22 0 0 1 0.24,-0.56 0.87,0.87 0 0 1 0.7,-0.37 0.31,0.31 0 0 1 0.25,0.36 0.82,0.82 0 0 1 -0.15,0.34 2.72,2.72 0 0 1 -0.41,0.46 1.3,1.3 0 0 1 -0.48,0.3 c 0,0 0.17,-0.14 0.4,-0.37 a 2.23,2.23 0 0 0 0.36,-0.46 c 0.12,-0.16 0.21,-0.45 0,-0.49 a 0.77,0.77 0 0 0 -0.55,0.32 1.09,1.09 0 0 0 -0.25,0.49 2.25,2.25 0 0 0 -0.03,0.52 z"
       style="fill:#263238"
       id="path367" />
    <path
       d="m 544.58,450 c 0,0 -0.37,0 -1,0 a 4.55,4.55 0 0 0 -2.1,0.74 3.94,3.94 0 0 0 -1.35,1.68 c -0.21,0.5 -0.24,0.85 -0.27,0.84 a 0.62,0.62 0 0 1 0,-0.24 2.93,2.93 0 0 1 0.16,-0.64 3.69,3.69 0 0 1 1.36,-1.75 4.18,4.18 0 0 1 2.19,-0.73 3.35,3.35 0 0 1 0.7,0 0.66,0.66 0 0 1 0.31,0.1 z"
       style="fill:#263238"
       id="path369" />
    <path
       d="m 538.3,452.16 a 7.56,7.56 0 0 1 -1.89,0.13 8.46,8.46 0 0 1 -1.88,-0.19 c 0,-0.05 0.85,0 1.88,0 1.03,0 1.88,0.02 1.89,0.06 z"
       style="fill:#263238"
       id="path371" />
    <path
       d="m 540.82,452.23 c 0,0 -0.07,0.16 -0.16,0.34 -0.09,0.18 -0.15,0.33 -0.19,0.33 -0.04,0 -0.06,-0.19 0,-0.4 0.06,-0.21 0.32,-0.3 0.35,-0.27 z"
       style="fill:#263238"
       id="path373" />
    <path
       d="m 541.81,451.15 c 0,0 -0.06,0.15 -0.2,0.27 -0.14,0.12 -0.27,0.2 -0.3,0.17 -0.03,-0.03 0.06,-0.15 0.19,-0.27 0.13,-0.12 0.28,-0.2 0.31,-0.17 z"
       style="fill:#263238"
       id="path375" />
    <path
       d="m 543.18,450.68 c 0,0 -0.18,0 -0.37,0.09 -0.19,0.09 -0.33,0.15 -0.36,0.12 -0.03,-0.03 0.08,-0.19 0.31,-0.26 0.23,-0.07 0.44,0.02 0.42,0.05 z"
       style="fill:#263238"
       id="path377" />
    <path
       d="m 544.16,450.47 c 0,0 -0.06,0.1 -0.17,0.13 -0.11,0.03 -0.21,0 -0.22,0 -0.01,0 0.06,-0.1 0.17,-0.13 0.11,-0.03 0.2,-0.04 0.22,0 z"
       style="fill:#263238"
       id="path379" />
    <path
       d="m 594.87,228.68 a 24.79,24.79 0 0 1 10,3.92 c 11.89,7.71 31.78,24 30.13,31.57 -1.44,6.42 -17,14.23 -17,14.23 l -10,-12.12 6.17,-3.53 -15.17,-10.1 z"
       style="fill:#263238"
       id="path381" />
    <path
       d="m 601.65,253.23 -0.49,1.8 -1.75,8.36 -0.41,12.25 c 9,11.62 9.16,21.4 9.16,21.4 l -45.57,5.32 c 0,-9 3.29,-20.34 3.29,-20.34 2.63,-4.47 2.51,-17.85 2,-18.34 -2.84,-2.82 -3.53,-4.89 -1.26,-8.5 0,0 -14.13,14.84 -15.58,16.17 -5,4.58 -9.8,3.3 -12,1.31 -6.24,-5.57 0.16,-12.75 0.16,-12.75 L 563,232.64 a 11.87,11.87 0 0 1 6.18,-3.77 51.34,51.34 0 0 1 5.1,-0.9 l 15.89,0.13 a 26.92,26.92 0 0 1 4.73,0.58 11.35,11.35 0 0 1 6.94,8.6 c 1.39,6.83 -0.19,15.95 -0.19,15.95 z"
       style="fill:#263238"
       id="path383" />
    <path
       d="m 602.15,242.3 a 6.08,6.08 0 0 1 0.1,1.32 c 0,0.85 0,2.09 -0.09,3.61 A 94.6,94.6 0 0 1 600.59,259 c -0.29,1.55 -0.61,3.05 -0.94,4.44 v -0.05 c -0.14,3.54 -0.28,6.6 -0.4,8.78 -0.07,1 -0.12,1.86 -0.16,2.54 a 3.83,3.83 0 0 1 -0.12,0.92 3.54,3.54 0 0 1 -0.05,-0.92 c 0,-0.69 0,-1.54 0,-2.55 0,-2.18 0.11,-5.25 0.22,-8.79 v -0.05 c 0.31,-1.37 0.62,-2.87 0.91,-4.42 0.87,-4.54 1.45,-8.69 1.72,-11.71 0.13,-1.51 0.2,-2.73 0.25,-3.58 a 7,7 0 0 1 0.13,-1.31 z"
       style="fill:#455a64"
       id="path385" />
    <path
       d="m 602.3,254.55 a 190.66,190.66 0 0 1 16.35,11.31 92.34,92.34 0 0 1 -8.32,-5.44 95.44,95.44 0 0 1 -8.03,-5.87 z"
       style="fill:#455a64"
       id="path387" />
    <path
       d="m 572.84,236.69 c 0,0 0.1,0.05 0.24,0.18 a 4.75,4.75 0 0 1 0.56,0.62 6.91,6.91 0 0 1 1.24,2.82 9.32,9.32 0 0 1 -0.26,4.57 18.67,18.67 0 0 1 -2.56,5 17.65,17.65 0 0 1 -1.88,2.21 c -0.66,0.67 -1.37,1.22 -2,1.79 -1.26,1.13 -2.34,2.2 -3.24,3.12 -0.9,0.92 -1.61,1.67 -2.1,2.19 -0.49,0.52 -0.77,0.82 -0.8,0.79 a 4.92,4.92 0 0 1 0.65,-0.92 c 0.44,-0.56 1.11,-1.36 2,-2.32 0.89,-0.96 1.93,-2 3.19,-3.21 0.63,-0.59 1.32,-1.15 2,-1.8 a 17.59,17.59 0 0 0 1.82,-2.16 19.15,19.15 0 0 0 2.52,-4.8 9.34,9.34 0 0 0 0.36,-4.36 8.17,8.17 0 0 0 -1.74,-3.72 z"
       style="fill:#455a64"
       id="path389" />
    <polygon
       points="568.07,270.86 599.15,270.86 598.98,275.64 567.54,276.98 "
       style="fill:#455a64"
       id="polygon391" />
    <path
       d="m 541,258.71 a 19.84,19.84 0 0 0 -1.73,1.8 8.27,8.27 0 0 0 0.44,10.85 23.92,23.92 0 0 0 1.87,1.66 c 0,0 -0.25,0 -0.64,-0.27 a 7.08,7.08 0 0 1 -1.49,-1.13 8.21,8.21 0 0 1 -0.46,-11.35 6.85,6.85 0 0 1 1.39,-1.25 c 0.4,-0.24 0.62,-0.34 0.62,-0.31 z"
       style="fill:#455a64"
       id="path393" />
    <polygon
       points="604.11,453.87 588.33,453.68 588,445.32 600.58,445.67 "
       style="fill:#2cabff"
       id="polygon395" />
    <path
       d="m 588.22,452.26 a 14.36,14.36 0 0 0 2.2,0.11 c 1.37,0 3.26,0 5.34,0 l 5.32,-0.11 a 15.4,15.4 0 0 0 2.21,-0.12 15.66,15.66 0 0 0 -2.21,-0.1 c -1.37,0 -3.25,0 -5.33,0 l -5.33,0.1 a 18.74,18.74 0 0 0 -2.2,0.12 z"
       style="fill:#263238"
       id="path397" />
    <path
       d="m 594.79,445.49 a 10.85,10.85 0 0 0 -0.06,3.32 11.14,11.14 0 0 0 0.43,3.3 10.85,10.85 0 0 0 0.06,-3.32 11.14,11.14 0 0 0 -0.43,-3.3 z"
       style="fill:#263238"
       id="path399" />
    <polyline
       points="604.08 454.04 588.32 453.51 588.22 452.01 603.29 452.14 604.09 453.86"
       style="opacity:0.6;fill:#ffffff"
       id="polyline401" />
    <path
       d="m 607.13,289.14 c 11.87,37.45 -3.43,82.91 0.24,126.55 0.36,4.29 2.1,9.41 -1.91,11.85 a 6.54,6.54 0 0 1 -3.62,0.89 c -3.2,-0.11 -5.88,-1.77 -8.74,-2.91 a 26,26 0 0 0 -17.2,-0.67 c -3.78,1.18 -7.54,3.27 -11.46,2.68 -5.21,-0.79 -8.58,-5.94 -13.37,-8.12 -4.49,-2 -9.67,-1.28 -14.6,-1.4 h -0.15 a 11.06,11.06 0 0 1 -10.22,-14 c 7.17,-26.24 30.92,-111.46 41.44,-127 L 599,275.64 c 2.88,3.5 6.6,8.73 8.13,13.5 z"
       style="fill:#2cabff"
       id="path403" />
    <path
       d="m 596.12,306.77 a 14,14 0 0 1 -1.71,2.15 50.82,50.82 0 0 1 -4.64,4.75 31.05,31.05 0 0 1 -5.48,3.76 12.39,12.39 0 0 1 -2.5,1.16 c -0.11,-0.18 3.74,-2 7.63,-5.32 1.94,-1.68 3.53,-3.39 4.72,-4.6 a 14.16,14.16 0 0 1 1.98,-1.9 z"
       style="fill:#263238"
       id="path405" />
    <g
       style="opacity:0.1"
       id="g409">
      <path
         d="M 582.24,320.9 A 133.89,133.89 0 0 0 577,401.06 c 0.56,2.29 1.14,4.89 -0.17,6.86 -1.68,2.54 -5.77,2.37 -8.08,0.37 -2.31,-2 -3.23,-5.13 -3.81,-8.13 -4.32,-22.34 3.5,-44.8 11.94,-65.93"
         id="path407" />
    </g>
  </g>
  <g
     id="freepik--character-1--inject-5"
     transform="matrix(1.0961374,0,0,1.10275,-34.803004,-18.154941)">
    <rect
       x="344.32999"
       y="333.51999"
       width="59.59"
       height="2.9000001"
       style="fill:#263238"
       id="rect412" />
    <polygon
       points="323.92,294.54 370.44,294.54 380.56,336.42 335.09,336.42 "
       style="fill:#263238"
       id="polygon414" />
    <polygon
       points="336.21,333.25 326.54,296.47 368.31,296.47 377.77,333.25 "
       style="fill:#f5f5f5"
       id="polygon416" />
    <path
       d="M 327.23,299.12 H 369 l -0.71,-2.65 h -41.75 z"
       style="fill:#ebebeb"
       id="path418" />
    <path
       d="m 331.74,297.8 a 0.46,0.46 0 1 0 0.46,-0.46 0.46,0.46 0 0 0 -0.46,0.46 z"
       style="fill:#fafafa"
       id="path420" />
    <path
       d="m 330.17,297.8 a 0.46,0.46 0 1 0 0.46,-0.46 0.46,0.46 0 0 0 -0.46,0.46 z"
       style="fill:#fafafa"
       id="path422" />
    <path
       d="m 328.6,297.8 a 0.46,0.46 0 0 0 0.46,0.45 0.46,0.46 0 0 0 0,-0.91 0.46,0.46 0 0 0 -0.46,0.46 z"
       style="fill:#fafafa"
       id="path424" />
    <path
       d="m 358.63,315.23 4.58,5.24 A 6.47,6.47 0 0 0 366,315.2 c 0,-3.66 -3.36,-6.66 -7.41,-6.64 -4.05,0.02 -7.38,3 -7.36,6.7 z"
       style="fill:#2cabff"
       id="path426" />
    <path
       d="m 358.05,316.07 a 10.24,10.24 0 0 1 1.31,1.31 c 0.82,0.88 2,2.16 3.38,3.72 l 0.16,0.18 -0.2,0.14 a 7.87,7.87 0 0 1 -7.71,0.76 7.6,7.6 0 0 1 -3.18,-2.55 6.51,6.51 0 0 1 -1.17,-3.44 V 316 h 0.23 c 2.19,0 4,0 5.26,0 a 11.94,11.94 0 0 1 1.93,0.09 13.64,13.64 0 0 1 -2,0.16 c -1.26,0.06 -3,0.12 -5.18,0.18 l 0.22,-0.24 a 6.28,6.28 0 0 0 1.14,3.17 7.09,7.09 0 0 0 3,2.36 7.58,7.58 0 0 0 7.25,-0.63 v 0.32 c -1.33,-1.55 -2.42,-2.86 -3.18,-3.79 a 13.28,13.28 0 0 1 -1.26,-1.55 z"
       style="fill:#263238"
       id="path428" />
    <path
       d="m 355.06,311.28 a 0.43,0.43 0 0 0 0.42,0.42 0.42,0.42 0 0 0 0.41,-0.42 0.41,0.41 0 0 0 -0.41,-0.41 0.41,0.41 0 0 0 -0.42,0.41 z"
       style="fill:#263238"
       id="path430" />
    <path
       d="m 346.83,308.29 a 23.24,23.24 0 0 1 4.95,-0.28 h 0.76 l 0.08,0.07 a 19.79,19.79 0 0 1 2.86,3.2 20.17,20.17 0 0 1 -3.23,-2.83 l 0.19,0.07 h -0.66 a 24.19,24.19 0 0 1 -4.95,-0.23 z"
       style="fill:#263238"
       id="path432" />
    <path
       d="M 337.48,313.52 A 12.94,12.94 0 0 1 337,311.59 c -0.28,-1.27 -0.67,-3.12 -1.13,-5.39 l -0.05,-0.25 h 0.26 l 10.34,-0.09 c -0.06,0 0.49,0.41 0.26,0.22 v 0 0.11 0.12 0.25 l 0.09,0.49 c 0.06,0.33 0.13,0.65 0.19,1 0.12,0.64 0.23,1.27 0.35,1.89 0.23,1.23 0.44,2.41 0.65,3.53 l 0.05,0.28 h -0.28 c -3.11,0 -5.72,-0.05 -7.54,-0.08 l -2.09,-0.06 a 2.93,2.93 0 0 1 -0.71,-0.06 4.5,4.5 0 0 1 0.8,-0.06 l 2.14,-0.07 c 1.83,-0.05 4.38,-0.11 7.4,-0.14 l -0.23,0.28 -0.6,-3.56 c -0.12,-0.61 -0.24,-1.24 -0.36,-1.88 -0.06,-0.32 -0.13,-0.65 -0.19,-1 l -0.09,-0.49 -0.05,-0.25 v -0.12 -0.1 0 c -0.23,-0.19 0.31,0.26 0.25,0.22 h -10.38 l 0.21,-0.25 c 0.39,2.19 0.69,4 0.9,5.32 0.21,1.32 0.31,2.04 0.29,2.07 z"
       style="fill:#263238"
       id="path434" />
    <path
       d="m 354.45,319.61 a 0.42,0.42 0 0 0 0.83,0 0.42,0.42 0 0 0 -0.42,-0.42 0.41,0.41 0 0 0 -0.41,0.42 z"
       style="fill:#263238"
       id="path436" />
    <path
       d="m 347.35,319.64 a 13.48,13.48 0 0 1 3.76,-0.28 13.25,13.25 0 0 1 3.75,0.25 13.67,13.67 0 0 1 -3.75,0.27 14,14 0 0 1 -3.76,-0.24 z"
       style="fill:#263238"
       id="path438" />
    <path
       d="m 337.51,322.9 a 9.2,9.2 0 0 1 -0.45,-1.38 c -0.27,-0.92 -0.66,-2.28 -1.13,-4 l -0.06,-0.24 h 0.25 c 2.82,-0.05 6.57,-0.09 10.67,-0.1 l 0.25,0.19 v 0 0.08 0.09 0.18 l 0.09,0.36 0.18,0.7 c 0.12,0.47 0.24,0.93 0.35,1.38 0.23,0.9 0.45,1.78 0.66,2.62 l 0.08,0.3 h -0.31 c -3.16,0 -5.86,0 -7.74,-0.08 l -2.18,-0.06 a 3.46,3.46 0 0 1 -0.75,-0.06 5.82,5.82 0 0 1 0.84,-0.07 l 2.23,-0.07 c 1.89,-0.06 4.52,-0.11 7.6,-0.14 l -0.24,0.3 c -0.22,-0.84 -0.45,-1.71 -0.68,-2.61 l -0.36,-1.38 -0.18,-0.71 -0.09,-0.35 -0.05,-0.18 v -0.09 -0.07 0 c -0.06,0 0.48,0.37 0.25,0.2 -4.1,0 -7.85,0 -10.66,0 l 0.18,-0.25 c 0.4,1.64 0.7,3 0.91,3.93 a 9.94,9.94 0 0 1 0.34,1.51 z"
       style="fill:#263238"
       id="path440" />
    <path
       d="m 338.3,308.41 a 12.56,12.56 0 0 1 3.53,-0.27 11.8,11.8 0 0 1 3.54,0.25 12.61,12.61 0 0 1 -3.54,0.27 11.76,11.76 0 0 1 -3.53,-0.25 z"
       style="fill:#263238"
       id="path442" />
    <path
       d="m 338.38,309.57 a 12.81,12.81 0 0 1 3.56,-0.27 12.57,12.57 0 0 1 3.56,0.24 24,24 0 0 1 -7.12,0 z"
       style="fill:#263238"
       id="path444" />
    <path
       d="m 338.59,310.69 a 11.34,11.34 0 0 1 3.44,-0.28 11.93,11.93 0 0 1 3.43,0.25 11.24,11.24 0 0 1 -3.43,0.28 12,12 0 0 1 -3.44,-0.25 z"
       style="fill:#263238"
       id="path446" />
    <path
       d="m 338.51,319.54 a 11.37,11.37 0 0 1 3.37,-0.27 10.74,10.74 0 0 1 3.37,0.25 11.48,11.48 0 0 1 -3.37,0.27 10.74,10.74 0 0 1 -3.37,-0.25 z"
       style="fill:#263238"
       id="path448" />
    <path
       d="m 338.92,320.82 a 16.08,16.08 0 0 1 5.76,0 16.08,16.08 0 0 1 -5.76,0 z"
       style="fill:#263238"
       id="path450" />
    <polygon
       points="508.61,341.78 511.8,341.78 511.8,336.29 273.76,336.29 273.76,341.78 277.36,341.78 277.36,452.99 284.74,452.99 284.74,341.78 323.91,341.78 323.91,452.99 331.29,452.99 331.29,341.78 501.22,341.78 501.22,452.96 508.61,452.96 "
       style="fill:#263238"
       id="polygon452" />
    <path
       d="m 433.8,377.72 a 55,55 0 0 0 9.6,0 57.7,57.7 0 0 0 -9.6,0 z"
       style="fill:#263238"
       id="path454" />
    <ellipse
       cx="363.89001"
       cy="378.73001"
       rx="0.25999999"
       ry="0.13"
       style="fill:#455a64"
       id="ellipse456" />
    <path
       d="m 410.92,279.87 -27.56,-28 -0.6,-3 c -0.11,-0.55 -0.23,-1.17 -0.34,-1.88 a 7.52,7.52 0 0 1 0.05,-2.46 11,11 0 0 1 0.85,-2.94 c 0.46,-0.81 -0.28,-1.79 -1.05,-1.45 -0.77,0.34 -2.1,2.53 -2.39,5.56 -0.29,3.03 -2.87,-1 -3.83,-2.44 -0.96,-1.44 -4.16,-5.77 -4.83,-5.82 -1,-0.08 -1.22,1 -0.23,2.4 0.99,1.4 3.7,5.9 2.94,6.37 v 0 a 3.6,3.6 0 0 0 -3.81,1.89 c -0.7,1.33 -1.47,3.23 -0.84,4.1 a 49.71,49.71 0 0 0 4.4,4.66 l 0.92,0.79 c 0,0 23.85,34.56 29.05,35.69 3.23,0.69 53.21,4.84 53.21,4.84 l 3.77,-13.77 z"
       style="fill:#b78876"
       id="path458" />
    <path
       d="m 369,251.58 2.55,2.45 a 3.15,3.15 0 0 0 1,0.71 1.06,1.06 0 0 0 1.12,-0.18 1.08,1.08 0 0 0 0.15,-1 3,3 0 0 0 -0.59,-0.9 l -2.48,-3"
       style="fill:#b78876"
       id="path460" />
    <path
       d="m 370.75,249.65 c 0.06,-0.05 0.53,0.42 1.26,1.23 0.41,0.46 0.83,0.93 1.26,1.43 a 4.61,4.61 0 0 1 0.71,0.95 1.36,1.36 0 0 1 -0.07,1.41 1.25,1.25 0 0 1 -1.4,0.32 2.83,2.83 0 0 1 -1,-0.7 l -1.33,-1.36 c -0.75,-0.78 -1.19,-1.29 -1.14,-1.35 a 6.06,6.06 0 0 1 1.39,1.09 l 1.41,1.27 a 2.41,2.41 0 0 0 0.84,0.57 0.77,0.77 0 0 0 0.82,-0.16 0.87,0.87 0 0 0 0,-0.87 4.9,4.9 0 0 0 -0.61,-0.87 c -0.41,-0.51 -0.8,-1 -1.18,-1.5 a 5.8,5.8 0 0 1 -0.96,-1.46 z"
       style="fill:#aa6550"
       id="path462" />
    <path
       d="m 370.85,249.8 2.55,2.45 a 3,3 0 0 0 1,0.7 1,1 0 0 0 1.12,-0.18 1.06,1.06 0 0 0 0.15,-1 3.16,3.16 0 0 0 -0.59,-0.91 l -2.48,-3"
       style="fill:#b78876"
       id="path464" />
    <path
       d="m 372.56,247.86 c 0.06,0 0.53,0.43 1.26,1.24 l 1.26,1.42 a 4.61,4.61 0 0 1 0.71,0.95 1.38,1.38 0 0 1 -0.07,1.42 1.25,1.25 0 0 1 -1.4,0.32 2.83,2.83 0 0 1 -1,-0.7 L 372,251.15 a 6.18,6.18 0 0 1 -1.14,-1.35 6.16,6.16 0 0 1 1.39,1.08 l 1.41,1.28 a 2.41,2.41 0 0 0 0.84,0.57 0.77,0.77 0 0 0 0.82,-0.16 0.89,0.89 0 0 0 0,-0.88 4.44,4.44 0 0 0 -0.62,-0.86 l -1.17,-1.5 a 5.55,5.55 0 0 1 -0.97,-1.47 z"
       style="fill:#aa6550"
       id="path466" />
    <path
       d="m 372.84,248.34 2.55,2.45 a 2.77,2.77 0 0 0 1,0.7 0.91,0.91 0 0 0 1.26,-1.2 3,3 0 0 0 -0.59,-0.91 c -0.82,-1 -1.65,-2 -2.47,-3"
       style="fill:#b78876"
       id="path468" />
    <path
       d="m 374.55,246.4 a 6.52,6.52 0 0 1 1.26,1.23 l 1.26,1.43 a 4.59,4.59 0 0 1 0.7,0.95 1.33,1.33 0 0 1 -0.07,1.42 1.23,1.23 0 0 1 -1.39,0.32 2.83,2.83 0 0 1 -1,-0.7 L 374,249.69 a 5.92,5.92 0 0 1 -1.13,-1.35 6,6 0 0 1 1.39,1.08 l 1.41,1.28 a 2.47,2.47 0 0 0 0.83,0.57 0.76,0.76 0 0 0 0.82,-0.16 0.84,0.84 0 0 0 0,-0.88 4.84,4.84 0 0 0 -0.61,-0.86 l -1.17,-1.5 a 5.55,5.55 0 0 1 -0.99,-1.47 z"
       style="fill:#aa6550"
       id="path470" />
    <path
       d="m 376.87,252.58 c 0,-0.09 0.63,-0.21 1.55,0.07 l -0.29,0.25 a 4.36,4.36 0 0 1 -0.07,-1.75 4.45,4.45 0 0 1 1,-2.13 c 0.39,-0.46 0.72,-0.64 0.76,-0.59 a 9.05,9.05 0 0 0 -1.2,2.8 5.27,5.27 0 0 0 0,1.58 l 0.05,0.4 -0.34,-0.15 c -0.86,-0.34 -1.47,-0.38 -1.46,-0.48 z"
       style="fill:#aa6550"
       id="path472" />
    <path
       d="m 447,237.88 0.12,38.37 -15,0.71 -0.6,-9.19 c 0,0 -7.22,1.09 -8.73,-4.34 -1,-3.47 -0.72,-30.27 -0.72,-30.27 z"
       style="fill:#b78876"
       id="path474" />
    <path
       d="m 418.42,236.94 c 1.11,2.3 6.39,6.49 6.39,6.49 l 2.39,6.39 c 2.07,-1.62 4.85,-1.53 5.38,2.11 0.38,2.64 -2.89,3.17 -2.89,3.17 1.9,3.24 3.19,5.86 6,8.94 3,3.34 4.68,3.67 7.94,3.73 h 3.59 c 0,0 7.34,-6.14 5.89,-22.3 C 451.66,229.31 437.09,234 433.62,230 c -5.62,-6.59 -18.9,-0.71 -15.2,6.94 z"
       style="fill:#263238"
       id="path476" />
    <path
       d="m 452.25,259 a 5.11,5.11 0 0 1 -1.77,-0.08 9.2,9.2 0 0 1 -4.29,-2.2 23.38,23.38 0 0 1 -4.33,-5.73 c -1.4,-2.29 -2.93,-4.95 -5.5,-6.73 -2.57,-1.78 -5.66,-2.09 -8.29,-2.63 a 15.7,15.7 0 0 1 -6.69,-2.55 7.17,7.17 0 0 1 -2.68,-4 4,4 0 0 1 -0.07,-1.77 5.52,5.52 0 0 0 0.15,1.75 7.16,7.16 0 0 0 2.69,3.88 15.73,15.73 0 0 0 6.64,2.47 c 2.62,0.53 5.7,0.87 8.37,2.65 2.67,1.78 4.15,4.51 5.54,6.8 a 23.72,23.72 0 0 0 4.27,5.72 9.33,9.33 0 0 0 4.2,2.23 7.22,7.22 0 0 0 1.3,0.16 z"
       style="fill:#455a64"
       id="path478" />
    <path
       d="m 453.1,245.84 -0.77,-0.24 a 12.93,12.93 0 0 0 -2.26,-0.5 5,5 0 0 0 -3.46,0.78 2.84,2.84 0 0 0 -1.21,1.82 2.54,2.54 0 0 0 0.7,2.29 2,2 0 0 0 1.21,0.48 2.46,2.46 0 0 0 1.33,-0.37 4.07,4.07 0 0 0 1.81,-2.31 5.71,5.71 0 0 0 -4.83,-7.5 10.12,10.12 0 0 0 -3.71,0.48 26.38,26.38 0 0 1 -3.85,0.93 15.48,15.48 0 0 1 -4.08,0 13.56,13.56 0 0 1 -3.94,-1.09 4.74,4.74 0 0 1 -2.69,-2.84 3.73,3.73 0 0 1 0.91,-3.63 3.2,3.2 0 0 1 3.52,-0.51 2.66,2.66 0 0 1 1.3,1.22 3,3 0 0 1 0.28,1.72 3.93,3.93 0 0 1 -1.75,2.74 5.65,5.65 0 0 1 -3,0.83 8.78,8.78 0 0 1 -2.8,-0.43 10.12,10.12 0 0 1 -4.12,-2.54 10.43,10.43 0 0 1 -2.1,-3 10.93,10.93 0 0 1 -0.75,-2.2 c -0.09,-0.52 -0.12,-0.8 -0.12,-0.8 0,0 0.06,0.27 0.16,0.79 a 11.54,11.54 0 0 0 0.78,2.17 10.26,10.26 0 0 0 2.11,3 9.87,9.87 0 0 0 4.08,2.48 8.54,8.54 0 0 0 2.76,0.42 5.51,5.51 0 0 0 2.86,-0.81 3.73,3.73 0 0 0 1.66,-2.62 2.57,2.57 0 0 0 -1.47,-2.75 3,3 0 0 0 -3.3,0.49 3.52,3.52 0 0 0 -0.86,3.42 4.58,4.58 0 0 0 2.59,2.71 13.08,13.08 0 0 0 3.91,1.03 15.1,15.1 0 0 0 4,0 25.6,25.6 0 0 0 3.82,-0.91 10.11,10.11 0 0 1 3.8,-0.49 5.91,5.91 0 0 1 5,7.76 4.27,4.27 0 0 1 -1.9,2.39 2.62,2.62 0 0 1 -1.41,0.38 2.07,2.07 0 0 1 -1.31,-0.52 2.7,2.7 0 0 1 -0.73,-2.42 3,3 0 0 1 1.27,-1.9 5.16,5.16 0 0 1 3.54,-0.76 11.18,11.18 0 0 1 2.26,0.54 c 0.5,0.16 0.76,0.27 0.76,0.27 z"
       style="fill:#455a64"
       id="path480" />
    <path
       d="m 434.08,443.62 -4.88,-6.27 11.69,-9.23 7.25,9.1 -0.69,0.62 c -3.08,2.72 -15.88,13.65 -18.55,14.7 -2.98,1.17 5.18,-8.92 5.18,-8.92 z"
       style="fill:#2cabff"
       id="path482" />
    <g
       style="opacity:0.4"
       id="g486">
      <path
         d="m 430.23,448.72 c 0,0 -2.69,3.76 -1.8,4 0.89,0.24 14.23,-10.32 19.71,-15.49 l -0.23,-0.25 -15.46,12.44 c 0,0 -1.52,-1.21 -2.22,-0.7 z"
         style="fill:#ffffff"
         id="path484" />
    </g>
    <path
       d="m 448.09,436.82 a 1.15,1.15 0 0 1 -0.18,0.18 l -0.55,0.49 -2.05,1.77 c -1.75,1.48 -4.18,3.5 -6.92,5.67 -2.74,2.17 -5.26,4.08 -7.1,5.43 l -2.2,1.6 -0.6,0.42 -0.22,0.13 0.2,-0.16 0.58,-0.45 2.16,-1.64 c 1.82,-1.38 4.33,-3.3 7.07,-5.47 2.74,-2.17 5.18,-4.17 6.94,-5.63 l 2.09,-1.72 0.57,-0.47 z"
       style="fill:#263238"
       id="path488" />
    <path
       d="m 432.6,449.59 a 6.11,6.11 0 0 0 -1.2,-0.7 5.83,5.83 0 0 0 -1.36,-0.24 2,2 0 0 1 1.42,0.07 2,2 0 0 1 1.14,0.87 z"
       style="fill:#263238"
       id="path490" />
    <path
       d="m 434.67,445.11 c 0,0.05 -0.34,0 -0.73,-0.15 -0.39,-0.15 -0.68,-0.28 -0.66,-0.33 0.02,-0.05 0.34,0 0.72,0.16 a 1.71,1.71 0 0 1 0.67,0.32 z"
       style="fill:#263238"
       id="path492" />
    <path
       d="m 435.22,443.86 c 0,0.05 -0.29,0.08 -0.63,0.06 -0.34,-0.02 -0.62,-0.08 -0.62,-0.13 0,-0.05 0.28,-0.08 0.63,-0.05 a 1.36,1.36 0 0 1 0.62,0.12 z"
       style="fill:#263238"
       id="path494" />
    <path
       d="m 434.94,442.29 c 0,0 -0.21,0.29 -0.55,0.56 -0.34,0.27 -0.63,0.46 -0.66,0.42 -0.03,-0.04 0.22,-0.29 0.55,-0.56 0.33,-0.27 0.63,-0.46 0.66,-0.42 z"
       style="fill:#263238"
       id="path496" />
    <path
       d="m 434.53,441.35 a 2.22,2.22 0 0 1 -1.3,1.2 c 0,-0.05 0.3,-0.27 0.66,-0.6 0.36,-0.33 0.6,-0.63 0.64,-0.6 z"
       style="fill:#263238"
       id="path498" />
    <path
       d="m 433.46,444.41 a 2.59,2.59 0 0 1 -0.75,0.59 5.93,5.93 0 0 1 -0.94,0.45 2.57,2.57 0 0 1 -0.61,0.18 0.58,0.58 0 0 1 -0.37,-0.09 0.37,0.37 0 0 1 -0.12,-0.39 1.75,1.75 0 0 1 2,-0.94 1.66,1.66 0 0 1 0.64,0.3 c 0.13,0.11 0.19,0.18 0.18,0.19 a 2.52,2.52 0 0 0 -0.85,-0.37 1.68,1.68 0 0 0 -1,0.09 1.5,1.5 0 0 0 -0.85,0.77 c 0,0.18 0.11,0.29 0.31,0.26 a 3.87,3.87 0 0 0 0.56,-0.15 8.74,8.74 0 0 0 0.94,-0.41 c 0.56,-0.28 0.84,-0.51 0.86,-0.48 z"
       style="fill:#263238"
       id="path500" />
    <path
       d="m 433.3,444.6 c 0,0 -0.27,-0.09 -0.5,-0.45 a 1.61,1.61 0 0 1 -0.23,-0.72 1,1 0 0 1 0.32,-0.87 0.38,0.38 0 0 1 0.51,0.16 1.08,1.08 0 0 1 0.14,0.44 3,3 0 0 1 0,0.73 1.39,1.39 0 0 1 -0.19,0.65 c 0,0 0,-0.26 0.06,-0.66 a 2.9,2.9 0 0 0 0,-0.7 c 0,-0.24 -0.18,-0.58 -0.39,-0.46 a 0.84,0.84 0 0 0 -0.24,0.71 1.55,1.55 0 0 0 0.17,0.65 3.58,3.58 0 0 0 0.35,0.52 z"
       style="fill:#263238"
       id="path502" />
    <path
       d="m 445.32,433.81 c 0,0 -0.36,0.23 -0.83,0.71 a 4.7,4.7 0 0 0 -1.14,4.86 c 0.22,0.64 0.47,1 0.44,1 -0.03,0 -0.08,-0.07 -0.19,-0.23 a 4.81,4.81 0 0 1 -0.37,-0.73 4.7,4.7 0 0 1 -0.19,-2.68 4.52,4.52 0 0 1 1.36,-2.32 3.91,3.91 0 0 1 0.65,-0.49 0.89,0.89 0 0 1 0.27,-0.12 z"
       style="fill:#263238"
       id="path504" />
    <path
       d="m 440.27,429.9 a 27.38,27.38 0 0 1 2,2.32 c 1.06,1.32 1.89,2.41 1.86,2.44 a 25.4,25.4 0 0 1 -2,-2.32 23.13,23.13 0 0 1 -1.86,-2.44 z"
       style="fill:#263238"
       id="path506" />
    <path
       d="m 441.45,440.5 a 8,8 0 0 1 -1.57,1.52 8.53,8.53 0 0 1 -1.81,1.21 c 0,0 0.77,-0.6 1.7,-1.36 0.93,-0.76 1.65,-1.41 1.68,-1.37 z"
       style="fill:#263238"
       id="path508" />
    <path
       d="m 443.74,438.68 c 0.05,0 0.07,0.21 0.13,0.45 0.06,0.24 0.14,0.43 0.1,0.46 -0.04,0.03 -0.21,-0.14 -0.28,-0.42 -0.07,-0.28 0.01,-0.5 0.05,-0.49 z"
       style="fill:#263238"
       id="path510" />
    <path
       d="m 443.76,436.93 c 0.05,0 0.07,0.18 0,0.4 -0.07,0.22 -0.08,0.39 -0.13,0.39 -0.05,0 -0.07,-0.19 -0.05,-0.41 0.02,-0.22 0.13,-0.39 0.18,-0.38 z"
       style="fill:#263238"
       id="path512" />
    <path
       d="m 444.6,435.46 c 0,0 -0.13,0.17 -0.25,0.36 -0.12,0.19 -0.18,0.39 -0.23,0.38 -0.05,-0.01 -0.08,-0.24 0.07,-0.48 0.15,-0.24 0.4,-0.31 0.41,-0.26 z"
       style="fill:#263238"
       id="path514" />
    <path
       d="m 445.3,434.53 c 0,0 0,0.14 0,0.25 0,0.11 -0.16,0.19 -0.2,0.17 -0.04,-0.02 0,-0.14 0,-0.26 0,-0.12 0.16,-0.18 0.2,-0.16 z"
       style="fill:#263238"
       id="path516" />
    <g
       style="opacity:0.3"
       id="g520">
      <polygon
         points="433.23,442.55 432.14,441.12 444.57,432.7 445.06,433.51 "
         id="polygon518" />
    </g>
    <path
       d="m 380.32,449.92 v -7.95 l 14.9,-0.06 0.09,11.64 -0.93,0.06 c -4.11,0.25 -20.91,0.95 -23.66,0.13 -3.05,-0.92 9.6,-3.82 9.6,-3.82 z"
       style="fill:#2cabff"
       id="path522" />
    <g
       style="opacity:0.4"
       id="g526">
      <path
         d="m 374.14,451.56 c 0,0 -4.44,1.29 -3.88,2 0.56,0.71 17.57,0.66 25.07,0 v -0.33 l -19.84,0.25 c 0,0 -0.49,-1.89 -1.35,-1.92 z"
         style="fill:#ffffff"
         id="path524" />
    </g>
    <path
       d="m 395.54,453.21 h -0.26 -0.74 l -2.7,0.13 c -2.29,0.09 -5.45,0.18 -8.94,0.2 -3.49,0.02 -6.66,0 -8.95,-0.11 l -2.7,-0.1 h -0.74 -0.26 1 2.71 c 2.28,0 5.45,0.07 8.94,0.06 3.49,-0.01 6.65,-0.09 8.93,-0.15 l 2.71,-0.07 h 1 z"
       style="fill:#263238"
       id="path528" />
    <path
       d="m 375.47,453.7 a 6.22,6.22 0 0 0 -0.52,-1.29 5.76,5.76 0 0 0 -0.92,-1 2,2 0 0 1 1.08,0.94 2,2 0 0 1 0.36,1.35 z"
       style="fill:#263238"
       id="path530" />
    <path
       d="m 379.85,451.45 c 0,0 -0.25,-0.23 -0.47,-0.57 -0.22,-0.34 -0.36,-0.64 -0.32,-0.66 0.04,-0.02 0.25,0.22 0.47,0.57 0.22,0.35 0.36,0.64 0.32,0.66 z"
       style="fill:#263238"
       id="path532" />
    <path
       d="m 381.06,450.81 c 0,0 -0.27,-0.12 -0.53,-0.35 -0.26,-0.23 -0.44,-0.44 -0.41,-0.48 0.03,-0.04 0.27,0.12 0.53,0.35 0.26,0.23 0.44,0.44 0.41,0.48 z"
       style="fill:#263238"
       id="path534" />
    <path
       d="m 381.81,449.4 a 1.63,1.63 0 0 1 -0.77,0.1 1.68,1.68 0 0 1 -0.78,-0.08 1.79,1.79 0 0 1 0.77,-0.1 1.86,1.86 0 0 1 0.78,0.08 z"
       style="fill:#263238"
       id="path536" />
    <path
       d="m 382.07,448.41 a 1.57,1.57 0 0 1 -0.87,0.25 1.5,1.5 0 0 1 -0.89,-0.11 4.64,4.64 0 0 1 0.88,-0.07 5.08,5.08 0 0 1 0.88,-0.07 z"
       style="fill:#263238"
       id="path538" />
    <path
       d="m 379.34,450.16 a 2.88,2.88 0 0 1 -1,0 5.24,5.24 0 0 1 -1,-0.22 2.68,2.68 0 0 1 -0.58,-0.23 0.56,0.56 0 0 1 -0.24,-0.3 0.37,0.37 0 0 1 0.15,-0.38 1.75,1.75 0 0 1 2.17,0.5 1.67,1.67 0 0 1 0.31,0.64 0.57,0.57 0 0 1 0,0.26 2.68,2.68 0 0 0 -0.44,-0.82 1.77,1.77 0 0 0 -0.82,-0.53 1.46,1.46 0 0 0 -1.14,0.09 c -0.15,0.11 -0.09,0.29 0.08,0.39 a 2.35,2.35 0 0 0 0.54,0.22 6,6 0 0 0 1,0.26 c 0.63,0.09 0.97,0.09 0.97,0.12 z"
       style="fill:#263238"
       id="path540" />
    <path
       d="m 379.09,450.2 a 1,1 0 0 1 -0.11,-0.66 1.55,1.55 0 0 1 0.26,-0.7 1,1 0 0 1 0.79,-0.49 0.37,0.37 0 0 1 0.3,0.44 1.1,1.1 0 0 1 -0.16,0.43 2.85,2.85 0 0 1 -0.45,0.58 c -0.3,0.29 -0.53,0.41 -0.55,0.39 -0.02,-0.02 0.19,-0.17 0.46,-0.48 a 3.51,3.51 0 0 0 0.4,-0.57 c 0.13,-0.21 0.21,-0.57 0,-0.61 -0.21,-0.04 -0.48,0.21 -0.62,0.4 a 1.54,1.54 0 0 0 -0.27,0.63 6.07,6.07 0 0 0 -0.05,0.64 z"
       style="fill:#263238"
       id="path542" />
    <path
       d="m 395.21,449.13 c 0,0 -0.42,0 -1.1,0 a 4.88,4.88 0 0 0 -2.39,1 4.73,4.73 0 0 0 -1.49,2.13 10.3,10.3 0 0 0 -0.28,1.07 0.78,0.78 0 0 1 0,-0.3 3.53,3.53 0 0 1 0.15,-0.81 4.75,4.75 0 0 1 1.5,-2.23 4.57,4.57 0 0 1 2.5,-1 3.45,3.45 0 0 1 0.82,0 0.72,0.72 0 0 1 0.29,0.14 z"
       style="fill:#263238"
       id="path544" />
    <path
       d="m 393.64,442.94 a 25.29,25.29 0 0 1 0.15,3.06 28.12,28.12 0 0 1 0,3.06 24.23,24.23 0 0 1 -0.14,-3.06 26.81,26.81 0 0 1 -0.01,-3.06 z"
       style="fill:#263238"
       id="path546" />
    <path
       d="m 388,452 a 8.61,8.61 0 0 1 -2.17,0.22 8.94,8.94 0 0 1 -2.18,-0.16 c 0,-0.05 1,0 2.18,0 1.18,0 2.17,-0.06 2.17,-0.06 z"
       style="fill:#263238"
       id="path548" />
    <path
       d="m 391,452 c 0,0 -0.07,0.21 -0.17,0.43 -0.1,0.22 -0.16,0.42 -0.21,0.42 -0.05,0 -0.07,-0.24 0,-0.49 0.07,-0.25 0.31,-0.36 0.38,-0.36 z"
       style="fill:#263238"
       id="path550" />
    <path
       d="m 392.06,450.62 c 0,0 -0.06,0.19 -0.21,0.34 -0.15,0.15 -0.31,0.26 -0.35,0.23 -0.04,-0.03 0.06,-0.2 0.22,-0.35 0.16,-0.15 0.28,-0.26 0.34,-0.22 z"
       style="fill:#263238"
       id="path552" />
    <path
       d="m 393.63,450 c 0,0 -0.21,0 -0.43,0.13 -0.22,0.13 -0.37,0.2 -0.41,0.16 -0.04,-0.04 0.08,-0.24 0.36,-0.33 0.28,-0.09 0.5,-0.02 0.48,0.04 z"
       style="fill:#263238"
       id="path554" />
    <path
       d="m 394.75,449.68 c 0,0.05 -0.07,0.13 -0.19,0.18 -0.12,0.05 -0.24,0.05 -0.26,0 -0.02,-0.05 0.07,-0.12 0.19,-0.17 0.12,-0.05 0.24,-0.05 0.26,-0.01 z"
       style="fill:#263238"
       id="path556" />
    <g
       style="opacity:0.3"
       id="g560">
      <polygon
         points="380.31,448.55 380.32,446.75 395.27,446.66 395.33,448.53 "
         id="polygon558" />
    </g>
    <path
       d="m 417.09,312.64 -6,18 c -1.61,4.85 -5.85,5.68 -11,5.68 H 367 v -7.44 l 30.32,-4.33 7.22,-18.46 z"
       style="fill:#b78876"
       id="path562" />
    <path
       d="m 363.33,327.29 -2.63,-1.24 c 0,0 -2.84,-5.49 -3.49,-5.27 -0.65,0.22 -0.85,1.83 0.29,4.36 l -3.49,-1 c 0,0 -7.59,3.5 -7.25,4 a 1.75,1.75 0 0 0 2.61,0.75 c 1.65,-0.85 3.81,-1.84 3.81,-1.84 l 4.09,1.17 -5.27,0.67 -5,4.51 a 2.43,2.43 0 0 0 3,-0.08 l 13,2.74 4,0.22 v -7.44 z"
       style="fill:#b78876"
       id="path564" />
    <path
       d="m 350.07,333.29 c 0.06,0 0.3,-0.34 0.76,-0.85 a 3.63,3.63 0 0 1 0.94,-0.72 3.93,3.93 0 0 1 1.39,-0.37 18.22,18.22 0 0 0 3.86,-0.66 19.6,19.6 0 0 0 -3.91,0.26 3.89,3.89 0 0 0 -1.53,0.45 3.26,3.26 0 0 0 -1,0.86 2.48,2.48 0 0 0 -0.51,1.03 z"
       style="fill:#aa6550"
       id="path566" />
    <path
       d="m 352.09,333.81 c 0.05,0 0.09,-0.27 0.45,-0.35 0.36,-0.08 0.95,-0.13 1.56,-0.19 a 13.77,13.77 0 0 0 2.26,-0.23 4.53,4.53 0 0 0 -2.3,-0.18 6.94,6.94 0 0 0 -1.62,0.34 0.65,0.65 0 0 0 -0.39,0.4 c -0.05,0.14 0.01,0.21 0.04,0.21 z"
       style="fill:#aa6550"
       id="path568" />
    <path
       d="m 419.9,308.72 -2.55,8.65 -16.2,-7.37 c 0.59,-1.81 3.27,-9.87 8.39,-22.66 a 22,22 0 0 1 16.79,-13.54 96.14,96.14 0 0 1 15.51,-1.52 c 9.09,0.1 22.46,5.78 24.25,14.68 1.38,6.8 0.05,18.8 0.05,33.38 l -1.14,27.89 -46.55,1.57 z"
       style="fill:#2cabff"
       id="path570" />
    <g
       style="opacity:0.3"
       id="g574">
      <path
         d="m 466.09,313.92 c -5.66,1.16 -11.48,0 -17.25,-0.35 -3.5,-0.21 -7.38,-0.59 -10.15,1.56 -2.19,1.71 -3.07,4.58 -3.71,7.28 -2.41,10.32 -2.85,17.23 -3.39,27.81 l 28,1.7 z"
         id="path572" />
    </g>
    <path
       d="m 418.71,278.49 c 0,0 0.47,0.07 1.24,0.37 a 6.42,6.42 0 0 1 2.68,2.17 9,9 0 0 1 1.6,4.85 30,30 0 0 1 -0.49,6.38 108.08,108.08 0 0 1 -2.6,11.41 c -0.38,1.4 -0.7,2.55 -0.94,3.43 a 7.37,7.37 0 0 0 -0.3,1.27 7.07,7.07 0 0 0 0.45,-1.23 c 0.26,-0.8 0.63,-1.95 1.06,-3.39 a 87,87 0 0 0 2.73,-11.43 29.25,29.25 0 0 0 0.46,-6.47 9.2,9.2 0 0 0 -1.74,-5 6.4,6.4 0 0 0 -2.86,-2.15 5.46,5.46 0 0 0 -0.95,-0.22 c -0.22,0 -0.34,-0.01 -0.34,0.01 z"
       style="fill:#263238"
       id="path576" />
    <path
       d="m 401.66,307.83 a 16.26,16.26 0 0 0 2.28,1.31 c 1.44,0.75 3.45,1.74 5.71,2.76 2.26,1.02 4.34,1.87 5.86,2.45 a 14,14 0 0 0 2.49,0.84 19.07,19.07 0 0 0 -2.39,-1.1 c -1.48,-0.65 -3.54,-1.54 -5.79,-2.56 -2.25,-1.02 -4.28,-2 -5.75,-2.65 a 17.6,17.6 0 0 0 -2.41,-1.05 z"
       style="fill:#263238"
       id="path578" />
    <path
       d="m 394.24,351.92 a 16.59,16.59 0 0 0 -6.77,22.22 L 428,443.7 446.69,432.41 415.23,369.61 438,354.72"
       style="fill:#263238"
       id="path580" />
    <path
       d="m 443.57,348.47 -55.62,2 a 16.59,16.59 0 0 0 -16,16.84 l 2.31,79.43 h 23.39 l -0.78,-75.1 46.7,-1.23 z"
       style="fill:#263238"
       id="path582" />
    <path
       d="m 396.87,374.27 a 3.86,3.86 0 0 1 0.07,0.74 q 0,0.8 0.09,2.1 c 0.07,1.83 0.14,4.48 0.21,7.76 0.14,6.55 0.23,15.6 0.28,25.59 0.05,9.99 0.1,19 0.13,25.59 0,3.24 0,5.87 0.05,7.76 0,0.88 0,1.58 0,2.11 a 3.91,3.91 0 0 1 0,0.74 4,4 0 0 1 -0.07,-0.74 c 0,-0.53 -0.05,-1.23 -0.09,-2.11 -0.07,-1.83 -0.14,-4.48 -0.21,-7.75 -0.14,-6.55 -0.23,-15.6 -0.28,-25.6 -0.05,-10 -0.1,-19 -0.13,-25.59 0,-3.23 0,-5.86 0,-7.75 V 375 a 3.81,3.81 0 0 1 -0.05,-0.73 z"
       style="fill:#455a64"
       id="path584" />
    <path
       d="m 467.66,298.07 h -16.83 a 12.26,12.26 0 0 0 -12.26,12.26 V 369 H 405 a 8.49,8.49 0 0 0 -8.49,8.49 h 76.75 v 0 a 7,7 0 0 0 6.71,-7 v -60.16 a 12.26,12.26 0 0 0 -12.31,-12.26 z"
       style="fill:#455a64"
       id="path586" />
    <path
       d="m 443.46,300 c 0.14,0 0.26,17.25 0.26,38.53 0,21.28 -0.12,38.53 -0.26,38.53 -0.14,0 -0.26,-17.25 -0.26,-38.53 0,-21.28 0.12,-38.53 0.26,-38.53 z"
       style="fill:#263238"
       id="path588" />
    <path
       d="m 441.33,439.14 v -61.58 h -5.47 v 61.58 c -3.34,6.58 -11.19,11 -20.75,14.68 h 48.76 C 454,449.8 445,446.71 441.33,439.14 Z"
       style="fill:#455a64"
       id="path590" />
  </g>
  <g
     id="freepik--Plant--inject-5"
     transform="matrix(1.0961374,0,0,1.10275,-34.803004,-18.154941)">
    <path
       d="m 133.27,431.16 0.16,-0.36 0.49,-1.05 a 27.63,27.63 0 0 0 1.44,-4.18 36.94,36.94 0 0 0 -0.13,-16.15 87.45,87.45 0 0 0 -3,-10.85 c -1.27,-3.85 -2.74,-7.93 -4,-12.35 a 47.84,47.84 0 0 1 -1.94,-14.2 c 0.18,-5 1.67,-10 3.3,-15 1.63,-5 3.32,-9.88 3.83,-14.8 a 22.54,22.54 0 0 0 -2.72,-13.67 c -2.16,-4 -4.88,-7.4 -6.92,-10.93 a 38,38 0 0 1 -4.17,-10.51 39.25,39.25 0 0 1 -0.26,-16.28 30,30 0 0 1 1.7,-5.75 2.81,2.81 0 0 1 -0.1,0.38 c -0.09,0.27 -0.2,0.63 -0.35,1.1 a 43.17,43.17 0 0 0 -1,4.3 39.56,39.56 0 0 0 0.4,16.14 37.72,37.72 0 0 0 4.18,10.38 c 2,3.49 4.77,6.89 7,10.93 a 22.94,22.94 0 0 1 2.8,13.94 c -0.51,5 -2.21,9.92 -3.84,14.91 -1.63,4.99 -3.1,10 -3.29,14.89 a 47.83,47.83 0 0 0 1.9,14.06 c 1.19,4.39 2.64,8.48 3.9,12.34 a 84.93,84.93 0 0 1 2.94,10.91 36.54,36.54 0 0 1 0,16.27 24.3,24.3 0 0 1 -1.59,4.17 c -0.23,0.43 -0.4,0.77 -0.54,1 a 1.46,1.46 0 0 1 -0.19,0.36 z"
       style="fill:#263238"
       id="path593" />
    <path
       d="m 126.61,321.07 c 0,0 -4.14,-13.23 3.28,-21 a 0.46,0.46 0 0 1 0.79,0.23 c 0.39,2.2 0.89,8.86 -4.07,20.77 z"
       style="fill:#2cabff"
       id="path595" />
    <path
       d="m 129.09,304.5 a 12.3,12.3 0 0 1 -0.28,2.44 c -0.28,1.68 -0.6,3.66 -1,5.84 -0.4,2.18 -0.66,4.16 -0.92,5.84 a 14.1,14.1 0 0 1 -0.44,2.41 10.15,10.15 0 0 1 0.07,-2.46 c 0.14,-1.51 0.4,-3.59 0.78,-5.87 0.38,-2.28 0.77,-4.34 1.1,-5.83 a 10.17,10.17 0 0 1 0.69,-2.37 z"
       style="fill:#263238"
       id="path597" />
    <path
       d="m 131.47,352.29 c 0,0 2.53,-13.63 12.72,-17 a 0.45,0.45 0 0 1 0.58,0.57 c -0.67,2.14 -3.34,8.22 -13.3,16.43 z"
       style="fill:#2cabff"
       id="path599" />
    <path
       d="m 141.41,338.8 a 11.88,11.88 0 0 1 -1.39,2 l -3.56,4.72 -3.55,4.72 a 12.49,12.49 0 0 1 -1.52,1.93 10.33,10.33 0 0 1 1.22,-2.14 c 0.83,-1.27 2,-3 3.43,-4.83 1.43,-1.83 2.72,-3.47 3.69,-4.63 a 10.45,10.45 0 0 1 1.68,-1.77 z"
       style="fill:#263238"
       id="path601" />
    <path
       d="m 128.71,386.49 c 0,0 -1.53,-13.78 7.23,-20 a 0.46,0.46 0 0 1 0.73,0.38 c -0.03,2.25 -0.81,8.88 -7.96,19.62 z"
       style="fill:#2cabff"
       id="path603" />
    <path
       d="m 134.31,370.7 a 12.11,12.11 0 0 1 -0.74,2.34 l -2,5.55 c -0.76,2.08 -1.44,4 -2,5.56 a 13.87,13.87 0 0 1 -0.89,2.28 10,10 0 0 1 0.54,-2.4 c 0.42,-1.46 1.08,-3.45 1.88,-5.62 0.8,-2.17 1.59,-4.11 2.19,-5.5 a 10.49,10.49 0 0 1 1.02,-2.21 z"
       style="fill:#263238"
       id="path605" />
    <path
       d="m 136.39,420.9 c 0,0 -1,-13.83 7.94,-19.7 a 0.45,0.45 0 0 1 0.71,0.4 c -0.11,2.22 -1.13,8.81 -8.65,19.3 z"
       style="fill:#2cabff"
       id="path607" />
    <path
       d="m 142.55,405.31 a 12.47,12.47 0 0 1 -0.83,2.32 c -0.64,1.58 -1.4,3.43 -2.23,5.47 -0.83,2.04 -1.59,3.9 -2.23,5.48 a 12.62,12.62 0 0 1 -1,2.25 10.89,10.89 0 0 1 0.63,-2.38 c 0.47,-1.44 1.2,-3.4 2.09,-5.54 0.89,-2.14 1.73,-4.06 2.38,-5.43 a 10.76,10.76 0 0 1 1.19,-2.17 z"
       style="fill:#263238"
       id="path609" />
    <path
       d="m 120.66,309.45 c 0,0 -12.29,-6.45 -12.54,-17.15 a 0.46,0.46 0 0 1 0.72,-0.4 c 1.83,1.26 6.89,5.62 11.82,17.55 z"
       style="fill:#2cabff"
       id="path611" />
    <path
       d="m 110.68,296 a 12.21,12.21 0 0 1 1.53,1.93 l 3.46,4.79 3.48,4.78 a 12.68,12.68 0 0 1 1.4,2 9.86,9.86 0 0 1 -1.69,-1.79 c -1,-1.16 -2.26,-2.82 -3.61,-4.7 -1.35,-1.88 -2.52,-3.61 -3.34,-4.89 A 10.87,10.87 0 0 1 110.68,296 Z"
       style="fill:#263238"
       id="path613" />
    <path
       d="m 133.86,337.87 c 0,0 -12.66,-5.66 -13.55,-16.36 a 0.45,0.45 0 0 1 0.69,-0.43 c 1.9,1.15 7.21,5.18 12.86,16.79 z"
       style="fill:#2cabff"
       id="path615" />
    <path
       d="m 123.08,325 a 12.45,12.45 0 0 1 1.64,1.82 l 3.75,4.58 c 1.41,1.7 2.68,3.24 3.76,4.56 a 13.29,13.29 0 0 1 1.52,1.92 10.28,10.28 0 0 1 -1.79,-1.68 c -1,-1.1 -2.43,-2.68 -3.89,-4.48 -1.46,-1.8 -2.74,-3.45 -3.64,-4.67 A 11,11 0 0 1 123.08,325 Z"
       style="fill:#263238"
       id="path617" />
    <path
       d="m 126.57,369.58 c 0,0 -8.69,-10.81 -4.61,-20.74 a 0.45,0.45 0 0 1 0.81,-0.07 c 1.17,1.89 4.07,7.9 3.8,20.81 z"
       style="fill:#2cabff"
       id="path619" />
    <path
       d="m 122.82,353.24 a 12.31,12.31 0 0 1 0.63,2.38 c 0.37,1.66 0.79,3.62 1.26,5.78 0.47,2.16 0.9,4.1 1.27,5.77 a 13.24,13.24 0 0 1 0.48,2.41 9.49,9.49 0 0 1 -0.83,-2.32 c -0.43,-1.46 -0.94,-3.49 -1.43,-5.76 -0.49,-2.27 -0.87,-4.32 -1.11,-5.81 a 11,11 0 0 1 -0.27,-2.45 z"
       style="fill:#263238"
       id="path621" />
    <path
       d="m 135.18,406.89 c 0,0 -12.56,-5.89 -13.27,-16.59 a 0.46,0.46 0 0 1 0.7,-0.42 c 1.88,1.18 7.13,5.3 12.57,17.01 z"
       style="fill:#2cabff"
       id="path623" />
    <path
       d="m 124.62,393.87 a 12.72,12.72 0 0 1 1.61,1.86 l 3.68,4.63 c 1.37,1.73 2.62,3.29 3.68,4.62 a 14.25,14.25 0 0 1 1.49,2 10.8,10.8 0 0 1 -1.77,-1.72 c -1,-1.12 -2.38,-2.72 -3.81,-4.54 -1.43,-1.82 -2.68,-3.49 -3.56,-4.73 a 10.88,10.88 0 0 1 -1.32,-2.12 z"
       style="fill:#263238"
       id="path625" />
    <path
       d="m 160.2,352.36 c 0,0 0,0.11 0,0.31 0,0.2 0,0.53 0,0.89 q -0.06,1.24 -0.15,3.36 c -0.16,3 -0.39,7.08 -0.66,12 v 0 0 c -0.9,5 -3.45,10.57 -6.89,16 -2.52,4 -5.15,7.6 -7.43,11 a 76.63,76.63 0 0 0 -5.57,9.22 38.49,38.49 0 0 0 -2.61,6.76 c -0.22,0.83 -0.39,1.47 -0.48,1.91 a 3.72,3.72 0 0 1 -0.19,0.67 3.25,3.25 0 0 1 0.08,-0.69 c 0.07,-0.45 0.2,-1.1 0.39,-1.94 a 35.79,35.79 0 0 1 2.48,-6.87 72.45,72.45 0 0 1 5.5,-9.32 c 2.26,-3.39 4.89,-7 7.39,-11 3.42,-5.37 6,-10.85 6.89,-15.79 v 0 c 0.34,-4.93 0.63,-9 0.84,-12 0.11,-1.4 0.2,-2.52 0.27,-3.35 0,-0.35 0.07,-0.64 0.09,-0.88 a 1.16,1.16 0 0 1 0.05,-0.28 z"
       style="fill:#263238"
       id="path627" />
    <path
       d="m 152.72,383.9 c 0,0 5.32,-12.8 -1.37,-21.19 a 0.45,0.45 0 0 0 -0.8,0.15 c -0.55,2.14 -1.69,8.73 2.17,21.04 z"
       style="fill:#2cabff"
       id="path629" />
    <path
       d="m 151.76,367.17 a 11.36,11.36 0 0 1 0.42,2.42 c 0.19,1.51 0.4,3.59 0.56,5.9 0.16,2.31 0.25,4.41 0.24,5.92 a 10.94,10.94 0 0 1 -0.14,2.46 12.72,12.72 0 0 1 -0.22,-2.44 c -0.12,-1.7 -0.25,-3.7 -0.4,-5.9 -0.15,-2.2 -0.29,-4.2 -0.41,-5.9 a 11.47,11.47 0 0 1 -0.05,-2.46 z"
       style="fill:#263238"
       id="path631" />
    <g
       style="opacity:0.3"
       id="g635">
      <path
         d="m 152.72,383.9 c 0,0 5.32,-12.8 -1.37,-21.19 a 0.45,0.45 0 0 0 -0.8,0.15 c -0.55,2.14 -1.69,8.73 2.17,21.04 z"
         id="path633" />
    </g>
    <path
       d="m 136.25,414.76 c 0,0 4.26,-13.19 -3.09,-21 a 0.46,0.46 0 0 0 -0.79,0.22 c -0.37,2.17 -0.98,8.82 3.88,20.78 z"
       style="fill:#2cabff"
       id="path637" />
    <path
       d="m 133.92,398.17 a 10.7,10.7 0 0 1 0.62,2.38 c 0.31,1.48 0.69,3.54 1,5.83 0.31,2.29 0.6,4.37 0.72,5.88 a 10,10 0 0 1 0,2.46 13.86,13.86 0 0 1 -0.41,-2.42 c -0.25,-1.68 -0.55,-3.66 -0.87,-5.84 -0.32,-2.18 -0.63,-4.17 -0.89,-5.85 a 12.13,12.13 0 0 1 -0.17,-2.44 z"
       style="fill:#263238"
       id="path639" />
    <g
       style="opacity:0.3"
       id="g643">
      <path
         d="m 136.25,414.76 c 0,0 4.26,-13.19 -3.09,-21 a 0.46,0.46 0 0 0 -0.79,0.22 c -0.37,2.17 -0.98,8.82 3.88,20.78 z"
         id="path641" />
    </g>
    <path
       d="m 159.5,368.25 c 0,0 11.36,-7.95 10.21,-18.62 a 0.46,0.46 0 0 0 -0.76,-0.3 c -1.65,1.49 -6.1,6.46 -9.45,18.92 z"
       style="fill:#2cabff"
       id="path645" />
    <g
       style="opacity:0.3"
       id="g649">
      <path
         d="m 159.5,368.25 c 0,0 11.36,-7.95 10.21,-18.62 a 0.46,0.46 0 0 0 -0.76,-0.3 c -1.65,1.49 -6.1,6.46 -9.45,18.92 z"
         id="path647" />
    </g>
    <path
       d="m 167.66,353.61 a 11.32,11.32 0 0 1 -0.95,2.27 c -0.64,1.37 -1.58,3.25 -2.68,5.28 -1.1,2.03 -2.16,3.85 -3,5.13 a 9.58,9.58 0 0 1 -1.44,2 14.73,14.73 0 0 1 1.13,-2.18 c 0.82,-1.49 1.77,-3.24 2.83,-5.18 1.06,-1.94 2,-3.7 2.82,-5.2 a 11.79,11.79 0 0 1 1.29,-2.12 z"
       style="fill:#263238"
       id="path651" />
    <path
       d="m 140.83,401.68 c 0,0 13.7,-2.14 17.37,-12.22 a 0.46,0.46 0 0 0 -0.55,-0.61 c -2.14,0.62 -8.33,3.15 -16.82,12.83 z"
       style="fill:#2cabff"
       id="path653" />
    <g
       style="opacity:0.3"
       id="g657">
      <path
         d="m 140.83,401.68 c 0,0 13.7,-2.14 17.37,-12.22 a 0.46,0.46 0 0 0 -0.55,-0.61 c -2.14,0.62 -8.33,3.15 -16.82,12.83 z"
         id="path655" />
    </g>
    <path
       d="m 154.6,392.13 a 11,11 0 0 1 -1.85,1.63 c -1.18,0.94 -2.85,2.21 -4.74,3.55 -1.89,1.34 -3.63,2.5 -4.92,3.3 a 9.79,9.79 0 0 1 -2.18,1.15 12.3,12.3 0 0 1 2,-1.46 l 4.82,-3.41 4.82,-3.43 a 12.74,12.74 0 0 1 2.05,-1.33 z"
       style="fill:#263238"
       id="path659" />
    <polygon
       points="123.76,453.8 148.67,453.8 145.44,426.9 127.76,426.9 "
       style="fill:#455a64"
       id="polygon661" />
    <path
       d="m 146.43,435.23 a 95,95 0 0 1 -10,0.26 95,95 0 0 1 -10,-0.26 98.3,98.3 0 0 1 10,-0.26 98.3,98.3 0 0 1 10,0.26 z"
       style="fill:#263238"
       id="path663" />
    <path
       d="m 146.93,437.37 a 101.61,101.61 0 0 1 -10.38,0.26 101.33,101.33 0 0 1 -10.37,-0.26 c 0,-0.14 4.64,-0.26 10.37,-0.26 5.73,0 10.38,0.12 10.38,0.26 z"
       style="fill:#263238"
       id="path665" />
  </g>
  <path
     d="m 302.42212,165.1885 c -11.96984,0 -21.67599,10.03631 -21.67599,22.4176 0,4.23564 1.13761,8.19574 3.11174,11.57632 l -3.9136,12.02543 12.00125,-3.97221 c 3.10614,1.77492 6.67733,2.78806 10.4766,2.78806 11.97411,0 21.679,-10.03718 21.679,-22.4176 0,-12.38129 -9.70489,-22.4176 -21.679,-22.4176 z m 0,41.07979 c -3.66313,0 -7.07739,-1.13751 -9.92655,-3.08691 l -6.93465,2.29661 2.254,-6.93127 c -2.16072,-3.07568 -3.43605,-6.85528 -3.43605,-10.94062 0,-10.29198 8.09515,-18.66305 18.04325,-18.66305 9.95211,0 18.04677,8.37107 18.04677,18.66305 0,10.28938 -8.09466,18.66219 -18.04677,18.66219 z m 10.1651,-13.56803 c -0.54371,-0.30835 -3.21299,-1.79738 -3.71243,-2.00899 -0.50027,-0.21074 -0.86692,-0.31956 -1.25695,0.23924 -0.38837,0.55624 -1.4975,1.80516 -1.83157,2.17396 -0.33826,0.37054 -0.66147,0.40509 -1.20686,0.0968 -0.54119,-0.30836 -2.30261,-0.98118 -4.34548,-3.01263 -1.5902,-1.58059 -2.63251,-3.49544 -2.93402,-4.08103 -0.30402,-0.5856 -0.002,-0.88444 0.2848,-1.15824 0.25891,-0.24788 0.57794,-0.64864 0.86777,-0.97081 0.28646,-0.32216 0.38752,-0.55796 0.58629,-0.9328 0.19795,-0.37399 0.11777,-0.71084 -0.011,-1.00364 -0.12693,-0.29106 -1.13252,-3.14995 -1.55094,-4.31336 -0.4201,-1.16256 -0.88696,-0.99068 -1.21018,-1.00278 -0.32239,-0.0121 -0.68986,-0.0743 -1.05819,-0.089 -0.37057,-0.0147 -0.97482,0.10541 -1.50134,0.65813 -0.52858,0.55278 -2.00872,1.88117 -2.10985,4.69773 -0.10299,2.8157 1.78163,5.61326 2.04455,6.00365 0.26266,0.39385 3.59615,6.4977 9.13679,9.00591 5.54315,2.50994 5.57321,1.74642 6.58881,1.68942 1.01892,-0.0561 3.32405,-1.25929 3.83519,-2.57559 0.50946,-1.31888 0.55038,-2.46416 0.42094,-2.70774 -0.1303,-0.24355 -0.49444,-0.40161 -1.03648,-0.70823"
     style="fill:#16ad49;fill-opacity:1;fill-rule:evenodd;stroke:none;stroke-width:0.0849327"
     id="path74" />
</svg>
