<?xml version="1.0" encoding="UTF-8" standalone="no"?>
<svg
   width="376"
   height="339"
   viewBox="0 0 376 339"
   fill="none"
   version="1.1"
   id="svg332"
   sodipodi:docname="form.svg"
   inkscape:version="1.2.2 (b0a8486541, 2022-12-01)"
   xmlns:inkscape="http://www.inkscape.org/namespaces/inkscape"
   xmlns:sodipodi="http://sodipodi.sourceforge.net/DTD/sodipodi-0.dtd"
   xmlns="http://www.w3.org/2000/svg"
   xmlns:svg="http://www.w3.org/2000/svg">
  <defs
     id="defs336" />
  <sodipodi:namedview
     id="namedview334"
     pagecolor="#ffffff"
     bordercolor="#000000"
     borderopacity="0.25"
     inkscape:showpageshadow="2"
     inkscape:pageopacity="0.0"
     inkscape:pagecheckerboard="0"
     inkscape:deskcolor="#d1d1d1"
     showgrid="false"
     inkscape:zoom="1.5339233"
     inkscape:cx="187.75385"
     inkscape:cy="152.22404"
     inkscape:window-width="1366"
     inkscape:window-height="699"
     inkscape:window-x="0"
     inkscape:window-y="32"
     inkscape:window-maximized="1"
     inkscape:current-layer="svg332" />
  <path
     d="M 268.126,302.97 C 301.6499,267.492 305.3317,139.048 233.872,149.007 196.256,154.25 125.726,139.73 78.217,123.521 32.021,107.76 60.03,227.93 112.472,277.484 c 52.442,49.553 122.131,60.964 155.654,25.486 z"
     fill="#efedef"
     id="path2" />
  <path
     d="M 277.0052,312.862 C 259.122,331.788 231.434,339.291 199.043,333.986 166.711,328.693 133.55,311.268 105.667,284.92 84.704,265.112 64.984,232.219 52.918,196.935 41.391,163.227 39.084,134.244 46.897,121.296 c 4.368,-7.238 11.842,-9.3 21.615,-5.966 l -0.27,0.789 c -9.49,-3.237 -16.431,-1.351 -20.63,5.608 -7.69,12.743 -5.354,41.458 6.096,74.938 12.024,35.163 31.662,67.928 52.532,87.649 27.763,26.234 60.769,43.582 92.937,48.849 32.11,5.258 59.534,-2.156 77.2224,-20.874 z"
     fill="#efedef"
     id="path4" />
  <path
     fill-rule="evenodd"
     clip-rule="evenodd"
     d="m 228.661,20.8426 h 26.053 c 1.699,-0.0541 3.31,-0.7616 4.5,-1.9751 1.189,-1.2135 1.864,-2.8393 1.883,-4.5382 0.023,-1.5479 -0.521,-3.0508 -1.528,-4.2262 -1.008,-1.17535 -2.41,-1.94236 -3.943,-2.15687 V 7.81596 c 0.002,-1.68049 -0.538,-3.31676 -1.54,-4.6656 -1.003,-1.34884 -2.414,-2.338239 -4.023,-2.821124 -1.61,-0.482885 -3.332,-0.433477 -4.912,0.140877 -1.579,0.574357 -2.931,1.642997 -3.854,3.047067 -0.883,-0.60865 -1.915,-0.96512 -2.986,-1.03108 -1.07,-0.06596 -2.138,0.16108 -3.089,0.65672 -0.951,0.49563 -1.749,1.24111 -2.309,2.1563 -0.559,0.91518 -0.858,1.96546 -0.865,3.03791 v 0.26053 c -0.991,-0.57464 -2.111,-0.88839 -3.256,-0.91189 -1.728,0 -3.385,0.68622 -4.606,1.9077 -1.222,1.22153 -1.908,2.87813 -1.908,4.60563 0,1.7274 0.686,3.3841 1.908,4.6056 1.221,1.2215 2.878,1.9077 4.606,1.9077 z"
     fill="#ffe3cb"
     id="path6" />
  <path
     fill-rule="evenodd"
     clip-rule="evenodd"
     d="m 319.831,75.4274 h 28.914 c 3.9034,-0.1601 7.0839,-3.6838 7.0839,-8.0084 0,-4.0042 -2.6022,-7.3677 -6.0719,-7.8482 v -0.1602 c 0,-5.2856 -3.9034,-9.6101 -8.6742,-9.6101 -1.4748,0.0396 -2.9146,0.4582 -4.1806,1.2157 -1.2661,0.7574 -2.3157,1.828 -3.0479,3.1088 -1.0719,-0.8401 -2.397,-1.2918 -3.7589,-1.2813 -3.6142,0 -6.5056,3.2034 -6.5056,7.2076 v 0.3203 c -1.0784,-0.6998 -2.3292,-1.0878 -3.6143,-1.1212 -3.9034,0 -7.2285,3.5237 -7.2285,8.0084 0,4.3246 3.1806,8.0085 7.2285,8.0085 z"
     fill="#ffe3cb"
     id="path8" />
  <path
     fill-rule="evenodd"
     clip-rule="evenodd"
     d="m 117.175,48.5079 h 36.838 c 4.973,-0.204 9.025,-4.6933 9.025,-10.203 0,-5.1015 -3.316,-9.3867 -7.736,-9.9989 v -0.204 c 0,-6.734 -4.973,-12.2436 -11.051,-12.2436 -3.868,0 -7.184,2.2447 -9.21,5.5096 -1.365,-1.0703 -3.054,-1.6458 -4.789,-1.6325 -4.604,0 -8.288,4.0812 -8.288,9.1827 v 0.4081 c -1.374,-0.8915 -2.967,-1.3859 -4.605,-1.4284 -4.973,0 -9.209,4.4893 -9.209,10.203 0,5.5096 4.052,10.203 9.209,10.203 z"
     fill="#ffe3cb"
     id="path10" />
  <path
     d="m 0.758,338.08 h 374.41284 c 0.20107,0 0.39392,-0.08 0.5361,-0.222 0.14218,-0.142 0.22206,-0.335 0.22206,-0.536 0,-0.201 -0.0799,-0.394 -0.22206,-0.536 -0.14218,-0.143 -0.33503,-0.223 -0.5361,-0.223 H 0.758 c -0.201,0 -0.394,0.08 -0.536,0.223 C 0.08,336.928 0,337.121 0,337.322 c 0,0.201 0.08,0.394 0.222,0.536 0.142,0.142 0.335,0.222 0.536,0.222 z"
     fill="#935b50"
     id="path12" />
  <path
     d="m 305.5745,111.622 c -0.7027,-2.34 -1.4555,-4.662 -2.1841,-6.994 l -2.2681,-6.9648 c -0.754,-2.3224 -1.5538,-4.6291 -2.3285,-6.9445 l -2.3542,-6.9356 -0.3439,-1.0129 -0.4027,0.989 c -1.6726,4.1073 -3.3931,8.1948 -5.0264,12.3186 -1.6485,4.1172 -3.2796,8.2422 -4.8383,12.3972 1.8524,-4.033 3.6324,-8.095 5.3951,-12.1652 1.7779,-4.0635 3.4685,-8.1634 5.207,-12.2434 l -0.7464,-0.0238 2.4021,6.9191 c 0.8107,2.303 1.5964,4.6145 2.4279,6.9103 l 2.4882,6.89 c 0.857,2.287 1.6896,4.582 2.5723,6.86 z"
     fill="#1e1d22"
     id="path14" />
  <path
     d="m 312.4987,96.9052 -1.6832,18.3758 -0.0636,0.694 -0.008,0.088 -0.0667,-0.006 -0.7385,-0.067 -31.3591,-2.872 -0.7392,-0.069 -0.066,-0.006 0.008,-0.088 0.0637,-0.694 1.6831,-18.3756 0.0637,-0.6945 0.9235,0.085 31.1225,2.8506 0.9234,0.0842 z"
     fill="#f73c4f"
     id="path16" />
  <path
     d="m 279.5929,93.1909 -0.0637,0.6945 11.3967,10.3086 -13.0798,8.067 -0.0637,0.694 0.0584,0.094 0.7392,0.069 13.2057,-8.149 3.0948,2.801 3.552,-2.192 11.5066,10.412 0.7385,0.067 0.0743,-0.082 0.0636,-0.694 -11.3959,-10.309 13.0791,-8.0668 0.0636,-0.6945 -0.9234,-0.0842 -16.6318,10.2585 -14.4907,-13.1091 z"
     fill="#e5e1e5"
     id="path18" />
  <path
     d="m 295.9,80.647 c 0.3773,1.444 0.5475,2.9344 0.5052,4.4263 0,0 -1.9381,-3.6947 -5.7025,-3.7164 -1.413,0.1581 -2.8009,0.4906 -4.1322,0.9898 -1.3867,0.6675 -9.3365,3.5133 -14.2725,3.4406 l -1.485,0.0605 c 0,0 -2.387,15.4922 -6.553,13.8445 0,0 -3.001,2.9047 -4.644,1.9037 -0.446,0.31 -0.909,0.594 -1.388,0.85 -0.316,0.171 -0.677,0.244 -1.035,0.21 -0.358,-0.034 -0.698,-0.173 -0.978,-0.4 -0.279,-0.227 -0.484,-0.532 -0.591,-0.875 -0.106,-0.344 -0.108,-0.712 -0.005,-1.057 1.547,-5.1663 5.491,-15.7982 13.108,-21.8959 0,0 -2.331,-3.1064 -2.246,-5.2273 0,0 -2.478,-3.8107 -1.853,-6.6538 -0.693,-1.0829 -1.154,-2.2979 -1.353,-3.5681 -0.199,-1.2703 -0.132,-2.568 0.197,-3.8109 -1.12,-2.6877 -1.173,-5.7013 -0.148,-8.4266 -0.828,-3.1081 -0.434,-6.4154 1.102,-9.2417 -0.086,-2.7661 0.41,-5.5194 1.456,-8.0816 0.145,-0.3277 0.372,-0.6122 0.659,-0.8259 0.288,-0.2136 0.626,-0.3489 0.981,-0.3927 0.355,-0.0439 0.716,0.0053 1.047,0.1427 0.33,0.1374 0.62,0.3583 0.84,0.6411 5.518,7.1383 10.1009,14.9535 13.6357,23.2551 0.385,0.9303 0.49,1.9527 0.3022,2.9418 -0.5862,3.0833 -1.4518,10.2888 2.7281,12.3269 1.1795,0.4686 2.4466,0.6759 3.714,0.6077 3.488,-0.0995 6.4832,2.1883 6.9498,4.4988 0.2659,1.4025 -0.0358,2.8532 -0.8388,4.0334 z"
     fill="#ffba55"
     id="path20" />
  <path
     d="m 296.4052,85.0733 c -0.7634,-1.3659 -1.9195,-2.471 -3.3185,-3.172 0,0 1.1046,-2.5118 2.8133,-1.2543 0.4213,1.4354 0.5923,2.9328 0.5052,4.4263 z"
     fill="#f73c4f"
     id="path22" />
  <path
     d="m 294.0546,78.0078 c -0.162,-0.0056 -0.3155,-0.0739 -0.4281,-0.1905 -0.1127,-0.1166 -0.1756,-0.2724 -0.1756,-0.4345 0,-0.1622 0.0629,-0.318 0.1756,-0.4346 0.1126,-0.1166 0.2661,-0.1849 0.4281,-0.1905 0.1621,0.0056 0.3156,0.0739 0.4282,0.1905 0.1126,0.1166 0.1756,0.2724 0.1756,0.4346 0,0.1621 -0.063,0.3179 -0.1756,0.4345 -0.1126,0.1166 -0.2661,0.1849 -0.4282,0.1905 z"
     fill="#1e1d22"
     id="path24" />
  <path
     d="m 295.8999,80.6469 c -0.1697,-0.2154 -0.4136,-0.3598 -0.6841,-0.405 -0.2706,-0.0452 -0.5482,0.0121 -0.7787,0.1607 0.2711,0.0569 0.4996,0.0563 0.7324,0.1127 0.238,0.0247 0.459,0.0946 0.7304,0.1316 z"
     fill="#b02336"
     id="path26" />
  <path
     d="m 278.2732,74.242 c -0.8918,-0.0011 -1.7805,0.1081 -2.6452,0.325 -0.868,0.2053 -1.716,0.4858 -2.535,0.8381 -0.821,0.3499 -1.608,0.7779 -2.348,1.2781 -0.745,0.4915 -1.424,1.0781 -2.018,1.745 0.804,-0.3954 1.553,-0.8259 2.337,-1.1973 0.777,-0.379 1.554,-0.7502 2.35,-1.0802 1.581,-0.6926 3.1971,-1.2818 4.8592,-1.9087 z"
     fill="#e6952a"
     id="path28" />
  <path
     d="m 270.813,85.8478 c -0.743,-0.0896 -1.496,-0.0727 -2.234,0.0504 -0.739,0.1114 -1.465,0.2961 -2.168,0.5516 -1.423,0.4867 -2.704,1.3155 -3.732,2.4135 0.699,-0.2818 1.342,-0.6018 2.011,-0.8704 0.663,-0.2763 1.323,-0.5462 1.999,-0.7803 1.341,-0.5001 2.706,-0.907 4.124,-1.3648 z"
     fill="#e6952a"
     id="path30" />
  <path
     d="m 264.26,99.6922 c 0.153,0.0281 0.31,0.0157 0.455,-0.036 0.146,-0.0517 0.276,-0.1408 0.377,-0.2584 0.098,-0.1183 0.164,-0.2599 0.192,-0.4111 0.028,-0.1512 0.016,-0.307 -0.034,-0.4524 -0.147,-0.0035 -0.292,0.0252 -0.427,0.0839 -0.134,0.0587 -0.254,0.146 -0.352,0.2559 -0.089,0.1144 -0.154,0.2462 -0.191,0.387 -0.036,0.1408 -0.043,0.2876 -0.02,0.4311 z"
     fill="#e6952a"
     id="path32" />
  <path
     d="m 259.616,101.596 c 0.147,0.033 0.299,0.029 0.444,-0.012 0.144,-0.041 0.276,-0.118 0.382,-0.224 0.106,-0.109 0.18,-0.244 0.216,-0.391 0.037,-0.148 0.034,-0.302 -0.008,-0.447 -0.144,-0.015 -0.289,0.002 -0.425,0.049 -0.136,0.047 -0.26,0.123 -0.364,0.223 -0.098,0.107 -0.171,0.234 -0.213,0.373 -0.043,0.139 -0.053,0.285 -0.032,0.429 z"
     fill="#e6952a"
     id="path34" />
  <path
     d="m 266.481,73.2008 c 0.121,0.435 0.393,0.8126 0.767,1.0647 0.377,0.2652 0.819,0.4224 1.279,0.4548 0.436,0.0324 0.874,-0.0226 1.288,-0.1617 0.414,-0.1392 0.796,-0.3596 1.124,-0.6485 -0.869,-0.0235 -1.623,0.0672 -2.349,0.0011 -0.751,-0.055 -1.477,-0.2994 -2.109,-0.7104 z"
     fill="#e6952a"
     id="path36" />
  <path
     d="m 264.628,66.5469 c 0.163,0.2832 0.393,0.5228 0.669,0.6985 0.275,0.1756 0.59,0.2821 0.915,0.3103 0.596,0.1322 1.198,0.2171 1.801,0.2928 1.211,0.1553 2.436,0.1557 3.646,9e-4 -1.151,-0.4175 -2.349,-0.6892 -3.568,-0.8088 -0.599,-0.0593 -1.2,-0.1092 -1.806,-0.112 -0.284,0.0119 -0.569,-0.0066 -0.849,-0.0554 -0.29,-0.0468 -0.567,-0.1583 -0.808,-0.3263 z"
     fill="#e6952a"
     id="path38" />
  <path
     d="m 263.472,59.168 c 0.236,0.36 0.562,0.6528 0.945,0.8499 0.385,0.1788 0.79,0.3112 1.207,0.3945 0.783,0.2064 1.566,0.397 2.339,0.6114 0.778,0.2004 1.544,0.4279 2.304,0.6735 0.77,0.2463 1.518,0.5528 2.24,0.9167 -0.553,-0.6352 -1.233,-1.1468 -1.996,-1.5017 -0.748,-0.3685 -1.531,-0.6608 -2.337,-0.8724 -0.801,-0.211 -1.616,-0.361 -2.439,-0.4488 -0.394,-0.0203 -0.787,-0.068 -1.175,-0.1428 -0.388,-0.0943 -0.756,-0.257 -1.088,-0.4803 z"
     fill="#e6952a"
     id="path40" />
  <path
     d="m 263.324,50.7414 c 0.187,0.5223 0.527,0.9764 0.975,1.3035 0.23,0.1632 0.48,0.2969 0.744,0.3981 l 0.731,0.295 2.909,1.1902 c 0.968,0.3947 1.925,0.812 2.878,1.2389 0.948,0.4388 1.897,0.8777 2.836,1.3845 -1.567,-1.4622 -3.401,-2.6077 -5.403,-3.3732 -0.984,-0.4056 -1.992,-0.7523 -3.017,-1.0383 -0.257,-0.0684 -0.512,-0.1423 -0.772,-0.2015 -0.243,-0.0499 -0.479,-0.1282 -0.703,-0.2332 -0.468,-0.216 -0.873,-0.5478 -1.178,-0.964 z"
     fill="#e6952a"
     id="path42" />
  <path
     d="m 264.425,41.4996 c 0.216,0.6973 0.663,1.3 1.268,1.7077 l 1.82,1.046 c 1.185,0.7124 2.353,1.4471 3.459,2.2643 2.263,1.5864 4.261,3.5207 5.9193,5.7312 -0.5612,-1.3016 -1.3343,-2.5014 -2.2873,-3.5507 -0.947,-1.0565 -2.005,-2.0079 -3.156,-2.8376 -1.146,-0.8265 -2.363,-1.5506 -3.637,-2.1638 -0.622,-0.3106 -1.312,-0.5754 -1.919,-0.8314 -0.617,-0.2939 -1.129,-0.7707 -1.467,-1.3657 z"
     fill="#e6952a"
     id="path44" />
  <path
     d="m 169.326,131.1 c 0,0 4.498,36.671 15.253,63.765 10.756,27.094 7.824,50.803 7.824,50.803 0,0 -7.311,-3.288 -11.632,-1.595 -4.321,1.694 -13.026,0.589 -13.026,0.589 0,0 -0.171,-32.37 -4.577,-45.94 -4.405,-13.57 -10.006,-66.459 -1.438,-70.182 2.483,0.994 5.018,1.849 7.596,2.56 z"
     fill="#f73c4f"
     id="path46" />
  <path
     d="m 124.086,318.538 v 11.557 l 12.125,1.072 0.494,-9.024 z"
     fill="#f9977a"
     id="path48" />
  <path
     d="m 166.939,318.538 v 11.557 h 13.551 l -1.441,-8.098 z"
     fill="#f9977a"
     id="path50" />
  <path
     d="m 137.922,191.205 c 0,0 -5.311,18.728 -3.821,66.989 0,0 -10.807,23.482 -11.366,64.106 h 14.348 l 15.653,-60.376 4.286,-19.008 4.659,17.144 c 0,0 -1.491,40.81 4.752,62.24 h 14.069 l 2.236,-68.762 -4.705,-60.376 z"
     fill="#f73c4f"
     id="path52" />
  <path
     d="m 167.035,261.979 c 0.756,0.01 1.508,-0.098 2.231,-0.318 0.49,-0.123 0.947,-0.352 1.34,-0.669 0.392,-0.318 0.711,-0.718 0.934,-1.171 l 0.495,-1.322 -1.091,0.896 c -0.595,0.427 -1.298,0.677 -2.029,0.721 -0.762,0.073 -1.529,0.083 -2.292,0.029 -0.78,-0.063 -1.581,-0.134 -2.392,-0.231 l -0.515,-0.06 c -0.65,-0.076 -1.323,-0.155 -2.025,-0.173 l -1.428,-0.036 1.222,0.739 c 1.527,0.917 3.249,1.459 5.026,1.581 0.179,0.01 0.353,0.015 0.524,0.014 z m 2.357,-1.17 c -0.129,0.053 -0.25,0.096 -0.355,0.129 -0.803,0.238 -1.642,0.33 -2.478,0.271 -0.96,-0.071 -1.906,-0.269 -2.815,-0.588 l 0.4,0.046 c 0.817,0.098 1.627,0.17 2.43,0.234 0.813,0.057 1.628,0.045 2.439,-0.034 0.126,-0.018 0.252,-0.036 0.379,-0.058 z"
     fill="#b02336"
     id="path54" />
  <path
     d="m 139.456,260.587 c 0.756,0.009 1.508,-0.098 2.23,-0.319 0.494,-0.115 0.954,-0.341 1.348,-0.66 0.394,-0.318 0.711,-0.722 0.927,-1.18 l 0.495,-1.321 -1.091,0.895 c -0.596,0.424 -1.299,0.674 -2.029,0.721 -0.762,0.072 -1.529,0.082 -2.293,0.03 -0.78,-0.064 -1.581,-0.134 -2.391,-0.232 l -0.515,-0.059 c -0.65,-0.077 -1.323,-0.155 -2.025,-0.174 l -1.428,-0.036 1.222,0.74 c 1.527,0.916 3.249,1.458 5.025,1.581 0.179,0.009 0.354,0.014 0.525,0.014 z m 2.355,-1.169 c -0.128,0.052 -0.249,0.094 -0.354,0.128 -0.802,0.238 -1.642,0.33 -2.477,0.271 -0.96,-0.072 -1.907,-0.269 -2.815,-0.589 l 0.4,0.046 c 0.817,0.098 1.627,0.17 2.43,0.235 0.812,0.057 1.628,0.045 2.438,-0.034 0.126,-0.017 0.252,-0.037 0.378,-0.057 z"
     fill="#b02336"
     id="path56" />
  <path
     d="m 146.773,205.647 c 0.41,3.229 0.941,6.43 1.509,9.619 0.591,3.185 1.255,6.352 2.041,9.486 0.788,3.136 1.734,6.223 2.792,9.276 1.112,3.043 2.417,6.012 3.907,8.888 -1.861,-2.688 -3.43,-5.567 -4.683,-8.587 -1.223,-3.034 -2.242,-6.146 -3.049,-9.316 -0.782,-3.171 -1.392,-6.381 -1.826,-9.618 -0.448,-3.23 -0.678,-6.487 -0.691,-9.748 z"
     fill="#5e7c24"
     id="path58" />
  <path
     d="m 143.605,216.269 c 1.079,1.375 1.951,2.8 2.9,4.166 0.467,0.686 0.931,1.369 1.442,2.012 0.506,0.668 1.079,1.283 1.709,1.835 -0.868,-0.209 -1.666,-0.644 -2.312,-1.262 -0.658,-0.584 -1.236,-1.251 -1.721,-1.986 -0.488,-0.718 -0.906,-1.482 -1.248,-2.28 -0.358,-0.794 -0.617,-1.628 -0.77,-2.485 z"
     fill="#5e7c24"
     id="path60" />
  <path
     d="m 124.086,337.321 h 27.689 c 0.298,0 0.593,-0.062 0.866,-0.183 0.272,-0.121 0.516,-0.298 0.716,-0.519 0.2,-0.221 0.351,-0.482 0.444,-0.765 0.093,-0.283 0.126,-0.583 0.096,-0.88 0,0 0.309,-2.796 -0.427,-3.09 l -16.919,-6.759 c 0,0 -7.033,8.574 -12.465,1.427 0,0 -4.55,8.107 0,10.769 z"
     fill="#d6694b"
     id="path62" />
  <path
     d="m 166.939,337.321 h 27.689 c 0.298,0 0.593,-0.062 0.865,-0.183 0.273,-0.121 0.517,-0.298 0.717,-0.519 0.2,-0.221 0.351,-0.482 0.444,-0.765 0.093,-0.283 0.126,-0.583 0.096,-0.88 0,0 0.309,-2.796 -0.427,-3.09 l -16.919,-6.759 c 0,0 -7.033,8.574 -12.465,1.427 0,0 -4.55,8.107 0,10.769 z"
     fill="#d6694b"
     id="path64" />
  <path
     d="m 216.747,90.1504 c 0,0 -0.775,-2.7107 1.955,-8.2973 2.729,-5.5867 5.472,-9.6923 4.498,-5.4188 l -0.796,3.2442 c 0,0 3.867,-3.1679 6.005,-5.2568 0.559,-0.5631 1.283,-0.9319 2.067,-1.0522 0.784,-0.1203 1.586,0.0143 2.287,0.3839 1.3,0.7216 1.642,1.8635 -0.35,4.7404 -2.978,4.3027 -4.674,6.4909 -5.72,7.3381 -0.363,0.2935 -4.54,3.1512 -4.54,3.1512 z"
     fill="#f9977a"
     id="path66" />
  <path
     d="m 220.222,81.7778 c 0.122,-0.522 0.395,-0.9963 0.787,-1.3625 0.374,-0.3878 0.863,-0.6459 1.395,-0.7367 -0.167,0.4987 -0.455,0.9484 -0.838,1.3091 -0.371,0.3765 -0.834,0.649 -1.344,0.7901 z"
     fill="#dd765e"
     id="path68" />
  <path
     d="m 226.073,78.9543 c 0.687,-1.037 1.455,-2.0178 2.298,-2.9331 0.825,-0.9162 1.65,-1.7887 2.543,-2.6959 -0.176,0.6139 -0.447,1.1967 -0.802,1.7275 -0.341,0.5299 -0.724,1.0317 -1.145,1.5007 -0.419,0.4667 -0.869,0.9045 -1.347,1.3106 -0.476,0.4163 -0.995,0.7818 -1.547,1.0902 z"
     fill="#dd765e"
     id="path70" />
  <path
     d="m 227.619,79.9586 c 0.838,-1.1121 1.766,-2.0804 2.658,-3.0764 0.458,-0.4869 0.892,-0.989 1.321,-1.493 0.443,-0.5039 0.834,-1.052 1.165,-1.6357 -0.043,0.7086 -0.268,1.3941 -0.652,1.9911 -0.353,0.6015 -0.769,1.1633 -1.242,1.6755 -0.467,0.5086 -0.973,0.98 -1.513,1.4099 -0.536,0.4383 -1.119,0.8167 -1.737,1.1286 z"
     fill="#dd765e"
     id="path72" />
  <path
     d="m 229.28,80.5474 c 0.67,-0.9162 1.398,-1.7879 2.181,-2.6096 l 1.149,-1.2173 c 0.386,-0.4065 0.769,-0.8134 1.203,-1.2179 -0.343,1.119 -0.948,2.1399 -1.765,2.9776 -0.778,0.8644 -1.718,1.567 -2.768,2.0672 z"
     fill="#dd765e"
     id="path74" />
  <path
     d="m 176.553,123.882 19.969,-15.184 c 1.693,-0.828 3.178,-2.027 4.346,-3.506 l 17.047,-21.5907 4.904,4.9133 -9.622,20.9644 c -1.983,4.32 -5.121,8.009 -9.067,10.66 l -19.255,12.932 z"
     fill="#f9977a"
     id="path76" />
  <path
     d="m 184.355,92.4185 c 0,0 -0.745,-2.7189 2.044,-8.2759 2.789,-5.557 5.576,-9.6329 4.556,-5.3701 l -0.831,3.2355 c 0,0 3.901,-3.1262 6.062,-5.1921 0.564,-0.557 1.293,-0.9181 2.078,-1.0299 0.785,-0.1119 1.585,0.0313 2.283,0.4084 1.291,0.7355 1.621,1.881 -0.401,4.7363 -3.025,4.2706 -4.744,6.4404 -5.799,7.2763 -0.366,0.2896 -4.573,3.1024 -4.573,3.1024 z"
     fill="#f9977a"
     id="path78" />
  <path
     d="m 156.965,133.487 9.186,-18.882 c 0.678,-1.758 3.679,-4.18 5.051,-5.472 l 20.027,-18.8596 -5.321,-4.458 -20.048,11.408 c -4.132,2.3513 -7.535,5.7976 -9.832,9.9606 l -7.391,18.147 z"
     fill="#f9977a"
     id="path80" />
  <path
     d="m 194.4,85.8153 c -0.199,-0.407 -0.481,-0.7673 -0.829,-1.0571 -0.343,-0.2971 -0.732,-0.5379 -1.151,-0.7134 -0.425,-0.1766 -0.881,-0.2707 -1.342,-0.2773 -0.459,-0.0126 -0.914,0.0954 -1.318,0.3132 0.45,0.1005 0.851,0.1551 1.241,0.2734 0.386,0.106 0.764,0.2369 1.132,0.3919 0.746,0.2989 1.453,0.6841 2.267,1.0693 z"
     fill="#dd765e"
     id="path82" />
  <path
     d="m 148.637,125.331 c -0.406,-0.541 4.658,-2.05 4.845,-6.895 0.279,-7.25 -2.795,-17.423 -2.795,-17.423 h 21.895 c 0.206,1.827 0.206,3.671 0,5.497 -0.308,1.85 2.373,8.38 -2.844,15.356 -0.445,0.595 -1.323,0.672 -2.063,0.748 -1.181,0.121 -2.975,0.891 -1.801,4.674 0,0 -9.97,7.733 -17.237,-1.957 z"
     fill="#f9977a"
     id="path84" />
  <path
     d="m 143.217,127.175 5.42,-1.844 c 2.572,1.525 5.438,2.488 8.409,2.825 2.971,0.337 5.979,0.041 8.828,-0.868 l 18.082,-9.4 6.369,14.338 -11.315,10.683 c -1.354,1.279 -2.407,2.843 -3.082,4.579 -0.674,1.736 -0.954,3.601 -0.819,5.459 l 7.629,100.591 c 0,0 -44.236,8.712 -52.342,-1.91 0,0 9.203,-84.462 6.687,-94.525 0,0 -3.78,-13.822 0.671,-24.783 0.488,-1.199 1.229,-2.279 2.171,-3.167 0.943,-0.888 2.065,-1.562 3.292,-1.978 z"
     fill="#6c7fd8"
     id="path86" />
  <path
     d="m 150.691,120.11 c 0,0 9.477,2.961 14.228,-8.293 0,0 -3.386,-2.581 -0.229,-4.668 0.338,-0.231 0.723,-0.384 1.128,-0.446 0.405,-0.062 0.819,-0.032 1.21,0.087 0.273,0.054 0.517,0.205 0.687,0.425 0.169,0.221 0.251,0.496 0.232,0.773 l 4.662,-6.711 c 0,0 5.434,-12.7753 -14,-8.971 0,0 -9.553,0.1002 -10.632,13.482 -0.115,1.503 0.007,3.016 0.363,4.481 z"
     fill="#1e1d22"
     id="path88" />
  <path
     d="m 138.481,132.226 c -0.553,0.889 -0.926,1.877 -1.098,2.91 -0.217,1.017 -0.377,2.046 -0.481,3.082 -0.199,2.076 -0.238,4.168 -0.242,6.26 0.013,2.094 0.082,4.192 0.172,6.294 0.09,2.103 0.206,4.208 0.251,6.331 -0.243,-1.032 -0.418,-2.076 -0.63,-3.117 -0.192,-1.043 -0.314,-2.096 -0.451,-3.148 -0.25,-2.11 -0.386,-4.232 -0.408,-6.357 -0.013,-2.135 0.15,-4.268 0.487,-6.377 0.112,-0.525 0.205,-1.052 0.334,-1.573 0.157,-0.516 0.27,-1.038 0.47,-1.541 0.182,-0.506 0.399,-0.999 0.648,-1.475 0.235,-0.484 0.556,-0.921 0.948,-1.289 z"
     fill="#e6952a"
     id="path90" />
  <path
     d="m 164.258,132.226 c -0.553,0.889 -0.926,1.877 -1.098,2.91 -0.217,1.018 -0.377,2.046 -0.481,3.082 -0.199,2.076 -0.238,4.168 -0.242,6.26 0.013,2.094 0.082,4.192 0.172,6.294 0.09,2.103 0.206,4.208 0.251,6.331 -0.243,-1.032 -0.418,-2.076 -0.63,-3.117 -0.192,-1.043 -0.314,-2.096 -0.451,-3.148 -0.25,-2.11 -0.386,-4.232 -0.408,-6.357 -0.013,-2.135 0.15,-4.268 0.487,-6.377 0.112,-0.525 0.205,-1.052 0.334,-1.573 0.157,-0.516 0.27,-1.038 0.47,-1.541 0.182,-0.506 0.399,-0.999 0.648,-1.475 0.235,-0.484 0.556,-0.921 0.948,-1.289 z"
     fill="#065082"
     id="path92" />
  <path
     d="m 141.254,168.604 c 0.671,1.948 1.434,3.846 2.236,5.715 0.799,1.862 1.718,3.669 2.751,5.412 0.508,0.867 1.067,1.705 1.673,2.507 0.592,0.808 1.244,1.57 1.952,2.279 1.409,1.457 3.122,2.585 5.017,3.306 -2.08,-0.347 -4.017,-1.282 -5.582,-2.695 -1.575,-1.395 -2.916,-3.031 -3.974,-4.849 -1.058,-1.793 -1.933,-3.688 -2.609,-5.657 -0.693,-1.951 -1.184,-3.967 -1.464,-6.018 z"
     fill="#065082"
     id="path94" />
  <path
     d="m 160.078,121.801 c 0,0 2.792,3.189 5.494,4.165 -0.369,-2.45 0.873,-3.148 1.877,-3.317 0,0 -5.643,0.207 -7.371,-0.848 z"
     fill="#dd765e"
     id="path96" />
  <path
     d="m 172.626,107.792 c 0.366,-1.015 0.547,-2.088 0.533,-3.167 0.024,-1.08 -0.156,-2.156 -0.533,-3.169 -0.159,1.048 -0.235,2.107 -0.225,3.167 -0.017,1.061 0.058,2.121 0.225,3.169 z"
     fill="#dd765e"
     id="path98" />
  <path
     d="m 148.637,125.331 c 0,0 -3.803,43.688 1.019,72.437 4.823,28.75 -3.025,51.312 -3.025,51.312 0,0 -6.456,-4.75 -11.037,-4.003 -4.581,0.748 -12.859,-2.161 -12.859,-2.161 0,0 6.634,-31.683 5.178,-45.876 -1.456,-14.193 0.787,-56.354 11.645,-68.5 0,0 6.064,-4.689 9.079,-3.209 z"
     fill="#f73c4f"
     id="path100" />
  <path
     d="m 154.511,123.033 c -2.092,0 -3.788,-1.696 -3.788,-3.788 0,-2.092 1.696,-3.788 3.788,-3.788 2.092,0 3.788,1.696 3.788,3.788 0,2.092 -1.696,3.788 -3.788,3.788 z"
     fill="#1e1d22"
     id="path102" />
  <path
     d="m 153.236,128.799 c -2.092,0 -3.788,-1.696 -3.788,-3.788 0,-2.092 1.696,-3.788 3.788,-3.788 2.092,0 3.789,1.696 3.789,3.788 0,2.092 -1.697,3.788 -3.789,3.788 z"
     fill="#1e1d22"
     id="path104" />
  <path
     d="m 151.888,133.999 c -2.092,0 -3.788,-1.696 -3.788,-3.788 0,-2.092 1.696,-3.788 3.788,-3.788 2.092,0 3.788,1.696 3.788,3.788 0,2.092 -1.696,3.788 -3.788,3.788 z"
     fill="#1e1d22"
     id="path106" />
  <path
     d="m 149.944,139.541 c -2.092,0 -3.788,-1.696 -3.788,-3.789 0,-2.092 1.696,-3.788 3.788,-3.788 2.093,0 3.789,1.696 3.789,3.788 0,2.093 -1.696,3.789 -3.789,3.789 z"
     fill="#1e1d22"
     id="path108" />
  <path
     d="m 146.866,146.857 c 0,0 3.364,-1.873 4.46,-3.655 0.526,-0.856 0.691,-1.886 0.458,-2.863 -0.233,-0.978 -0.844,-1.822 -1.7,-2.349 -0.856,-0.526 -1.886,-0.691 -2.863,-0.458 -0.978,0.233 -1.822,0.844 -2.349,1.7 -1.096,1.782 1.994,7.625 1.994,7.625 z"
     fill="#1e1d22"
     id="path110" />
  <path
     d="m 153.355,140.836 c 0.197,0 0.387,-0.07 0.538,-0.197 0.15,-0.127 0.251,-0.304 0.284,-0.498 0.033,-0.194 -0.004,-0.394 -0.104,-0.564 -0.101,-0.169 -0.258,-0.298 -0.444,-0.363 l -8.621,-3.007 c -0.209,-0.073 -0.438,-0.059 -0.637,0.037 -0.199,0.096 -0.352,0.267 -0.425,0.476 -0.072,0.209 -0.059,0.438 0.037,0.637 0.096,0.199 0.267,0.352 0.475,0.425 l 8.622,3.008 c 0.088,0.03 0.181,0.046 0.275,0.046 z"
     fill="#f73943"
     id="path112" />
  <path
     d="m 165.215,115.841 c -3.22,0 -3.226,-5.004 0,-5.004 3.219,0 3.225,5.004 0,5.004 z"
     fill="#f73943"
     id="path114" />
  <path
     d="m 160.74,122.763 c 0.223,-0.28 0.361,-0.617 0.398,-0.973 0.037,-0.356 -0.029,-0.715 -0.189,-1.035 -0.16,-0.319 -0.409,-0.586 -0.717,-0.769 -0.307,-0.183 -0.66,-0.274 -1.018,-0.263 0.217,-0.291 0.345,-0.639 0.368,-1.001 0.023,-0.363 -0.059,-0.724 -0.237,-1.041 -0.179,-0.316 -0.445,-0.574 -0.767,-0.742 -0.322,-0.168 -0.686,-0.239 -1.048,-0.204 0.028,-0.031 0.061,-0.057 0.087,-0.09 0.168,-0.209 0.289,-0.45 0.356,-0.709 0.067,-0.259 0.078,-0.529 0.032,-0.792 -0.045,-0.264 -0.146,-0.514 -0.296,-0.735 -0.15,-0.222 -0.345,-0.409 -0.573,-0.549 -0.228,-0.14 -0.483,-0.23 -0.748,-0.264 -0.265,-0.034 -0.534,-0.011 -0.79,0.067 -0.255,0.079 -0.491,0.21 -0.692,0.387 -0.201,0.176 -0.362,0.393 -0.472,0.637 -0.188,-0.313 -0.463,-0.564 -0.791,-0.723 -0.328,-0.159 -0.696,-0.218 -1.057,-0.171 -0.362,0.047 -0.702,0.198 -0.979,0.435 -0.277,0.237 -0.479,0.55 -0.581,0.9 -0.034,-0.031 -0.062,-0.066 -0.099,-0.095 -0.237,-0.19 -0.516,-0.319 -0.814,-0.377 -0.298,-0.059 -0.605,-0.044 -0.896,0.042 -0.291,0.086 -0.557,0.241 -0.775,0.452 -0.218,0.211 -0.382,0.472 -0.478,0.76 -0.096,0.288 -0.121,0.595 -0.072,0.894 0.048,0.3 0.168,0.584 0.35,0.827 0.181,0.243 0.419,0.439 0.692,0.57 0.274,0.132 0.575,0.196 0.878,0.186 -0.062,0.286 -0.056,0.582 0.017,0.865 0.073,0.284 0.212,0.546 0.405,0.765 0.193,0.22 0.435,0.392 0.706,0.501 0.272,0.109 0.565,0.153 0.856,0.128 -0.008,0.394 0.107,0.781 0.331,1.106 0.223,0.325 0.543,0.571 0.915,0.704 0.371,0.133 0.775,0.145 1.154,0.036 0.378,-0.11 0.713,-0.336 0.956,-0.647 -0.153,0.194 -0.266,0.417 -0.333,0.655 -0.067,0.238 -0.087,0.487 -0.058,0.733 0.03,0.245 0.107,0.483 0.228,0.699 0.121,0.215 0.283,0.405 0.477,0.558 0.194,0.153 0.417,0.267 0.655,0.334 0.238,0.067 0.487,0.086 0.733,0.057 0.245,-0.029 0.483,-0.106 0.699,-0.227 0.215,-0.121 0.405,-0.283 0.558,-0.478 0.043,-0.286 0.152,-0.559 0.319,-0.796 0.166,-0.237 0.386,-0.432 0.641,-0.569 0.256,-0.138 0.539,-0.213 0.829,-0.222 0.29,-0.008 0.577,0.052 0.84,0.174 z"
     fill="#f9dd95"
     id="path116" />
  <path
     d="m 149.433,116.992 c -0.266,0 -0.483,-0.217 -0.483,-0.483 0,-0.267 0.217,-0.483 0.483,-0.483 0.267,0 0.483,0.216 0.483,0.483 0,0.266 -0.216,0.483 -0.483,0.483 z"
     fill="#f4906e"
     id="path118" />
  <path
     d="m 152.887,115.909 c -0.267,0 -0.483,-0.216 -0.483,-0.483 0,-0.266 0.216,-0.483 0.483,-0.483 0.266,0 0.482,0.217 0.482,0.483 0,0.267 -0.216,0.483 -0.482,0.483 z"
     fill="#f4906e"
     id="path120" />
  <path
     d="m 151.598,119.311 c -0.267,0 -0.483,-0.216 -0.483,-0.483 0,-0.266 0.216,-0.483 0.483,-0.483 0.266,0 0.482,0.217 0.482,0.483 0,0.267 -0.216,0.483 -0.482,0.483 z"
     fill="#f4906e"
     id="path122" />
  <path
     d="m 151.412,117.321 c -0.267,0 -0.483,-0.216 -0.483,-0.483 0,-0.267 0.216,-0.483 0.483,-0.483 0.266,0 0.483,0.216 0.483,0.483 0,0.267 -0.217,0.483 -0.483,0.483 z"
     fill="#f4906e"
     id="path124" />
  <path
     d="m 154.286,117.459 c -0.267,0 -0.483,-0.216 -0.483,-0.482 0,-0.267 0.216,-0.483 0.483,-0.483 0.266,0 0.482,0.216 0.482,0.483 0,0.266 -0.216,0.482 -0.482,0.482 z"
     fill="#f4906e"
     id="path126" />
  <path
     d="m 156.223,115.78 c -0.267,0 -0.483,-0.216 -0.483,-0.482 0,-0.267 0.216,-0.483 0.483,-0.483 0.267,0 0.483,0.216 0.483,0.483 0,0.266 -0.216,0.482 -0.483,0.482 z"
     fill="#f4906e"
     id="path128" />
  <path
     d="m 157.844,119.2 c -0.267,0 -0.483,-0.216 -0.483,-0.483 0,-0.267 0.216,-0.483 0.483,-0.483 0.267,0 0.483,0.216 0.483,0.483 0,0.267 -0.216,0.483 -0.483,0.483 z"
     fill="#f4906e"
     id="path130" />
  <path
     d="m 155.903,118.9 c -0.267,0 -0.483,-0.216 -0.483,-0.483 0,-0.266 0.216,-0.482 0.483,-0.482 0.267,0 0.483,0.216 0.483,0.482 0,0.267 -0.216,0.483 -0.483,0.483 z"
     fill="#f4906e"
     id="path132" />
  <path
     d="m 153.846,119.578 c -0.267,0 -0.483,-0.216 -0.483,-0.483 0,-0.267 0.216,-0.483 0.483,-0.483 0.267,0 0.483,0.216 0.483,0.483 0,0.267 -0.216,0.483 -0.483,0.483 z"
     fill="#f4906e"
     id="path134" />
  <path
     d="m 153.575,121.483 c -0.267,0 -0.483,-0.216 -0.483,-0.483 0,-0.266 0.216,-0.482 0.483,-0.482 0.266,0 0.482,0.216 0.482,0.482 0,0.267 -0.216,0.483 -0.482,0.483 z"
     fill="#f4906e"
     id="path136" />
  <path
     d="m 155.915,120.868 c -0.267,0 -0.483,-0.216 -0.483,-0.482 0,-0.267 0.216,-0.483 0.483,-0.483 0.267,0 0.483,0.216 0.483,0.483 0,0.266 -0.216,0.482 -0.483,0.482 z"
     fill="#f4906e"
     id="path138" />
  <path
     d="m 156.474,123.767 c -0.267,0 -0.483,-0.216 -0.483,-0.483 0,-0.266 0.216,-0.482 0.483,-0.482 0.266,0 0.483,0.216 0.483,0.482 0,0.267 -0.217,0.483 -0.483,0.483 z"
     fill="#f4906e"
     id="path140" />
  <path
     d="m 159.411,122.112 c -0.267,0 -0.483,-0.216 -0.483,-0.483 0,-0.267 0.216,-0.483 0.483,-0.483 0.267,0 0.483,0.216 0.483,0.483 0,0.267 -0.216,0.483 -0.483,0.483 z"
     fill="#f4906e"
     id="path142" />
  <path
     d="m 157.669,122.25 c -0.267,0 -0.483,-0.216 -0.483,-0.483 0,-0.266 0.216,-0.483 0.483,-0.483 0.267,0 0.483,0.217 0.483,0.483 0,0.267 -0.216,0.483 -0.483,0.483 z"
     fill="#f4906e"
     id="path144" />
  <path
     d="m 170.943,101.095 c -0.998,1.308 -1.785,2.764 -2.333,4.315 -0.583,1.568 -0.851,3.235 -0.789,4.906 0.114,1.641 0.267,3.232 0.303,4.841 0.035,0.796 -0.015,1.593 -0.15,2.377 -0.052,0.386 -0.184,0.758 -0.386,1.09 -0.104,0.167 -0.245,0.308 -0.411,0.412 -0.167,0.105 -0.355,0.17 -0.55,0.191 0.211,0.017 0.424,-0.017 0.619,-0.101 0.195,-0.083 0.367,-0.213 0.501,-0.378 0.27,-0.329 0.47,-0.711 0.587,-1.122 0.214,-0.802 0.339,-1.627 0.373,-2.457 0.056,-1.632 0.013,-3.265 -0.129,-4.892 -0.057,-1.585 0.141,-3.168 0.585,-4.691 0.215,-0.773 0.476,-1.533 0.78,-2.276 0.293,-0.756 0.626,-1.496 1,-2.215 z"
     fill="#1e1d22"
     id="path146" />
  <path
     d="m 236.885,64.4833 0.736,-0.1822 c -4.157,-16.8069 9.423,-28.8635 9.56,-28.9834 l -0.498,-0.5716 c -0.141,0.1229 -14.065,12.486 -9.798,29.7372 z"
     fill="#f9e0c0"
     id="path148" />
  <path
     d="m 241.859,69.5571 0.736,-0.1821 c -4.158,-16.8069 9.422,-28.8635 9.559,-28.9834 L 251.657,39.82 c -0.142,0.1229 -14.066,12.486 -9.798,29.7371 z"
     fill="#f9e0c0"
     id="path150" />
  <path
     d="m 264.957,134.356 c 6.22,0 14.4518,-1.58 21.1535,-8.362 l -0.539,-0.533 c -12.1685,12.315 -29.5395,7.021 -29.7135,6.967 l -0.228,0.722 c 3.04,0.824 6.177,1.229 9.327,1.206 z"
     fill="#f9e0c0"
     id="path152" />
  <path
     d="m 266.69,127.466 c 6.22,0 14.4524,-1.58 21.1541,-8.362 l -0.539,-0.534 c -12.1591,12.307 -29.5391,7.022 -29.7131,6.968 l -0.228,0.722 c 3.04,0.824 6.177,1.229 9.326,1.206 z"
     fill="#f9e0c0"
     id="path154" />
  <path
     d="m 90.634,111.376 -5.099,26.856 -10.406,3.873 -10.407,-3.873 -5.099,-26.856 z"
     fill="#ffba55"
     id="path156" />
  <path
     d="m 102.531,100.449 c -0.712,-0.681 -1.609,-1.1378 -2.578,-1.3141 -0.97,-0.1763 -1.97,-0.0643 -2.876,0.322 -0.496,0.2397 -0.938,0.5781 -1.298,0.9951 -0.36,0.417 -0.631,0.904 -0.796,1.429 -0.041,0.147 -0.52,1.969 0.606,3.141 0.53,0.551 1.521,1.069 2.204,0.716 0.168,-0.083 0.312,-0.208 0.418,-0.362 0.106,-0.154 0.171,-0.333 0.188,-0.52 -0.003,-0.309 -0.223,-0.373 -0.331,-0.771 -0.121,-0.449 -0.031,-1.074 0.276,-1.212 0.326,-0.147 0.896,0.258 1.157,0.716 0.485,0.853 0.056,2.174 -0.68,2.92 -1.192,1.21 -3.152,0.874 -3.966,0.735 -1.798,-0.369 -3.41,-1.357 -4.555,-2.792 -0.857,-0.907 -1.464,-2.02 -1.763,-3.232 -0.207,-1.172 -0.156,-2.3751 0.147,-3.5261 0.465,-2.2322 1.043,-2.563 2.057,-5.4361 0.768,-2.178 1.15,-3.2986 1.028,-4.8483 -0.036,-1.3345 -0.499,-2.6221 -1.322,-3.6731 -1.009,-1.1699 -2.429,-1.9065 -3.967,-2.0568 -0.956,-0.0583 -1.913,0.0959 -2.802,0.4516 -0.889,0.3556 -1.688,0.9038 -2.34,1.6052 l -1.837,-2.082 c 0,0 2.204,-0.8196 -0.991,-6.3292 l 0.606,-0.4683 c 0,-6.7241 -2.672,-13.1727 -7.426,-17.9273 -4.755,-4.7546 -11.203,-7.4258 -17.927,-7.4258 -6.724,0 -13.173,2.6712 -17.928,7.4258 -4.754,4.7546 -7.425,11.2032 -7.425,17.9273 L 25.841,143.68 h -0.884 c -0.526,0 -1.03,0.209 -1.402,0.581 -0.372,0.372 -0.581,0.877 -0.581,1.403 0,0.526 0.209,1.03 0.581,1.402 0.372,0.372 0.876,0.581 1.402,0.581 h 0.736 l -0.309,8.277 h -0.427 c -0.261,-0.001 -0.519,0.05 -0.76,0.149 -0.241,0.1 -0.46,0.246 -0.645,0.43 -0.184,0.184 -0.331,0.403 -0.431,0.644 -0.1,0.241 -0.151,0.499 -0.151,0.76 0,0.261 0.051,0.519 0.151,0.76 0.1,0.241 0.247,0.46 0.431,0.644 0.185,0.184 0.404,0.33 0.645,0.43 0.241,0.099 0.499,0.15 0.76,0.149 h 0.279 l -6.435,172.436 h -0.382 c -0.328,0 -0.654,0.064 -0.957,0.189 -0.304,0.125 -0.579,0.309 -0.812,0.541 -0.232,0.232 -0.417,0.508 -0.542,0.811 -0.126,0.303 -0.191,0.628 -0.191,0.957 0,0.328 0.065,0.653 0.191,0.957 0.125,0.303 0.31,0.578 0.542,0.81 0.233,0.232 0.508,0.416 0.812,0.542 0.303,0.125 0.629,0.189 0.957,0.188 h 27.548 c 0.328,10e-4 0.653,-0.063 0.957,-0.188 0.303,-0.126 0.579,-0.31 0.812,-0.542 0.232,-0.232 0.416,-0.507 0.542,-0.81 0.126,-0.304 0.191,-0.629 0.191,-0.957 0,-0.329 -0.065,-0.654 -0.191,-0.957 -0.126,-0.303 -0.31,-0.579 -0.542,-0.811 -0.233,-0.232 -0.509,-0.416 -0.812,-0.541 -0.304,-0.125 -0.629,-0.189 -0.957,-0.189 H 45.364 L 38.929,159.89 h 0.279 c 0.261,0.001 0.519,-0.05 0.761,-0.149 0.241,-0.1 0.46,-0.246 0.644,-0.43 0.185,-0.184 0.331,-0.403 0.431,-0.644 0.1,-0.241 0.152,-0.499 0.152,-0.76 0,-0.261 -0.052,-0.519 -0.152,-0.76 -0.1,-0.241 -0.246,-0.46 -0.431,-0.644 -0.184,-0.184 -0.403,-0.33 -0.644,-0.43 -0.242,-0.099 -0.5,-0.15 -0.761,-0.149 h -0.427 l -0.309,-8.277 h 0.736 c 0.526,0 1.031,-0.209 1.403,-0.581 0.372,-0.372 0.581,-0.876 0.581,-1.402 0,-0.526 -0.209,-1.031 -0.581,-1.403 -0.372,-0.372 -0.877,-0.581 -1.403,-0.581 H 38.324 L 35.756,74.8569 c -0.002,-2.3657 0.463,-4.7085 1.367,-6.8946 0.904,-2.186 2.23,-4.1725 3.903,-5.8458 1.672,-1.6734 3.657,-3.0008 5.843,-3.9065 2.185,-0.9056 4.528,-1.3718 6.894,-1.3718 2.365,0 4.708,0.4662 6.893,1.3718 2.186,0.9057 4.171,2.2331 5.844,3.9065 1.672,1.6733 2.998,3.6598 3.902,5.8458 0.904,2.1861 1.369,4.5289 1.368,6.8946 l 0.606,0.4684 c -3.196,5.5095 -0.992,6.3291 -0.992,6.3291 l -1.837,2.0821 c -0.651,-0.7014 -1.451,-1.2497 -2.34,-1.6053 -0.889,-0.3556 -1.846,-0.5099 -2.802,-0.4515 -1.537,0.1502 -2.958,0.8868 -3.967,2.0568 -0.823,1.051 -1.286,2.3386 -1.322,3.673 -0.122,1.5497 0.26,2.6703 1.029,4.8483 1.014,2.8731 1.591,3.2039 2.056,5.4362 0.304,1.1509 0.354,2.354 0.147,3.526 -0.299,1.212 -0.906,2.325 -1.763,3.232 -1.145,1.435 -2.756,2.423 -4.554,2.792 -0.815,0.139 -2.775,0.475 -3.967,-0.735 -0.736,-0.746 -1.165,-2.067 -0.68,-2.92 0.261,-0.458 0.831,-0.863 1.157,-0.716 0.307,0.138 0.397,0.763 0.276,1.212 -0.107,0.398 -0.328,0.462 -0.331,0.771 0.018,0.187 0.083,0.366 0.189,0.52 0.106,0.154 0.25,0.279 0.417,0.362 0.683,0.353 1.674,-0.165 2.204,-0.716 1.126,-1.172 0.647,-2.994 0.606,-3.141 -0.165,-0.525 -0.436,-1.012 -0.796,-1.429 -0.36,-0.417 -0.801,-0.7553 -1.297,-0.995 -0.907,-0.3864 -1.907,-0.4983 -2.876,-0.322 -0.97,0.1763 -1.866,0.633 -2.579,1.314 -0.983,0.942 -1.574,2.221 -1.653,3.581 -0.11,3.103 2.833,5.21 3.637,5.785 2.832,2.028 5.962,2.115 8.264,2.149 6.163,0.091 11.632,0.127 16.841,0.113 5.209,0.014 10.678,-0.022 16.84,-0.113 2.303,-0.034 5.432,-0.121 8.265,-2.149 0.803,-0.575 3.746,-2.682 3.636,-5.785 -0.079,-1.36 -0.669,-2.639 -1.653,-3.581 z"
     fill="#6b3832"
     id="path158" />
  <path
     d="m 90.634,111.376 -5.099,26.856 -10.406,3.873 -10.407,-3.873 -5.099,-26.856 z m -24.838,25.95 8.721,3.245 V 112.6 H 61.101 Z M 89.157,112.6 H 75.742 v 27.971 l 8.719,-3.245 z"
     fill="#6b3832"
     id="path160" />
  <path
     d="m 75.119,145.663 c -1.431,0 -2.59,-1.159 -2.59,-2.589 0,-1.431 1.159,-2.59 2.59,-2.59 1.43,0 2.589,1.159 2.589,2.59 0,1.43 -1.159,2.589 -2.589,2.589 z"
     fill="#6b3832"
     id="path162" />
  <path
     d="m 55.461,336.948 -0.594,-0.357 c 0.168,-0.277 16.711,-27.847 19.286,-34.715 l 0.649,0.243 c -2.598,6.928 -18.659,33.693 -19.341,34.829 z"
     fill="#8b9d36"
     id="path164" />
  <path
     d="m 68.871,287.419 c 0.7,1.732 1.235,3.527 1.599,5.36 0.371,1.795 0.644,3.609 0.817,5.434 0.177,1.824 0.253,3.657 0.225,5.49 -0.01,1.869 -0.199,3.733 -0.564,5.566 -0.704,-1.732 -1.241,-3.526 -1.603,-5.36 -0.372,-1.795 -0.644,-3.609 -0.814,-5.434 -0.174,-1.825 -0.248,-3.658 -0.221,-5.491 0.011,-1.869 0.199,-3.732 0.561,-5.565 z"
     fill="#8b9d36"
     id="path166" />
  <path
     d="m 62.765,295.767 c 0.853,1.614 1.547,3.306 2.075,5.054 0.532,1.708 0.967,3.444 1.304,5.201 0.341,1.756 0.581,3.531 0.719,5.314 0.158,1.819 0.138,3.649 -0.059,5.463 -0.856,-1.612 -1.552,-3.304 -2.079,-5.052 -0.532,-1.708 -0.966,-3.445 -1.3,-5.203 -0.338,-1.756 -0.577,-3.531 -0.716,-5.314 -0.157,-1.819 -0.138,-3.648 0.056,-5.463 z"
     fill="#8b9d36"
     id="path168" />
  <path
     d="m 59.401,305.486 c 0.751,1.5 1.343,3.074 1.766,4.697 0.428,1.581 0.758,3.187 0.988,4.808 0.236,1.621 0.369,3.255 0.4,4.893 0.049,1.677 -0.08,3.354 -0.385,5.004 -0.754,-1.499 -1.348,-3.073 -1.77,-4.697 -0.428,-1.58 -0.757,-3.187 -0.985,-4.808 -0.232,-1.622 -0.364,-3.256 -0.396,-4.893 -0.048,-1.677 0.08,-3.354 0.382,-5.004 z"
     fill="#8b9d36"
     id="path170" />
  <path
     d="m 55.164,315.187 c 0.754,1.257 1.355,2.598 1.791,3.997 0.436,1.352 0.776,2.732 1.017,4.131 0.245,1.399 0.389,2.813 0.431,4.233 0.059,1.464 -0.058,2.93 -0.351,4.367 -0.757,-1.255 -1.359,-2.597 -1.794,-3.997 -0.437,-1.351 -0.776,-2.732 -1.014,-4.132 -0.242,-1.399 -0.385,-2.813 -0.427,-4.233 -0.058,-1.464 0.058,-2.929 0.347,-4.366 z"
     fill="#8b9d36"
     id="path172" />
  <path
     d="m 51.426,321.25 c 0.769,1.09 1.404,2.269 1.891,3.51 0.477,1.186 0.874,2.402 1.189,3.641 0.311,1.23 0.551,2.477 0.718,3.734 0.077,0.634 0.149,1.264 0.196,1.906 0.025,0.655 0.094,1.307 0.209,1.952 -0.16,-0.085 -0.314,-0.182 -0.46,-0.29 l -0.373,-0.374 c -0.238,-0.255 -0.456,-0.528 -0.653,-0.816 -0.378,-0.556 -0.714,-1.139 -1.003,-1.747 -0.562,-1.18 -1.003,-2.414 -1.317,-3.682 -0.32,-1.258 -0.528,-2.541 -0.62,-3.835 -0.112,-1.337 -0.036,-2.683 0.223,-3.999 z"
     fill="#8b9d36"
     id="path174" />
  <path
     d="m 72.501,306.283 c 1.256,-1.377 2.67,-2.603 4.212,-3.652 1.485,-1.032 3.04,-1.959 4.655,-2.775 1.611,-0.822 3.279,-1.528 4.99,-2.113 1.758,-0.623 3.584,-1.035 5.439,-1.228 -1.253,1.381 -2.666,2.608 -4.209,3.656 -1.485,1.033 -3.042,1.959 -4.658,2.772 -1.613,0.817 -3.281,1.522 -4.993,2.108 -1.757,0.622 -3.582,1.036 -5.436,1.232 z"
     fill="#8b9d36"
     id="path176" />
  <path
     d="m 68.364,314.01 c 1.607,-1.314 3.348,-2.453 5.195,-3.4 1.793,-0.941 3.643,-1.77 5.54,-2.481 1.894,-0.717 3.831,-1.313 5.801,-1.786 2.013,-0.504 4.075,-0.792 6.149,-0.857 -1.604,1.317 -3.345,2.459 -5.192,3.405 -1.793,0.941 -3.644,1.769 -5.542,2.477 -1.895,0.713 -3.833,1.308 -5.802,1.781 -2.014,0.503 -4.075,0.792 -6.149,0.861 z"
     fill="#8b9d36"
     id="path178" />
  <path
     d="m 63.495,322.599 c 1.43,-1.27 3.001,-2.371 4.682,-3.283 1.624,-0.902 3.308,-1.694 5.04,-2.368 1.729,-0.68 3.503,-1.24 5.309,-1.676 1.855,-0.469 3.758,-0.721 5.67,-0.752 -1.428,1.273 -2.998,2.376 -4.68,3.287 -1.625,0.903 -3.309,1.693 -5.042,2.364 -1.73,0.676 -3.505,1.235 -5.311,1.671 -1.854,0.468 -3.756,0.722 -5.668,0.757 z"
     fill="#8b9d36"
     id="path180" />
  <path
     d="m 59.646,329.209 c 1.246,-1.079 2.629,-1.99 4.113,-2.708 1.419,-0.706 2.892,-1.299 4.406,-1.772 1.511,-0.478 3.059,-0.833 4.628,-1.062 1.629,-0.257 3.285,-0.296 4.924,-0.116 -1.244,1.083 -2.626,1.995 -4.111,2.713 -1.419,0.707 -2.893,1.298 -4.408,1.767 -1.512,0.475 -3.06,0.828 -4.629,1.058 -1.628,0.256 -3.284,0.296 -4.923,0.12 z"
     fill="#8b9d36"
     id="path182" />
  <path
     d="m 56.608,335.141 c 1.37,-1.315 2.887,-2.467 4.521,-3.435 1.577,-0.955 3.218,-1.801 4.91,-2.533 1.69,-0.737 3.43,-1.355 5.206,-1.851 1.824,-0.531 3.703,-0.847 5.6,-0.942 -1.368,1.318 -2.884,2.472 -4.519,3.439 -1.577,0.956 -3.218,1.801 -4.912,2.529 -1.692,0.734 -3.432,1.351 -5.208,1.847 -1.823,0.53 -3.702,0.847 -5.598,0.946 z"
     fill="#8b9d36"
     id="path184" />
  <path
     d="m 73.845,302.994 c -0.252,-1.846 -0.207,-3.72 0.135,-5.551 0.301,-1.727 0.775,-3.419 1.415,-5.051 0.633,-1.634 1.432,-3.199 2.384,-4.671 0.992,-1.578 2.233,-2.985 3.676,-4.165 0.258,1.846 0.215,3.722 -0.128,5.554 -0.301,1.727 -0.777,3.418 -1.421,5.048 -0.638,1.633 -1.439,3.197 -2.39,4.669 -0.993,1.577 -2.232,2.984 -3.671,4.167 z"
     fill="#8b9d36"
     id="path186" />
  <path
     d="m 53.677,337.321 -0.692,-0.011 c 0.031,-1.891 0.852,-46.487 9.773,-60.611 l 0.585,0.37 c -8.818,13.961 -9.659,59.791 -9.666,60.252 z"
     fill="#50661a"
     id="path188" />
  <path
     d="m 60.184,283.069 c 0.274,-2.069 0.344,-4.16 0.207,-6.242 -0.115,-2.03 -0.34,-4.051 -0.674,-6.056 -0.323,-1.997 -0.763,-3.974 -1.28,-5.935 -0.517,-1.973 -1.169,-3.872 -1.866,-5.895 -0.197,0.503 -0.346,1.022 -0.447,1.552 -0.111,0.521 -0.193,1.047 -0.244,1.577 -0.108,1.04 -0.155,2.086 -0.14,3.131 0.03,2.057 0.219,4.108 0.563,6.136 0.336,2.021 0.81,4.017 1.42,5.974 0.603,2.005 1.428,3.937 2.461,5.758 z"
     fill="#50661a"
     id="path190" />
  <path
     d="m 71.149,254.829 c -1.533,1.479 -2.848,3.168 -3.905,5.018 -1.029,1.754 -1.905,3.594 -2.617,5.499 -0.719,1.903 -1.268,3.865 -1.643,5.864 -0.418,2.09 -0.534,4.228 -0.343,6.351 1.538,-1.476 2.855,-3.165 3.912,-5.015 1.03,-1.754 1.904,-3.595 2.611,-5.502 0.713,-1.905 1.261,-3.867 1.636,-5.866 0.418,-2.089 0.535,-4.227 0.349,-6.349 z"
     fill="#50661a"
     id="path192" />
  <path
     d="m 78.501,266.195 c -1.82,1.462 -3.538,3.045 -5.143,4.738 -1.589,1.648 -3.106,3.332 -4.589,5.026 l -4.409,5.059 c -0.74,0.829 -1.487,1.645 -2.277,2.418 -0.78,0.819 -1.688,1.506 -2.69,2.032 0.611,0.107 1.237,0.091 1.841,-0.046 0.61,-0.122 1.205,-0.309 1.774,-0.558 1.115,-0.49 2.174,-1.097 3.16,-1.812 1.913,-1.4 3.659,-3.016 5.204,-4.814 1.537,-1.762 2.92,-3.652 4.135,-5.65 1.251,-2.003 2.256,-4.149 2.994,-6.393 z"
     fill="#50661a"
     id="path194" />
  <path
     d="m 78.501,277.561 c -2.243,1.119 -4.382,2.435 -6.393,3.931 -1.99,1.456 -3.904,3.011 -5.736,4.662 -1.835,1.646 -3.583,3.386 -5.238,5.214 -1.699,1.843 -3.23,3.835 -4.575,5.95 2.245,-1.116 4.386,-2.43 6.396,-3.928 1.991,-1.454 3.904,-3.012 5.733,-4.665 1.832,-1.649 3.58,-3.39 5.235,-5.217 1.698,-1.844 3.23,-3.834 4.578,-5.947 z"
     fill="#50661a"
     id="path196" />
  <path
     d="m 77.753,286.478 c -2.259,1.052 -4.421,2.301 -6.459,3.735 -2.015,1.393 -3.958,2.889 -5.821,4.482 -1.866,1.588 -3.648,3.273 -5.338,5.047 -1.735,1.789 -3.306,3.73 -4.694,5.8 2.262,-1.047 4.425,-2.296 6.462,-3.731 2.016,-1.393 3.958,-2.89 5.818,-4.485 1.864,-1.591 3.644,-3.277 5.335,-5.051 1.734,-1.789 3.306,-3.729 4.697,-5.797 z"
     fill="#50661a"
     id="path198" />
  <path
     d="m 77.255,296.01 c -2.249,0.846 -4.414,1.896 -6.47,3.139 -2.029,1.202 -3.992,2.513 -5.882,3.925 -1.892,1.407 -3.707,2.916 -5.437,4.521 -1.776,1.617 -3.398,3.397 -4.844,5.315 2.25,-0.842 4.417,-1.891 6.472,-3.135 2.03,-1.202 3.993,-2.514 5.88,-3.929 1.89,-1.41 3.704,-2.921 5.434,-4.524 1.775,-1.618 3.398,-3.396 4.847,-5.312 z"
     fill="#50661a"
     id="path200" />
  <path
     d="m 77.753,302.926 c -2.352,0.946 -4.617,2.096 -6.769,3.436 -2.128,1.302 -4.189,2.71 -6.175,4.219 -1.99,1.505 -3.901,3.111 -5.726,4.811 -1.87,1.712 -3.585,3.587 -5.125,5.601 2.353,-0.943 4.619,-2.091 6.771,-3.433 2.128,-1.301 4.189,-2.711 6.172,-4.223 1.988,-1.508 3.898,-3.114 5.723,-4.815 1.869,-1.712 3.586,-3.585 5.129,-5.596 z"
     fill="#50661a"
     id="path202" />
  <path
     d="m 79.497,309.405 c -2.449,1.139 -4.813,2.451 -7.075,3.927 -2.246,1.438 -4.42,2.958 -6.539,4.545 -2.125,1.577 -4.191,3.222 -6.221,4.921 -2.05,1.685 -3.987,3.439 -6.109,5.177 1.362,-0.224 2.693,-0.612 3.962,-1.156 1.256,-0.525 2.484,-1.117 3.679,-1.771 2.349,-1.314 4.607,-2.784 6.76,-4.4 2.146,-1.608 4.196,-3.338 6.142,-5.183 1.983,-1.85 3.791,-3.878 5.401,-6.06 z"
     fill="#50661a"
     id="path204" />
  <path
     d="m 81.616,316.133 c -2.647,1.029 -5.215,2.249 -7.683,3.651 -2.454,1.367 -4.835,2.835 -7.162,4.38 -2.327,1.544 -4.597,3.168 -6.812,4.871 -1.107,0.855 -2.203,1.724 -3.289,2.609 -1.05,0.931 -2.166,1.785 -3.339,2.557 0.736,0 1.466,-0.125 2.159,-0.371 0.695,-0.206 1.371,-0.457 2.039,-0.718 1.332,-0.528 2.619,-1.133 3.881,-1.774 2.506,-1.291 4.936,-2.724 7.278,-4.293 2.341,-1.558 4.602,-3.234 6.774,-5.021 2.21,-1.79 4.269,-3.76 6.154,-5.891 z"
     fill="#50661a"
     id="path206" />
  <path
     d="m 58.036,290.985 c -0.112,-2.248 -0.445,-4.48 -0.993,-6.663 -0.517,-2.144 -1.157,-4.256 -1.915,-6.326 -0.753,-2.073 -1.625,-4.099 -2.613,-6.071 -0.99,-2.022 -2.177,-3.942 -3.545,-5.73 0.109,2.249 0.44,4.481 0.989,6.665 0.517,2.143 1.158,4.255 1.92,6.324 0.756,2.071 1.63,4.098 2.617,6.069 0.99,2.022 2.176,3.942 3.54,5.732 z"
     fill="#50661a"
     id="path208" />
  <path
     d="m 56.559,298.766 c -0.424,-2.237 -1.065,-4.426 -1.912,-6.539 -0.812,-2.078 -1.741,-4.108 -2.781,-6.081 -1.036,-1.976 -2.184,-3.89 -3.439,-5.734 -1.263,-1.895 -2.709,-3.66 -4.316,-5.273 0.42,2.238 1.06,4.429 1.908,6.541 0.811,2.078 1.741,4.108 2.785,6.079 1.039,1.974 2.189,3.888 3.443,5.732 1.264,1.894 2.708,3.66 4.312,5.275 z"
     fill="#50661a"
     id="path210" />
  <path
     d="m 55.441,306.29 c -0.728,-2.27 -1.665,-4.468 -2.799,-6.565 -1.096,-2.068 -2.302,-4.075 -3.613,-6.014 -1.306,-1.942 -2.718,-3.811 -4.229,-5.599 -1.522,-1.835 -3.213,-3.523 -5.05,-5.043 0.724,2.272 1.66,4.471 2.795,6.567 1.095,2.069 2.303,4.076 3.617,6.012 1.31,1.94 2.723,3.808 4.233,5.596 1.523,1.834 3.212,3.523 5.046,5.046 z"
     fill="#50661a"
     id="path212" />
  <path
     d="m 54.622,314.591 c -1.141,-2.454 -2.482,-4.81 -4.007,-7.046 -1.49,-2.223 -3.079,-4.364 -4.768,-6.423 -1.684,-2.064 -3.465,-4.049 -5.344,-5.954 -1.886,-1.941 -3.93,-3.722 -6.111,-5.326 1.137,2.457 2.477,4.814 4.004,7.049 1.49,2.223 3.08,4.363 4.771,6.421 1.688,2.061 3.471,4.044 5.348,5.95 1.887,1.94 3.93,3.722 6.107,5.329 z"
     fill="#50661a"
     id="path214" />
  <path
     d="m 53.958,323.199 c -1.4,-2.333 -2.988,-4.548 -4.746,-6.623 -1.722,-2.067 -3.535,-4.042 -5.438,-5.925 -1.899,-1.889 -3.886,-3.688 -5.962,-5.398 -2.087,-1.746 -4.314,-3.316 -6.66,-4.695 1.396,2.335 2.982,4.552 4.743,6.626 1.721,2.067 3.535,4.041 5.441,5.922 1.902,1.885 3.89,3.684 5.965,5.395 2.088,1.744 4.314,3.315 6.657,4.698 z"
     fill="#50661a"
     id="path216" />
  <path
     d="m 53.553,328.718 c -1.553,-2.012 -3.278,-3.886 -5.156,-5.598 -1.834,-1.701 -3.753,-3.308 -5.749,-4.816 -1.992,-1.512 -4.06,-2.921 -6.196,-4.222 -2.16,-1.341 -4.434,-2.489 -6.795,-3.431 1.55,2.015 3.274,3.89 5.153,5.602 1.834,1.701 3.754,3.307 5.751,4.811 1.995,1.51 4.064,2.918 6.2,4.219 2.16,1.34 4.433,2.489 6.792,3.435 z"
     fill="#50661a"
     id="path218" />
  <path
     d="m 53.331,333.328 c -1.863,-1.836 -3.878,-3.512 -6.024,-5.008 -2.106,-1.498 -4.277,-2.883 -6.511,-4.156 -2.231,-1.28 -4.525,-2.45 -6.881,-3.511 -2.377,-1.093 -4.844,-1.98 -7.373,-2.651 1.86,1.84 3.875,3.517 6.022,5.013 2.106,1.497 4.277,2.881 6.513,4.152 2.234,1.275 4.528,2.444 6.883,3.507 2.378,1.091 4.844,1.979 7.371,2.654 z"
     fill="#50661a"
     id="path220" />
  <path
     d="m 53.503,336.319 c -2.235,-1.543 -4.592,-2.9 -7.047,-4.06 -2.418,-1.167 -4.884,-2.207 -7.389,-3.138 -2.506,-0.932 -5.055,-1.746 -7.648,-2.442 -2.618,-0.723 -5.291,-1.229 -7.992,-1.512 2.233,1.546 4.589,2.906 7.046,4.064 2.418,1.167 4.882,2.212 7.391,3.134 2.507,0.927 5.054,1.746 7.649,2.437 2.618,0.722 5.29,1.229 7.99,1.517 z"
     fill="#50661a"
     id="path222" />
  <path
     d="M 52.292,336.08 C 51.61,334.944 35.55,308.18 32.952,301.251 l 0.648,-0.243 c 2.575,6.869 19.119,34.438 19.286,34.716 z"
     fill="#5e7c24"
     id="path224" />
  <path
     d="m 38.848,286.661 c -0.7,1.732 -1.236,3.527 -1.599,5.36 -0.372,1.795 -0.645,3.609 -0.818,5.434 -0.177,1.824 -0.252,3.657 -0.225,5.49 0.011,1.869 0.2,3.733 0.565,5.566 0.703,-1.732 1.24,-3.526 1.603,-5.36 0.372,-1.795 0.643,-3.609 0.813,-5.434 0.174,-1.825 0.248,-3.658 0.221,-5.491 -0.011,-1.869 -0.199,-3.732 -0.56,-5.565 z"
     fill="#5e7c24"
     id="path226" />
  <path
     d="m 44.953,295.009 c -0.852,1.614 -1.547,3.306 -2.075,5.054 -0.531,1.708 -0.967,3.444 -1.303,5.201 -0.341,1.756 -0.581,3.53 -0.72,5.314 -0.158,1.819 -0.138,3.648 0.06,5.463 0.855,-1.612 1.552,-3.305 2.078,-5.053 0.533,-1.707 0.967,-3.444 1.3,-5.202 0.338,-1.757 0.577,-3.531 0.716,-5.314 0.157,-1.819 0.139,-3.648 -0.056,-5.463 z"
     fill="#5e7c24"
     id="path228" />
  <path
     d="m 48.318,304.728 c -0.751,1.5 -1.343,3.074 -1.767,4.697 -0.427,1.581 -0.757,3.187 -0.988,4.808 -0.235,1.621 -0.369,3.255 -0.4,4.893 -0.049,1.677 0.081,3.354 0.385,5.004 0.754,-1.499 1.348,-3.073 1.77,-4.697 0.429,-1.581 0.758,-3.187 0.985,-4.809 0.232,-1.621 0.364,-3.255 0.396,-4.892 0.048,-1.677 -0.08,-3.354 -0.381,-5.004 z"
     fill="#5e7c24"
     id="path230" />
  <path
     d="m 52.554,314.429 c -0.754,1.256 -1.355,2.598 -1.791,3.997 -0.436,1.351 -0.776,2.732 -1.017,4.131 -0.245,1.399 -0.389,2.813 -0.431,4.232 -0.059,1.465 0.059,2.931 0.351,4.368 0.757,-1.256 1.36,-2.598 1.795,-3.997 0.436,-1.351 0.775,-2.732 1.013,-4.132 0.242,-1.399 0.385,-2.813 0.427,-4.233 0.059,-1.464 -0.058,-2.93 -0.347,-4.366 z"
     fill="#5e7c24"
     id="path232" />
  <path
     d="m 56.292,320.492 c -0.769,1.09 -1.404,2.268 -1.891,3.51 -0.477,1.186 -0.874,2.402 -1.188,3.641 -0.312,1.23 -0.552,2.476 -0.718,3.734 -0.078,0.634 -0.149,1.264 -0.197,1.906 -0.024,0.655 -0.094,1.307 -0.209,1.952 0.16,-0.086 0.314,-0.182 0.46,-0.29 l 0.373,-0.374 c 0.238,-0.255 0.456,-0.528 0.653,-0.816 0.379,-0.556 0.714,-1.14 1.003,-1.747 0.562,-1.18 1.003,-2.414 1.317,-3.683 0.321,-1.257 0.528,-2.54 0.62,-3.834 0.112,-1.337 0.037,-2.683 -0.223,-3.999 z"
     fill="#5e7c24"
     id="path234" />
  <path
     d="m 35.217,305.525 c -1.256,-1.378 -2.669,-2.603 -4.211,-3.652 -1.486,-1.032 -3.041,-1.959 -4.655,-2.776 -1.612,-0.821 -3.28,-1.527 -4.991,-2.112 -1.758,-0.623 -3.584,-1.036 -5.439,-1.228 1.254,1.381 2.667,2.608 4.21,3.656 1.485,1.032 3.041,1.959 4.657,2.771 1.613,0.818 3.282,1.523 4.993,2.109 1.758,0.622 3.582,1.035 5.436,1.232 z"
     fill="#5e7c24"
     id="path236" />
  <path
     d="m 39.354,313.252 c -1.606,-1.314 -3.348,-2.454 -5.194,-3.4 -1.794,-0.941 -3.644,-1.77 -5.54,-2.482 -1.894,-0.716 -3.832,-1.313 -5.801,-1.785 -2.014,-0.505 -4.075,-0.792 -6.15,-0.857 1.604,1.317 3.345,2.459 5.192,3.405 1.794,0.941 3.644,1.769 5.542,2.476 1.895,0.714 3.834,1.308 5.803,1.781 2.013,0.504 4.074,0.793 6.148,0.862 z"
     fill="#5e7c24"
     id="path238" />
  <path
     d="m 44.224,321.841 c -1.431,-1.27 -3.002,-2.371 -4.683,-3.283 -1.624,-0.903 -3.308,-1.694 -5.039,-2.369 -1.73,-0.679 -3.504,-1.239 -5.31,-1.675 -1.855,-0.469 -3.757,-0.722 -5.67,-0.752 1.428,1.272 2.999,2.376 4.681,3.287 1.624,0.903 3.308,1.693 5.041,2.364 1.731,0.676 3.505,1.235 5.311,1.671 1.855,0.468 3.757,0.722 5.669,0.757 z"
     fill="#5e7c24"
     id="path240" />
  <path
     d="m 48.072,328.451 c -1.246,-1.079 -2.628,-1.99 -4.112,-2.708 -1.42,-0.707 -2.893,-1.299 -4.406,-1.772 -1.512,-0.478 -3.06,-0.833 -4.628,-1.062 -1.629,-0.257 -3.285,-0.296 -4.925,-0.116 1.244,1.083 2.627,1.995 4.111,2.713 1.42,0.707 2.894,1.298 4.408,1.767 1.513,0.474 3.061,0.828 4.629,1.058 1.629,0.256 3.284,0.296 4.923,0.12 z"
     fill="#5e7c24"
     id="path242" />
  <path
     d="m 51.11,334.383 c -1.37,-1.315 -2.887,-2.467 -4.52,-3.435 -1.578,-0.955 -3.218,-1.801 -4.911,-2.533 -1.69,-0.737 -3.43,-1.356 -5.206,-1.852 -1.823,-0.53 -3.703,-0.846 -5.599,-0.941 1.367,1.318 2.883,2.472 4.518,3.439 1.577,0.956 3.218,1.801 4.913,2.529 1.691,0.734 3.431,1.351 5.207,1.847 1.824,0.53 3.702,0.847 5.598,0.946 z"
     fill="#5e7c24"
     id="path244" />
  <path
     d="m 33.873,302.236 c 0.253,-1.846 0.207,-3.72 -0.135,-5.552 -0.301,-1.726 -0.775,-3.418 -1.414,-5.05 -0.634,-1.634 -1.433,-3.199 -2.384,-4.671 -0.992,-1.578 -2.234,-2.985 -3.677,-4.165 -0.258,1.846 -0.215,3.722 0.129,5.554 0.3,1.727 0.776,3.418 1.42,5.048 0.639,1.632 1.44,3.196 2.391,4.669 0.992,1.576 2.231,2.983 3.67,4.167 z"
     fill="#5e7c24"
     id="path246" />
  <path
     d="m 331.8121,336.948 0.5938,-0.357 c -0.1673,-0.277 -16.7107,-27.847 -19.2858,-34.715 l -0.6485,0.243 c 2.598,6.928 18.6586,33.693 19.3405,34.829 z"
     fill="#8b9d36"
     id="path248" />
  <path
     d="m 318.4026,287.419 c -0.7002,1.732 -1.2356,3.527 -1.5991,5.36 -0.3716,1.795 -0.6445,3.609 -0.8173,5.434 -0.1774,1.824 -0.2526,3.657 -0.2251,5.49 0.0104,1.869 0.1994,3.733 0.5645,5.566 0.7036,-1.732 1.2403,-3.526 1.6028,-5.36 0.3722,-1.795 0.6438,-3.609 0.8135,-5.434 0.1742,-1.825 0.2481,-3.658 0.2214,-5.491 -0.0115,-1.869 -0.1992,-3.732 -0.5607,-5.565 z"
     fill="#8b9d36"
     id="path250" />
  <path
     d="m 324.5082,295.767 c -0.8526,1.614 -1.5475,3.306 -2.075,5.054 -0.5318,1.708 -0.9671,3.444 -1.3036,5.201 -0.341,1.756 -0.5813,3.531 -0.7196,5.314 -0.158,1.819 -0.1381,3.649 0.0595,5.463 0.8558,-1.612 1.552,-3.304 2.0787,-5.052 0.5321,-1.708 0.9662,-3.445 1.2999,-5.203 0.3381,-1.756 0.5771,-3.531 0.7159,-5.314 0.157,-1.819 0.1384,-3.648 -0.0558,-5.463 z"
     fill="#8b9d36"
     id="path252" />
  <path
     d="m 327.8724,305.486 c -0.7509,1.5 -1.3429,3.074 -1.7664,4.697 -0.4276,1.581 -0.7577,3.187 -0.9883,4.808 -0.2351,1.621 -0.3686,3.255 -0.3999,4.893 -0.0486,1.677 0.0806,3.354 0.3853,5.004 0.7542,-1.499 1.3476,-3.073 1.7702,-4.697 0.4282,-1.58 0.757,-3.187 0.9846,-4.808 0.2321,-1.622 0.3644,-3.256 0.3961,-4.893 0.0477,-1.677 -0.0802,-3.354 -0.3816,-5.004 z"
     fill="#8b9d36"
     id="path254" />
  <path
     d="m 332.1089,315.187 c -0.7538,1.257 -1.3551,2.598 -1.791,3.997 -0.4362,1.352 -0.7759,2.732 -1.0167,4.131 -0.2454,1.399 -0.3895,2.813 -0.431,4.233 -0.0593,1.464 0.0584,2.93 0.3505,4.367 0.7571,-1.255 1.3597,-2.597 1.7948,-3.997 0.4367,-1.351 0.7754,-2.732 1.0133,-4.132 0.2422,-1.399 0.385,-2.813 0.4273,-4.233 0.0583,-1.464 -0.0582,-2.929 -0.3472,-4.366 z"
     fill="#8b9d36"
     id="path256" />
  <path
     d="m 335.8469,321.25 c -0.769,1.09 -1.4039,2.269 -1.8908,3.51 -0.4771,1.186 -0.8743,2.402 -1.1887,3.641 -0.3116,1.23 -0.5513,2.477 -0.7179,3.734 -0.0778,0.634 -0.1491,1.264 -0.1964,1.906 -0.0245,0.655 -0.0943,1.307 -0.2089,1.952 0.1599,-0.085 0.3135,-0.182 0.4597,-0.29 l 0.3731,-0.374 c 0.2379,-0.255 0.4561,-0.528 0.6527,-0.816 0.379,-0.556 0.7145,-1.139 1.0036,-1.747 0.5615,-1.18 1.0027,-2.414 1.3168,-3.682 0.3203,-1.258 0.5278,-2.541 0.6199,-3.835 0.1118,-1.337 0.0367,-2.683 -0.2231,-3.999 z"
     fill="#8b9d36"
     id="path258" />
  <path
     d="m 314.7721,306.283 c -1.2562,-1.377 -2.6697,-2.603 -4.2115,-3.652 -1.4855,-1.032 -3.0409,-1.959 -4.655,-2.775 -1.6117,-0.822 -3.2795,-1.528 -4.9909,-2.113 -1.7579,-0.623 -3.5835,-1.035 -5.4385,-1.228 1.2534,1.381 2.6664,2.608 4.2091,3.656 1.4852,1.033 3.0415,1.959 4.6574,2.772 1.6134,0.817 3.2818,1.522 4.9929,2.108 1.7578,0.622 3.5824,1.036 5.4365,1.232 z"
     fill="#8b9d36"
     id="path260" />
  <path
     d="m 318.9089,314.01 c -1.6064,-1.314 -3.3476,-2.453 -5.1944,-3.4 -1.7935,-0.941 -3.6436,-1.77 -5.5399,-2.481 -1.8941,-0.717 -3.8317,-1.313 -5.8011,-1.786 -2.0133,-0.504 -4.075,-0.792 -6.1496,-0.857 1.6042,1.317 3.3449,2.459 5.1924,3.405 1.7931,0.941 3.644,1.769 5.5415,2.477 1.8956,0.713 3.8336,1.308 5.8029,1.781 2.0132,0.503 4.0741,0.792 6.1482,0.861 z"
     fill="#8b9d36"
     id="path262" />
  <path
     d="m 323.7785,322.599 c -1.4303,-1.27 -3.0013,-2.371 -4.6823,-3.283 -1.6245,-0.902 -3.3083,-1.694 -5.0397,-2.368 -1.7293,-0.68 -3.5034,-1.24 -5.3096,-1.676 -1.8546,-0.469 -3.7573,-0.721 -5.67,-0.752 1.428,1.273 2.9987,2.376 4.6806,3.287 1.6242,0.903 3.3086,1.693 5.0413,2.364 1.7307,0.676 3.5053,1.235 5.3114,1.671 1.8544,0.468 3.7562,0.722 5.6683,0.757 z"
     fill="#8b9d36"
     id="path264" />
  <path
     d="m 327.6271,329.209 c -1.246,-1.079 -2.6287,-1.99 -4.1125,-2.708 -1.4195,-0.706 -2.8927,-1.299 -4.4059,-1.772 -1.5116,-0.478 -3.0594,-0.833 -4.6282,-1.062 -1.6291,-0.257 -3.2851,-0.296 -4.9244,-0.116 1.2439,1.083 2.6264,1.995 4.1111,2.713 1.4193,0.707 2.8932,1.298 4.4076,1.767 1.5127,0.475 3.0606,0.828 4.6293,1.058 1.6286,0.256 3.2838,0.296 4.923,0.12 z"
     fill="#8b9d36"
     id="path266" />
  <path
     d="m 330.665,335.141 c -1.3698,-1.315 -2.8866,-2.467 -4.5204,-3.435 -1.5774,-0.955 -3.218,-1.801 -4.9105,-2.533 -1.6904,-0.737 -3.4299,-1.355 -5.206,-1.851 -1.8236,-0.531 -3.7028,-0.847 -5.5997,-0.942 1.3673,1.318 2.8837,2.472 4.5185,3.439 1.5769,0.956 3.2184,1.801 4.9125,2.529 1.6918,0.734 3.4317,1.351 5.2076,1.847 1.8234,0.53 3.7018,0.847 5.598,0.946 z"
     fill="#8b9d36"
     id="path268" />
  <path
     d="m 313.4279,302.994 c 0.2528,-1.846 0.2072,-3.72 -0.1349,-5.551 -0.3011,-1.727 -0.775,-3.419 -1.4145,-5.051 -0.6335,-1.634 -1.4323,-3.199 -2.384,-4.671 -0.9918,-1.578 -2.2335,-2.985 -3.6764,-4.165 -0.2584,1.846 -0.215,3.722 0.1284,5.554 0.3006,1.727 0.7766,3.418 1.4207,5.048 0.6384,1.633 1.4392,3.197 2.3903,4.669 0.9923,1.577 2.2316,2.984 3.6704,4.167 z"
     fill="#8b9d36"
     id="path270" />
  <path
     d="m 333.5965,337.321 0.6915,-0.011 c -0.0303,-1.891 -0.8515,-46.487 -9.7725,-60.611 l -0.5849,0.37 c 8.8174,13.961 9.6584,59.791 9.6659,60.252 z"
     fill="#50661a"
     id="path272" />
  <path
     d="m 327.0892,283.069 c -0.2743,-2.069 -0.3438,-4.16 -0.2075,-6.242 0.1151,-2.03 0.3403,-4.051 0.6747,-6.056 0.3231,-1.997 0.7628,-3.974 1.28,-5.935 0.5164,-1.973 1.1688,-3.872 1.8658,-5.895 0.1969,0.503 0.3464,1.022 0.4465,1.552 0.1116,0.521 0.1931,1.047 0.244,1.577 0.1081,1.04 0.155,2.086 0.1406,3.131 -0.0306,2.057 -0.2189,4.108 -0.5634,6.136 -0.3354,2.021 -0.8097,4.017 -1.4197,5.974 -0.6031,2.005 -1.4286,3.937 -2.461,5.758 z"
     fill="#50661a"
     id="path274" />
  <path
     d="m 316.1241,254.829 c 1.5333,1.479 2.8481,3.168 3.9049,5.018 1.0294,1.754 1.9051,3.594 2.6172,5.499 0.7186,1.903 1.2683,3.865 1.6427,5.864 0.4186,2.09 0.534,4.228 0.3427,6.351 -1.5377,-1.476 -2.8549,-3.165 -3.911,-5.015 -1.0303,-1.754 -1.9041,-3.595 -2.6111,-5.502 -0.7137,-1.905 -1.2613,-3.867 -1.6366,-5.866 -0.4173,-2.089 -0.5347,-4.227 -0.3488,-6.349 z"
     fill="#50661a"
     id="path276" />
  <path
     d="m 308.7725,266.195 c 1.8192,1.462 3.5373,3.045 5.1424,4.738 1.5893,1.648 3.1059,3.332 4.5897,5.026 l 4.4086,5.059 c 0.7396,0.829 1.4869,1.645 2.2765,2.418 0.7801,0.819 1.6888,1.506 2.6901,2.032 -0.6107,0.107 -1.2366,0.091 -1.8411,-0.046 -0.6096,-0.122 -1.2044,-0.309 -1.7738,-0.558 -1.1145,-0.49 -2.1736,-1.097 -3.1593,-1.812 -1.9131,-1.4 -3.6593,-3.016 -5.2042,-4.814 -1.5368,-1.762 -2.9203,-3.652 -4.1355,-5.65 -1.2509,-2.003 -2.2559,-4.149 -2.9934,-6.393 z"
     fill="#50661a"
     id="path278" />
  <path
     d="m 308.7725,277.561 c 2.2425,1.119 4.3817,2.435 6.3927,3.931 1.9899,1.456 3.9043,3.011 5.7355,4.662 1.8352,1.646 3.5837,3.386 5.2384,5.214 1.6992,1.843 3.2302,3.835 4.5749,5.95 -2.2449,-1.116 -4.3854,-2.43 -6.3961,-3.928 -1.9903,-1.454 -3.9038,-3.012 -5.7325,-4.665 -1.8326,-1.649 -3.5799,-3.39 -5.235,-5.217 -1.6981,-1.844 -3.23,-3.834 -4.5779,-5.947 z"
     fill="#50661a"
     id="path280" />
  <path
     d="m 309.5202,286.478 c 2.2592,1.052 4.4205,2.301 6.4586,3.735 2.0158,1.393 3.9587,2.889 5.8211,4.482 1.866,1.588 3.6478,3.273 5.338,5.047 1.7352,1.789 3.3061,3.73 4.6939,5.8 -2.2615,-1.047 -4.4241,-2.296 -6.462,-3.731 -2.016,-1.393 -3.9579,-2.89 -5.8177,-4.485 -1.8636,-1.591 -3.6443,-3.277 -5.335,-5.051 -1.7342,-1.789 -3.3061,-3.729 -4.6969,-5.797 z"
     fill="#50661a"
     id="path282" />
  <path
     d="m 310.0184,296.01 c 2.2482,0.846 4.4139,1.896 6.4694,3.139 2.0291,1.202 3.9926,2.513 5.8819,3.925 1.8929,1.407 3.7079,2.916 5.4371,4.521 1.7763,1.617 3.398,3.397 4.8439,5.315 -2.2499,-0.842 -4.4166,-1.891 -6.472,-3.135 -2.0295,-1.202 -3.9921,-2.514 -5.8792,-3.929 -1.8906,-1.41 -3.7045,-2.921 -5.4341,-4.524 -1.7753,-1.618 -3.3978,-3.396 -4.847,-5.312 z"
     fill="#50661a"
     id="path284" />
  <path
     d="m 309.5202,302.926 c 2.3521,0.946 4.617,2.096 6.7689,3.436 2.1279,1.302 4.1889,2.71 6.1749,4.219 1.9897,1.505 3.9008,3.111 5.7258,4.811 1.8703,1.712 3.5856,3.587 5.1258,5.601 -2.3539,-0.943 -4.6199,-2.091 -6.7716,-3.433 -2.1283,-1.301 -4.1884,-2.711 -6.1722,-4.223 -1.9874,-1.508 -3.8974,-3.114 -5.7227,-4.815 -1.8694,-1.712 -3.5855,-3.585 -5.1289,-5.596 z"
     fill="#50661a"
     id="path286" />
  <path
     d="m 307.7758,309.405 c 2.4489,1.139 4.8134,2.451 7.0754,3.927 2.2464,1.438 4.4197,2.958 6.5387,4.545 2.125,1.577 4.1912,3.222 6.2209,4.921 2.0507,1.685 3.9877,3.439 6.1094,5.177 -1.3624,-0.224 -2.6926,-0.612 -3.9617,-1.156 -1.2566,-0.525 -2.4846,-1.117 -3.6789,-1.771 -2.3491,-1.314 -4.6077,-2.784 -6.7607,-4.4 -2.1452,-1.608 -4.1959,-3.338 -6.1419,-5.183 -1.9827,-1.85 -3.7907,-3.878 -5.4012,-6.06 z"
     fill="#50661a"
     id="path288" />
  <path
     d="m 305.6575,316.133 c 2.6465,1.029 5.2143,2.249 7.6831,3.651 2.4536,1.367 4.8348,2.835 7.1613,4.38 2.3268,1.544 4.5975,3.168 6.8121,4.871 1.1069,0.855 2.2033,1.724 3.2891,2.609 1.0503,0.931 2.1661,1.785 3.3388,2.557 -0.7354,0 -1.4654,-0.125 -2.1585,-0.371 -0.6956,-0.206 -1.3709,-0.457 -2.0388,-0.718 -1.3321,-0.528 -2.6192,-1.133 -3.8817,-1.774 -2.5059,-1.291 -4.9358,-2.724 -7.2775,-4.293 -2.3414,-1.558 -4.6022,-3.234 -6.7739,-5.021 -2.2106,-1.79 -4.2689,-3.76 -6.154,-5.891 z"
     fill="#50661a"
     id="path290" />
  <path
     d="m 329.2369,290.985 c 0.1124,-2.248 0.4451,-4.48 0.993,-6.663 0.5174,-2.144 1.1568,-4.256 1.9152,-6.326 0.7529,-2.073 1.6255,-4.099 2.6134,-6.071 0.9892,-2.022 2.1764,-3.942 3.5443,-5.73 -0.1084,2.249 -0.4395,4.481 -0.9883,6.665 -0.517,2.143 -1.1581,4.255 -1.9199,6.324 -0.7564,2.071 -1.6304,4.098 -2.6178,6.069 -0.9898,2.022 -2.1755,3.942 -3.5399,5.732 z"
     fill="#50661a"
     id="path292" />
  <path
     d="m 330.714,298.766 c 0.4245,-2.237 1.065,-4.426 1.9124,-6.539 0.8118,-2.078 1.7403,-4.108 2.7811,-6.081 1.0356,-1.976 2.1837,-3.89 3.4388,-5.734 1.2628,-1.895 2.7084,-3.66 4.316,-5.273 -0.4206,2.238 -1.0597,4.429 -1.9081,6.541 -0.8115,2.078 -1.7415,4.108 -2.7854,6.079 -1.039,1.974 -2.1885,3.888 -3.4429,5.732 -1.2636,1.894 -2.7076,3.66 -4.3119,5.275 z"
     fill="#50661a"
     id="path294" />
  <path
     d="m 331.8318,306.29 c 0.7281,-2.27 1.6652,-4.468 2.7993,-6.565 1.0957,-2.068 2.3017,-4.075 3.6129,-6.014 1.3066,-1.942 2.7184,-3.811 4.2291,-5.599 1.522,-1.835 3.2129,-3.523 5.0505,-5.043 -0.7244,2.272 -1.6604,4.471 -2.7957,6.567 -1.0949,2.069 -2.3024,4.076 -3.6169,6.012 -1.3096,1.94 -2.7226,3.808 -4.2328,5.596 -1.5225,1.834 -3.2119,3.523 -5.0464,5.046 z"
     fill="#50661a"
     id="path296" />
  <path
     d="m 332.6507,314.591 c 1.1419,-2.454 2.4823,-4.81 4.0077,-7.046 1.4896,-2.223 3.079,-4.364 4.7683,-6.423 1.6835,-2.064 3.4647,-4.049 5.3434,-5.954 1.8862,-1.941 3.9303,-3.722 6.1111,-5.326 -1.1374,2.457 -2.4766,4.814 -4.004,7.049 -1.4895,2.223 -3.0801,4.363 -4.7715,6.421 -1.6877,2.061 -3.4701,4.044 -5.3472,5.95 -1.8873,1.94 -3.93,3.722 -6.1078,5.329 z"
     fill="#50661a"
     id="path298" />
  <path
     d="m 333.3156,323.199 c 1.3999,-2.333 2.9871,-4.548 4.7459,-6.623 1.7218,-2.067 3.5345,-4.042 5.4381,-5.925 1.8982,-1.889 3.8853,-3.688 5.9613,-5.398 2.0871,-1.746 4.3147,-3.316 6.6601,-4.695 -1.3959,2.335 -2.9821,4.552 -4.7426,6.626 -1.7217,2.067 -3.5355,4.041 -5.4411,5.922 -1.902,1.885 -3.8902,3.684 -5.9648,5.395 -2.0879,1.744 -4.3142,3.315 -6.6569,4.698 z"
     fill="#50661a"
     id="path300" />
  <path
     d="m 333.7202,328.718 c 1.5528,-2.012 3.2781,-3.886 5.1563,-5.598 1.8341,-1.701 3.7526,-3.308 5.7483,-4.816 1.9921,-1.512 4.0604,-2.921 6.1966,-4.222 2.1597,-1.341 4.4335,-2.489 6.7949,-3.431 -1.5499,2.015 -3.2744,3.89 -5.1535,5.602 -1.8337,1.701 -3.7532,3.307 -5.7511,4.811 -1.9945,1.51 -4.0637,2.918 -6.1997,4.219 -2.1598,1.34 -4.4324,2.489 -6.7918,3.435 z"
     fill="#50661a"
     id="path302" />
  <path
     d="m 333.9419,333.328 c 1.8629,-1.836 3.8781,-3.512 6.0239,-5.008 2.1064,-1.498 4.277,-2.883 6.5116,-4.156 2.2312,-1.28 4.5247,-2.45 6.8807,-3.511 2.3775,-1.093 4.8442,-1.98 7.3732,-2.651 -1.8603,1.84 -3.875,3.517 -6.0218,5.013 -2.1065,1.497 -4.2777,2.881 -6.5137,4.152 -2.2335,1.275 -4.5279,2.444 -6.8831,3.507 -2.3775,1.091 -4.8433,1.979 -7.3708,2.654 z"
     fill="#50661a"
     id="path304" />
  <path
     d="m 333.7699,336.319 c 2.2351,-1.543 4.5921,-2.9 7.0477,-4.06 2.4181,-1.167 4.8834,-2.207 7.389,-3.138 2.5053,-0.932 5.0544,-1.746 7.6473,-2.442 2.618,-0.723 5.2912,-1.229 7.9924,-1.512 -2.2326,1.546 -4.5893,2.906 -7.046,4.064 -2.4184,1.167 -4.882,2.212 -7.3907,3.134 -2.507,0.927 -5.0545,1.746 -7.649,2.437 -2.618,0.722 -5.2904,1.229 -7.9907,1.517 z"
     fill="#50661a"
     id="path306" />
  <path
     d="m 334.981,336.08 c 0.6819,-1.136 16.7425,-27.9 19.3405,-34.829 l -0.6486,-0.243 c -2.5751,6.869 -19.1184,34.438 -19.2857,34.716 z"
     fill="#5e7c24"
     id="path308" />
  <path
     d="m 348.4254,286.661 c 0.7003,1.732 1.2356,3.527 1.5991,5.36 0.3716,1.795 0.6445,3.609 0.8173,5.434 0.1775,1.824 0.2526,3.657 0.2251,5.49 -0.0104,1.869 -0.1994,3.733 -0.5644,5.566 -0.7037,-1.732 -1.2404,-3.526 -1.6028,-5.36 -0.3723,-1.795 -0.6439,-3.609 -0.8136,-5.434 -0.1742,-1.825 -0.2481,-3.658 -0.2214,-5.491 0.0115,-1.869 0.1992,-3.732 0.5607,-5.565 z"
     fill="#5e7c24"
     id="path310" />
  <path
     d="m 342.3197,295.009 c 0.8527,1.614 1.5476,3.306 2.075,5.054 0.5319,1.708 0.9671,3.444 1.3037,5.201 0.341,1.756 0.5813,3.53 0.7196,5.314 0.158,1.819 0.1381,3.648 -0.0595,5.463 -0.8558,-1.612 -1.552,-3.305 -2.0787,-5.053 -0.5321,-1.707 -0.9662,-3.444 -1.3,-5.202 -0.338,-1.757 -0.577,-3.531 -0.7158,-5.314 -0.1571,-1.819 -0.1384,-3.648 0.0557,-5.463 z"
     fill="#5e7c24"
     id="path312" />
  <path
     d="m 338.9556,304.728 c 0.7509,1.5 1.3429,3.074 1.7664,4.697 0.4276,1.581 0.7577,3.187 0.9883,4.808 0.2351,1.621 0.3686,3.255 0.3999,4.893 0.0485,1.677 -0.0806,3.354 -0.3854,5.004 -0.7541,-1.499 -1.3475,-3.073 -1.7701,-4.697 -0.4282,-1.581 -0.757,-3.187 -0.9846,-4.809 -0.2321,-1.621 -0.3644,-3.255 -0.3961,-4.892 -0.0477,-1.677 0.0802,-3.354 0.3816,-5.004 z"
     fill="#5e7c24"
     id="path314" />
  <path
     d="m 334.719,314.429 c 0.7539,1.256 1.3551,2.598 1.7911,3.997 0.4362,1.351 0.7759,2.732 1.0167,4.131 0.2454,1.399 0.3894,2.813 0.4309,4.232 0.0594,1.465 -0.0583,2.931 -0.3504,4.368 -0.7571,-1.256 -1.3597,-2.598 -1.7949,-3.997 -0.4367,-1.351 -0.7753,-2.732 -1.0133,-4.132 -0.2421,-1.399 -0.3849,-2.813 -0.4272,-4.233 -0.0583,-1.464 0.0582,-2.93 0.3471,-4.366 z"
     fill="#5e7c24"
     id="path316" />
  <path
     d="m 330.9811,320.492 c 0.7691,1.09 1.4039,2.268 1.8908,3.51 0.4771,1.186 0.8743,2.402 1.1887,3.641 0.3116,1.23 0.5513,2.476 0.718,3.734 0.0777,0.634 0.149,1.264 0.1963,1.906 0.0245,0.655 0.0943,1.307 0.2089,1.952 -0.1599,-0.086 -0.3135,-0.182 -0.4597,-0.29 l -0.3731,-0.374 c -0.2379,-0.255 -0.4561,-0.528 -0.6527,-0.816 -0.3789,-0.556 -0.7144,-1.14 -1.0035,-1.747 -0.5616,-1.18 -1.0028,-2.414 -1.3169,-3.683 -0.3203,-1.257 -0.5278,-2.54 -0.6199,-3.834 -0.1118,-1.337 -0.0367,-2.683 0.2231,-3.999 z"
     fill="#5e7c24"
     id="path318" />
  <path
     d="m 352.0559,305.525 c 1.2562,-1.378 2.6697,-2.603 4.2115,-3.652 1.4855,-1.032 3.0409,-1.959 4.655,-2.776 1.6117,-0.821 3.2795,-1.527 4.9909,-2.112 1.7579,-0.623 3.58349,-1.036 5.43851,-1.228 -1.25345,1.381 -2.66638,2.608 -4.20915,3.656 -1.48516,1.032 -3.04146,1.959 -4.65736,2.771 -1.6134,0.818 -3.2818,1.523 -4.993,2.109 -1.7577,0.622 -3.5823,1.035 -5.4364,1.232 z"
     fill="#5e7c24"
     id="path320" />
  <path
     d="m 347.9191,313.252 c 1.6065,-1.314 3.3477,-2.454 5.1944,-3.4 1.7935,-0.941 3.6437,-1.77 5.5399,-2.482 1.8941,-0.716 3.8317,-1.313 5.8011,-1.785 2.01337,-0.505 4.07502,-0.792 6.14964,-0.857 -1.60418,1.317 -3.34491,2.459 -5.19244,3.405 -1.7931,0.941 -3.644,1.769 -5.5415,2.476 -1.8955,0.714 -3.8335,1.308 -5.8028,1.781 -2.0133,0.504 -4.0742,0.793 -6.1483,0.862 z"
     fill="#5e7c24"
     id="path322" />
  <path
     d="m 343.0495,321.841 c 1.4303,-1.27 3.0013,-2.371 4.6823,-3.283 1.6245,-0.903 3.3082,-1.694 5.0396,-2.369 1.7293,-0.679 3.5034,-1.239 5.3097,-1.675 1.8546,-0.469 3.7573,-0.722 5.67,-0.752 -1.428,1.272 -2.9987,2.376 -4.6806,3.287 -1.6242,0.903 -3.3086,1.693 -5.0414,2.364 -1.7307,0.676 -3.5052,1.235 -5.3113,1.671 -1.8544,0.468 -3.7562,0.722 -5.6683,0.757 z"
     fill="#5e7c24"
     id="path324" />
  <path
     d="m 339.201,328.451 c 1.246,-1.079 2.6287,-1.99 4.1124,-2.708 1.4195,-0.707 2.8928,-1.299 4.4059,-1.772 1.5117,-0.478 3.0595,-0.833 4.6283,-1.062 1.629,-0.257 3.285,-0.296 4.9243,-0.116 -1.2438,1.083 -2.6264,1.995 -4.1111,2.713 -1.4192,0.707 -2.8932,1.298 -4.4075,1.767 -1.5127,0.474 -3.0607,0.828 -4.6293,1.058 -1.6286,0.256 -3.2838,0.296 -4.923,0.12 z"
     fill="#5e7c24"
     id="path326" />
  <path
     d="m 336.163,334.383 c 1.3698,-1.315 2.8866,-2.467 4.5205,-3.435 1.5773,-0.955 3.2179,-1.801 4.9105,-2.533 1.6903,-0.737 3.4298,-1.356 5.2059,-1.852 1.8236,-0.53 3.7028,-0.846 5.5997,-0.941 -1.3673,1.318 -2.8837,2.472 -4.5185,3.439 -1.5769,0.956 -3.2184,1.801 -4.9125,2.529 -1.6918,0.734 -3.4317,1.351 -5.2076,1.847 -1.8234,0.53 -3.7018,0.847 -5.598,0.946 z"
     fill="#5e7c24"
     id="path328" />
  <path
     d="m 353.4001,302.236 c -0.2528,-1.846 -0.2072,-3.72 0.1349,-5.552 0.3011,-1.726 0.775,-3.418 1.4145,-5.05 0.6335,-1.634 1.4323,-3.199 2.384,-4.671 0.9918,-1.578 2.2335,-2.985 3.6764,-4.165 0.2584,1.846 0.215,3.722 -0.1284,5.554 -0.3006,1.727 -0.7766,3.418 -1.4207,5.048 -0.6383,1.632 -1.4392,3.196 -2.3903,4.669 -0.9923,1.576 -2.2316,2.983 -3.6704,4.167 z"
     fill="#5e7c24"
     id="path330" />
</svg>
