<?xml version="1.0" encoding="UTF-8" standalone="no"?>
<svg
   width="323"
   height="266"
   viewBox="0 0 323 266"
   fill="none"
   version="1.1"
   id="svg267"
   sodipodi:docname="developer.svg"
   inkscape:version="1.2.2 (b0a8486541, 2022-12-01)"
   xmlns:inkscape="http://www.inkscape.org/namespaces/inkscape"
   xmlns:sodipodi="http://sodipodi.sourceforge.net/DTD/sodipodi-0.dtd"
   xmlns="http://www.w3.org/2000/svg"
   xmlns:svg="http://www.w3.org/2000/svg">
  <sodipodi:namedview
     id="namedview269"
     pagecolor="#ffffff"
     bordercolor="#000000"
     borderopacity="0.25"
     inkscape:showpageshadow="2"
     inkscape:pageopacity="0.0"
     inkscape:pagecheckerboard="0"
     inkscape:deskcolor="#d1d1d1"
     showgrid="false"
     inkscape:zoom="1.9548872"
     inkscape:cx="161.64615"
     inkscape:cy="133.25577"
     inkscape:window-width="1366"
     inkscape:window-height="699"
     inkscape:window-x="0"
     inkscape:window-y="32"
     inkscape:window-maximized="1"
     inkscape:current-layer="svg267" />
  <g
     clip-path="url(#clip0_2_6)"
     id="g110"
     transform="matrix(-1,0,0,1,323.00651,0)">
    <path
       opacity="0.18"
       d="M 239.035,46.2218 C 229.176,35.0021 221.543,21.6078 209.759,12.4471 191.249,-1.96112 164.609,-3.36636 142.966,5.68767 121.322,14.7417 104.448,32.9921 93.3354,53.6572 87.49,64.53 82.8981,76.3901 74.3323,85.2751 67.0911,92.7816 57.574,97.571 48.5502,102.787 c -14.5357,8.392 -28.5469,18.522 -37.9618,32.428 -9.41487,13.905 -13.62446,32.169 -7.60568,47.84 4.05844,10.575 12.23308,18.989 20.60788,26.606 9.8549,8.957 20.4478,17.366 32.672,22.68 15.2959,6.639 32.2942,8.067 48.9544,8.743 29.536,1.192 59.12,0.301 88.531,-2.669 24.084,-2.428 48.897,-6.572 69.047,-19.989 28.226,-18.788 42.78,-53.212 46.056,-86.969 1.334,-13.501 0.996,-27.531 -4.214,-40.0584 -12.46,-29.9637 -46.079,-22.9553 -65.602,-45.1768 z"
       fill="#68e1fd"
       id="path2" />
    <path
       d="m 119.513,106.38 c 0,0 -11.171,-1.965 -14.3,5.782 -3.129,7.746 0,34.499 0,34.499 l 41.678,29.519 z"
       fill="#3f3d56"
       id="path4" />
    <path
       d="m 172.011,225.528 -16.167,4.79 c -1.129,0.331 -2.342,0.201 -3.375,-0.36 -1.033,-0.562 -1.802,-1.51 -2.138,-2.638 -0.331,-1.128 -0.201,-2.342 0.36,-3.376 0.562,-1.033 1.51,-1.802 2.637,-2.138 l 16.162,-4.785 c 1.128,-0.331 2.341,-0.203 3.374,0.358 1.033,0.561 1.802,1.508 2.138,2.635 0.332,1.128 0.203,2.341 -0.358,3.375 -0.56,1.033 -1.507,1.802 -2.633,2.139 z"
       fill="#68e1fd"
       id="path6" />
    <path
       d="m 178.372,237.473 c 0.939,-4.007 -1.546,-8.018 -5.552,-8.958 -4.006,-0.94 -8.015,1.547 -8.955,5.555 -0.939,4.007 1.546,8.018 5.552,8.958 4.006,0.94 8.015,-1.547 8.955,-5.555 z"
       fill="#25233a"
       id="path8" />
    <path
       d="m 169.775,240.176 c 2.057,0 3.725,-1.668 3.725,-3.726 0,-2.058 -1.668,-3.727 -3.725,-3.727 -2.058,0 -3.725,1.669 -3.725,3.727 0,2.058 1.667,3.726 3.725,3.726 z"
       fill="#3f3d56"
       id="path10" />
    <path
       d="m 146.52,233.677 c 2.909,-2.91 2.909,-7.629 0,-10.54 -2.91,-2.911 -7.627,-2.911 -10.536,0 -2.91,2.911 -2.91,7.63 0,10.54 2.909,2.911 7.626,2.911 10.536,0 z"
       fill="#25233a"
       id="path12" />
    <path
       d="m 143.637,229.077 c 0,0.737 -0.218,1.457 -0.628,2.07 -0.409,0.613 -0.991,1.091 -1.671,1.373 -0.681,0.282 -1.43,0.356 -2.153,0.212 -0.722,-0.144 -1.386,-0.499 -1.907,-1.02 -0.521,-0.521 -0.876,-1.185 -1.019,-1.908 -0.144,-0.723 -0.07,-1.472 0.211,-2.153 0.282,-0.681 0.76,-1.263 1.372,-1.673 0.613,-0.409 1.333,-0.628 2.07,-0.628 0.988,0.001 1.934,0.394 2.633,1.093 0.698,0.699 1.091,1.646 1.092,2.634 z"
       fill="url(#paint0_linear_2_6)"
       id="path14"
       style="fill:url(#paint0_linear_2_6)" />
    <path
       d="m 139.094,246.051 c 4.115,0 7.45,-3.337 7.45,-7.453 0,-4.116 -3.335,-7.453 -7.45,-7.453 -4.115,0 -7.45,3.337 -7.45,7.453 0,4.116 3.335,7.453 7.45,7.453 z"
       fill="#25233a"
       id="path16" />
    <path
       d="m 144.98,238.847 c 0,0.737 -0.219,1.457 -0.628,2.07 -0.41,0.613 -0.991,1.091 -1.672,1.373 -0.681,0.282 -1.43,0.356 -2.152,0.212 -0.723,-0.144 -1.387,-0.499 -1.908,-1.02 -0.521,-0.521 -0.875,-1.185 -1.019,-1.908 -0.144,-0.723 -0.07,-1.472 0.212,-2.153 0.282,-0.681 0.759,-1.263 1.372,-1.673 0.612,-0.409 1.333,-0.628 2.069,-0.628 0.988,0 1.936,0.393 2.634,1.092 0.699,0.699 1.092,1.646 1.092,2.635 z"
       fill="#3f3d56"
       id="path18" />
    <path
       d="m 172.615,232.839 -34.072,-6.88 c -1.152,-0.235 -2.163,-0.918 -2.813,-1.898 -0.65,-0.98 -0.885,-2.178 -0.654,-3.331 0.235,-1.151 0.917,-2.163 1.896,-2.812 0.979,-0.65 2.175,-0.886 3.327,-0.657 l 34.072,6.875 c 1.152,0.236 2.163,0.919 2.813,1.899 0.65,0.98 0.885,2.178 0.654,3.331 -0.235,1.152 -0.916,2.164 -1.895,2.815 -0.979,0.651 -2.175,0.887 -3.328,0.658 z"
       fill="#68e1fd"
       id="path20" />
    <path
       d="m 151.612,179.289 h 9.303 v 39.2 c 0,1.233 -0.489,2.416 -1.361,3.289 -0.872,0.872 -2.055,1.362 -3.288,1.362 -1.233,0 -2.416,-0.49 -3.288,-1.362 -0.872,-0.873 -1.362,-2.056 -1.362,-3.289 v -39.2 z"
       fill="#68e1fd"
       id="path22" />
    <path
       d="m 154.95,230.264 -16.163,4.798 c -1.128,0.333 -2.343,0.204 -3.377,-0.358 -1.034,-0.561 -1.803,-1.511 -2.139,-2.639 -0.331,-1.128 -0.202,-2.342 0.36,-3.376 0.561,-1.033 1.509,-1.802 2.636,-2.138 l 16.163,-4.785 c 1.127,-0.331 2.34,-0.203 3.373,0.358 1.033,0.561 1.802,1.508 2.139,2.635 0.328,1.127 0.198,2.338 -0.362,3.369 -0.561,1.031 -1.506,1.799 -2.63,2.136 z"
       fill="#68e1fd"
       id="path24" />
    <path
       d="m 157.626,229.788 -1.778,0.53 c -0.53,0.157 -1.085,0.213 -1.636,0.164 l 0.742,-0.218 c 0.517,-0.152 1,-0.397 1.427,-0.725 z"
       fill="url(#paint1_linear_2_6)"
       id="path26"
       style="fill:url(#paint1_linear_2_6)" />
    <path
       d="m 175.189,221.277 c -0.001,1.022 -0.356,2.012 -1.005,2.801 l -14.135,-2.859 c 0.355,-0.485 0.612,-1.035 0.755,-1.619 l 8.708,-2.579 c 0.661,-0.19 1.357,-0.225 2.033,-0.101 0.676,0.124 1.314,0.403 1.865,0.815 0.55,0.413 0.997,0.947 1.305,1.562 0.309,0.614 0.471,1.292 0.474,1.98 z"
       fill="url(#paint2_linear_2_6)"
       id="path28"
       style="fill:url(#paint2_linear_2_6)" />
    <path
       opacity="0.31"
       d="m 151.732,219.547 c -0.081,-0.347 -0.121,-0.702 -0.12,-1.058 v -39.2 h 3.231 v 42.246 c -0.031,0.207 -0.02,0.419 0.031,0.622 -0.489,-0.211 -1.014,-0.327 -1.546,-0.342 -0.376,-0.026 -0.754,-0.026 -1.13,0 l 0.232,-0.067 c 0.142,-0.026 -0.512,-1.401 -0.698,-2.201 z"
       fill="url(#paint3_linear_2_6)"
       id="path30"
       style="fill:url(#paint3_linear_2_6)" />
    <path
       opacity="0.31"
       d="m 175.607,232.359 c -0.649,0.358 -1.379,0.547 -2.121,0.547 -0.298,-0.001 -0.596,-0.031 -0.889,-0.089 l -14.989,-3.029 -1.249,-0.249 c -0.427,0.328 -0.911,0.573 -1.427,0.725 l -0.742,0.218 -15.403,4.58 c -1.128,0.333 -2.343,0.204 -3.377,-0.358 -1.034,-0.561 -1.803,-1.51 -2.139,-2.639 0.648,0.601 1.485,0.957 2.366,1.007 0.882,0.05 1.754,-0.208 2.466,-0.731 1.88,-1.303 9.366,-3.26 13.606,-4.3 0.981,-0.235 1.873,-0.75 2.567,-1.482 0.694,-0.731 1.162,-1.649 1.345,-2.641 0,-0.124 0.04,-0.24 0.054,-0.355 0.706,0.764 2.004,1.623 4.351,2.352 5.779,1.779 15.163,2.957 15.163,2.957 0,0 1.694,1.663 0.418,3.487 z"
       fill="url(#paint4_linear_2_6)"
       id="path32"
       style="fill:url(#paint4_linear_2_6)" />
    <path
       d="m 177.216,230.865 c -0.291,0.459 -0.667,0.859 -1.107,1.178 0.298,-0.307 0.68,-0.716 1.107,-1.178 z"
       fill="url(#paint5_linear_2_6)"
       id="path34"
       style="fill:url(#paint5_linear_2_6)" />
    <path
       d="m 151.732,219.547 c 0.183,0.788 0.569,1.515 1.12,2.108 -0.138,0.027 -0.28,0.062 -0.422,0.102 l -14.012,4.149 c -1.042,-0.265 -1.952,-0.898 -2.563,-1.783 -0.611,-0.885 -0.881,-1.961 -0.759,-3.03 0.121,-1.068 0.626,-2.057 1.42,-2.782 0.794,-0.725 1.823,-1.137 2.898,-1.161 0.299,0.001 0.596,0.031 0.889,0.089 z"
       fill="url(#paint6_linear_2_6)"
       id="path36"
       style="fill:url(#paint6_linear_2_6)" />
    <path
       d="m 173.318,30.7241 c 0,0 -0.183,-13.8212 -11.256,-12.6294 -11.073,1.1918 -10.224,-3.3841 -14.953,-2.8816 -4.73,0.5025 -10.224,5.1718 -8.646,10.9395 1.578,5.7678 -4.174,7.0574 -7.953,11.4332 -3.778,4.3758 0.889,7.9556 7.255,12.2336 6.365,4.278 -0.396,3.1707 3.378,9.9345 3.774,6.7639 16.55,-1.8766 16.55,-1.8766 z"
       fill="#3f3d56"
       id="path38" />
    <path
       d="m 82.9959,261.971 7.8547,0.267 v -62.751 c 0,0 0.3956,-16.227 15.7044,-17.855 15.31,-1.628 154.15,-21.732 154.15,-21.732 0,0 5.503,-0.583 8.664,9.961 3.16,10.544 6.254,52.07 6.254,52.07 l 42.625,5.736 c 0,0 1.125,-73.313 -14.264,-77.355 -15.39,-4.042 -216.6451,16.574 -216.6451,16.574 0,0 -14.9269,77.88 -4.343,95.085 z"
       fill="#68e1fd"
       id="path40" />
    <path
       d="m 82.9959,261.971 7.8547,0.267 v -62.751 c 0,0 0.3956,-16.227 15.7044,-17.855 15.31,-1.628 154.15,-21.732 154.15,-21.732 0,0 5.503,-0.583 8.664,9.961 3.16,10.544 6.254,52.07 6.254,52.07 l 42.625,5.736 c 0,0 1.125,-73.313 -14.264,-77.355 -15.39,-4.042 -216.6451,16.574 -216.6451,16.574 0,0 -14.9269,77.88 -4.343,95.085 z"
       fill="url(#paint7_linear_2_6)"
       id="path42"
       style="fill:url(#paint7_linear_2_6)" />
    <path
       d="m 41.5491,174.584 c 0,0 3.8495,-21.31 30.9251,-26.896 L 263.577,125.783 c 0,0 18.763,-0.779 27.347,4.42 8.583,5.198 20.834,9.507 25.857,33.032 5.023,23.524 6.223,63.712 6.223,63.712 l -4.747,0.72 c 0,0 -6.917,-72.752 -14.265,-77.355 -7.347,-4.603 -206.0158,23.658 -206.0158,23.658 0,0 -13.7801,2.744 -14.9803,23.173 -1.2002,20.43 0,64.828 0,64.828 L 41.5491,245.228 Z"
       fill="#68e1fd"
       id="path44" />
    <path
       opacity="0.19"
       d="m 238.182,133.983 c -9.891,-1.29 -19.862,-2.224 -29.828,-1.846 -7.49,0.294 -14.931,1.334 -22.359,2.371 l -65.508,9.165 c -1.112,0.155 -2.379,0.409 -2.934,1.387 -1.067,1.868 1.44,3.709 3.471,4.42 21.782,7.64 45.052,15.378 67.474,9.931 10.25,-2.491 19.772,-7.663 30.169,-9.459 10.397,-1.797 21.07,-0.142 31.445,-1.837 9.753,-1.592 19.039,-6.114 28.925,-6.159 3.032,0 6.152,0.392 9.028,-0.569 2.876,-0.961 5.419,-3.896 4.623,-6.822 -9.281,-0.324 -19.701,-2.041 -28.804,-0.178 -9.011,1.841 -16.679,-0.404 -25.702,-0.404 z"
       fill="url(#paint8_linear_2_6)"
       id="path46"
       style="fill:url(#paint8_linear_2_6)" />
    <path
       d="m 178.941,145.154 0.382,1.463 c 0,0 11.317,7.039 11.246,7.266 -0.071,0.227 46.946,-11.238 46.946,-11.238 l 1.093,-3.29 z"
       fill="url(#paint9_linear_2_6)"
       id="path48"
       style="fill:url(#paint9_linear_2_6)" />
    <path
       d="m 179.999,145.154 41.362,-9.326 17.243,3.527 -46.99,11.824 z"
       fill="url(#paint10_linear_2_6)"
       id="path50"
       style="fill:url(#paint10_linear_2_6)" />
    <path
       d="m 166.979,152.54 9.819,0.329 c 0,0 2.494,0.147 3.138,-1.748 0.645,-1.894 -3.978,-5.892 -4.498,-5.967 -0.52,-0.076 -13.42,3.357 -11.558,6.79 z"
       fill="url(#paint11_linear_2_6)"
       id="path52"
       style="fill:url(#paint11_linear_2_6)" />
    <path
       d="m 53.4799,249.293 -4.7785,14.515 c -13.8601,4.922 -25.6443,0 -25.6443,0 l -3.4272,-15.213 c 0,0 17.2873,5.723 33.85,0.698 z"
       fill="#68e1fd"
       id="path54" />
    <path
       d="m 53.4799,249.293 -4.7785,14.515 c -13.8601,4.922 -25.6443,0 -25.6443,0 l -3.4272,-15.213 c 0,0 17.2873,5.723 33.85,0.698 z"
       fill="url(#paint12_linear_2_6)"
       id="path56"
       style="fill:url(#paint12_linear_2_6)" />
    <path
       d="m 58.8986,235.778 -1.5336,11.478 -3.8851,2.037 c -16.5494,5.02 -33.85,-0.698 -33.85,-0.698 l -2.9827,-2.224 -1.3913,-10.593 z"
       fill="#68e1fd"
       id="path58" />
    <path
       d="m 58.8986,235.778 -1.5336,11.478 -3.8851,2.037 c -16.5494,5.02 -33.85,-0.698 -33.85,-0.698 l -2.9827,-2.224 -1.3913,-10.593 z"
       fill="url(#paint13_linear_2_6)"
       id="path60"
       style="fill:url(#paint13_linear_2_6)" />
    <path
       d="m 37.0728,239.705 c 12.0491,0 21.8169,-1.758 21.8169,-3.927 0,-2.168 -9.7678,-3.926 -21.8169,-3.926 -12.0492,0 -21.8169,1.758 -21.8169,3.926 0,2.169 9.7677,3.927 21.8169,3.927 z"
       fill="#68e1fd"
       id="path62" />
    <path
       d="m 37.0728,239.705 c 12.0491,0 21.8169,-1.758 21.8169,-3.927 0,-2.168 -9.7678,-3.926 -21.8169,-3.926 -12.0492,0 -21.8169,1.758 -21.8169,3.926 0,2.169 9.7677,3.927 21.8169,3.927 z"
       fill="url(#paint14_linear_2_6)"
       id="path64"
       style="fill:url(#paint14_linear_2_6)" />
    <path
       d="m 26.6933,148.164 c -2.1426,-1.014 -4.4452,-1.779 -6.2988,-3.259 -3.734,-3.011 -4.6808,-8.196 -5.8499,-12.848 -1.1691,-4.651 -3.4272,-9.783 -8.0413,-11.117 -1.72473,-0.494 -3.74729,-0.298 -5.05862,0.929 -1.3824479,1.303 -1.662494,3.438 -1.284654,5.301 0.37784,1.863 1.297994,3.558 2.009224,5.336 1.66062,4.132 2.16617,8.638 1.46246,13.034 -0.58232,3.607 -1.97366,7.262 -1.08018,10.798 1.51581,5.999 9.06817,9.516 9.27707,15.698 0.1423,4.171 -3.28941,8.031 -2.51151,12.135 0.57343,3.038 3.36941,5.408 3.52061,8.494 0.1689,3.5 -3.13832,6.461 -2.9783,9.961 0.16,3.5 3.6539,5.852 5.9343,8.587 1.9117,2.312 3.0485,5.167 3.2494,8.161 0.1201,1.867 -0.12,3.802 0.489,5.572 0.4445,1.294 1.3336,2.392 2.0226,3.557 0.7601,1.259 1.3335,2.619 2.2492,3.785 1.1512,1.451 2.7113,2.524 4.4786,3.079 1.7672,0.555 3.6602,0.566 5.4342,0.033 0.7068,-4.651 0.0889,-9.396 0.2845,-14.096 0.3867,-9.108 3.8317,-18.286 1.6269,-27.127 -0.809,-3.242 -2.3648,-6.319 -2.6404,-9.646 -0.2445,-2.97 0.5467,-5.914 1.0979,-8.845 1.138,-6.052 1.1202,-12.309 0.6535,-18.428 -0.369,-4.838 -3.7829,-7.075 -8.0458,-9.094 z"
       fill="#68e1fd"
       id="path66" />
    <path
       d="m 40.3178,172.018 c -0.0356,4.06 0.889,8.258 -0.409,12.113 -0.9824,2.922 -3.1427,5.314 -4.2585,8.187 -2.5737,6.631 0.8891,14.066 0.1823,21.145 -0.2934,2.918 -1.2936,5.719 -1.9248,8.583 -0.7914,3.625 -0.991,7.354 -0.5912,11.042 -0.0435,0.668 0.1549,1.33 0.5589,1.864 0.404,0.534 0.9867,0.905 1.6415,1.044 2.1781,0.831 4.4343,1.44 6.7344,1.819 -0.7828,-4.3 0.0364,-8.737 2.3026,-12.474 3.525,-5.781 10.3751,-9.676 11.6508,-16.316 0.8624,-4.495 -1.1468,-9.058 -1.0046,-13.634 0.1004,-3.045 1.1477,-5.983 2.9961,-8.405 1.658,-2.161 3.9028,-3.833 5.4453,-6.074 3.7073,-5.403 2.5516,-12.625 1.4492,-19.087 -1.1025,-6.461 -1.7426,-13.897 2.6137,-18.793 1.378,-1.547 3.1739,-2.708 4.423,-4.362 2.7827,-3.687 2.0803,-9.365 -1.1558,-12.661 -3.2361,-3.295 -8.4458,-4.206 -12.8465,-2.757 -1.8226,0.605 -3.5562,1.623 -4.6853,3.189 -2.2226,3.157 -1.3335,7.471 -0.3911,11.224 0.8223,3.26 1.4847,7.022 0.36,10.308 -0.8401,2.446 -2.9694,3.771 -4.7785,5.474 -5.0942,4.781 -8.2547,11.558 -8.3125,18.571 z"
       fill="#68e1fd"
       id="path68" />
    <path
       d="m 35.7259,207.994 c -0.6312,4.411 -1.5425,8.858 -1.7292,13.283 0,0.151 0,0.298 0,0.445 0,0.146 -0.0533,0.213 -0.0755,0.32 -0.7914,3.624 -0.9911,7.353 -0.5913,11.042 0.0291,0.604 0.1899,1.194 0.4712,1.729 -0.0222,0.187 -0.0489,0.37 -0.0755,0.556 -1.774,0.533 -3.667,0.522 -5.4342,-0.033 -1.7673,-0.555 -3.3274,-1.628 -4.4786,-3.08 -0.889,-1.165 -1.4891,-2.525 -2.2492,-3.784 -0.7113,-1.17 -1.5781,-2.268 -2.0226,-3.558 -0.609,-1.778 -0.3689,-3.704 -0.489,-5.572 -0.2009,-2.993 -1.3377,-5.848 -3.2494,-8.16 -2.2804,-2.735 -5.7787,-5.029 -5.9343,-8.587 -0.15558,-3.557 3.1472,-6.461 2.9783,-9.961 -0.1512,-3.086 -2.94719,-5.457 -3.52061,-8.494 -0.77791,-4.104 2.66711,-7.964 2.51151,-12.136 -0.2089,-6.181 -7.76127,-9.698 -9.27708,-15.697 -0.88903,-3.536 0.49786,-7.191 1.08018,-10.798 0.70371,-4.397 0.19816,-8.902 -1.46246,-13.034 -0.71123,-1.779 -1.631382,-3.455 -2.009222,-5.336 -0.37784,-1.881 -0.0977938,-4.002 1.284652,-5.301 1.33356,-1.227 3.33389,-1.423 5.05862,-0.929 4.61411,1.334 6.86781,6.466 8.04131,11.117 1.1735,4.652 2.1159,9.837 5.8499,12.847 1.8447,1.49 4.1562,2.246 6.2988,3.26 4.2674,2.019 7.6813,4.256 8.0458,9.067 0.4445,6.119 0.4845,12.376 -0.6535,18.429 -0.5512,2.93 -1.3335,5.874 -1.0979,8.845 0.2356,2.97 1.5291,5.781 2.3737,8.662 0.0933,0.325 0.1867,0.654 0.2667,0.983 1.1202,4.576 0.7601,9.205 0.0889,13.875 z"
       fill="url(#paint15_linear_2_6)"
       id="path70"
       style="fill:url(#paint15_linear_2_6)" />
    <path
       d="m 33.8056,234.818 c -0.2814,-0.535 -0.4422,-1.126 -0.4712,-1.73 -0.3998,-3.688 -0.2002,-7.417 0.5912,-11.042 0.0222,-0.107 0.0489,-0.213 0.0756,-0.32 -0.1556,4.367 0.3511,8.769 -0.1956,13.092 z"
       fill="url(#paint16_linear_2_6)"
       id="path72"
       style="fill:url(#paint16_linear_2_6)" />
    <path
       d="m 72.1097,138.67 c -1.2491,1.654 -3.045,2.815 -4.423,4.362 -4.3562,4.892 -3.7161,12.332 -2.6137,18.793 1.1024,6.462 2.2581,13.684 -1.4492,19.087 -1.5424,2.223 -3.7872,3.913 -5.4453,6.074 -1.8484,2.422 -2.8957,5.36 -2.9961,8.405 -0.1422,4.576 1.867,9.139 1.0047,13.634 -1.2758,6.64 -8.1258,10.544 -11.6509,16.316 -2.2601,3.739 -3.0729,8.177 -2.2848,12.474 -2.2941,-0.38 -4.5443,-0.989 -6.7166,-1.819 -0.5944,-0.175 -1.1334,-0.502 -1.5647,-0.947 -0.0613,-0.072 -0.1163,-0.15 -0.1645,-0.231 -0.2814,-0.535 -0.4422,-1.126 -0.4712,-1.73 -0.3998,-3.688 -0.2002,-7.417 0.5912,-11.042 0.0222,-0.107 0.0489,-0.213 0.0756,-0.32 0.6312,-2.753 1.5647,-5.452 1.8492,-8.263 0.1531,-1.822 0.1174,-3.655 -0.1067,-5.469 0.6712,-4.67 1.0313,-9.299 -0.1023,-13.844 -0.08,-0.329 -0.1733,-0.658 -0.2667,-0.982 0.0845,-0.285 0.1823,-0.57 0.2934,-0.85 1.1158,-2.873 3.2761,-5.265 4.2585,-8.187 1.2935,-3.855 0.3734,-8.053 0.409,-12.113 0.0577,-7.013 3.2183,-13.786 8.2947,-18.571 1.8091,-1.703 3.9384,-3.028 4.7785,-5.474 1.1247,-3.286 0.4445,-7.048 -0.36,-10.308 -0.9469,-3.753 -1.8448,-8.067 0.3911,-11.224 1.1113,-1.566 2.8627,-2.584 4.6853,-3.189 4.3829,-1.449 9.6149,-0.538 12.8465,2.757 3.2317,3.296 3.9207,8.997 1.138,12.661 z"
       fill="url(#paint17_linear_2_6)"
       id="path74"
       style="fill:url(#paint17_linear_2_6)" />
    <path
       d="m 150.9,68.9103 c 0,0 -18.7,2.8594 -27.351,23.2576 -8.65,20.3981 -4.152,45.7061 -4,47.9071 0.151,2.201 26.506,11.869 34.041,11.869 7.534,0 9.104,-7.462 9.104,-7.462 l -13.314,-5.608 40.451,-4.62 h 7.264 l -4.001,6.648 c 0,0 7.895,0.819 13.171,1.005 5.277,0.187 8.859,-10.134 9.451,-15.266 0.591,-5.132 -23.306,-50.1353 -26.876,-52.8435 -3.569,-2.7082 -13.278,-9.1652 -37.94,-4.8872 z"
       fill="#68e1fd"
       id="path76" />
    <path
       d="m 173.318,30.7241 c 0,0 3.311,1.89 3.013,8.0046 -0.297,6.1146 -2.164,15.3153 -4.049,17.6989 -1.885,2.3836 -8.477,3.3175 -8.477,3.3175 0,0 3.596,8.6671 6.272,10.9039 2.676,2.2369 -2.689,10.4771 -7.908,7.7733 -5.219,-2.7037 -11.269,-9.512 -11.269,-9.512 0,0 4.352,-8.178 2.881,-12.4827 -1.471,-4.3046 -7.112,-19.3932 -2.881,-23.5289 4.232,-4.1357 13.287,-10.0324 22.418,-2.1746 z"
       fill="url(#paint18_linear_2_6)"
       id="path78"
       style="fill:url(#paint18_linear_2_6)" />
    <path
       opacity="0.25"
       d="m 143.33,98.2914 -2.929,35.9626 8.957,4.62 7.29,-1.249 -9.095,-10.98 z"
       fill="#ffffff"
       id="path80" />
    <path
       opacity="0.25"
       d="m 190.569,96.477 c 0,0 11.713,27.887 6.521,37.777 l -4,-0.769 z"
       fill="#ffffff"
       id="path82" />
    <path
       d="m 157.826,143.192 c 0,0 -4.472,4.003 -2.476,7.116 1.996,3.112 4.379,3.024 6.366,1.632 1.987,-1.392 5.889,-4.696 10.539,-3.18 4.65,1.516 5.779,2.481 5.779,2.481 0,0 2.449,-1.605 1.813,-3.215 -0.635,-1.609 -5.498,-6.826 -6.907,-7.52 -1.409,-0.693 -7.259,1.401 -7.259,1.401 0,0 -4.299,-1.2 -7.855,1.285 z"
       fill="url(#paint19_linear_2_6)"
       id="path84"
       style="fill:url(#paint19_linear_2_6)" />
    <path
       d="m 198.419,135.682 c 0,0 -4.258,0.489 -5.334,3.192 -1.076,2.704 -1.462,3.033 -1.462,3.033 0,0 2.405,0.445 3.405,-0.814 1,-1.258 2.04,-0.729 2.04,-0.729 l -0.298,1.614 c 0,0 6.535,0.952 9.486,-0.071 2.952,-1.023 4.219,-2.223 4.219,-2.223 l 1.155,-2.731 c 0,0 -2.787,-1.952 -4.889,-2.254 -2.103,-0.303 -8.322,0.983 -8.322,0.983 z"
       fill="url(#paint20_linear_2_6)"
       id="path86"
       style="fill:url(#paint20_linear_2_6)" />
    <path
       d="m 220.032,165.747 c 0,0 14.504,11.047 13.215,25.989 -1.289,14.941 -3.182,37.127 -3.182,37.127 0,0 -5.85,2.464 -9.726,0 -3.877,-2.463 -6.224,-36.176 -8.144,-39.395 -1.92,-3.22 -13.473,-17.735 -25.818,-18.984 z"
       fill="#25233a"
       id="path88" />
    <path
       d="m 146.891,176.162 c 0,0 6.992,6.671 19.456,8.765 12.465,2.095 18.275,3.842 22.084,14.564 3.81,10.722 7.464,33.797 8.659,36.376 1.196,2.58 6.281,1.263 6.281,1.263 0,0 2.876,-3.299 2.876,-21.648 0,-25.579 1.778,-30.822 -4.627,-37.247 -6.406,-6.426 -12.233,-8.178 -12.233,-8.178 z"
       fill="#3f3d56"
       id="path90" />
    <path
       d="m 197.09,235.867 1.187,9.361 h 2.223 c 0,0 14.313,0.783 14.762,0.445 0.449,-0.338 -0.689,-7.413 -6.112,-7.213 -5.423,0.2 -5.779,-1.334 -5.779,-1.334 z"
       fill="#25233a"
       id="path92" />
    <path
       d="m 222.09,229.633 2.311,9.214 25.258,-3.469 c 0,0 0.889,-6.052 -7.112,-5.452 -2.112,0.156 -3.685,1.641 -6.224,1.654 -2.538,0.014 -4.969,-1.027 -6.249,-2.717 z"
       fill="#25233a"
       id="path94" />
    <path
       d="m 310.162,113.718 -95.602,5.123 c -0.568,0.03 -1.137,-0.056 -1.671,-0.252 -0.533,-0.197 -1.022,-0.5 -1.435,-0.892 -0.413,-0.391 -0.742,-0.863 -0.967,-1.386 -0.225,-0.522 -0.341,-1.086 -0.341,-1.655 V 46.88 c 0,-1.32 0.517,-2.5874 1.44,-3.5302 0.923,-0.9428 2.179,-1.4859 3.498,-1.5127 l 95.212,-1.9656 c 0.612,-0.0124 1.221,0.0976 1.791,0.3236 0.569,0.2259 1.088,0.5633 1.526,0.9923 0.437,0.4291 0.785,0.9412 1.022,1.5063 0.237,0.5651 0.359,1.172 0.359,1.7849 v 64.1384 c 0,1.307 -0.501,2.565 -1.4,3.514 -0.899,0.948 -2.127,1.516 -3.432,1.587 z"
       fill="#68e1fd"
       id="path96" />
    <path
       d="m 314.572,113.718 -95.603,5.123 c -0.567,0.029 -1.135,-0.057 -1.669,-0.254 -0.533,-0.197 -1.021,-0.5 -1.433,-0.892 -0.413,-0.391 -0.741,-0.862 -0.966,-1.385 -0.225,-0.522 -0.341,-1.085 -0.341,-1.654 V 46.88 c -0.002,-1.3195 0.514,-2.587 1.437,-3.5299 0.923,-0.943 2.178,-1.4862 3.497,-1.513 l 95.211,-1.9656 c 0.613,-0.013 1.223,0.0966 1.793,0.3222 0.57,0.2257 1.089,0.563 1.527,0.9921 0.438,0.4291 0.786,0.9414 1.024,1.5069 0.237,0.5654 0.359,1.1726 0.359,1.7859 v 64.1384 c -0.001,1.308 -0.503,2.565 -1.403,3.514 -0.899,0.948 -2.128,1.516 -3.433,1.587 z"
       fill="#68e1fd"
       id="path98" />
    <path
       d="m 314.572,113.718 -95.603,5.123 c -0.567,0.029 -1.135,-0.057 -1.669,-0.254 -0.533,-0.197 -1.021,-0.5 -1.433,-0.892 -0.413,-0.391 -0.741,-0.862 -0.966,-1.385 -0.225,-0.522 -0.341,-1.085 -0.341,-1.654 V 46.88 c -0.002,-1.3195 0.514,-2.587 1.437,-3.5299 0.923,-0.943 2.178,-1.4862 3.497,-1.513 l 95.211,-1.9656 c 0.613,-0.013 1.223,0.0966 1.793,0.3222 0.57,0.2257 1.089,0.563 1.527,0.9921 0.438,0.4291 0.786,0.9414 1.024,1.5069 0.237,0.5654 0.359,1.1726 0.359,1.7859 v 64.1384 c -0.001,1.308 -0.503,2.565 -1.403,3.514 -0.899,0.948 -2.128,1.516 -3.433,1.587 z"
       fill="url(#paint21_linear_2_6)"
       id="path100"
       style="fill:url(#paint21_linear_2_6)" />
    <path
       d="m 286.736,139.319 -24.275,2.588 c 0,0 -7.392,-1.494 -6.992,-2.588 0.4,-1.094 8.121,-2.148 8.121,-2.148 V 93.0751 c -0.067,-0.0978 -1.084,-1.3963 -3.872,-2.2235 -0.54,-0.1592 -1.089,-0.2869 -1.644,-0.3824 -0.478,-0.0693 -0.943,-0.2102 -1.378,-0.418 -1.658,-0.8583 0.173,-2.3525 2.747,-2.4192 0.403,-0.0132 0.806,0.0106 1.204,0.0712 h 18.67 c 0,0 7.068,1.9922 7.41,11.9356 0.343,9.9432 0.009,39.6802 0.009,39.6802 z"
       fill="#68e1fd"
       id="path102" />
    <path
       d="m 266.982,139.413 -4.534,2.494 c 0,0 -7.393,-1.494 -6.992,-2.588 0.4,-1.094 8.121,-2.148 8.121,-2.148 V 93.0751 c -0.093,-0.1023 -1.227,-1.2718 -3.872,-2.2235 -0.984,-0.3479 -1.995,-0.6156 -3.023,-0.8004 -1.658,-0.8583 0.174,-2.3525 2.747,-2.4192 2.192,0.298 6.508,2.6993 6.788,4.069 0.28,1.3697 0.765,47.712 0.765,47.712 z"
       fill="#68e1fd"
       id="path104" />
    <path
       d="m 266.982,139.413 -4.534,2.494 c 0,0 -7.393,-1.494 -6.992,-2.588 0.4,-1.094 8.121,-2.148 8.121,-2.148 V 93.0751 c -0.093,-0.1023 -1.227,-1.2718 -3.872,-2.2235 -0.984,-0.3479 -1.995,-0.6156 -3.023,-0.8004 -1.658,-0.8583 0.174,-2.3525 2.747,-2.4192 2.192,0.298 6.508,2.6993 6.788,4.069 0.28,1.3697 0.765,47.712 0.765,47.712 z"
       fill="url(#paint22_linear_2_6)"
       id="path106"
       style="fill:url(#paint22_linear_2_6)" />
    <path
       d="m 176.109,232.043 c -0.564,0.578 -0.827,0.792 -0.493,0.316 0.173,-0.092 0.338,-0.197 0.493,-0.316 z"
       fill="url(#paint23_linear_2_6)"
       id="path108"
       style="fill:url(#paint23_linear_2_6)" />
  </g>
  <defs
     id="defs265">
    <linearGradient
       id="paint0_linear_2_6"
       x1="136.187"
       y1="229.077"
       x2="143.637"
       y2="229.077"
       gradientUnits="userSpaceOnUse">
      <stop
         stop-color="#183866"
         id="stop112" />
      <stop
         offset="1"
         stop-color="#1A7FC1"
         id="stop114" />
    </linearGradient>
    <linearGradient
       id="paint1_linear_2_6"
       x1="154.208"
       y1="230.02"
       x2="157.626"
       y2="230.02"
       gradientUnits="userSpaceOnUse">
      <stop
         id="stop117" />
      <stop
         offset="0.99"
         stop-opacity="0"
         id="stop119" />
    </linearGradient>
    <linearGradient
       id="paint2_linear_2_6"
       x1="161.831"
       y1="224.363"
       x2="182.171"
       y2="215.284"
       gradientUnits="userSpaceOnUse">
      <stop
         id="stop122" />
      <stop
         offset="0.99"
         stop-opacity="0"
         id="stop124" />
    </linearGradient>
    <linearGradient
       id="paint3_linear_2_6"
       x1="161.516"
       y1="197.944"
       x2="136.794"
       y2="206.231"
       gradientUnits="userSpaceOnUse">
      <stop
         id="stop127" />
      <stop
         offset="0.99"
         stop-opacity="0"
         id="stop129" />
    </linearGradient>
    <linearGradient
       id="paint4_linear_2_6"
       x1="175.229"
       y1="224.777"
       x2="111.867"
       y2="246.022"
       gradientUnits="userSpaceOnUse">
      <stop
         id="stop132" />
      <stop
         offset="0.99"
         stop-opacity="0"
         id="stop134" />
    </linearGradient>
    <linearGradient
       id="paint5_linear_2_6"
       x1="177.371"
       y1="231.216"
       x2="175.175"
       y2="231.953"
       gradientUnits="userSpaceOnUse">
      <stop
         id="stop137" />
      <stop
         offset="0.99"
         stop-opacity="0"
         id="stop139" />
    </linearGradient>
    <linearGradient
       id="paint6_linear_2_6"
       x1="153.127"
       y1="224.919"
       x2="133.874"
       y2="219.689"
       gradientUnits="userSpaceOnUse">
      <stop
         id="stop142" />
      <stop
         offset="0.99"
         stop-opacity="0"
         id="stop144" />
    </linearGradient>
    <linearGradient
       id="paint7_linear_2_6"
       x1="309.771"
       y1="200.265"
       x2="-34.7486"
       y2="216.83"
       gradientUnits="userSpaceOnUse">
      <stop
         id="stop147" />
      <stop
         offset="0.99"
         stop-opacity="0"
         id="stop149" />
    </linearGradient>
    <linearGradient
       id="paint8_linear_2_6"
       x1="117.277"
       y1="146.643"
       x2="292.813"
       y2="146.643"
       gradientUnits="userSpaceOnUse">
      <stop
         stop-color="#183866"
         id="stop152" />
      <stop
         offset="1"
         stop-color="#1A7FC1"
         id="stop154" />
    </linearGradient>
    <linearGradient
       id="paint9_linear_2_6"
       x1="208.621"
       y1="140.409"
       x2="209.32"
       y2="148.858"
       gradientUnits="userSpaceOnUse">
      <stop
         stop-color="#68E1FD"
         id="stop157" />
      <stop
         offset="0.2"
         stop-color="#5DB4CF"
         id="stop159" />
      <stop
         offset="0.46"
         stop-color="#50819B"
         id="stop161" />
      <stop
         offset="0.69"
         stop-color="#475C76"
         id="stop163" />
      <stop
         offset="0.87"
         stop-color="#41455E"
         id="stop165" />
      <stop
         offset="0.99"
         stop-color="#3F3D56"
         id="stop167" />
    </linearGradient>
    <linearGradient
       id="paint10_linear_2_6"
       x1="206.483"
       y1="125.703"
       x2="211.755"
       y2="156.626"
       gradientUnits="userSpaceOnUse">
      <stop
         stop-color="#68E1FD"
         id="stop170" />
      <stop
         offset="0.2"
         stop-color="#5DB4CF"
         id="stop172" />
      <stop
         offset="0.46"
         stop-color="#50819B"
         id="stop174" />
      <stop
         offset="0.69"
         stop-color="#475C76"
         id="stop176" />
      <stop
         offset="0.87"
         stop-color="#41455E"
         id="stop178" />
      <stop
         offset="0.99"
         stop-color="#3F3D56"
         id="stop180" />
    </linearGradient>
    <linearGradient
       id="paint11_linear_2_6"
       x1="171.913"
       y1="142.503"
       x2="171.815"
       y2="155.826"
       gradientUnits="userSpaceOnUse">
      <stop
         stop-color="#68E1FD"
         id="stop183" />
      <stop
         offset="0.2"
         stop-color="#5DB4CF"
         id="stop185" />
      <stop
         offset="0.46"
         stop-color="#50819B"
         id="stop187" />
      <stop
         offset="0.69"
         stop-color="#475C76"
         id="stop189" />
      <stop
         offset="0.87"
         stop-color="#41455E"
         id="stop191" />
      <stop
         offset="0.99"
         stop-color="#3F3D56"
         id="stop193" />
    </linearGradient>
    <linearGradient
       id="paint12_linear_2_6"
       x1="59.3876"
       y1="256.106"
       x2="29.3381"
       y2="257.252"
       gradientUnits="userSpaceOnUse">
      <stop
         id="stop196" />
      <stop
         offset="0.99"
         stop-opacity="0"
         id="stop198" />
    </linearGradient>
    <linearGradient
       id="paint13_linear_2_6"
       x1="63.9572"
       y1="242.311"
       x2="39.0598"
       y2="243.169"
       gradientUnits="userSpaceOnUse">
      <stop
         id="stop201" />
      <stop
         offset="0.99"
         stop-opacity="0"
         id="stop203" />
    </linearGradient>
    <linearGradient
       id="paint14_linear_2_6"
       x1="40.1266"
       y1="221.072"
       x2="27.5236"
       y2="281.763"
       gradientUnits="userSpaceOnUse">
      <stop
         id="stop206" />
      <stop
         offset="0.99"
         stop-opacity="0"
         id="stop208" />
    </linearGradient>
    <linearGradient
       id="paint15_linear_2_6"
       x1="34.4324"
       y1="235.254"
       x2="9.06199"
       y2="119.597"
       gradientUnits="userSpaceOnUse">
      <stop
         id="stop211" />
      <stop
         offset="0.99"
         stop-opacity="0"
         id="stop213" />
    </linearGradient>
    <linearGradient
       id="paint16_linear_2_6"
       x1="35.8504"
       y1="237.571"
       x2="32.8876"
       y2="224.057"
       gradientUnits="userSpaceOnUse">
      <stop
         id="stop216" />
      <stop
         offset="0.99"
         stop-opacity="0"
         id="stop218" />
    </linearGradient>
    <linearGradient
       id="paint17_linear_2_6"
       x1="32.2987"
       y1="243.605"
       x2="60.7601"
       y2="146.209"
       gradientUnits="userSpaceOnUse">
      <stop
         id="stop221" />
      <stop
         offset="0.99"
         stop-opacity="0"
         id="stop223" />
    </linearGradient>
    <linearGradient
       id="paint18_linear_2_6"
       x1="149.362"
       y1="52.9101"
       x2="176.354"
       y2="52.9101"
       gradientUnits="userSpaceOnUse">
      <stop
         stop-color="#ECC4D7"
         id="stop226" />
      <stop
         offset="0.42"
         stop-color="#EFD4D1"
         id="stop228" />
      <stop
         offset="1"
         stop-color="#F2EAC9"
         id="stop230" />
    </linearGradient>
    <linearGradient
       id="paint19_linear_2_6"
       x1="154.843"
       y1="146.617"
       x2="179.936"
       y2="146.617"
       gradientUnits="userSpaceOnUse">
      <stop
         stop-color="#ECC4D7"
         id="stop233" />
      <stop
         offset="0.42"
         stop-color="#EFD4D1"
         id="stop235" />
      <stop
         offset="1"
         stop-color="#F2EAC9"
         id="stop237" />
    </linearGradient>
    <linearGradient
       id="paint20_linear_2_6"
       x1="191.614"
       y1="138.523"
       x2="211.622"
       y2="138.523"
       gradientUnits="userSpaceOnUse">
      <stop
         stop-color="#ECC4D7"
         id="stop240" />
      <stop
         offset="0.42"
         stop-color="#EFD4D1"
         id="stop242" />
      <stop
         offset="1"
         stop-color="#F2EAC9"
         id="stop244" />
    </linearGradient>
    <linearGradient
       id="paint21_linear_2_6"
       x1="324.827"
       y1="117.765"
       x2="213.781"
       y2="44.2797"
       gradientUnits="userSpaceOnUse">
      <stop
         id="stop247" />
      <stop
         offset="0.99"
         stop-opacity="0"
         id="stop249" />
    </linearGradient>
    <linearGradient
       id="paint22_linear_2_6"
       x1="305.797"
       y1="157.401"
       x2="228.595"
       y2="85.4396"
       gradientUnits="userSpaceOnUse">
      <stop
         id="stop252" />
      <stop
         offset="0.99"
         stop-opacity="0"
         id="stop254" />
    </linearGradient>
    <linearGradient
       id="paint23_linear_2_6"
       x1="176.162"
       y1="232.208"
       x2="175.416"
       y2="232.456"
       gradientUnits="userSpaceOnUse">
      <stop
         id="stop257" />
      <stop
         offset="0.99"
         stop-opacity="0"
         id="stop259" />
    </linearGradient>
    <clipPath
       id="clip0_2_6">
      <rect
         width="323"
         height="266"
         fill="white"
         id="rect262" />
    </clipPath>
  </defs>
</svg>
